<?xml version="1.0" encoding="UTF-8" standalone="no"?>
<!DOCTYPE svg PUBLIC "-//W3C//DTD SVG 1.1//EN"
 "http://www.w3.org/Graphics/SVG/1.1/DTD/svg11.dtd">
<!-- Generated by graphviz version 15.1.1 (20260805.0921)
 -->
<!-- This file was generated by MAM-basics/py/main_tmpl_survey.py. -->
<!-- Title: template_call_graph Pages: 1 -->
<svg width="472pt" height="171pt"
 viewBox="0.00 0.00 472.00 171.00" xmlns="http://www.w3.org/2000/svg" xmlns:xlink="http://www.w3.org/1999/xlink">
<g id="graph0" class="graph" transform="scale(1 1) rotate(0) translate(4 167.25)">
<title>template_call_graph</title>
<polygon fill="white" stroke="none" points="-4,4 -4,-167.25 467.5,-167.25 467.5,4 -4,4"/>
<text xml:space="preserve" text-anchor="middle" x="231.75" y="-5.75" font-family="Times New Roman,serif" font-size="10.00">מ:כפול, נוסח have been discarded</text>
<!-- מ:דחי -->
<g id="node1" class="node">
<title>מ:דחי</title>
<polygon fill="#ffec8b" stroke="black" stroke-width="2.5" points="184.75,-109.25 130.75,-109.25 130.75,-73.25 184.75,-73.25 184.75,-109.25"/>
<text xml:space="preserve" text-anchor="middle" x="157.75" y="-87.72" font-family="SBL Hebrew,Helvetica" font-size="12.00">מ:דחי</text>
</g>
<!-- מ:אות&#45;מיוחדת&#45;במילה -->
<g id="node3" class="node">
<title>מ:אות&#45;מיוחדת&#45;במילה</title>
<polygon fill="none" stroke="black" points="361.25,-109.25 231.25,-109.25 231.25,-73.25 361.25,-73.25 361.25,-109.25"/>
<text xml:space="preserve" text-anchor="middle" x="296.25" y="-87.72" font-family="SBL Hebrew,Helvetica" font-size="12.00">מ:אות&#45;מיוחדת&#45;במילה</text>
</g>
<!-- מ:דחי&#45;&gt;מ:אות&#45;מיוחדת&#45;במילה -->
<g id="edge4" class="edge">
<title>מ:דחי&#45;&gt;מ:אות&#45;מיוחדת&#45;במילה</title>
<path fill="none" stroke="black" d="M185.72,-91.25C195.71,-91.25 207.6,-91.25 219.79,-91.25"/>
<polygon fill="black" stroke="black" points="219.52,-94.75 229.52,-91.25 219.52,-87.75 219.52,-94.75"/>
<text xml:space="preserve" text-anchor="middle" x="208" y="-93.2" font-family="Helvetica,sans-Serif" font-size="9.00">12</text>
</g>
<!-- כו״ק -->
<g id="node2" class="node">
<title>כו״ק</title>
<polygon fill="none" stroke="black" points="69.12,-163.25 15.12,-163.25 15.12,-127.25 69.12,-127.25 69.12,-163.25"/>
<text xml:space="preserve" text-anchor="middle" x="42.12" y="-141.72" font-family="SBL Hebrew,Helvetica" font-size="12.00">כו״ק</text>
</g>
<!-- כו״ק&#45;&gt;מ:דחי -->
<g id="edge1" class="edge">
<title>כו״ק&#45;&gt;מ:דחי</title>
<path fill="none" stroke="black" d="M69.48,-132.73C84.32,-125.67 103.1,-116.75 119.44,-108.98"/>
<polygon fill="black" stroke="black" points="120.85,-112.18 128.38,-104.73 117.85,-105.86 120.85,-112.18"/>
<text xml:space="preserve" text-anchor="middle" x="107.5" y="-118.58" font-family="Helvetica,sans-Serif" font-size="9.00">7</text>
</g>
<!-- מ:אות&#45;ג -->
<g id="node4" class="node">
<title>מ:אות&#45;ג</title>
<polygon fill="none" stroke="black" points="462.38,-136.25 403.62,-136.25 403.62,-100.25 462.38,-100.25 462.38,-136.25"/>
<text xml:space="preserve" text-anchor="middle" x="433" y="-114.72" font-family="SBL Hebrew,Helvetica" font-size="12.00">מ:אות&#45;ג</text>
</g>
<!-- מ:אות&#45;מיוחדת&#45;במילה&#45;&gt;מ:אות&#45;ג -->
<g id="edge2" class="edge">
<title>מ:אות&#45;מיוחדת&#45;במילה&#45;&gt;מ:אות&#45;ג</title>
<path fill="none" stroke="black" d="M361.47,-104.12C371.88,-106.2 382.39,-108.31 392,-110.24"/>
<polygon fill="black" stroke="black" points="391.24,-113.65 401.73,-112.19 392.62,-106.79 391.24,-113.65"/>
<text xml:space="preserve" text-anchor="middle" x="381.88" y="-109.91" font-family="Helvetica,sans-Serif" font-size="9.00">4</text>
</g>
<!-- מ:אות&#45;ק -->
<g id="node5" class="node">
<title>מ:אות&#45;ק</title>
<polygon fill="none" stroke="black" points="463.5,-82.25 402.5,-82.25 402.5,-46.25 463.5,-46.25 463.5,-82.25"/>
<text xml:space="preserve" text-anchor="middle" x="433" y="-60.73" font-family="SBL Hebrew,Helvetica" font-size="12.00">מ:אות&#45;ק</text>
</g>
<!-- מ:אות&#45;מיוחדת&#45;במילה&#45;&gt;מ:אות&#45;ק -->
<g id="edge3" class="edge">
<title>מ:אות&#45;מיוחדת&#45;במילה&#45;&gt;מ:אות&#45;ק</title>
<path fill="none" stroke="black" d="M361.47,-78.38C371.59,-76.35 381.8,-74.31 391.2,-72.43"/>
<polygon fill="black" stroke="black" points="391.59,-75.92 400.7,-70.52 390.21,-69.05 391.59,-75.92"/>
<text xml:space="preserve" text-anchor="middle" x="381.88" y="-76.49" font-family="Helvetica,sans-Serif" font-size="9.00">2</text>
</g>
<!-- מ:קו״כ&#45;אם&#45;2 -->
<g id="node6" class="node">
<title>מ:קו״כ&#45;אם&#45;2</title>
<polygon fill="none" stroke="black" points="84.25,-109.25 0,-109.25 0,-73.25 84.25,-73.25 84.25,-109.25"/>
<text xml:space="preserve" text-anchor="middle" x="42.12" y="-87.72" font-family="SBL Hebrew,Helvetica" font-size="12.00">מ:קו״כ&#45;אם&#45;2</text>
</g>
<!-- מ:קו״כ&#45;אם&#45;2&#45;&gt;מ:דחי -->
<g id="edge5" class="edge">
<title>מ:קו״כ&#45;אם&#45;2&#45;&gt;מ:דחי</title>
<path fill="none" stroke="black" d="M84.47,-91.25C95.56,-91.25 107.5,-91.25 118.42,-91.25"/>
<polygon fill="black" stroke="black" points="118.27,-94.75 128.27,-91.25 118.26,-87.75 118.27,-94.75"/>
<text xml:space="preserve" text-anchor="middle" x="107.5" y="-93.2" font-family="Helvetica,sans-Serif" font-size="9.00">8</text>
</g>
<!-- מ:קמץ -->
<g id="node7" class="node">
<title>מ:קמץ</title>
<polygon fill="none" stroke="black" points="69.12,-55.25 15.12,-55.25 15.12,-19.25 69.12,-19.25 69.12,-55.25"/>
<text xml:space="preserve" text-anchor="middle" x="42.12" y="-33.73" font-family="SBL Hebrew,Helvetica" font-size="12.00">מ:קמץ</text>
</g>
<!-- מ:קמץ&#45;&gt;מ:דחי -->
<g id="edge6" class="edge">
<title>מ:קמץ&#45;&gt;מ:דחי</title>
<path fill="none" stroke="black" d="M69.48,-49.77C84.32,-56.83 103.1,-65.75 119.44,-73.52"/>
<polygon fill="black" stroke="black" points="117.85,-76.64 128.38,-77.77 120.85,-70.32 117.85,-76.64"/>
<text xml:space="preserve" text-anchor="middle" x="107.5" y="-71.04" font-family="Helvetica,sans-Serif" font-size="9.00">14</text>
</g>
</g>
</svg>
