<?xml version="1.0" encoding="UTF-8" standalone="no"?>
<!DOCTYPE svg PUBLIC "-//W3C//DTD SVG 1.1//EN"
 "http://www.w3.org/Graphics/SVG/1.1/DTD/svg11.dtd">
<!-- Generated by graphviz version 14.1.2 (20260124.0452)
 -->
<!-- This file was generated by MAM-basics/py/main_tmpl_survey.py. -->
<!-- Title: template_call_graph Pages: 1 -->
<svg width="585pt" height="380pt"
 viewBox="0.00 0.00 585.00 380.00" xmlns="http://www.w3.org/2000/svg" xmlns:xlink="http://www.w3.org/1999/xlink">
<g id="graph0" class="graph" transform="scale(1 1) rotate(0) translate(4 376.25)">
<title>template_call_graph</title>
<polygon fill="white" stroke="none" points="-4,4 -4,-376.25 581,-376.25 581,4 -4,4"/>
<text xml:space="preserve" text-anchor="middle" x="288.5" y="-5.75" font-family="Times New Roman,serif" font-size="10.00">מ:כפול, מ:קישור בהערה, מ:קישור פנימי בהערה, מודגש, נוסח, ש have been discarded</text>
<!-- מ:אות תלויה, … -->
<g id="node1" class="node">
<title>מ:אות תלויה, …</title>
<g id="a_node1"><a xlink:title="מ:אות תלויה&#10;מ:אות&#45;ג&#10;מ:אות&#45;ק">
<polygon fill="none" stroke="black" points="577,-372.25 492,-372.25 492,-336.25 577,-336.25 577,-372.25"/>
<text xml:space="preserve" text-anchor="middle" x="534.5" y="-349.23" font-family="SBL Hebrew,Helvetica" font-size="12.00">מ:אות תלויה, …</text>
</a>
</g>
</g>
<!-- כו״ק -->
<g id="node2" class="node">
<title>כו״ק</title>
<polygon fill="none" stroke="black" points="63.5,-287.25 9.5,-287.25 9.5,-251.25 63.5,-251.25 63.5,-287.25"/>
<text xml:space="preserve" text-anchor="middle" x="36.5" y="-264.23" font-family="SBL Hebrew,Helvetica" font-size="12.00">כו״ק</text>
</g>
<!-- מ:אות&#45;מיוחדת&#45;במילה -->
<g id="node3" class="node">
<title>מ:אות&#45;מיוחדת&#45;במילה</title>
<polygon fill="none" stroke="black" points="445.5,-365.25 335.75,-365.25 335.75,-329.25 445.5,-329.25 445.5,-365.25"/>
<text xml:space="preserve" text-anchor="middle" x="390.62" y="-342.23" font-family="SBL Hebrew,Helvetica" font-size="12.00">מ:אות&#45;מיוחדת&#45;במילה</text>
</g>
<!-- כו״ק&#45;&gt;מ:אות&#45;מיוחדת&#45;במילה -->
<g id="edge1" class="edge">
<title>כו״ק&#45;&gt;מ:אות&#45;מיוחדת&#45;במילה</title>
<path fill="none" stroke="black" d="M63.99,-281.73C98.88,-297.52 162.54,-324.11 220,-336.25 253.94,-343.42 292.48,-346.33 324.24,-347.37"/>
<polygon fill="black" stroke="black" points="324.01,-350.87 334.1,-347.64 324.2,-343.87 324.01,-350.87"/>
<text xml:space="preserve" text-anchor="middle" x="196.75" y="-333.56" font-family="Helvetica,sans-Serif" font-size="9.00">2</text>
</g>
<!-- מ:דחי -->
<g id="node4" class="node">
<title>מ:דחי</title>
<polygon fill="none" stroke="black" points="281.62,-216.25 227.62,-216.25 227.62,-180.25 281.62,-180.25 281.62,-216.25"/>
<text xml:space="preserve" text-anchor="middle" x="254.62" y="-193.22" font-family="SBL Hebrew,Helvetica" font-size="12.00">מ:דחי</text>
</g>
<!-- כו״ק&#45;&gt;מ:דחי -->
<g id="edge2" class="edge">
<title>כו״ק&#45;&gt;מ:דחי</title>
<path fill="none" stroke="black" d="M63.57,-260.69C101.78,-248.13 173.18,-224.68 216.76,-210.36"/>
<polygon fill="black" stroke="black" points="217.62,-213.76 226.02,-207.32 215.43,-207.11 217.62,-213.76"/>
<text xml:space="preserve" text-anchor="middle" x="146.5" y="-243.92" font-family="Helvetica,sans-Serif" font-size="9.00">7</text>
</g>
<!-- מ:לגרמיה&#45;2 -->
<g id="node5" class="node">
<title>מ:לגרמיה&#45;2</title>
<polygon fill="none" stroke="black" points="568.38,-265.25 500.62,-265.25 500.62,-229.25 568.38,-229.25 568.38,-265.25"/>
<text xml:space="preserve" text-anchor="middle" x="534.5" y="-242.22" font-family="SBL Hebrew,Helvetica" font-size="12.00">מ:לגרמיה&#45;2</text>
</g>
<!-- כו״ק&#45;&gt;מ:לגרמיה&#45;2 -->
<g id="edge3" class="edge">
<title>כו״ק&#45;&gt;מ:לגרמיה&#45;2</title>
<path fill="none" stroke="black" d="M63.67,-265.85C79.75,-263.89 100.79,-261.57 119.5,-260.25 253.64,-250.8 412.71,-248.22 488.71,-247.51"/>
<polygon fill="black" stroke="black" points="488.7,-251.01 498.67,-247.43 488.64,-244.01 488.7,-251.01"/>
<text xml:space="preserve" text-anchor="middle" x="254.62" y="-256.33" font-family="Helvetica,sans-Serif" font-size="9.00">9</text>
</g>
<!-- מ:קמץ -->
<g id="node6" class="node">
<title>מ:קמץ</title>
<polygon fill="none" stroke="black" points="173.5,-164.25 119.5,-164.25 119.5,-128.25 173.5,-128.25 173.5,-164.25"/>
<text xml:space="preserve" text-anchor="middle" x="146.5" y="-141.22" font-family="SBL Hebrew,Helvetica" font-size="12.00">מ:קמץ</text>
</g>
<!-- כו״ק&#45;&gt;מ:קמץ -->
<g id="edge4" class="edge">
<title>כו״ק&#45;&gt;מ:קמץ</title>
<path fill="none" stroke="black" d="M53.67,-250.84C71.83,-230.16 101.45,-196.41 122.13,-172.87"/>
<polygon fill="black" stroke="black" points="124.61,-175.35 128.57,-165.53 119.35,-170.73 124.61,-175.35"/>
<text xml:space="preserve" text-anchor="middle" x="96.25" y="-209.7" font-family="Helvetica,sans-Serif" font-size="9.00">10</text>
</g>
<!-- מ:אות&#45;מיוחדת&#45;במילה&#45;&gt;מ:אות תלויה, … -->
<g id="edge5" class="edge">
<title>מ:אות&#45;מיוחדת&#45;במילה&#45;&gt;מ:אות תלויה, …</title>
<path fill="none" stroke="black" d="M445.67,-349.92C456.94,-350.47 468.82,-351.06 480.07,-351.61"/>
<polygon fill="black" stroke="black" points="479.85,-355.11 490.01,-352.1 480.2,-348.12 479.85,-355.11"/>
<text xml:space="preserve" text-anchor="middle" x="468.75" y="-353.12" font-family="Helvetica,sans-Serif" font-size="9.00">97</text>
</g>
<!-- מ:אות&#45;מיוחדת&#45;במילה&#45;&gt;מ:לגרמיה&#45;2 -->
<g id="edge6" class="edge">
<title>מ:אות&#45;מיוחדת&#45;במילה&#45;&gt;מ:לגרמיה&#45;2</title>
<path fill="none" stroke="black" d="M431.06,-328.81C436.02,-326.11 440.95,-323.22 445.5,-320.25 466.87,-306.29 488.97,-287.94 505.68,-273.13"/>
<polygon fill="black" stroke="black" points="507.67,-276.05 512.77,-266.76 502.99,-270.84 507.67,-276.05"/>
<text xml:space="preserve" text-anchor="middle" x="468.75" y="-307.78" font-family="Helvetica,sans-Serif" font-size="9.00">4</text>
</g>
<!-- מ:דחי&#45;&gt;מ:אות&#45;מיוחדת&#45;במילה -->
<g id="edge7" class="edge">
<title>מ:דחי&#45;&gt;מ:אות&#45;מיוחדת&#45;במילה</title>
<path fill="none" stroke="black" d="M277.02,-216.54C281.35,-220.79 285.67,-225.48 289.25,-230.25 316.26,-266.27 303.72,-288.61 335.75,-320.25 336.35,-320.84 336.97,-321.42 337.6,-322"/>
<polygon fill="black" stroke="black" points="335.2,-324.57 345.25,-327.92 339.48,-319.03 335.2,-324.57"/>
<text xml:space="preserve" text-anchor="middle" x="312.5" y="-297.31" font-family="Helvetica,sans-Serif" font-size="9.00">12</text>
</g>
<!-- מ:קמץ&#45;&gt;מ:דחי -->
<g id="edge14" class="edge">
<title>מ:קמץ&#45;&gt;מ:דחי</title>
<path fill="none" stroke="black" d="M173.73,-159.1C186.87,-165.54 202.99,-173.44 217.3,-180.45"/>
<polygon fill="black" stroke="black" points="215.45,-183.44 225.97,-184.7 218.53,-177.15 215.45,-183.44"/>
<text xml:space="preserve" text-anchor="middle" x="196.75" y="-174.2" font-family="Helvetica,sans-Serif" font-size="9.00">14</text>
</g>
<!-- מ:מקף אפור -->
<g id="node11" class="node">
<title>מ:מקף אפור</title>
<polygon fill="none" stroke="black" points="289.25,-162.25 220,-162.25 220,-126.25 289.25,-126.25 289.25,-162.25"/>
<text xml:space="preserve" text-anchor="middle" x="254.62" y="-139.22" font-family="SBL Hebrew,Helvetica" font-size="12.00">מ:מקף אפור</text>
</g>
<!-- מ:קמץ&#45;&gt;מ:מקף אפור -->
<g id="edge15" class="edge">
<title>מ:קמץ&#45;&gt;מ:מקף אפור</title>
<path fill="none" stroke="black" d="M173.55,-144.52C179.45,-144.2 185.69,-143.91 191.5,-143.75 196.94,-143.6 202.65,-143.52 208.31,-143.5"/>
<polygon fill="black" stroke="black" points="208.24,-147 218.25,-143.53 208.26,-140 208.24,-147"/>
<text xml:space="preserve" text-anchor="middle" x="196.75" y="-145.7" font-family="Helvetica,sans-Serif" font-size="9.00">2</text>
</g>
<!-- מ:הערה&#45;2 -->
<g id="node7" class="node">
<title>מ:הערה&#45;2</title>
<polygon fill="none" stroke="black" points="285.12,-327.25 224.12,-327.25 224.12,-291.25 285.12,-291.25 285.12,-327.25"/>
<text xml:space="preserve" text-anchor="middle" x="254.62" y="-304.23" font-family="SBL Hebrew,Helvetica" font-size="12.00">מ:הערה&#45;2</text>
</g>
<!-- מ:הערה&#45;2&#45;&gt;מ:אות&#45;מיוחדת&#45;במילה -->
<g id="edge8" class="edge">
<title>מ:הערה&#45;2&#45;&gt;מ:אות&#45;מיוחדת&#45;במילה</title>
<path fill="none" stroke="black" d="M285.36,-317.68C296.98,-320.98 310.8,-324.9 324.51,-328.78"/>
<polygon fill="black" stroke="black" points="323.4,-332.11 333.98,-331.47 325.31,-325.37 323.4,-332.11"/>
<text xml:space="preserve" text-anchor="middle" x="312.5" y="-327.92" font-family="Helvetica,sans-Serif" font-size="9.00">18</text>
</g>
<!-- מ:כו״ק מיוחד -->
<g id="node8" class="node">
<title>מ:כו״ק מיוחד</title>
<polygon fill="none" stroke="black" points="427.88,-62.25 353.38,-62.25 353.38,-26.25 427.88,-26.25 427.88,-62.25"/>
<text xml:space="preserve" text-anchor="middle" x="390.62" y="-39.23" font-family="SBL Hebrew,Helvetica" font-size="12.00">מ:כו״ק מיוחד</text>
</g>
<!-- מ:כו״ק מיוחד&#45;&gt;מ:לגרמיה&#45;2 -->
<g id="edge9" class="edge">
<title>מ:כו״ק מיוחד&#45;&gt;מ:לגרמיה&#45;2</title>
<path fill="none" stroke="black" d="M428.31,-49.54C444.16,-53.54 461.83,-60.52 474,-72.75 513.43,-112.36 526.75,-179.11 531.24,-217.56"/>
<polygon fill="black" stroke="black" points="527.75,-217.88 532.25,-227.47 534.72,-217.16 527.75,-217.88"/>
<text xml:space="preserve" text-anchor="middle" x="468.75" y="-74.7" font-family="Helvetica,sans-Serif" font-size="9.00">1</text>
</g>
<!-- מ:פסק -->
<g id="node9" class="node">
<title>מ:פסק</title>
<polygon fill="none" stroke="black" points="561.5,-55.25 507.5,-55.25 507.5,-19.25 561.5,-19.25 561.5,-55.25"/>
<text xml:space="preserve" text-anchor="middle" x="534.5" y="-32.23" font-family="SBL Hebrew,Helvetica" font-size="12.00">מ:פסק</text>
</g>
<!-- מ:כו״ק מיוחד&#45;&gt;מ:פסק -->
<g id="edge10" class="edge">
<title>מ:כו״ק מיוחד&#45;&gt;מ:פסק</title>
<path fill="none" stroke="black" d="M428.17,-41.06C439.48,-40.18 452,-39.31 463.5,-38.75 474,-38.24 485.39,-37.9 495.87,-37.68"/>
<polygon fill="black" stroke="black" points="495.78,-41.18 505.71,-37.5 495.65,-34.18 495.78,-41.18"/>
<text xml:space="preserve" text-anchor="middle" x="468.75" y="-40.7" font-family="Helvetica,sans-Serif" font-size="9.00">5</text>
</g>
<!-- מ:קו״כ&#45;אם&#45;2 -->
<g id="node10" class="node">
<title>מ:קו״כ&#45;אם&#45;2</title>
<polygon fill="none" stroke="black" points="73,-160.25 0,-160.25 0,-124.25 73,-124.25 73,-160.25"/>
<text xml:space="preserve" text-anchor="middle" x="36.5" y="-137.22" font-family="SBL Hebrew,Helvetica" font-size="12.00">מ:קו״כ&#45;אם&#45;2</text>
</g>
<!-- מ:קו״כ&#45;אם&#45;2&#45;&gt;מ:דחי -->
<g id="edge11" class="edge">
<title>מ:קו״כ&#45;אם&#45;2&#45;&gt;מ:דחי</title>
<path fill="none" stroke="black" d="M52.9,-160.36C62.68,-170.49 76.25,-182.26 91,-188.25 131.32,-204.63 181.92,-204.93 215.88,-202.57"/>
<polygon fill="black" stroke="black" points="215.96,-206.07 225.64,-201.76 215.39,-199.09 215.96,-206.07"/>
<text xml:space="preserve" text-anchor="middle" x="146.5" y="-205.36" font-family="Helvetica,sans-Serif" font-size="9.00">8</text>
</g>
<!-- מ:קו״כ&#45;אם&#45;2&#45;&gt;מ:לגרמיה&#45;2 -->
<g id="edge12" class="edge">
<title>מ:קו״כ&#45;אם&#45;2&#45;&gt;מ:לגרמיה&#45;2</title>
<path fill="none" stroke="black" d="M64.63,-123.95C85.73,-111.49 116.25,-97.25 145.5,-97.25 145.5,-97.25 145.5,-97.25 391.62,-97.25 457.57,-97.25 502.01,-174.73 521.79,-218.32"/>
<polygon fill="black" stroke="black" points="518.58,-219.71 525.79,-227.47 524.99,-216.91 518.58,-219.71"/>
<text xml:space="preserve" text-anchor="middle" x="254.62" y="-99.2" font-family="Helvetica,sans-Serif" font-size="9.00">2</text>
</g>
<!-- מ:קו״כ&#45;אם&#45;2&#45;&gt;מ:קמץ -->
<g id="edge13" class="edge">
<title>מ:קו״כ&#45;אם&#45;2&#45;&gt;מ:קמץ</title>
<path fill="none" stroke="black" d="M73.39,-142.88C82.55,-143.1 92.39,-143.38 101.5,-143.75 103.68,-143.84 105.92,-143.94 108.18,-144.04"/>
<polygon fill="black" stroke="black" points="107.77,-147.53 117.94,-144.55 108.13,-140.54 107.77,-147.53"/>
<text xml:space="preserve" text-anchor="middle" x="96.25" y="-145.7" font-family="Helvetica,sans-Serif" font-size="9.00">2</text>
</g>
<!-- קו״כ -->
<g id="node12" class="node">
<title>קו״כ</title>
<polygon fill="none" stroke="black" points="417.62,-311.25 363.62,-311.25 363.62,-275.25 417.62,-275.25 417.62,-311.25"/>
<text xml:space="preserve" text-anchor="middle" x="390.62" y="-288.23" font-family="SBL Hebrew,Helvetica" font-size="12.00">קו״כ</text>
</g>
<!-- קו״כ&#45;&gt;מ:לגרמיה&#45;2 -->
<g id="edge16" class="edge">
<title>קו״כ&#45;&gt;מ:לגרמיה&#45;2</title>
<path fill="none" stroke="black" d="M417.98,-284.71C438.04,-278.2 466.1,-269.1 489.55,-261.5"/>
<polygon fill="black" stroke="black" points="490.41,-264.9 498.85,-258.49 488.25,-258.24 490.41,-264.9"/>
<text xml:space="preserve" text-anchor="middle" x="468.75" y="-270.82" font-family="Helvetica,sans-Serif" font-size="9.00">1</text>
</g>
</g>
</svg>
