<?xml version="1.0" encoding="UTF-8" standalone="no"?>
<!DOCTYPE svg PUBLIC "-//W3C//DTD SVG 1.1//EN"
 "http://www.w3.org/Graphics/SVG/1.1/DTD/svg11.dtd">
<!-- Generated by graphviz version 15.1.1 (20260805.0921)
 -->
<!-- This file was generated by MAM-basics/py/main_tmpl_survey.py. -->
<!-- Title: template_call_graph Pages: 1 -->
<svg width="275pt" height="98pt"
 viewBox="0.00 0.00 275.00 98.00" xmlns="http://www.w3.org/2000/svg" xmlns:xlink="http://www.w3.org/1999/xlink">
<g id="graph0" class="graph" transform="scale(1 1) rotate(0) translate(4 94)">
<title>template_call_graph</title>
<polygon fill="white" stroke="none" points="-4,4 -4,-94 270.75,-94 270.75,4 -4,4"/>
<!-- מ:פסוק -->
<g id="node1" class="node">
<title>מ:פסוק</title>
<polygon fill="none" stroke="black" points="157,-90 100.5,-90 100.5,-54 157,-54 157,-90"/>
<text xml:space="preserve" text-anchor="middle" x="128.75" y="-68.47" font-family="SBL Hebrew,Helvetica" font-size="12.00">מ:פסוק</text>
</g>
<!-- מ:עלייה -->
<g id="node2" class="node">
<title>מ:עלייה</title>
<polygon fill="none" stroke="black" points="266.75,-90 208.75,-90 208.75,-54 266.75,-54 266.75,-90"/>
<text xml:space="preserve" text-anchor="middle" x="237.75" y="-68.47" font-family="SBL Hebrew,Helvetica" font-size="12.00">מ:עלייה</text>
</g>
<!-- מ:פסוק&#45;&gt;מ:עלייה -->
<g id="edge1" class="edge">
<title>מ:פסוק&#45;&gt;מ:עלייה</title>
<path fill="none" stroke="black" d="M157.31,-72C169.47,-72 184,-72 197.28,-72"/>
<polygon fill="black" stroke="black" points="197.03,-75.5 207.03,-72 197.03,-68.5 197.03,-75.5"/>
<text xml:space="preserve" text-anchor="middle" x="182.88" y="-73.95" font-family="Helvetica,sans-Serif" font-size="9.00">532</text>
</g>
<!-- נוסח -->
<g id="node3" class="node">
<title>נוסח</title>
<polygon fill="none" stroke="black" points="54,-53 0,-53 0,-17 54,-17 54,-53"/>
<text xml:space="preserve" text-anchor="middle" x="27" y="-31.48" font-family="SBL Hebrew,Helvetica" font-size="12.00">נוסח</text>
</g>
<!-- נוסח&#45;&gt;מ:פסוק -->
<g id="edge2" class="edge">
<title>נוסח&#45;&gt;מ:פסוק</title>
<path fill="none" stroke="black" d="M54.47,-44.82C65.25,-48.82 77.92,-53.52 89.67,-57.87"/>
<polygon fill="black" stroke="black" points="88.1,-61.03 98.69,-61.22 90.53,-54.46 88.1,-61.03"/>
<text xml:space="preserve" text-anchor="middle" x="77.25" y="-56.56" font-family="Helvetica,sans-Serif" font-size="9.00">46</text>
</g>
<!-- ש -->
<g id="node4" class="node">
<title>ש</title>
<polygon fill="none" stroke="black" points="155.75,-36 101.75,-36 101.75,0 155.75,0 155.75,-36"/>
<text xml:space="preserve" text-anchor="middle" x="128.75" y="-14.47" font-family="SBL Hebrew,Helvetica" font-size="12.00">ש</text>
</g>
<!-- נוסח&#45;&gt;ש -->
<g id="edge3" class="edge">
<title>נוסח&#45;&gt;ש</title>
<path fill="none" stroke="black" d="M54.47,-30.49C65.49,-28.61 78.49,-26.4 90.45,-24.36"/>
<polygon fill="black" stroke="black" points="90.74,-27.86 100.01,-22.73 89.57,-20.96 90.74,-27.86"/>
<text xml:space="preserve" text-anchor="middle" x="77.25" y="-28.96" font-family="Helvetica,sans-Serif" font-size="9.00">1</text>
</g>
</g>
</svg>
