<?xml version="1.0" encoding="UTF-8" standalone="no"?>
<!DOCTYPE svg PUBLIC "-//W3C//DTD SVG 1.1//EN"
 "http://www.w3.org/Graphics/SVG/1.1/DTD/svg11.dtd">
<!-- Generated by graphviz version 15.1.1 (20260805.0921)
 -->
<!-- This file was generated by MAM-basics/py/main_tmpl_survey.py. -->
<!-- Title: template_call_graph Pages: 1 -->
<svg width="280pt" height="129pt"
 viewBox="0.00 0.00 280.00 129.00" xmlns="http://www.w3.org/2000/svg" xmlns:xlink="http://www.w3.org/1999/xlink">
<g id="graph0" class="graph" transform="scale(1 1) rotate(0) translate(4 125)">
<title>template_call_graph</title>
<polygon fill="white" stroke="none" points="-4,4 -4,-125 275.75,-125 275.75,4 -4,4"/>
<!-- סס, … -->
<g id="node1" class="node">
<title>סס, …</title>
<g id="a_node1"><a xlink:title="מ:אין פרשה בתחילת פרק&#10;מ:אין פרשה בתחילת פרק בספרי אמ״ת&#10;מ:קישור בהערה&#10;סס&#10;ססס&#10;פפפ&#10;ר1&#10;ר4&#10;ש">
<polygon fill="none" stroke="black" points="168.12,-121 114.12,-121 114.12,-85 168.12,-85 168.12,-121"/>
<text xml:space="preserve" text-anchor="middle" x="141.12" y="-99.47" font-family="SBL Hebrew,Helvetica" font-size="12.00">סס, …</text>
</a>
</g>
</g>
<!-- מ:הערה&#45;2 -->
<g id="node2" class="node">
<title>מ:הערה&#45;2</title>
<polygon fill="none" stroke="black" points="176.5,-67 105.75,-67 105.75,-31 176.5,-31 176.5,-67"/>
<text xml:space="preserve" text-anchor="middle" x="141.12" y="-45.48" font-family="SBL Hebrew,Helvetica" font-size="12.00">מ:הערה&#45;2</text>
</g>
<!-- פפ -->
<g id="node3" class="node">
<title>פפ</title>
<polygon fill="none" stroke="black" points="271.75,-36 217.75,-36 217.75,0 271.75,0 271.75,-36"/>
<text xml:space="preserve" text-anchor="middle" x="244.75" y="-14.47" font-family="SBL Hebrew,Helvetica" font-size="12.00">פפ</text>
</g>
<!-- מ:הערה&#45;2&#45;&gt;פפ -->
<g id="edge1" class="edge">
<title>מ:הערה&#45;2&#45;&gt;פפ</title>
<path fill="none" stroke="black" d="M176.81,-38.42C186.4,-35.49 196.85,-32.31 206.57,-29.34"/>
<polygon fill="black" stroke="black" points="207.57,-32.7 216.11,-26.43 205.52,-26 207.57,-32.7"/>
<text xml:space="preserve" text-anchor="middle" x="197.12" y="-34.52" font-family="Helvetica,sans-Serif" font-size="9.00">3</text>
</g>
<!-- נוסח -->
<g id="node4" class="node">
<title>נוסח</title>
<polygon fill="none" stroke="black" points="54,-67 0,-67 0,-31 54,-31 54,-67"/>
<text xml:space="preserve" text-anchor="middle" x="27" y="-45.48" font-family="SBL Hebrew,Helvetica" font-size="12.00">נוסח</text>
</g>
<!-- נוסח&#45;&gt;סס, … -->
<g id="edge3" class="edge">
<title>נוסח&#45;&gt;סס, …</title>
<path fill="none" stroke="black" d="M54.29,-61.66C69.05,-68.77 87.69,-77.75 103.83,-85.52"/>
<polygon fill="black" stroke="black" points="102.11,-88.58 112.64,-89.76 105.15,-82.27 102.11,-88.58"/>
<text xml:space="preserve" text-anchor="middle" x="79.88" y="-79.57" font-family="Helvetica,sans-Serif" font-size="9.00">141</text>
</g>
<!-- נוסח&#45;&gt;מ:הערה&#45;2 -->
<g id="edge2" class="edge">
<title>נוסח&#45;&gt;מ:הערה&#45;2</title>
<path fill="none" stroke="black" d="M54.29,-49C66.22,-49 80.69,-49 94.32,-49"/>
<polygon fill="black" stroke="black" points="93.99,-52.5 103.99,-49 93.99,-45.5 93.99,-52.5"/>
<text xml:space="preserve" text-anchor="middle" x="79.88" y="-50.95" font-family="Helvetica,sans-Serif" font-size="9.00">7</text>
</g>
<!-- נוסח&#45;&gt;פפ -->
<g id="edge4" class="edge">
<title>נוסח&#45;&gt;פפ</title>
<path fill="none" stroke="black" d="M54.25,-32.67C68.83,-24.57 87.63,-15.64 105.75,-11.5 139.1,-3.88 178.12,-6.77 206.15,-10.82"/>
<polygon fill="black" stroke="black" points="205.52,-14.26 215.94,-12.37 206.61,-7.35 205.52,-14.26"/>
<text xml:space="preserve" text-anchor="middle" x="141.12" y="-13.45" font-family="Helvetica,sans-Serif" font-size="9.00">94</text>
</g>
</g>
</svg>
