<?xml version="1.0" encoding="UTF-8" standalone="no"?>
<!DOCTYPE svg PUBLIC "-//W3C//DTD SVG 1.1//EN"
 "http://www.w3.org/Graphics/SVG/1.1/DTD/svg11.dtd">
<!-- Generated by graphviz version 14.1.2 (20260124.0452)
 -->
<!-- This file was generated by MAM-basics/py/main_tmpl_survey.py. -->
<!-- Title: template_call_graph_templates_as_edges Pages: 1 -->
<svg width="730pt" height="966pt"
 viewBox="0.00 0.00 730.00 966.00" xmlns="http://www.w3.org/2000/svg" xmlns:xlink="http://www.w3.org/1999/xlink">
<g id="graph0" class="graph" transform="scale(1 1) rotate(0) translate(4 962.28)">
<title>template_call_graph_templates_as_edges</title>
<polygon fill="white" stroke="none" points="-4,4 -4,-962.28 725.7,-962.28 725.7,4 -4,4"/>
<text xml:space="preserve" text-anchor="middle" x="360.85" y="-5.75" font-family="Times New Roman,serif" font-size="10.00">מ:כפול, מ:קישור בהערה, מ:קישור פנימי בהערה, מודגש, נוסח, ש have been discarded</text>
<!-- C -->
<g id="node1" class="node">
<title>C</title>
<polygon fill="none" stroke="black" stroke-width="2" points="54,-55.25 0,-55.25 0,-19.25 54,-19.25 54,-55.25"/>
<text xml:space="preserve" text-anchor="middle" x="27" y="-32.23" font-family="SBL Hebrew,Helvetica" font-size="12.00">C</text>
</g>
<!-- C::stack::מ:הערה&#45;2 -->
<g id="node4" class="node">
<title>C::stack::מ:הערה&#45;2</title>
<g id="a_node4"><a xlink:title="C/מ:הערה&#45;2">
<ellipse fill="none" stroke="black" cx="235.88" cy="-60.25" rx="6.48" ry="6.48"/>
</a>
</g>
</g>
<!-- C&#45;&gt;C::stack::מ:הערה&#45;2 -->
<g id="edge1" class="edge">
<title>C&#45;&gt;C::stack::מ:הערה&#45;2</title>
<path fill="none" stroke="black" d="M54.2,-40.16C97.2,-44.94 181.57,-54.32 217.74,-58.35"/>
<polygon fill="black" stroke="black" points="217.23,-61.81 227.56,-59.44 218,-54.85 217.23,-61.81"/>
<text xml:space="preserve" text-anchor="middle" x="97.88" y="-48.57" font-family="SBL Hebrew,Helvetica" font-size="9.00">מ:הערה&#45;2 (3)</text>
</g>
<!-- C::stack&#45;end -->
<g id="node17" class="node">
<title>C::stack&#45;end</title>
<g id="a_node17"><a xlink:title="Stack end for C">
<ellipse fill="none" stroke="black" cx="556.12" cy="-54.25" rx="12.6" ry="12.6"/>
<ellipse fill="none" stroke="black" cx="556.12" cy="-54.25" rx="16.6" ry="16.6"/>
<text xml:space="preserve" text-anchor="middle" x="556.12" y="-49.23" font-family="SBL Hebrew,Helvetica" font-size="12.00">C end</text>
</a>
</g>
</g>
<!-- C&#45;&gt;C::stack&#45;end -->
<g id="edge39" class="edge">
<title>C&#45;&gt;C::stack&#45;end</title>
<g id="a_edge39"><a xlink:title="מ:אין פרשה בתחילת פרק (139) | מ:אין פרשה בתחילת פרק בספרי אמ״ת (33) | מ:אין רווח של פרשה בתחילת פרשת השבוע (1) | מ:הערה&#45;2 (4) | מ:ספר חדש (24) | מ:רווח בתרי עשר בפסוק הראשון (12) | מ:רווח לספר בתהלים בפסוק הראשון (5) | מ:ששש (100) | סס (1513) | ססס (324) | פפ (1541) | פפפ (3) | ר1 (2) | ר4 (4269)">
<path fill="none" stroke="black" d="M54.2,-36.73C77.26,-36.3 111.73,-35.73 141.75,-35.5 225.41,-34.86 246.41,-32.02 330,-35.5 401.69,-38.48 485.88,-46.78 528.1,-51.27"/>
<polygon fill="black" stroke="black" points="527.5,-54.72 537.82,-52.32 528.25,-47.76 527.5,-54.72"/>
</a>
</g>
<text xml:space="preserve" text-anchor="middle" x="235.88" y="-36.7" font-family="SBL Hebrew,Helvetica" font-size="9.00">מ:אין … פרק (139) | מ:אין … אמ״ת (33) | … +12 more</text>
</g>
<!-- D -->
<g id="node2" class="node">
<title>D</title>
<polygon fill="none" stroke="black" stroke-width="2" points="54,-147.25 0,-147.25 0,-111.25 54,-111.25 54,-147.25"/>
<text xml:space="preserve" text-anchor="middle" x="27" y="-124.22" font-family="SBL Hebrew,Helvetica" font-size="12.00">D</text>
</g>
<!-- D::stack::מ:פסוק -->
<g id="node5" class="node">
<title>D::stack::מ:פסוק</title>
<g id="a_node5"><a xlink:title="D/מ:פסוק">
<ellipse fill="none" stroke="black" cx="235.88" cy="-146.25" rx="6.48" ry="6.48"/>
</a>
</g>
</g>
<!-- D&#45;&gt;D::stack::מ:פסוק -->
<g id="edge3" class="edge">
<title>D&#45;&gt;D::stack::מ:פסוק</title>
<path fill="none" stroke="black" d="M54.2,-131.4C97.2,-134.94 181.57,-141.87 217.74,-144.84"/>
<polygon fill="black" stroke="black" points="217.3,-148.32 227.55,-145.65 217.87,-141.34 217.3,-148.32"/>
<text xml:space="preserve" text-anchor="middle" x="97.88" y="-137.93" font-family="SBL Hebrew,Helvetica" font-size="9.00">מ:פסוק (532)</text>
</g>
<!-- D::stack&#45;end -->
<g id="node18" class="node">
<title>D::stack&#45;end</title>
<g id="a_node18"><a xlink:title="Stack end for D">
<ellipse fill="none" stroke="black" cx="556.12" cy="-117.25" rx="12.6" ry="12.6"/>
<ellipse fill="none" stroke="black" cx="556.12" cy="-117.25" rx="16.6" ry="16.6"/>
<text xml:space="preserve" text-anchor="middle" x="556.12" y="-112.22" font-family="SBL Hebrew,Helvetica" font-size="12.00">D end</text>
</a>
</g>
</g>
<!-- D&#45;&gt;D::stack&#45;end -->
<g id="edge40" class="edge">
<title>D&#45;&gt;D::stack&#45;end</title>
<path fill="none" stroke="black" d="M54.18,-127.04C77.22,-125.19 111.69,-122.68 141.75,-121.5 287.28,-115.8 461.83,-116.47 527.95,-116.99"/>
<polygon fill="black" stroke="black" points="527.8,-120.49 537.83,-117.07 527.86,-113.49 527.8,-120.49"/>
<text xml:space="preserve" text-anchor="middle" x="235.88" y="-122.7" font-family="SBL Hebrew,Helvetica" font-size="9.00">מ:פסוק (895)</text>
</g>
<!-- E -->
<g id="node3" class="node">
<title>E</title>
<polygon fill="none" stroke="black" stroke-width="2" points="54,-453.25 0,-453.25 0,-417.25 54,-417.25 54,-453.25"/>
<text xml:space="preserve" text-anchor="middle" x="27" y="-430.23" font-family="SBL Hebrew,Helvetica" font-size="12.00">E</text>
</g>
<!-- E::stack::כו״ק -->
<g id="node6" class="node">
<title>E::stack::כו״ק</title>
<g id="a_node6"><a xlink:title="E/כו״ק">
<ellipse fill="none" stroke="black" cx="235.88" cy="-844.25" rx="6.48" ry="6.48"/>
</a>
</g>
</g>
<!-- E&#45;&gt;E::stack::כו״ק -->
<g id="edge5" class="edge">
<title>E&#45;&gt;E::stack::כו״ק</title>
<path fill="none" stroke="black" d="M27.6,-453.49C27.41,-496.11 31.3,-604.49 72,-682.25 109.06,-753.05 187.89,-812.27 220.4,-834.66"/>
<polygon fill="black" stroke="black" points="218.31,-837.47 228.56,-840.15 222.22,-831.67 218.31,-837.47"/>
<text xml:space="preserve" text-anchor="middle" x="97.88" y="-749.25" font-family="SBL Hebrew,Helvetica" font-size="9.00">כו״ק (28)</text>
</g>
<!-- E::stack::מ:אות&#45;מיוחדת&#45;במילה -->
<g id="node8" class="node">
<title>E::stack::מ:אות&#45;מיוחדת&#45;במילה</title>
<g id="a_node8"><a xlink:title="E/מ:אות&#45;מיוחדת&#45;במילה">
<ellipse fill="none" stroke="black" cx="556.12" cy="-705.25" rx="6.48" ry="6.48"/>
</a>
</g>
</g>
<!-- E&#45;&gt;E::stack::מ:אות&#45;מיוחדת&#45;במילה -->
<g id="edge6" class="edge">
<title>E&#45;&gt;E::stack::מ:אות&#45;מיוחדת&#45;במילה</title>
<path fill="none" stroke="black" d="M35.39,-453.47C43.1,-471.38 56.27,-499.02 72,-520.25 97.78,-555.03 104.27,-566.58 141.75,-588.25 281.03,-668.79 479.08,-696.67 537.98,-703.45"/>
<polygon fill="black" stroke="black" points="537.53,-706.92 547.85,-704.53 538.29,-699.97 537.53,-706.92"/>
<text xml:space="preserve" text-anchor="middle" x="235.88" y="-663.98" font-family="SBL Hebrew,Helvetica" font-size="9.00">מ:אות&#45;מיוחדת&#45;במילה (85)</text>
</g>
<!-- E::stack::מ:דחי -->
<g id="node9" class="node">
<title>E::stack::מ:דחי</title>
<g id="a_node9"><a xlink:title="E/מ:דחי">
<ellipse fill="none" stroke="black" cx="235.88" cy="-573.25" rx="6.48" ry="6.48"/>
</a>
</g>
</g>
<!-- E&#45;&gt;E::stack::מ:דחי -->
<g id="edge7" class="edge">
<title>E&#45;&gt;E::stack::מ:דחי</title>
<path fill="none" stroke="black" d="M47.08,-453.5C54.59,-460.33 63.46,-467.95 72,-474.25 123.49,-512.24 190.11,-549.32 219.64,-565.19"/>
<polygon fill="black" stroke="black" points="217.79,-568.17 228.26,-569.78 221.08,-561.99 217.79,-568.17"/>
<text xml:space="preserve" text-anchor="middle" x="97.88" y="-507.91" font-family="SBL Hebrew,Helvetica" font-size="9.00">מ:דחי (12)</text>
</g>
<!-- E::stack::מ:הערה&#45;2 -->
<g id="node11" class="node">
<title>E::stack::מ:הערה&#45;2</title>
<g id="a_node11"><a xlink:title="E/מ:הערה&#45;2">
<ellipse fill="none" stroke="black" cx="235.88" cy="-482.25" rx="6.48" ry="6.48"/>
</a>
</g>
</g>
<!-- E&#45;&gt;E::stack::מ:הערה&#45;2 -->
<g id="edge8" class="edge">
<title>E&#45;&gt;E::stack::מ:הערה&#45;2</title>
<path fill="none" stroke="black" d="M54.39,-444.16C60.16,-445.96 66.26,-447.76 72,-449.25 124.79,-462.95 188.44,-474.41 218.11,-479.47"/>
<polygon fill="black" stroke="black" points="217.26,-482.88 227.71,-481.08 218.42,-475.97 217.26,-482.88"/>
<text xml:space="preserve" text-anchor="middle" x="97.88" y="-461.99" font-family="SBL Hebrew,Helvetica" font-size="9.00">מ:הערה&#45;2 (18)</text>
</g>
<!-- E::stack::מ:כו״ק מיוחד -->
<g id="node13" class="node">
<title>E::stack::מ:כו״ק מיוחד</title>
<g id="a_node13"><a xlink:title="E/מ:כו״ק מיוחד">
<ellipse fill="none" stroke="black" cx="556.12" cy="-435.25" rx="6.48" ry="6.48"/>
</a>
</g>
</g>
<!-- E&#45;&gt;E::stack::מ:כו״ק מיוחד -->
<g id="edge9" class="edge">
<title>E&#45;&gt;E::stack::מ:כו״ק מיוחד</title>
<path fill="none" stroke="black" d="M54.14,-435.25C147.23,-435.25 461.11,-435.25 538.01,-435.25"/>
<polygon fill="black" stroke="black" points="537.69,-438.75 547.69,-435.25 537.69,-431.75 537.69,-438.75"/>
<text xml:space="preserve" text-anchor="middle" x="235.88" y="-436.45" font-family="SBL Hebrew,Helvetica" font-size="9.00">מ:כו״ק מיוחד (6)</text>
</g>
<!-- E::stack::מ:קו״כ&#45;אם&#45;2 -->
<g id="node14" class="node">
<title>E::stack::מ:קו״כ&#45;אם&#45;2</title>
<g id="a_node14"><a xlink:title="E/מ:קו״כ&#45;אם&#45;2">
<ellipse fill="none" stroke="black" cx="556.12" cy="-384.25" rx="6.48" ry="6.48"/>
</a>
</g>
</g>
<!-- E&#45;&gt;E::stack::מ:קו״כ&#45;אם&#45;2 -->
<g id="edge10" class="edge">
<title>E&#45;&gt;E::stack::מ:קו״כ&#45;אם&#45;2</title>
<path fill="none" stroke="black" d="M54.18,-431.86C77.22,-428.92 111.68,-424.67 141.75,-421.5 295.34,-405.3 481.5,-390.12 538.04,-385.6"/>
<polygon fill="black" stroke="black" points="538.09,-389.11 547.78,-384.83 537.54,-382.13 538.09,-389.11"/>
<text xml:space="preserve" text-anchor="middle" x="235.88" y="-422.7" font-family="SBL Hebrew,Helvetica" font-size="9.00">מ:קו״כ&#45;אם&#45;2 (12)</text>
</g>
<!-- E::stack::מ:קמץ -->
<g id="node15" class="node">
<title>E::stack::מ:קמץ</title>
<g id="a_node15"><a xlink:title="E/מ:קמץ">
<ellipse fill="none" stroke="black" cx="556.12" cy="-292.25" rx="6.48" ry="6.48"/>
</a>
</g>
</g>
<!-- E&#45;&gt;E::stack::מ:קמץ -->
<g id="edge11" class="edge">
<title>E&#45;&gt;E::stack::מ:קמץ</title>
<path fill="none" stroke="black" d="M54.28,-423.68C77.09,-413.94 111.18,-400.09 141.75,-390.5 293.25,-342.96 482.23,-305.9 538.55,-295.31"/>
<polygon fill="black" stroke="black" points="539.01,-298.79 548.2,-293.52 537.73,-291.91 539.01,-298.79"/>
<text xml:space="preserve" text-anchor="middle" x="235.88" y="-391.7" font-family="SBL Hebrew,Helvetica" font-size="9.00">מ:קמץ (16)</text>
</g>
<!-- E::stack::קו״כ -->
<g id="node16" class="node">
<title>E::stack::קו״כ</title>
<g id="a_node16"><a xlink:title="E/קו״כ">
<ellipse fill="none" stroke="black" cx="421.88" cy="-236.25" rx="6.48" ry="6.48"/>
</a>
</g>
</g>
<!-- E&#45;&gt;E::stack::קו״כ -->
<g id="edge12" class="edge">
<title>E&#45;&gt;E::stack::קו״כ</title>
<path fill="none" stroke="black" d="M28.37,-416.82C30.01,-387.5 37.73,-330.47 72,-300.5 171.14,-213.78 348.13,-227.12 403.7,-233.85"/>
<polygon fill="black" stroke="black" points="403.21,-237.32 413.59,-235.16 404.13,-230.38 403.21,-237.32"/>
<text xml:space="preserve" text-anchor="middle" x="97.88" y="-301.7" font-family="SBL Hebrew,Helvetica" font-size="9.00">קו״כ (1)</text>
</g>
<!-- E::stack&#45;end -->
<g id="node19" class="node">
<title>E::stack&#45;end</title>
<g id="a_node19"><a xlink:title="Stack end for E">
<ellipse fill="none" stroke="black" cx="705.1" cy="-560.25" rx="12.6" ry="12.6"/>
<ellipse fill="none" stroke="black" cx="705.1" cy="-560.25" rx="16.6" ry="16.6"/>
<text xml:space="preserve" text-anchor="middle" x="705.1" y="-555.23" font-family="SBL Hebrew,Helvetica" font-size="12.00">E end</text>
</a>
</g>
</g>
<!-- E&#45;&gt;E::stack&#45;end -->
<g id="edge41" class="edge">
<title>E&#45;&gt;E::stack&#45;end</title>
<g id="a_edge41"><a xlink:title="כו״ק (884) | כתיב ולא קרי (8) | מ:אות&#45;מיוחדת&#45;במילה (79) | מ:דחי (2287) | מ:הערה&#45;2 (27) | מ:כו״ק מיוחד (37) | מ:לגרמיה&#45;2 (1811) | מ:מקף אפור (114) | מ:נו״ן הפוכה (9) | מ:פסק (515) | מ:צינור (56) | מ:קו״כ&#45;אם&#45;2 (148) | מ:קמץ (363) | מ:ששש (228) | סס (53) | ססס (106) | פפ (11) | פפפ (15) | קו״כ (126) | קרי ולא כתיב (9) | ר0 (536) | ר1 (4618) | ר2 (568) | ר3 (170)">
<path fill="none" stroke="black" d="M28.07,-416.87C29.11,-382.97 35.75,-309.84 72,-263.25 93.68,-235.39 107.85,-235.1 141.75,-225.25 254.59,-192.47 590.14,-141.52 670.5,-227.25 691.2,-249.33 700.46,-456.05 703.19,-532.23"/>
<polygon fill="black" stroke="black" points="699.68,-531.91 703.52,-541.78 706.67,-531.66 699.68,-531.91"/>
</a>
</g>
<text xml:space="preserve" text-anchor="middle" x="421.88" y="-188.83" font-family="SBL Hebrew,Helvetica" font-size="9.00">כו״ק (884) | כתיב … קרי (8) | … +22 more</text>
</g>
<!-- C::stack::מ:הערה&#45;2&#45;&gt;C::stack&#45;end -->
<g id="edge2" class="edge">
<title>C::stack::מ:הערה&#45;2&#45;&gt;C::stack&#45;end</title>
<path fill="none" stroke="black" d="M242.67,-60.14C277.4,-59.49 458.77,-56.07 528.12,-54.76"/>
<polygon fill="black" stroke="black" points="527.9,-58.26 537.83,-54.58 527.77,-51.27 527.9,-58.26"/>
<text xml:space="preserve" text-anchor="middle" x="421.88" y="-59.34" font-family="SBL Hebrew,Helvetica" font-size="9.00">פפ (3)</text>
</g>
<!-- D::stack::מ:פסוק&#45;&gt;D::stack&#45;end -->
<g id="edge4" class="edge">
<title>D::stack::מ:פסוק&#45;&gt;D::stack&#45;end</title>
<path fill="none" stroke="black" d="M242.53,-145.84C270.22,-143.81 394.33,-134.54 495.75,-124.25 506.25,-123.19 517.77,-121.86 527.85,-120.65"/>
<polygon fill="black" stroke="black" points="528.26,-124.13 537.76,-119.45 527.41,-117.18 528.26,-124.13"/>
<text xml:space="preserve" text-anchor="middle" x="421.88" y="-138.77" font-family="SBL Hebrew,Helvetica" font-size="9.00">מ:עלייה (532)</text>
</g>
<!-- E::stack::כו״ק/מ:אות&#45;מיוחדת&#45;במילה -->
<g id="node7" class="node">
<title>E::stack::כו״ק/מ:אות&#45;מיוחדת&#45;במילה</title>
<g id="a_node7"><a xlink:title="E/כו״ק/מ:אות&#45;מיוחדת&#45;במילה">
<ellipse fill="none" stroke="black" cx="556.12" cy="-947.25" rx="6.48" ry="6.48"/>
</a>
</g>
</g>
<!-- E::stack::כו״ק&#45;&gt;E::stack::כו״ק/מ:אות&#45;מיוחדת&#45;במילה -->
<g id="edge17" class="edge">
<title>E::stack::כו״ק&#45;&gt;E::stack::כו״ק/מ:אות&#45;מיוחדת&#45;במילה</title>
<path fill="none" stroke="black" d="M241.03,-848.53C254.77,-862.35 300.52,-905.98 348,-924.25 414.77,-949.94 501.97,-949.67 538.2,-948.21"/>
<polygon fill="black" stroke="black" points="538.12,-951.72 547.93,-947.72 537.77,-944.73 538.12,-951.72"/>
<text xml:space="preserve" text-anchor="middle" x="421.88" y="-949.73" font-family="SBL Hebrew,Helvetica" font-size="9.00">מ:אות&#45;מיוחדת&#45;במילה (1)</text>
</g>
<!-- E::stack::כו״ק&#45;&gt;E::stack&#45;end -->
<g id="edge13" class="edge">
<title>E::stack::כו״ק&#45;&gt;E::stack&#45;end</title>
<path fill="none" stroke="black" d="M242.27,-846.74C258.07,-853.9 305.85,-874.42 348,-881.25 418.74,-892.72 617.25,-929.22 670.5,-881.25 692.09,-861.8 700.75,-663.08 703.26,-588.41"/>
<polygon fill="black" stroke="black" points="706.75,-588.76 703.58,-578.65 699.76,-588.54 706.75,-588.76"/>
<text xml:space="preserve" text-anchor="middle" x="556.12" y="-906.55" font-family="SBL Hebrew,Helvetica" font-size="9.00">מ:אות&#45;מיוחדת&#45;במילה (1)</text>
</g>
<!-- E::stack::כו״ק&#45;&gt;E::stack&#45;end -->
<g id="edge14" class="edge">
<title>E::stack::כו״ק&#45;&gt;E::stack&#45;end</title>
<path fill="none" stroke="black" d="M242.59,-845.1C289.03,-851.85 604.31,-895.08 670.5,-835.25 688.64,-818.85 699.16,-655 702.72,-588.29"/>
<polygon fill="black" stroke="black" points="706.21,-588.7 703.23,-578.53 699.22,-588.33 706.21,-588.7"/>
<text xml:space="preserve" text-anchor="middle" x="556.12" y="-867.62" font-family="SBL Hebrew,Helvetica" font-size="9.00">מ:דחי (7)</text>
</g>
<!-- E::stack::כו״ק&#45;&gt;E::stack&#45;end -->
<g id="edge15" class="edge">
<title>E::stack::כו״ק&#45;&gt;E::stack&#45;end</title>
<path fill="none" stroke="black" d="M242.61,-844.69C289.22,-848.12 605.62,-868.95 670.5,-807.25 701.46,-777.8 704.65,-646.84 704.49,-588.48"/>
<polygon fill="black" stroke="black" points="707.99,-588.68 704.42,-578.7 700.99,-588.72 707.99,-588.68"/>
<text xml:space="preserve" text-anchor="middle" x="556.12" y="-848.68" font-family="SBL Hebrew,Helvetica" font-size="9.00">מ:לגרמיה&#45;2 (9)</text>
</g>
<!-- E::stack::כו״ק&#45;&gt;E::stack&#45;end -->
<g id="edge16" class="edge">
<title>E::stack::כו״ק&#45;&gt;E::stack&#45;end</title>
<path fill="none" stroke="black" d="M242.53,-843.71C291.21,-839.01 638.51,-804.47 670.5,-772.25 695.72,-746.85 702.01,-640.19 703.58,-588.53"/>
<polygon fill="black" stroke="black" points="707.07,-588.84 703.83,-578.75 700.07,-588.66 707.07,-588.84"/>
<text xml:space="preserve" text-anchor="middle" x="556.12" y="-811.72" font-family="SBL Hebrew,Helvetica" font-size="9.00">מ:קמץ (10)</text>
</g>
<!-- E::stack::כו״ק/מ:אות&#45;מיוחדת&#45;במילה&#45;&gt;E::stack&#45;end -->
<g id="edge18" class="edge">
<title>E::stack::כו״ק/מ:אות&#45;מיוחדת&#45;במילה&#45;&gt;E::stack&#45;end</title>
<path fill="none" stroke="black" d="M562.96,-948.18C581.86,-950.82 641.79,-956.24 670.5,-924.25 692.82,-899.37 701.16,-668.9 703.41,-588.09"/>
<polygon fill="black" stroke="black" points="706.9,-588.48 703.67,-578.39 699.91,-588.29 706.9,-588.48"/>
<text xml:space="preserve" text-anchor="middle" x="643.5" y="-949.66" font-family="SBL Hebrew,Helvetica" font-size="9.00">מ:אות&#45;ק (1)</text>
</g>
<!-- E::stack::מ:אות&#45;מיוחדת&#45;במילה&#45;&gt;E::stack&#45;end -->
<g id="edge19" class="edge">
<title>E::stack::מ:אות&#45;מיוחדת&#45;במילה&#45;&gt;E::stack&#45;end</title>
<path fill="none" stroke="black" d="M561.11,-709.39C576.76,-725.15 634.9,-779.08 670.5,-749.25 694.59,-729.07 701.42,-636.06 703.35,-588.47"/>
<polygon fill="black" stroke="black" points="706.84,-588.78 703.69,-578.66 699.84,-588.53 706.84,-588.78"/>
<text xml:space="preserve" text-anchor="middle" x="643.5" y="-759.29" font-family="SBL Hebrew,Helvetica" font-size="9.00">מ:אות תלויה (4)</text>
</g>
<!-- E::stack::מ:אות&#45;מיוחדת&#45;במילה&#45;&gt;E::stack&#45;end -->
<g id="edge20" class="edge">
<title>E::stack::מ:אות&#45;מיוחדת&#45;במילה&#45;&gt;E::stack&#45;end</title>
<path fill="none" stroke="black" d="M562.37,-708.06C579.94,-717.05 637.42,-742.96 670.5,-716.25 690.03,-700.48 698.74,-628.89 702.17,-588.39"/>
<polygon fill="black" stroke="black" points="705.64,-588.91 702.94,-578.66 698.66,-588.36 705.64,-588.91"/>
<text xml:space="preserve" text-anchor="middle" x="643.5" y="-729.2" font-family="SBL Hebrew,Helvetica" font-size="9.00">מ:אות&#45;ג (52)</text>
</g>
<!-- E::stack::מ:אות&#45;מיוחדת&#45;במילה&#45;&gt;E::stack&#45;end -->
<g id="edge21" class="edge">
<title>E::stack::מ:אות&#45;מיוחדת&#45;במילה&#45;&gt;E::stack&#45;end</title>
<path fill="none" stroke="black" d="M562.82,-704.92C583.53,-703.62 654.48,-698.11 670.5,-683.25 696.65,-658.99 703.19,-616.53 704.45,-588.4"/>
<polygon fill="black" stroke="black" points="707.95,-588.55 704.67,-578.47 700.95,-588.39 707.95,-588.55"/>
<text xml:space="preserve" text-anchor="middle" x="643.5" y="-700.23" font-family="SBL Hebrew,Helvetica" font-size="9.00">מ:אות&#45;ק (25)</text>
</g>
<!-- E::stack::מ:אות&#45;מיוחדת&#45;במילה&#45;&gt;E::stack&#45;end -->
<g id="edge22" class="edge">
<title>E::stack::מ:אות&#45;מיוחדת&#45;במילה&#45;&gt;E::stack&#45;end</title>
<path fill="none" stroke="black" d="M562.37,-702.36C584.13,-690.38 666.33,-644.97 670.5,-640.25 683.79,-625.21 692.35,-604.15 697.5,-587.42"/>
<polygon fill="black" stroke="black" points="700.78,-588.68 700.13,-578.11 694.05,-586.78 700.78,-588.68"/>
<text xml:space="preserve" text-anchor="middle" x="643.5" y="-672.25" font-family="SBL Hebrew,Helvetica" font-size="9.00">מ:לגרמיה&#45;2 (4)</text>
</g>
<!-- E::stack::מ:דחי/מ:אות&#45;מיוחדת&#45;במילה -->
<g id="node10" class="node">
<title>E::stack::מ:דחי/מ:אות&#45;מיוחדת&#45;במילה</title>
<g id="a_node10"><a xlink:title="E/מ:דחי/מ:אות&#45;מיוחדת&#45;במילה">
<ellipse fill="none" stroke="black" cx="556.12" cy="-607.25" rx="6.48" ry="6.48"/>
</a>
</g>
</g>
<!-- E::stack::מ:דחי&#45;&gt;E::stack::מ:דחי/מ:אות&#45;מיוחדת&#45;במילה -->
<g id="edge24" class="edge">
<title>E::stack::מ:דחי&#45;&gt;E::stack::מ:דחי/מ:אות&#45;מיוחדת&#45;במילה</title>
<path fill="none" stroke="black" d="M242.67,-573.87C279.17,-577.77 477.63,-598.97 537.81,-605.4"/>
<polygon fill="black" stroke="black" points="537.4,-608.88 547.72,-606.46 538.14,-601.92 537.4,-608.88"/>
<text xml:space="preserve" text-anchor="middle" x="421.88" y="-601.95" font-family="SBL Hebrew,Helvetica" font-size="9.00">מ:אות&#45;מיוחדת&#45;במילה (6)</text>
</g>
<!-- E::stack::מ:דחי&#45;&gt;E::stack&#45;end -->
<g id="edge23" class="edge">
<title>E::stack::מ:דחי&#45;&gt;E::stack&#45;end</title>
<path fill="none" stroke="black" d="M242.78,-573.09C288.33,-571.82 584.34,-563.58 676.65,-561.01"/>
<polygon fill="black" stroke="black" points="676.63,-564.52 686.53,-560.74 676.44,-557.52 676.63,-564.52"/>
<text xml:space="preserve" text-anchor="middle" x="556.12" y="-566.66" font-family="SBL Hebrew,Helvetica" font-size="9.00">מ:אות&#45;מיוחדת&#45;במילה (6)</text>
</g>
<!-- E::stack::מ:דחי/מ:אות&#45;מיוחדת&#45;במילה&#45;&gt;E::stack&#45;end -->
<g id="edge25" class="edge">
<title>E::stack::מ:דחי/מ:אות&#45;מיוחדת&#45;במילה&#45;&gt;E::stack&#45;end</title>
<path fill="none" stroke="black" d="M562.31,-609.66C579.23,-617.15 633.78,-638.23 670.5,-617.25 682.06,-610.64 690.05,-598.33 695.32,-586.83"/>
<polygon fill="black" stroke="black" points="698.52,-588.26 699,-577.68 692.02,-585.64 698.52,-588.26"/>
<text xml:space="preserve" text-anchor="middle" x="643.5" y="-627.49" font-family="SBL Hebrew,Helvetica" font-size="9.00">מ:אות&#45;ג (4)</text>
</g>
<!-- E::stack::מ:דחי/מ:אות&#45;מיוחדת&#45;במילה&#45;&gt;E::stack&#45;end -->
<g id="edge26" class="edge">
<title>E::stack::מ:דחי/מ:אות&#45;מיוחדת&#45;במילה&#45;&gt;E::stack&#45;end</title>
<path fill="none" stroke="black" d="M563.04,-606.92C580.31,-605.77 631.82,-601.07 670.5,-584.25 674.67,-582.44 678.84,-580.05 682.75,-577.48"/>
<polygon fill="black" stroke="black" points="684.5,-580.53 690.56,-571.84 680.4,-574.86 684.5,-580.53"/>
<text xml:space="preserve" text-anchor="middle" x="643.5" y="-600.73" font-family="SBL Hebrew,Helvetica" font-size="9.00">מ:אות&#45;ק (2)</text>
</g>
<!-- E::stack::מ:הערה&#45;2/מ:אות&#45;מיוחדת&#45;במילה -->
<g id="node12" class="node">
<title>E::stack::מ:הערה&#45;2/מ:אות&#45;מיוחדת&#45;במילה</title>
<g id="a_node12"><a xlink:title="E/מ:הערה&#45;2/מ:אות&#45;מיוחדת&#45;במילה">
<ellipse fill="none" stroke="black" cx="556.12" cy="-516.25" rx="6.48" ry="6.48"/>
</a>
</g>
</g>
<!-- E::stack::מ:הערה&#45;2&#45;&gt;E::stack::מ:הערה&#45;2/מ:אות&#45;מיוחדת&#45;במילה -->
<g id="edge28" class="edge">
<title>E::stack::מ:הערה&#45;2&#45;&gt;E::stack::מ:הערה&#45;2/מ:אות&#45;מיוחדת&#45;במילה</title>
<path fill="none" stroke="black" d="M242.67,-482.87C279.17,-486.77 477.63,-507.97 537.81,-514.4"/>
<polygon fill="black" stroke="black" points="537.4,-517.88 547.72,-515.46 538.14,-510.92 537.4,-517.88"/>
<text xml:space="preserve" text-anchor="middle" x="421.88" y="-510.95" font-family="SBL Hebrew,Helvetica" font-size="9.00">מ:אות&#45;מיוחדת&#45;במילה (9)</text>
</g>
<!-- E::stack::מ:הערה&#45;2&#45;&gt;E::stack&#45;end -->
<g id="edge27" class="edge">
<title>E::stack::מ:הערה&#45;2&#45;&gt;E::stack&#45;end</title>
<path fill="none" stroke="black" d="M242.42,-482.08C275.86,-481.13 454.16,-476.96 598.5,-491.5 630.83,-494.76 643.73,-485.82 670.5,-504.25 681.01,-511.48 688.77,-523.17 694.17,-534.01"/>
<polygon fill="black" stroke="black" points="690.9,-535.27 698.18,-542.98 697.29,-532.42 690.9,-535.27"/>
<text xml:space="preserve" text-anchor="middle" x="556.12" y="-492.7" font-family="SBL Hebrew,Helvetica" font-size="9.00">מ:אות&#45;מיוחדת&#45;במילה (9)</text>
</g>
<!-- E::stack::מ:הערה&#45;2/מ:אות&#45;מיוחדת&#45;במילה&#45;&gt;E::stack&#45;end -->
<g id="edge29" class="edge">
<title>E::stack::מ:הערה&#45;2/מ:אות&#45;מיוחדת&#45;במילה&#45;&gt;E::stack&#45;end</title>
<path fill="none" stroke="black" d="M562.8,-517.86C579.41,-522.59 629.32,-536.87 670.5,-549.5 672.97,-550.26 675.55,-551.06 678.12,-551.87"/>
<polygon fill="black" stroke="black" points="677.04,-555.2 687.63,-554.9 679.16,-548.53 677.04,-555.2"/>
<text xml:space="preserve" text-anchor="middle" x="643.5" y="-550.7" font-family="SBL Hebrew,Helvetica" font-size="9.00">מ:אות&#45;ג (7)</text>
</g>
<!-- E::stack::מ:הערה&#45;2/מ:אות&#45;מיוחדת&#45;במילה&#45;&gt;E::stack&#45;end -->
<g id="edge30" class="edge">
<title>E::stack::מ:הערה&#45;2/מ:אות&#45;מיוחדת&#45;במילה&#45;&gt;E::stack&#45;end</title>
<path fill="none" stroke="black" d="M562.7,-514.88C579.86,-510.97 633,-501.16 670.5,-519.5 678.31,-523.32 684.95,-529.91 690.21,-536.69"/>
<polygon fill="black" stroke="black" points="687.09,-538.32 695.65,-544.56 692.84,-534.34 687.09,-538.32"/>
<text xml:space="preserve" text-anchor="middle" x="643.5" y="-520.7" font-family="SBL Hebrew,Helvetica" font-size="9.00">מ:אות&#45;ק (2)</text>
</g>
<!-- E::stack::מ:כו״ק מיוחד&#45;&gt;E::stack&#45;end -->
<g id="edge31" class="edge">
<title>E::stack::מ:כו״ק מיוחד&#45;&gt;E::stack&#45;end</title>
<path fill="none" stroke="black" d="M562.94,-434.59C581.27,-432.85 638.52,-430.05 670.5,-458.5 691.45,-477.14 699.38,-509.1 702.36,-532.24"/>
<polygon fill="black" stroke="black" points="698.85,-532.32 703.35,-541.91 705.81,-531.6 698.85,-532.32"/>
<text xml:space="preserve" text-anchor="middle" x="643.5" y="-459.7" font-family="SBL Hebrew,Helvetica" font-size="9.00">מ:לגרמיה&#45;2 (1)</text>
</g>
<!-- E::stack::מ:כו״ק מיוחד&#45;&gt;E::stack&#45;end -->
<g id="edge32" class="edge">
<title>E::stack::מ:כו״ק מיוחד&#45;&gt;E::stack&#45;end</title>
<path fill="none" stroke="black" d="M562.34,-432.5C579.81,-423.69 637.03,-398.3 670.5,-424.5 687.29,-437.64 696.86,-496.65 701.21,-532.41"/>
<polygon fill="black" stroke="black" points="697.7,-532.5 702.32,-542.04 704.65,-531.7 697.7,-532.5"/>
<text xml:space="preserve" text-anchor="middle" x="643.5" y="-425.7" font-family="SBL Hebrew,Helvetica" font-size="9.00">מ:פסק (5)</text>
</g>
<!-- E::stack::מ:קו״כ&#45;אם&#45;2&#45;&gt;E::stack&#45;end -->
<g id="edge33" class="edge">
<title>E::stack::מ:קו״כ&#45;אם&#45;2&#45;&gt;E::stack&#45;end</title>
<path fill="none" stroke="black" d="M562.77,-383.01C581.06,-379.35 639.38,-370.55 670.5,-399.5 689.46,-417.14 698.43,-490.67 702.04,-531.9"/>
<polygon fill="black" stroke="black" points="698.55,-532.14 702.85,-541.82 705.53,-531.57 698.55,-532.14"/>
<text xml:space="preserve" text-anchor="middle" x="643.5" y="-400.7" font-family="SBL Hebrew,Helvetica" font-size="9.00">מ:דחי (8)</text>
</g>
<!-- E::stack::מ:קו״כ&#45;אם&#45;2&#45;&gt;E::stack&#45;end -->
<g id="edge34" class="edge">
<title>E::stack::מ:קו״כ&#45;אם&#45;2&#45;&gt;E::stack&#45;end</title>
<path fill="none" stroke="black" d="M562.15,-380.99C579.49,-370.17 637.54,-337.74 670.5,-365.5 695.42,-386.49 701.86,-483.51 703.52,-532.21"/>
<polygon fill="black" stroke="black" points="700.01,-532.06 703.8,-541.96 707.01,-531.86 700.01,-532.06"/>
<text xml:space="preserve" text-anchor="middle" x="643.5" y="-366.7" font-family="SBL Hebrew,Helvetica" font-size="9.00">מ:לגרמיה&#45;2 (2)</text>
</g>
<!-- E::stack::מ:קו״כ&#45;אם&#45;2&#45;&gt;E::stack&#45;end -->
<g id="edge35" class="edge">
<title>E::stack::מ:קו״כ&#45;אם&#45;2&#45;&gt;E::stack&#45;end</title>
<path fill="none" stroke="black" d="M561.13,-380.1C576.87,-364.31 635.29,-310.26 670.5,-340.5 698.89,-364.88 703.55,-478.39 704.14,-532.03"/>
<polygon fill="black" stroke="black" points="700.64,-531.91 704.2,-541.89 707.64,-531.87 700.64,-531.91"/>
<text xml:space="preserve" text-anchor="middle" x="643.5" y="-341.7" font-family="SBL Hebrew,Helvetica" font-size="9.00">מ:קמץ (2)</text>
</g>
<!-- E::stack::מ:קמץ&#45;&gt;E::stack&#45;end -->
<g id="edge36" class="edge">
<title>E::stack::מ:קמץ&#45;&gt;E::stack&#45;end</title>
<path fill="none" stroke="black" d="M562.92,-291.5C581.68,-289.44 641.26,-285.77 670.5,-317.5 698.84,-348.25 703.47,-474.91 704.09,-532.05"/>
<polygon fill="black" stroke="black" points="700.59,-531.96 704.16,-541.93 707.59,-531.91 700.59,-531.96"/>
<text xml:space="preserve" text-anchor="middle" x="643.5" y="-318.7" font-family="SBL Hebrew,Helvetica" font-size="9.00">מ:דחי (14)</text>
</g>
<!-- E::stack::מ:קמץ&#45;&gt;E::stack&#45;end -->
<g id="edge37" class="edge">
<title>E::stack::מ:קמץ&#45;&gt;E::stack&#45;end</title>
<path fill="none" stroke="black" d="M562.22,-289.27C579.78,-279.4 638.47,-250.07 670.5,-278.5 689.27,-295.16 699.45,-463.88 702.82,-531.98"/>
<polygon fill="black" stroke="black" points="699.32,-532.13 703.3,-541.95 706.32,-531.79 699.32,-532.13"/>
<text xml:space="preserve" text-anchor="middle" x="643.5" y="-279.7" font-family="SBL Hebrew,Helvetica" font-size="9.00">מ:מקף אפור (2)</text>
</g>
<!-- E::stack::קו״כ&#45;&gt;E::stack&#45;end -->
<g id="edge38" class="edge">
<title>E::stack::קו״כ&#45;&gt;E::stack&#45;end</title>
<path fill="none" stroke="black" d="M428.6,-234.62C458.78,-226.44 600.54,-192.83 670.5,-262.25 689.5,-281.1 699.65,-461.89 702.91,-532.34"/>
<polygon fill="black" stroke="black" points="699.4,-532.07 703.34,-541.9 706.39,-531.75 699.4,-532.07"/>
<text xml:space="preserve" text-anchor="middle" x="556.12" y="-225.99" font-family="SBL Hebrew,Helvetica" font-size="9.00">מ:לגרמיה&#45;2 (1)</text>
</g>
</g>
</svg>
