<?xml version="1.0" encoding="UTF-8" standalone="no"?>
<!DOCTYPE svg PUBLIC "-//W3C//DTD SVG 1.1//EN"
 "http://www.w3.org/Graphics/SVG/1.1/DTD/svg11.dtd">
<!-- Generated by graphviz version 16.0.0 (20260814.1018)
 -->
<!-- This file was generated by MAM-basics/py/main_tmpl_survey.py. -->
<!-- Title: template_call_graph Pages: 1 -->
<svg width="281pt" height="225pt"
 viewBox="0.00 0.00 281.00 225.00" xmlns="http://www.w3.org/2000/svg" xmlns:xlink="http://www.w3.org/1999/xlink">
<g id="graph0" class="graph" transform="scale(1 1) rotate(0) translate(4 221.25)">
<title>template_call_graph</title>
<polygon fill="white" stroke="none" points="-4,4 -4,-221.25 276.75,-221.25 276.75,4 -4,4"/>
<text xml:space="preserve" text-anchor="middle" x="136.38" y="-5.75" font-family="Times New Roman,serif" font-size="10.00">מ:כפול, נוסח have been discarded</text>
<!-- מ:דחי -->
<g id="node1" class="node">
<title>מ:דחי</title>
<polygon fill="#ffec8b" stroke="black" stroke-width="2.5" points="173.5,-136.25 119.5,-136.25 119.5,-100.25 173.5,-100.25 173.5,-136.25"/>
<text xml:space="preserve" text-anchor="middle" x="146.5" y="-113.22" font-family="SBL Hebrew,Helvetica" font-size="12.00">מ:דחי</text>
</g>
<!-- מ:אות&#45;ג -->
<g id="node3" class="node">
<title>מ:אות&#45;ג</title>
<polygon fill="none" stroke="black" points="270.75,-190.25 216.75,-190.25 216.75,-154.25 270.75,-154.25 270.75,-190.25"/>
<text xml:space="preserve" text-anchor="middle" x="243.75" y="-167.22" font-family="SBL Hebrew,Helvetica" font-size="12.00">מ:אות&#45;ג</text>
</g>
<!-- מ:דחי&#45;&gt;מ:אות&#45;ג -->
<g id="edge2" class="edge">
<title>מ:דחי&#45;&gt;מ:אות&#45;ג</title>
<path fill="none" stroke="black" d="M174.54,-133.58C184.46,-139.2 195.86,-145.66 206.46,-151.67"/>
<polygon fill="black" stroke="black" points="204.56,-154.62 214.98,-156.51 208.01,-148.53 204.56,-154.62"/>
<text xml:space="preserve" text-anchor="middle" x="194.12" y="-147.2" font-family="Helvetica,sans-Serif" font-size="9.00">4</text>
</g>
<!-- מ:אות&#45;ק -->
<g id="node4" class="node">
<title>מ:אות&#45;ק</title>
<polygon fill="none" stroke="black" points="270.75,-136.25 216.75,-136.25 216.75,-100.25 270.75,-100.25 270.75,-136.25"/>
<text xml:space="preserve" text-anchor="middle" x="243.75" y="-113.22" font-family="SBL Hebrew,Helvetica" font-size="12.00">מ:אות&#45;ק</text>
</g>
<!-- מ:דחי&#45;&gt;מ:אות&#45;ק -->
<g id="edge3" class="edge">
<title>מ:דחי&#45;&gt;מ:אות&#45;ק</title>
<path fill="none" stroke="black" d="M174.54,-118.25C183.95,-118.25 194.68,-118.25 204.81,-118.25"/>
<polygon fill="black" stroke="black" points="204.79,-121.75 214.79,-118.25 204.79,-114.75 204.79,-121.75"/>
<text xml:space="preserve" text-anchor="middle" x="194.12" y="-120.2" font-family="Helvetica,sans-Serif" font-size="9.00">2</text>
</g>
<!-- מ:ירושלם -->
<g id="node5" class="node">
<title>מ:ירושלם</title>
<polygon fill="none" stroke="black" points="272.75,-82.25 214.75,-82.25 214.75,-46.25 272.75,-46.25 272.75,-82.25"/>
<text xml:space="preserve" text-anchor="middle" x="243.75" y="-59.23" font-family="SBL Hebrew,Helvetica" font-size="12.00">מ:ירושלם</text>
</g>
<!-- מ:דחי&#45;&gt;מ:ירושלם -->
<g id="edge4" class="edge">
<title>מ:דחי&#45;&gt;מ:ירושלם</title>
<path fill="none" stroke="black" d="M174.54,-102.92C183.86,-97.63 194.49,-91.61 204.53,-85.92"/>
<polygon fill="black" stroke="black" points="206.02,-89.09 213,-81.12 202.57,-83.01 206.02,-89.09"/>
<text xml:space="preserve" text-anchor="middle" x="194.12" y="-94.82" font-family="Helvetica,sans-Serif" font-size="9.00">2</text>
</g>
<!-- כו״ק -->
<g id="node2" class="node">
<title>כו״ק</title>
<polygon fill="none" stroke="black" points="63.5,-217.25 9.5,-217.25 9.5,-181.25 63.5,-181.25 63.5,-217.25"/>
<text xml:space="preserve" text-anchor="middle" x="36.5" y="-194.22" font-family="SBL Hebrew,Helvetica" font-size="12.00">כו״ק</text>
</g>
<!-- כו״ק&#45;&gt;מ:דחי -->
<g id="edge1" class="edge">
<title>כו״ק&#45;&gt;מ:דחי</title>
<path fill="none" stroke="black" d="M62.01,-180.87C76.47,-170.02 95,-156.12 110.93,-144.17"/>
<polygon fill="black" stroke="black" points="112.85,-147.11 118.75,-138.31 108.65,-141.51 112.85,-147.11"/>
<text xml:space="preserve" text-anchor="middle" x="96.25" y="-160.7" font-family="Helvetica,sans-Serif" font-size="9.00">7</text>
</g>
<!-- מ:קו״כ&#45;אם&#45;2 -->
<g id="node6" class="node">
<title>מ:קו״כ&#45;אם&#45;2</title>
<polygon fill="none" stroke="black" points="73,-163.25 0,-163.25 0,-127.25 73,-127.25 73,-163.25"/>
<text xml:space="preserve" text-anchor="middle" x="36.5" y="-140.22" font-family="SBL Hebrew,Helvetica" font-size="12.00">מ:קו״כ&#45;אם&#45;2</text>
</g>
<!-- מ:קו״כ&#45;אם&#45;2&#45;&gt;מ:דחי -->
<g id="edge5" class="edge">
<title>מ:קו״כ&#45;אם&#45;2&#45;&gt;מ:דחי</title>
<path fill="none" stroke="black" d="M73.46,-136.26C84.39,-133.53 96.44,-130.52 107.5,-127.75"/>
<polygon fill="black" stroke="black" points="108.26,-131.17 117.11,-125.35 106.56,-124.38 108.26,-131.17"/>
<text xml:space="preserve" text-anchor="middle" x="96.25" y="-133.7" font-family="Helvetica,sans-Serif" font-size="9.00">8</text>
</g>
<!-- מ:קמץ -->
<g id="node7" class="node">
<title>מ:קמץ</title>
<polygon fill="none" stroke="black" points="63.5,-109.25 9.5,-109.25 9.5,-73.25 63.5,-73.25 63.5,-109.25"/>
<text xml:space="preserve" text-anchor="middle" x="36.5" y="-86.22" font-family="SBL Hebrew,Helvetica" font-size="12.00">מ:קמץ</text>
</g>
<!-- מ:קמץ&#45;&gt;מ:דחי -->
<g id="edge6" class="edge">
<title>מ:קמץ&#45;&gt;מ:דחי</title>
<path fill="none" stroke="black" d="M63.92,-97.85C77.03,-101.13 93.1,-105.15 107.5,-108.75"/>
<polygon fill="black" stroke="black" points="106.58,-112.13 117.13,-111.16 108.28,-105.34 106.58,-112.13"/>
<text xml:space="preserve" text-anchor="middle" x="96.25" y="-109.12" font-family="Helvetica,sans-Serif" font-size="9.00">14</text>
</g>
<!-- פרשה&#45;מרכז -->
<g id="node8" class="node">
<title>פרשה&#45;מרכז</title>
<polygon fill="none" stroke="black" points="71.12,-55.25 1.88,-55.25 1.88,-19.25 71.12,-19.25 71.12,-55.25"/>
<text xml:space="preserve" text-anchor="middle" x="36.5" y="-32.23" font-family="SBL Hebrew,Helvetica" font-size="12.00">פרשה&#45;מרכז</text>
</g>
<!-- פרשה&#45;מרכז&#45;&gt;מ:דחי -->
<g id="edge7" class="edge">
<title>פרשה&#45;מרכז&#45;&gt;מ:דחי</title>
<path fill="none" stroke="black" d="M62.01,-55.63C76.47,-66.48 95,-80.38 110.93,-92.33"/>
<polygon fill="black" stroke="black" points="108.65,-94.99 118.75,-98.19 112.85,-89.39 108.65,-94.99"/>
<text xml:space="preserve" text-anchor="middle" x="96.25" y="-86.96" font-family="Helvetica,sans-Serif" font-size="9.00">10</text>
</g>
</g>
</svg>
