<?xml version="1.0" encoding="UTF-8" standalone="no"?>
<!DOCTYPE svg PUBLIC "-//W3C//DTD SVG 1.1//EN"
 "http://www.w3.org/Graphics/SVG/1.1/DTD/svg11.dtd">
<!-- Generated by graphviz version 14.1.2 (20260124.0452)
 -->
<!-- Title: template_call_graph Pages: 1 -->
<svg width="351pt" height="422pt"
 viewBox="0.00 0.00 351.00 422.00" xmlns="http://www.w3.org/2000/svg" xmlns:xlink="http://www.w3.org/1999/xlink">
<g id="graph0" class="graph" transform="scale(1 1) rotate(0) translate(4 418)">
<title>template_call_graph</title>
<polygon fill="white" stroke="none" points="-4,4 -4,-418 347,-418 347,4 -4,4"/>
<!-- E -->
<g id="node1" class="node">
<title>E</title>
<polygon fill="none" stroke="black" stroke-width="2" points="54,-225 0,-225 0,-189 54,-189 54,-225"/>
<text xml:space="preserve" text-anchor="middle" x="27" y="-201.97" font-family="SBL Hebrew,Helvetica" font-size="12.00">E</text>
</g>
<!-- מ:כפול -->
<g id="node4" class="node">
<title>מ:כפול</title>
<polygon fill="none" stroke="black" points="154.5,-225 100.5,-225 100.5,-189 154.5,-189 154.5,-225"/>
<text xml:space="preserve" text-anchor="middle" x="127.5" y="-201.97" font-family="SBL Hebrew,Helvetica" font-size="12.00">מ:כפול</text>
</g>
<!-- E&#45;&gt;מ:כפול -->
<g id="edge1" class="edge">
<title>E&#45;&gt;מ:כפול</title>
<path fill="none" stroke="black" d="M54.4,-207C64.89,-207 77.15,-207 88.56,-207"/>
<polygon fill="black" stroke="black" points="88.52,-210.5 98.52,-207 88.52,-203.5 88.52,-210.5"/>
<text xml:space="preserve" text-anchor="middle" x="77.25" y="-208.95" font-family="Helvetica,sans-Serif" font-size="9.00">34</text>
</g>
<!-- מ:טעם ומתג באות אחת -->
<g id="node2" class="node">
<title>מ:טעם ומתג באות אחת</title>
<g id="a_node2"><a xlink:title="מ:טעם ומתג באות אחת">
<polygon fill="none" stroke="black" points="312.25,-414 231.75,-414 231.75,-378 312.25,-378 312.25,-414"/>
<text xml:space="preserve" text-anchor="middle" x="272" y="-390.98" font-family="SBL Hebrew,Helvetica" font-size="12.00">מ:טעם … אחת</text>
</a>
</g>
</g>
<!-- שני טעמים באות אחת קמץ&#45;תחתון&#45;פתח&#45;עליון -->
<g id="node3" class="node">
<title>שני טעמים באות אחת קמץ&#45;תחתון&#45;פתח&#45;עליון</title>
<g id="a_node3"><a xlink:title="שני טעמים באות אחת קמץ&#45;תחתון&#45;פתח&#45;עליון">
<polygon fill="none" stroke="black" points="343,-360 201,-360 201,-324 343,-324 343,-360"/>
<text xml:space="preserve" text-anchor="middle" x="272" y="-336.98" font-family="SBL Hebrew,Helvetica" font-size="12.00">שני … קמץ&#45;תחתון&#45;פתח&#45;עליון</text>
</a>
</g>
</g>
<!-- מ:כפול&#45;&gt;מ:טעם ומתג באות אחת -->
<g id="edge2" class="edge">
<title>מ:כפול&#45;&gt;מ:טעם ומתג באות אחת</title>
<path fill="none" stroke="black" d="M131.78,-225.32C138.66,-258.57 157.72,-329.12 201,-369 206.86,-374.4 213.92,-378.76 221.27,-382.27"/>
<polygon fill="black" stroke="black" points="219.42,-385.29 229.99,-385.96 222.14,-378.84 219.42,-385.29"/>
<text xml:space="preserve" text-anchor="middle" x="177.75" y="-349.61" font-family="Helvetica,sans-Serif" font-size="9.00">1</text>
</g>
<!-- מ:כפול&#45;&gt;שני טעמים באות אחת קמץ&#45;תחתון&#45;פתח&#45;עליון -->
<g id="edge9" class="edge">
<title>מ:כפול&#45;&gt;שני טעמים באות אחת קמץ&#45;תחתון&#45;פתח&#45;עליון</title>
<path fill="none" stroke="black" d="M136.41,-225.19C147.58,-248.93 170.12,-290.34 201,-315 202.12,-315.89 203.27,-316.76 204.44,-317.59"/>
<polygon fill="black" stroke="black" points="202.32,-320.39 212.65,-322.72 206.02,-314.46 202.32,-320.39"/>
<text xml:space="preserve" text-anchor="middle" x="177.75" y="-297.32" font-family="Helvetica,sans-Serif" font-size="9.00">1</text>
</g>
<!-- מ:לגרמיה&#45;2 -->
<g id="node5" class="node">
<title>מ:לגרמיה&#45;2</title>
<polygon fill="none" stroke="black" points="305.88,-306 238.12,-306 238.12,-270 305.88,-270 305.88,-306"/>
<text xml:space="preserve" text-anchor="middle" x="272" y="-282.98" font-family="SBL Hebrew,Helvetica" font-size="12.00">מ:לגרמיה&#45;2</text>
</g>
<!-- מ:כפול&#45;&gt;מ:לגרמיה&#45;2 -->
<g id="edge3" class="edge">
<title>מ:כפול&#45;&gt;מ:לגרמיה&#45;2</title>
<path fill="none" stroke="black" d="M149.97,-225.44C163.87,-236.74 182.72,-250.92 201,-261 209.19,-265.52 218.29,-269.63 227.15,-273.2"/>
<polygon fill="black" stroke="black" points="225.76,-276.41 236.35,-276.74 228.27,-269.88 225.76,-276.41"/>
<text xml:space="preserve" text-anchor="middle" x="177.75" y="-251.28" font-family="Helvetica,sans-Serif" font-size="9.00">14</text>
</g>
<!-- מ:פסק -->
<g id="node6" class="node">
<title>מ:פסק</title>
<polygon fill="none" stroke="black" points="299,-252 245,-252 245,-216 299,-216 299,-252"/>
<text xml:space="preserve" text-anchor="middle" x="272" y="-228.97" font-family="SBL Hebrew,Helvetica" font-size="12.00">מ:פסק</text>
</g>
<!-- מ:כפול&#45;&gt;מ:פסק -->
<g id="edge4" class="edge">
<title>מ:כפול&#45;&gt;מ:פסק</title>
<path fill="none" stroke="black" d="M154.97,-212.02C177.07,-216.2 208.82,-222.22 233.53,-226.9"/>
<polygon fill="black" stroke="black" points="232.71,-230.31 243.19,-228.73 234.01,-223.43 232.71,-230.31"/>
<text xml:space="preserve" text-anchor="middle" x="177.75" y="-219.24" font-family="Helvetica,sans-Serif" font-size="9.00">7</text>
</g>
<!-- מ:קמץ -->
<g id="node7" class="node">
<title>מ:קמץ</title>
<polygon fill="none" stroke="black" points="299,-198 245,-198 245,-162 299,-162 299,-198"/>
<text xml:space="preserve" text-anchor="middle" x="272" y="-174.97" font-family="SBL Hebrew,Helvetica" font-size="12.00">מ:קמץ</text>
</g>
<!-- מ:כפול&#45;&gt;מ:קמץ -->
<g id="edge5" class="edge">
<title>מ:כפול&#45;&gt;מ:קמץ</title>
<path fill="none" stroke="black" d="M154.97,-201.98C177.07,-197.8 208.82,-191.78 233.53,-187.1"/>
<polygon fill="black" stroke="black" points="234.01,-190.57 243.19,-185.27 232.71,-183.69 234.01,-190.57"/>
<text xml:space="preserve" text-anchor="middle" x="177.75" y="-200.22" font-family="Helvetica,sans-Serif" font-size="9.00">4</text>
</g>
<!-- נוסח -->
<g id="node8" class="node">
<title>נוסח</title>
<polygon fill="none" stroke="black" points="299,-144 245,-144 245,-108 299,-108 299,-144"/>
<text xml:space="preserve" text-anchor="middle" x="272" y="-120.97" font-family="SBL Hebrew,Helvetica" font-size="12.00">נוסח</text>
</g>
<!-- מ:כפול&#45;&gt;נוסח -->
<g id="edge6" class="edge">
<title>מ:כפול&#45;&gt;נוסח</title>
<path fill="none" stroke="black" d="M149.97,-188.56C163.87,-177.26 182.72,-163.08 201,-153 211.35,-147.29 223.16,-142.24 234.09,-138.09"/>
<polygon fill="black" stroke="black" points="235.02,-141.48 243.22,-134.77 232.63,-134.9 235.02,-141.48"/>
<text xml:space="preserve" text-anchor="middle" x="177.75" y="-172.29" font-family="Helvetica,sans-Serif" font-size="9.00">42</text>
</g>
<!-- סס -->
<g id="node9" class="node">
<title>סס</title>
<polygon fill="none" stroke="black" points="299,-90 245,-90 245,-54 299,-54 299,-90"/>
<text xml:space="preserve" text-anchor="middle" x="272" y="-66.97" font-family="SBL Hebrew,Helvetica" font-size="12.00">סס</text>
</g>
<!-- מ:כפול&#45;&gt;סס -->
<g id="edge7" class="edge">
<title>מ:כפול&#45;&gt;סס</title>
<path fill="none" stroke="black" d="M136.41,-188.81C147.58,-165.07 170.12,-123.66 201,-99 210.64,-91.3 222.73,-85.6 234.14,-81.48"/>
<polygon fill="black" stroke="black" points="234.92,-84.91 243.33,-78.46 232.73,-78.26 234.92,-84.91"/>
<text xml:space="preserve" text-anchor="middle" x="177.75" y="-128.82" font-family="Helvetica,sans-Serif" font-size="9.00">18</text>
</g>
<!-- פפ -->
<g id="node10" class="node">
<title>פפ</title>
<polygon fill="none" stroke="black" points="299,-36 245,-36 245,0 299,0 299,-36"/>
<text xml:space="preserve" text-anchor="middle" x="272" y="-12.97" font-family="SBL Hebrew,Helvetica" font-size="12.00">פפ</text>
</g>
<!-- מ:כפול&#45;&gt;פפ -->
<g id="edge8" class="edge">
<title>מ:כפול&#45;&gt;פפ</title>
<path fill="none" stroke="black" d="M131.79,-188.7C138.7,-155.46 157.78,-84.95 201,-45 210.13,-36.56 222.19,-30.66 233.72,-26.58"/>
<polygon fill="black" stroke="black" points="234.56,-29.98 243.06,-23.65 232.47,-23.3 234.56,-29.98"/>
<text xml:space="preserve" text-anchor="middle" x="177.75" y="-80.25" font-family="Helvetica,sans-Serif" font-size="9.00">2</text>
</g>
</g>
</svg>
