<?xml version="1.0" encoding="UTF-8" standalone="no"?>
<!DOCTYPE svg PUBLIC "-//W3C//DTD SVG 1.1//EN"
 "http://www.w3.org/Graphics/SVG/1.1/DTD/svg11.dtd">
<!-- Generated by graphviz version 14.1.2 (20260124.0452)
 -->
<!-- Title: template_call_graph Pages: 1 -->
<svg width="277pt" height="314pt"
 viewBox="0.00 0.00 277.00 314.00" xmlns="http://www.w3.org/2000/svg" xmlns:xlink="http://www.w3.org/1999/xlink">
<g id="graph0" class="graph" transform="scale(1 1) rotate(0) translate(4 310)">
<title>template_call_graph</title>
<polygon fill="white" stroke="none" points="-4,4 -4,-310 272.75,-310 272.75,4 -4,4"/>
<!-- E -->
<g id="node1" class="node">
<title>E</title>
<polygon fill="none" stroke="black" stroke-width="2" points="54,-171 0,-171 0,-135 54,-135 54,-171"/>
<text xml:space="preserve" text-anchor="middle" x="27" y="-147.97" font-family="SBL Hebrew,Helvetica" font-size="12.00">E</text>
</g>
<!-- מ:כפול -->
<g id="node2" class="node">
<title>מ:כפול</title>
<polygon fill="none" stroke="black" points="154.5,-171 100.5,-171 100.5,-135 154.5,-135 154.5,-171"/>
<text xml:space="preserve" text-anchor="middle" x="127.5" y="-147.97" font-family="SBL Hebrew,Helvetica" font-size="12.00">מ:כפול</text>
</g>
<!-- E&#45;&gt;מ:כפול -->
<g id="edge1" class="edge">
<title>E&#45;&gt;מ:כפול</title>
<path fill="none" stroke="black" d="M54.4,-153C64.89,-153 77.15,-153 88.56,-153"/>
<polygon fill="black" stroke="black" points="88.52,-156.5 98.52,-153 88.52,-149.5 88.52,-156.5"/>
<text xml:space="preserve" text-anchor="middle" x="77.25" y="-154.95" font-family="Helvetica,sans-Serif" font-size="9.00">34</text>
</g>
<!-- מ:לגרמיה&#45;2 -->
<g id="node3" class="node">
<title>מ:לגרמיה&#45;2</title>
<polygon fill="none" stroke="black" points="268.75,-306 201,-306 201,-270 268.75,-270 268.75,-306"/>
<text xml:space="preserve" text-anchor="middle" x="234.88" y="-282.98" font-family="SBL Hebrew,Helvetica" font-size="12.00">מ:לגרמיה&#45;2</text>
</g>
<!-- מ:כפול&#45;&gt;מ:לגרמיה&#45;2 -->
<g id="edge2" class="edge">
<title>מ:כפול&#45;&gt;מ:לגרמיה&#45;2</title>
<path fill="none" stroke="black" d="M138.59,-171.36C151.41,-193.83 175.04,-232.41 201,-261 201.25,-261.28 201.51,-261.55 201.76,-261.83"/>
<polygon fill="black" stroke="black" points="199.08,-264.1 208.69,-268.56 203.96,-259.08 199.08,-264.1"/>
<text xml:space="preserve" text-anchor="middle" x="177.75" y="-241.04" font-family="Helvetica,sans-Serif" font-size="9.00">14</text>
</g>
<!-- מ:פסק -->
<g id="node4" class="node">
<title>מ:פסק</title>
<polygon fill="none" stroke="black" points="261.88,-252 207.88,-252 207.88,-216 261.88,-216 261.88,-252"/>
<text xml:space="preserve" text-anchor="middle" x="234.88" y="-228.97" font-family="SBL Hebrew,Helvetica" font-size="12.00">מ:פסק</text>
</g>
<!-- מ:כפול&#45;&gt;מ:פסק -->
<g id="edge3" class="edge">
<title>מ:כפול&#45;&gt;מ:פסק</title>
<path fill="none" stroke="black" d="M152.41,-171.38C166.83,-182.46 185.39,-196.73 201.15,-208.85"/>
<polygon fill="black" stroke="black" points="198.8,-211.45 208.86,-214.77 203.06,-205.9 198.8,-211.45"/>
<text xml:space="preserve" text-anchor="middle" x="177.75" y="-195.45" font-family="Helvetica,sans-Serif" font-size="9.00">7</text>
</g>
<!-- מ:קמץ -->
<g id="node5" class="node">
<title>מ:קמץ</title>
<polygon fill="none" stroke="black" points="261.88,-198 207.88,-198 207.88,-162 261.88,-162 261.88,-198"/>
<text xml:space="preserve" text-anchor="middle" x="234.88" y="-174.97" font-family="SBL Hebrew,Helvetica" font-size="12.00">מ:קמץ</text>
</g>
<!-- מ:כפול&#45;&gt;מ:קמץ -->
<g id="edge4" class="edge">
<title>מ:כפול&#45;&gt;מ:קמץ</title>
<path fill="none" stroke="black" d="M154.82,-159.74C167.39,-162.97 182.66,-166.88 196.42,-170.4"/>
<polygon fill="black" stroke="black" points="195.5,-173.78 206.06,-172.87 197.24,-167 195.5,-173.78"/>
<text xml:space="preserve" text-anchor="middle" x="177.75" y="-168.45" font-family="Helvetica,sans-Serif" font-size="9.00">4</text>
</g>
<!-- נוסח -->
<g id="node6" class="node">
<title>נוסח</title>
<polygon fill="none" stroke="black" points="261.88,-144 207.88,-144 207.88,-108 261.88,-108 261.88,-144"/>
<text xml:space="preserve" text-anchor="middle" x="234.88" y="-120.97" font-family="SBL Hebrew,Helvetica" font-size="12.00">נוסח</text>
</g>
<!-- מ:כפול&#45;&gt;נוסח -->
<g id="edge5" class="edge">
<title>מ:כפול&#45;&gt;נוסח</title>
<path fill="none" stroke="black" d="M154.82,-146.26C167.39,-143.03 182.66,-139.12 196.42,-135.6"/>
<polygon fill="black" stroke="black" points="197.24,-139 206.06,-133.13 195.5,-132.22 197.24,-139"/>
<text xml:space="preserve" text-anchor="middle" x="177.75" y="-143.07" font-family="Helvetica,sans-Serif" font-size="9.00">42</text>
</g>
<!-- סס -->
<g id="node7" class="node">
<title>סס</title>
<polygon fill="none" stroke="black" points="261.88,-90 207.88,-90 207.88,-54 261.88,-54 261.88,-90"/>
<text xml:space="preserve" text-anchor="middle" x="234.88" y="-66.97" font-family="SBL Hebrew,Helvetica" font-size="12.00">סס</text>
</g>
<!-- מ:כפול&#45;&gt;סס -->
<g id="edge6" class="edge">
<title>מ:כפול&#45;&gt;סס</title>
<path fill="none" stroke="black" d="M152.41,-134.62C166.83,-123.54 185.39,-109.27 201.15,-97.15"/>
<polygon fill="black" stroke="black" points="203.06,-100.1 208.86,-91.23 198.8,-94.55 203.06,-100.1"/>
<text xml:space="preserve" text-anchor="middle" x="177.75" y="-119.3" font-family="Helvetica,sans-Serif" font-size="9.00">18</text>
</g>
<!-- פפ -->
<g id="node8" class="node">
<title>פפ</title>
<polygon fill="none" stroke="black" points="261.88,-36 207.88,-36 207.88,0 261.88,0 261.88,-36"/>
<text xml:space="preserve" text-anchor="middle" x="234.88" y="-12.97" font-family="SBL Hebrew,Helvetica" font-size="12.00">פפ</text>
</g>
<!-- מ:כפול&#45;&gt;פפ -->
<g id="edge7" class="edge">
<title>מ:כפול&#45;&gt;פפ</title>
<path fill="none" stroke="black" d="M138.59,-134.64C151.41,-112.17 175.04,-73.59 201,-45 201.25,-44.72 201.51,-44.45 201.76,-44.17"/>
<polygon fill="black" stroke="black" points="203.96,-46.92 208.69,-37.44 199.08,-41.9 203.96,-46.92"/>
<text xml:space="preserve" text-anchor="middle" x="177.75" y="-80.43" font-family="Helvetica,sans-Serif" font-size="9.00">2</text>
</g>
</g>
</svg>
