<?xml version="1.0" encoding="UTF-8" standalone="no"?>
<!DOCTYPE svg PUBLIC "-//W3C//DTD SVG 1.1//EN"
 "http://www.w3.org/Graphics/SVG/1.1/DTD/svg11.dtd">
<!-- Generated by graphviz version 14.1.2 (20260124.0452)
 -->
<!-- This file was generated by MAM&#45;basics/py/main_tmpl_survey.py. -->
<!-- Title: template_call_graph Pages: 1 -->
<svg width="381pt" height="272pt"
 viewBox="0.00 0.00 381.00 272.00" xmlns="http://www.w3.org/2000/svg" xmlns:xlink="http://www.w3.org/1999/xlink">
<g id="graph0" class="graph" transform="scale(1 1) rotate(0) translate(4 268.25)">
<title>template_call_graph</title>
<polygon fill="white" stroke="none" points="-4,4 -4,-268.25 377.25,-268.25 377.25,4 -4,4"/>
<text xml:space="preserve" text-anchor="middle" x="186.62" y="-5.75" font-family="Times New Roman,serif" font-size="10.00">מ:כפול, מ:קישור בהערה, מ:קישור פנימי בהערה, נוסח, ש have been discarded</text>
<!-- E -->
<g id="node1" class="node">
<title>E</title>
<polygon fill="none" stroke="black" stroke-width="2" points="54,-163.25 0,-163.25 0,-127.25 54,-127.25 54,-163.25"/>
<text xml:space="preserve" text-anchor="middle" x="27" y="-140.22" font-family="SBL Hebrew,Helvetica" font-size="12.00">E</text>
</g>
<!-- כו״ק -->
<g id="node2" class="node">
<title>כו״ק</title>
<polygon fill="none" stroke="black" points="164,-264.25 110,-264.25 110,-228.25 164,-228.25 164,-264.25"/>
<text xml:space="preserve" text-anchor="middle" x="137" y="-241.22" font-family="SBL Hebrew,Helvetica" font-size="12.00">כו״ק</text>
</g>
<!-- E&#45;&gt;כו״ק -->
<g id="edge1" class="edge">
<title>E&#45;&gt;כו״ק</title>
<path fill="none" stroke="black" d="M36.5,-163.58C44.12,-178.45 56.48,-199.18 72,-213.25 80.03,-220.52 89.95,-226.66 99.57,-231.58"/>
<polygon fill="black" stroke="black" points="97.89,-234.66 108.42,-235.8 100.9,-228.34 97.89,-234.66"/>
<text xml:space="preserve" text-anchor="middle" x="77.25" y="-222.5" font-family="Helvetica,sans-Serif" font-size="9.00">7</text>
</g>
<!-- מ:דחי -->
<g id="node3" class="node">
<title>מ:דחי</title>
<polygon fill="none" stroke="black" points="274,-163.25 220,-163.25 220,-127.25 274,-127.25 274,-163.25"/>
<text xml:space="preserve" text-anchor="middle" x="247" y="-140.22" font-family="SBL Hebrew,Helvetica" font-size="12.00">מ:דחי</text>
</g>
<!-- E&#45;&gt;מ:דחי -->
<g id="edge2" class="edge">
<title>E&#45;&gt;מ:דחי</title>
<path fill="none" stroke="black" d="M54.21,-157.59C67.72,-163.28 84.64,-169.39 100.5,-172.25 132.43,-178 141.57,-178 173.5,-172.25 185.52,-170.08 198.15,-166.05 209.44,-161.75"/>
<polygon fill="black" stroke="black" points="210.41,-165.13 218.38,-158.16 207.8,-158.64 210.41,-165.13"/>
<text xml:space="preserve" text-anchor="middle" x="137" y="-178.51" font-family="Helvetica,sans-Serif" font-size="9.00">2285</text>
</g>
<!-- מ:קו״כ&#45;אם&#45;2 -->
<g id="node4" class="node">
<title>מ:קו״כ&#45;אם&#45;2</title>
<polygon fill="none" stroke="black" points="173.5,-163.25 100.5,-163.25 100.5,-127.25 173.5,-127.25 173.5,-163.25"/>
<text xml:space="preserve" text-anchor="middle" x="137" y="-140.22" font-family="SBL Hebrew,Helvetica" font-size="12.00">מ:קו״כ&#45;אם&#45;2</text>
</g>
<!-- E&#45;&gt;מ:קו״כ&#45;אם&#45;2 -->
<g id="edge3" class="edge">
<title>E&#45;&gt;מ:קו״כ&#45;אם&#45;2</title>
<path fill="none" stroke="black" d="M54.42,-145.25C64.72,-145.25 76.86,-145.25 88.57,-145.25"/>
<polygon fill="black" stroke="black" points="88.55,-148.75 98.55,-145.25 88.55,-141.75 88.55,-148.75"/>
<text xml:space="preserve" text-anchor="middle" x="77.25" y="-147.2" font-family="Helvetica,sans-Serif" font-size="9.00">8</text>
</g>
<!-- מ:קמץ -->
<g id="node5" class="node">
<title>מ:קמץ</title>
<polygon fill="none" stroke="black" points="164,-109.25 110,-109.25 110,-73.25 164,-73.25 164,-109.25"/>
<text xml:space="preserve" text-anchor="middle" x="137" y="-86.22" font-family="SBL Hebrew,Helvetica" font-size="12.00">מ:קמץ</text>
</g>
<!-- E&#45;&gt;מ:קמץ -->
<g id="edge4" class="edge">
<title>E&#45;&gt;מ:קמץ</title>
<path fill="none" stroke="black" d="M54.42,-132.04C68.12,-125.19 85.06,-116.72 99.94,-109.28"/>
<polygon fill="black" stroke="black" points="101.12,-112.6 108.5,-105 97.99,-106.34 101.12,-112.6"/>
<text xml:space="preserve" text-anchor="middle" x="77.25" y="-125.04" font-family="Helvetica,sans-Serif" font-size="9.00">14</text>
</g>
<!-- פרשה&#45;מרכז -->
<g id="node6" class="node">
<title>פרשה&#45;מרכז</title>
<polygon fill="none" stroke="black" points="171.62,-55.25 102.38,-55.25 102.38,-19.25 171.62,-19.25 171.62,-55.25"/>
<text xml:space="preserve" text-anchor="middle" x="137" y="-32.23" font-family="SBL Hebrew,Helvetica" font-size="12.00">פרשה&#45;מרכז</text>
</g>
<!-- E&#45;&gt;פרשה&#45;מרכז -->
<g id="edge5" class="edge">
<title>E&#45;&gt;פרשה&#45;מרכז</title>
<path fill="none" stroke="black" d="M42.64,-126.97C56.68,-109.93 78.87,-84.22 100.5,-64.25 101,-63.79 101.5,-63.33 102.01,-62.87"/>
<polygon fill="black" stroke="black" points="104.14,-65.65 109.53,-56.53 99.63,-60.3 104.14,-65.65"/>
<text xml:space="preserve" text-anchor="middle" x="77.25" y="-93.78" font-family="Helvetica,sans-Serif" font-size="9.00">10</text>
</g>
<!-- כו״ק&#45;&gt;מ:דחי -->
<g id="edge6" class="edge">
<title>כו״ק&#45;&gt;מ:דחי</title>
<path fill="none" stroke="black" d="M164.21,-236.46C176.62,-230.94 191.07,-223.16 202,-213.25 214.25,-202.15 224.53,-186.9 232.06,-173.66"/>
<polygon fill="black" stroke="black" points="235.11,-175.38 236.78,-164.92 228.95,-172.05 235.11,-175.38"/>
<text xml:space="preserve" text-anchor="middle" x="196.75" y="-222.5" font-family="Helvetica,sans-Serif" font-size="9.00">7</text>
</g>
<!-- מ:אות&#45;ג -->
<g id="node7" class="node">
<title>מ:אות&#45;ג</title>
<polygon fill="none" stroke="black" points="371.25,-217.25 317.25,-217.25 317.25,-181.25 371.25,-181.25 371.25,-217.25"/>
<text xml:space="preserve" text-anchor="middle" x="344.25" y="-194.22" font-family="SBL Hebrew,Helvetica" font-size="12.00">מ:אות&#45;ג</text>
</g>
<!-- מ:דחי&#45;&gt;מ:אות&#45;ג -->
<g id="edge7" class="edge">
<title>מ:דחי&#45;&gt;מ:אות&#45;ג</title>
<path fill="none" stroke="black" d="M274.28,-160.15C284.48,-165.93 296.33,-172.65 307.3,-178.87"/>
<polygon fill="black" stroke="black" points="305.31,-181.77 315.74,-183.65 308.77,-175.68 305.31,-181.77"/>
<text xml:space="preserve" text-anchor="middle" x="294.62" y="-174.2" font-family="Helvetica,sans-Serif" font-size="9.00">4</text>
</g>
<!-- מ:אות&#45;ק -->
<g id="node8" class="node">
<title>מ:אות&#45;ק</title>
<polygon fill="none" stroke="black" points="371.25,-163.25 317.25,-163.25 317.25,-127.25 371.25,-127.25 371.25,-163.25"/>
<text xml:space="preserve" text-anchor="middle" x="344.25" y="-140.22" font-family="SBL Hebrew,Helvetica" font-size="12.00">מ:אות&#45;ק</text>
</g>
<!-- מ:דחי&#45;&gt;מ:אות&#45;ק -->
<g id="edge8" class="edge">
<title>מ:דחי&#45;&gt;מ:אות&#45;ק</title>
<path fill="none" stroke="black" d="M274.28,-145.25C283.96,-145.25 295.13,-145.25 305.62,-145.25"/>
<polygon fill="black" stroke="black" points="305.54,-148.75 315.54,-145.25 305.54,-141.75 305.54,-148.75"/>
<text xml:space="preserve" text-anchor="middle" x="294.62" y="-147.2" font-family="Helvetica,sans-Serif" font-size="9.00">2</text>
</g>
<!-- מ:ירושלם -->
<g id="node9" class="node">
<title>מ:ירושלם</title>
<polygon fill="none" stroke="black" points="373.25,-109.25 315.25,-109.25 315.25,-73.25 373.25,-73.25 373.25,-109.25"/>
<text xml:space="preserve" text-anchor="middle" x="344.25" y="-86.22" font-family="SBL Hebrew,Helvetica" font-size="12.00">מ:ירושלם</text>
</g>
<!-- מ:דחי&#45;&gt;מ:ירושלם -->
<g id="edge9" class="edge">
<title>מ:דחי&#45;&gt;מ:ירושלם</title>
<path fill="none" stroke="black" d="M274.28,-130.35C283.88,-124.91 294.93,-118.64 305.34,-112.74"/>
<polygon fill="black" stroke="black" points="306.77,-115.96 313.74,-107.98 303.31,-109.87 306.77,-115.96"/>
<text xml:space="preserve" text-anchor="middle" x="294.62" y="-121.82" font-family="Helvetica,sans-Serif" font-size="9.00">2</text>
</g>
<!-- מ:קו״כ&#45;אם&#45;2&#45;&gt;מ:דחי -->
<g id="edge10" class="edge">
<title>מ:קו״כ&#45;אם&#45;2&#45;&gt;מ:דחי</title>
<path fill="none" stroke="black" d="M173.96,-145.25C185.07,-145.25 197.34,-145.25 208.55,-145.25"/>
<polygon fill="black" stroke="black" points="208.24,-148.75 218.24,-145.25 208.24,-141.75 208.24,-148.75"/>
<text xml:space="preserve" text-anchor="middle" x="196.75" y="-147.2" font-family="Helvetica,sans-Serif" font-size="9.00">8</text>
</g>
<!-- מ:קמץ&#45;&gt;מ:דחי -->
<g id="edge11" class="edge">
<title>מ:קמץ&#45;&gt;מ:דחי</title>
<path fill="none" stroke="black" d="M164.42,-104.46C178.12,-111.31 195.06,-119.78 209.94,-127.22"/>
<polygon fill="black" stroke="black" points="207.99,-130.16 218.5,-131.5 211.12,-123.9 207.99,-130.16"/>
<text xml:space="preserve" text-anchor="middle" x="196.75" y="-125.04" font-family="Helvetica,sans-Serif" font-size="9.00">14</text>
</g>
<!-- פרשה&#45;מרכז&#45;&gt;מ:דחי -->
<g id="edge12" class="edge">
<title>פרשה&#45;מרכז&#45;&gt;מ:דחי</title>
<path fill="none" stroke="black" d="M163.31,-55.55C166.82,-58.36 170.31,-61.31 173.5,-64.25 191.75,-81.1 210.4,-102.04 224.21,-118.4"/>
<polygon fill="black" stroke="black" points="221.3,-120.37 230.39,-125.81 226.67,-115.88 221.3,-120.37"/>
<text xml:space="preserve" text-anchor="middle" x="196.75" y="-93.78" font-family="Helvetica,sans-Serif" font-size="9.00">10</text>
</g>
</g>
</svg>
