<?xml version="1.0" encoding="UTF-8" standalone="no"?>
<!DOCTYPE svg PUBLIC "-//W3C//DTD SVG 1.1//EN"
 "http://www.w3.org/Graphics/SVG/1.1/DTD/svg11.dtd">
<!-- Generated by graphviz version 14.1.2 (20260124.0452)
 -->
<!-- Title: template_call_graph Pages: 1 -->
<svg width="706pt" height="1249pt"
 viewBox="0.00 0.00 706.00 1249.00" xmlns="http://www.w3.org/2000/svg" xmlns:xlink="http://www.w3.org/1999/xlink">
<g id="graph0" class="graph" transform="scale(1 1) rotate(0) translate(4 1244.75)">
<title>template_call_graph</title>
<polygon fill="white" stroke="none" points="-4,4 -4,-1244.75 702,-1244.75 702,4 -4,4"/>
<text xml:space="preserve" text-anchor="middle" x="349" y="-5.75" font-family="Times New Roman,serif" font-size="10.00">מ:כפול, נוסח, ש have been discarded</text>
<!-- C -->
<g id="node1" class="node">
<title>C</title>
<polygon fill="none" stroke="black" stroke-width="2" points="54,-190.25 0,-190.25 0,-154.25 54,-154.25 54,-190.25"/>
<text xml:space="preserve" text-anchor="middle" x="27" y="-167.22" font-family="SBL Hebrew,Helvetica" font-size="12.00">C</text>
</g>
<!-- #בלי קטע:, … -->
<g id="node4" class="node">
<title>#בלי קטע:, …</title>
<g id="a_node4"><a xlink:title="#בלי קטע:&#10;#בלי קטע:דברי הימים א טז/טעמים&#10;#בלי קטע:דברים לב/טעמים&#10;#בלי קטע:יהושע יב/טעמים&#10;#בלי קטע:מלכי כנען/צורת השיר&#10;#בלי קטע:עשרת בני המן/צורת השיר&#10;#בלי קטע:שופטים ה/טעמים&#10;#בלי קטע:שירת אסף/צורת השיר&#10;#בלי קטע:שירת דבורה/צורת השיר&#10;#בלי קטע:שירת דוד/צורת השיר&#10;#בלי קטע:שירת האזינו/צורת השיר&#10;#בלי קטע:שירת הים/צורת השיר&#10;#בלי קטע:שירת העתים/צורת השיר&#10;#בלי קטע:שמואל ב כב/טעמים&#10;#בלי קטע:שמות טו/טעמים&#10;#קטע:אסתר ט/טעמים&#10;#קטע:דברי הימים א טז/טעמים&#10;#קטע:דברים לב/טעמים&#10;#קטע:יהושע יב/טעמים&#10;#קטע:מלכי כנען/צורות נוספות&#10;#קטע:מלכי כנען/צורת השיר&#10;#קטע:עשרת בני המן/צורות נוספות&#10;#קטע:עשרת בני המן/צורת השיר&#10;#קטע:עשרת הדברות בסיס/טעמים&#10;#קטע:עשרת הדברות/טעמים&#10;#קטע:קהלת ג/טעמים&#10;#קטע:שירת אסף/צורות נוספות&#10;#קטע:שירת אסף/צורת השיר&#10;#קטע:שירת דבורה/צורות נוספות&#10;#קטע:שירת דבורה/צורת השיר&#10;#קטע:שירת דוד/צורות נוספות&#10;#קטע:שירת דוד/צורת השיר&#10;#קטע:שירת האזינו/צורות נוספות&#10;#קטע:שירת האזינו/צורת השיר&#10;#קטע:שירת הים/צורות נוספות&#10;#קטע:שירת הים/צורת השיר&#10;#קטע:שירת העתים/צורות נוספות&#10;#קטע:שירת העתים/צורת השיר&#10;#קטע:שמות טו/טעמים&#10;בסיס&#45;משתמש&#10;טעמי המקרא באינטרנט&#10;מ:אין פרשה בתחילת פרק&#10;מ:אין פרשה בתחילת פרק בספרי אמ&quot;ת&#10;מ:אין רווח של פרשה בתחילת פרשת השבוע&#10;מ:טעמי המקרא&#10;מ:טעמי המקרא&#45;סוף&#10;מ:יישור&#45;בשני&#45;הצדדים&#10;מ:יישור&#45;בשני&#45;הצדדים&#45;סוף&#10;מ:סיום בטוב&#10;מ:ספר חדש&#10;מ:רווח בתרי עשר&#10;מ:רווח בתרי עשר בפסוק הראשון&#10;מ:רווח לספר בתהלים&#10;מ:רווח לספר בתהלים בפסוק הראשון&#10;מ:שוליים&#10;מ:שוליים&#45;סוף&#10;ניווט טעמים&#10;עוגן בשורה&#10;צורות כתיבה בספרי אמ&quot;ת&#10;ר4">
<polygon fill="none" stroke="black" points="226.38,-119.25 148.12,-119.25 148.12,-83.25 226.38,-83.25 226.38,-119.25"/>
<text xml:space="preserve" text-anchor="middle" x="187.25" y="-96.22" font-family="SBL Hebrew,Helvetica" font-size="12.00">#בלי קטע:, …</text>
</a>
</g>
</g>
<!-- C&#45;&gt;#בלי קטע:, … -->
<g id="edge1" class="edge">
<title>C&#45;&gt;#בלי קטע:, …</title>
<path fill="none" stroke="black" d="M43.52,-153.87C51.3,-145.71 61.34,-136.64 72,-130.75 91.75,-119.85 115.64,-112.87 136.47,-108.45"/>
<polygon fill="black" stroke="black" points="137.05,-111.9 146.19,-106.54 135.7,-105.03 137.05,-111.9"/>
<text xml:space="preserve" text-anchor="middle" x="85.12" y="-132.7" font-family="Helvetica,sans-Serif" font-size="9.00">13315</text>
</g>
<!-- מ:קישור בהערה, … -->
<g id="node9" class="node">
<title>מ:קישור בהערה, …</title>
<g id="a_node9"><a xlink:title="מ:קישור בהערה&#10;מ:ששש&#10;סס&#10;ססס&#10;פפ&#10;פפפ&#10;ר1">
<polygon fill="none" stroke="black" points="238.38,-347.25 136.12,-347.25 136.12,-311.25 238.38,-311.25 238.38,-347.25"/>
<text xml:space="preserve" text-anchor="middle" x="187.25" y="-324.23" font-family="SBL Hebrew,Helvetica" font-size="12.00">מ:קישור בהערה, …</text>
</a>
</g>
</g>
<!-- C&#45;&gt;מ:קישור בהערה, … -->
<g id="edge4" class="edge">
<title>C&#45;&gt;מ:קישור בהערה, …</title>
<path fill="none" stroke="black" d="M54.21,-188.72C71.62,-200.16 92.33,-214.89 98.25,-223.75 116.94,-251.71 94.81,-271.33 116.25,-297.25 119.14,-300.74 122.49,-303.87 126.13,-306.67"/>
<polygon fill="black" stroke="black" points="124.14,-309.55 134.41,-312.14 128,-303.71 124.14,-309.55"/>
<text xml:space="preserve" text-anchor="middle" x="85.12" y="-225.7" font-family="Helvetica,sans-Serif" font-size="9.00">3523</text>
</g>
<!-- מ:הערה -->
<g id="node11" class="node">
<title>מ:הערה</title>
<polygon fill="none" stroke="black" points="503.25,-441.25 449.25,-441.25 449.25,-405.25 503.25,-405.25 503.25,-441.25"/>
<text xml:space="preserve" text-anchor="middle" x="476.25" y="-418.23" font-family="SBL Hebrew,Helvetica" font-size="12.00">מ:הערה</text>
</g>
<!-- C&#45;&gt;מ:הערה -->
<g id="edge2" class="edge">
<title>C&#45;&gt;מ:הערה</title>
<path fill="none" stroke="black" d="M30.89,-190.45C35.46,-212.67 46.58,-249.59 72,-268.25 139.26,-317.63 179.46,-264.31 258.25,-291.75 259.48,-292.18 377.74,-363.99 439.13,-401.3"/>
<polygon fill="black" stroke="black" points="437.17,-404.2 447.53,-406.4 440.81,-398.22 437.17,-404.2"/>
<text xml:space="preserve" text-anchor="middle" x="187.25" y="-293.7" font-family="Helvetica,sans-Serif" font-size="9.00">4</text>
</g>
<!-- מ:פסוק -->
<g id="node12" class="node">
<title>מ:פסוק</title>
<polygon fill="none" stroke="black" points="214.25,-62.25 160.25,-62.25 160.25,-26.25 214.25,-26.25 214.25,-62.25"/>
<text xml:space="preserve" text-anchor="middle" x="187.25" y="-39.23" font-family="SBL Hebrew,Helvetica" font-size="12.00">מ:פסוק</text>
</g>
<!-- C&#45;&gt;מ:פסוק -->
<g id="edge3" class="edge">
<title>C&#45;&gt;מ:פסוק</title>
<path fill="none" stroke="black" d="M37.61,-154.02C45.62,-139.87 57.95,-120.28 72,-105.75 93.58,-83.42 125.06,-67.3 149.51,-57.18"/>
<polygon fill="black" stroke="black" points="150.78,-60.45 158.78,-53.51 148.2,-53.94 150.78,-60.45"/>
<text xml:space="preserve" text-anchor="middle" x="85.12" y="-107.7" font-family="Helvetica,sans-Serif" font-size="9.00">81</text>
</g>
<!-- מודגש -->
<g id="node13" class="node">
<title>מודגש</title>
<polygon fill="none" stroke="black" points="214.25,-220.25 160.25,-220.25 160.25,-184.25 214.25,-184.25 214.25,-220.25"/>
<text xml:space="preserve" text-anchor="middle" x="187.25" y="-197.22" font-family="SBL Hebrew,Helvetica" font-size="12.00">מודגש</text>
</g>
<!-- C&#45;&gt;מודגש -->
<g id="edge5" class="edge">
<title>C&#45;&gt;מודגש</title>
<path fill="none" stroke="black" d="M54.49,-177.27C80.35,-182.17 119.96,-189.68 148.99,-195.19"/>
<polygon fill="black" stroke="black" points="147.98,-198.56 158.45,-196.98 149.28,-191.68 147.98,-198.56"/>
<text xml:space="preserve" text-anchor="middle" x="85.12" y="-187.4" font-family="Helvetica,sans-Serif" font-size="9.00">2</text>
</g>
<!-- קק -->
<g id="node14" class="node">
<title>קק</title>
<polygon fill="none" stroke="black" points="424.38,-193.25 370.38,-193.25 370.38,-157.25 424.38,-157.25 424.38,-193.25"/>
<text xml:space="preserve" text-anchor="middle" x="397.38" y="-170.22" font-family="SBL Hebrew,Helvetica" font-size="12.00">קק</text>
</g>
<!-- C&#45;&gt;קק -->
<g id="edge6" class="edge">
<title>C&#45;&gt;קק</title>
<path fill="none" stroke="black" d="M54.22,-169.44C71.76,-167.7 95.36,-165.64 116.25,-164.75 179.3,-162.08 195.18,-162.36 258.25,-164.75 292.32,-166.04 331,-169.12 358.75,-171.62"/>
<polygon fill="black" stroke="black" points="358.14,-175.07 368.42,-172.5 358.78,-168.1 358.14,-175.07"/>
<text xml:space="preserve" text-anchor="middle" x="187.25" y="-166.7" font-family="Helvetica,sans-Serif" font-size="9.00">1</text>
</g>
<!-- D -->
<g id="node2" class="node">
<title>D</title>
<polygon fill="none" stroke="black" stroke-width="2" points="54,-55.25 0,-55.25 0,-19.25 54,-19.25 54,-55.25"/>
<text xml:space="preserve" text-anchor="middle" x="27" y="-32.23" font-family="SBL Hebrew,Helvetica" font-size="12.00">D</text>
</g>
<!-- D&#45;&gt;מ:פסוק -->
<g id="edge7" class="edge">
<title>D&#45;&gt;מ:פסוק</title>
<path fill="none" stroke="black" d="M54.36,-37.56C67.55,-37.78 83.75,-38.14 98.25,-38.75 114.83,-39.44 133.14,-40.54 148.75,-41.57"/>
<polygon fill="black" stroke="black" points="148.36,-45.05 158.57,-42.23 148.83,-38.06 148.36,-45.05"/>
<text xml:space="preserve" text-anchor="middle" x="85.12" y="-40.7" font-family="Helvetica,sans-Serif" font-size="9.00">23202</text>
</g>
<!-- E -->
<g id="node3" class="node">
<title>E</title>
<polygon fill="none" stroke="black" stroke-width="2" points="54,-781.25 0,-781.25 0,-745.25 54,-745.25 54,-781.25"/>
<text xml:space="preserve" text-anchor="middle" x="27" y="-758.23" font-family="SBL Hebrew,Helvetica" font-size="12.00">E</text>
</g>
<!-- ירח … יומו&#45;2, … -->
<g id="node5" class="node">
<title>ירח … יומו&#45;2, …</title>
<g id="a_node5"><a xlink:title="ירח בן יומו&#45;2&#10;כתיב ולא קרי&#10;מ:אות מנוקדת&#10;מ:אות תלויה&#10;מ:גרש ותלישא גדולה&#10;מ:גרשיים ותלישא גדולה&#10;מ:טעם ומתג באות אחת&#10;מ:ירושלמה&#10;מ:כו&quot;ק בין שני מקפים&#10;מ:כו&quot;ק כתיב מילה חדה וקרי תרתין מילין בין שני מקפים&#10;מ:כו&quot;ק כתיב תרתין מילין וקרי מילה חדה&#10;מ:כו&quot;ק קרי שונה מהכתיב בשתי מילים&#10;מ:כו&quot;ק של שלוש מילים בהערה אחת&#10;מ:נו&quot;ן הפוכה&#10;מ:צינור&#10;מ:קו&quot;כ קרי שונה מהכתיב בשתי מילים&#10;מ:קישור פנימי בהערה&#10;קרי ולא כתיב&#10;ר0&#10;ר2&#10;ר3&#10;רווח בסוף שורה">
<polygon fill="none" stroke="black" points="230.88,-950.25 143.62,-950.25 143.62,-914.25 230.88,-914.25 230.88,-950.25"/>
<text xml:space="preserve" text-anchor="middle" x="187.25" y="-927.23" font-family="SBL Hebrew,Helvetica" font-size="12.00">ירח … יומו&#45;2, …</text>
</a>
</g>
</g>
<!-- E&#45;&gt;ירח … יומו&#45;2, … -->
<g id="edge9" class="edge">
<title>E&#45;&gt;ירח … יומו&#45;2, …</title>
<path fill="none" stroke="black" d="M34.16,-781.75C45.38,-812.44 72.13,-873.64 116.25,-905.25 121.47,-908.99 127.28,-912.29 133.26,-915.19"/>
<polygon fill="black" stroke="black" points="131.45,-918.22 142.01,-919.06 134.29,-911.81 131.45,-918.22"/>
<text xml:space="preserve" text-anchor="middle" x="85.12" y="-889.49" font-family="Helvetica,sans-Serif" font-size="9.00">1434</text>
</g>
<!-- מ:כו&quot;ק כתיב מילה חדה וקרי תרתין מילין -->
<g id="node6" class="node">
<title>מ:כו&quot;ק כתיב מילה חדה וקרי תרתין מילין</title>
<g id="a_node6"><a xlink:title="מ:כו&quot;ק כתיב מילה חדה וקרי תרתין מילין">
<polygon fill="none" stroke="black" points="228.25,-896.25 146.25,-896.25 146.25,-860.25 228.25,-860.25 228.25,-896.25"/>
<text xml:space="preserve" text-anchor="middle" x="187.25" y="-873.23" font-family="SBL Hebrew,Helvetica" font-size="12.00">מ:כו&quot;ק … מילין</text>
</a>
</g>
</g>
<!-- E&#45;&gt;מ:כו&quot;ק כתיב מילה חדה וקרי תרתין מילין -->
<g id="edge16" class="edge">
<title>E&#45;&gt;מ:כו&quot;ק כתיב מילה חדה וקרי תרתין מילין</title>
<path fill="none" stroke="black" d="M41.53,-781.55C57.3,-801.58 85.18,-833.23 116.25,-851.25 122.31,-854.77 128.92,-858 135.58,-860.91"/>
<polygon fill="black" stroke="black" points="134.02,-864.05 144.6,-864.63 136.69,-857.58 134.02,-864.05"/>
<text xml:space="preserve" text-anchor="middle" x="85.12" y="-839.88" font-family="Helvetica,sans-Serif" font-size="9.00">13</text>
</g>
<!-- מ:כו&quot;ק … אחת, … -->
<g id="node7" class="node">
<title>מ:כו&quot;ק … אחת, …</title>
<g id="a_node7"><a xlink:title="מ:כו&quot;ק של שתי מילים בהערה אחת&#10;מ:קו&quot;כ כתיב מילה חדה וקרי תרתין מילין">
<polygon fill="none" stroke="black" points="235.38,-1058.25 139.12,-1058.25 139.12,-1022.25 235.38,-1022.25 235.38,-1058.25"/>
<text xml:space="preserve" text-anchor="middle" x="187.25" y="-1035.22" font-family="SBL Hebrew,Helvetica" font-size="12.00">מ:כו&quot;ק … אחת, …</text>
</a>
</g>
</g>
<!-- E&#45;&gt;מ:כו&quot;ק … אחת, … -->
<g id="edge17" class="edge">
<title>E&#45;&gt;מ:כו&quot;ק … אחת, …</title>
<path fill="none" stroke="black" d="M29.68,-781.71C33.43,-816.78 44.4,-894.84 72,-954.25 85.81,-983.98 90.11,-993.47 116.25,-1013.25 120.05,-1016.12 124.19,-1018.73 128.5,-1021.08"/>
<polygon fill="black" stroke="black" points="126.89,-1024.19 137.41,-1025.45 129.98,-1017.91 126.89,-1024.19"/>
<text xml:space="preserve" text-anchor="middle" x="85.12" y="-999.35" font-family="Helvetica,sans-Serif" font-size="9.00">9</text>
</g>
<!-- E&#45;&gt;מ:קישור בהערה, … -->
<g id="edge21" class="edge">
<title>E&#45;&gt;מ:קישור בהערה, …</title>
<path fill="none" stroke="black" d="M28.69,-744.91C31.71,-668.76 44.88,-380.12 72,-350.75 85.33,-336.31 105.06,-329.74 124.38,-327.15"/>
<polygon fill="black" stroke="black" points="124.54,-330.65 134.15,-326.2 123.86,-323.69 124.54,-330.65"/>
<text xml:space="preserve" text-anchor="middle" x="85.12" y="-352.7" font-family="Helvetica,sans-Serif" font-size="9.00">5058</text>
</g>
<!-- שני טעמים באות אחת קמץ&#45;תחתון&#45;פתח&#45;עליון -->
<g id="node10" class="node">
<title>שני טעמים באות אחת קמץ&#45;תחתון&#45;פתח&#45;עליון</title>
<g id="a_node10"><a xlink:title="שני טעמים באות אחת קמץ&#45;תחתון&#45;פתח&#45;עליון">
<polygon fill="none" stroke="black" points="258.25,-1004.25 116.25,-1004.25 116.25,-968.25 258.25,-968.25 258.25,-1004.25"/>
<text xml:space="preserve" text-anchor="middle" x="187.25" y="-981.23" font-family="SBL Hebrew,Helvetica" font-size="12.00">שני … קמץ&#45;תחתון&#45;פתח&#45;עליון</text>
</a>
</g>
</g>
<!-- E&#45;&gt;שני טעמים באות אחת קמץ&#45;תחתון&#45;פתח&#45;עליון -->
<g id="edge27" class="edge">
<title>E&#45;&gt;שני טעמים באות אחת קמץ&#45;תחתון&#45;פתח&#45;עליון</title>
<path fill="none" stroke="black" d="M30.31,-781.48C36.39,-821.08 56.66,-914.94 116.25,-959.25 117.59,-960.25 118.97,-961.21 120.38,-962.14"/>
<polygon fill="black" stroke="black" points="118.43,-965.05 128.82,-967.08 121.96,-959.01 118.43,-965.05"/>
<text xml:space="preserve" text-anchor="middle" x="85.12" y="-941.86" font-family="Helvetica,sans-Serif" font-size="9.00">4</text>
</g>
<!-- E&#45;&gt;מ:הערה -->
<g id="edge14" class="edge">
<title>E&#45;&gt;מ:הערה</title>
<path fill="none" stroke="black" d="M28.68,-745.11C31.17,-686.77 41.27,-504.98 72,-456.25 84.61,-436.26 93.66,-433.71 116.25,-426.75 228.92,-392.04 371.07,-406.71 437.64,-416.74"/>
<polygon fill="black" stroke="black" points="436.87,-420.16 447.29,-418.25 437.95,-413.25 436.87,-420.16"/>
<text xml:space="preserve" text-anchor="middle" x="187.25" y="-428.7" font-family="Helvetica,sans-Serif" font-size="9.00">27</text>
</g>
<!-- E&#45;&gt;מודגש -->
<g id="edge23" class="edge">
<title>E&#45;&gt;מודגש</title>
<path fill="none" stroke="black" d="M28.51,-745.12C30.77,-672.07 41.15,-399.49 72,-319.75 87.27,-280.29 123.34,-247.03 150.9,-226.08"/>
<polygon fill="black" stroke="black" points="152.69,-229.11 158.66,-220.35 148.54,-223.48 152.69,-229.11"/>
<text xml:space="preserve" text-anchor="middle" x="85.12" y="-321.7" font-family="Helvetica,sans-Serif" font-size="9.00">19</text>
</g>
<!-- גלגל&#45;2 -->
<g id="node15" class="node">
<title>גלגל&#45;2</title>
<polygon fill="none" stroke="black" points="424.38,-566.25 370.38,-566.25 370.38,-530.25 424.38,-530.25 424.38,-566.25"/>
<text xml:space="preserve" text-anchor="middle" x="397.38" y="-543.23" font-family="SBL Hebrew,Helvetica" font-size="12.00">גלגל&#45;2</text>
</g>
<!-- E&#45;&gt;גלגל&#45;2 -->
<g id="edge8" class="edge">
<title>E&#45;&gt;גלגל&#45;2</title>
<path fill="none" stroke="black" d="M30.33,-744.97C36.36,-706.38 56.45,-617.3 116.25,-582.75 193.29,-538.24 301.98,-539.52 358.66,-544.02"/>
<polygon fill="black" stroke="black" points="358.15,-547.49 368.42,-544.88 358.77,-540.51 358.15,-547.49"/>
<text xml:space="preserve" text-anchor="middle" x="187.25" y="-584.7" font-family="Helvetica,sans-Serif" font-size="9.00">39</text>
</g>
<!-- כו&quot;ק -->
<g id="node16" class="node">
<title>כו&quot;ק</title>
<polygon fill="none" stroke="black" points="214.25,-638.25 160.25,-638.25 160.25,-602.25 214.25,-602.25 214.25,-638.25"/>
<text xml:space="preserve" text-anchor="middle" x="187.25" y="-615.23" font-family="SBL Hebrew,Helvetica" font-size="12.00">כו&quot;ק</text>
</g>
<!-- E&#45;&gt;כו&quot;ק -->
<g id="edge10" class="edge">
<title>E&#45;&gt;כו&quot;ק</title>
<path fill="none" stroke="black" d="M30.16,-744.98C34.06,-720.25 44.6,-676.37 72,-651.75 92.91,-632.96 124.05,-625.25 148.54,-622.15"/>
<polygon fill="black" stroke="black" points="148.86,-625.64 158.45,-621.13 148.14,-618.68 148.86,-625.64"/>
<text xml:space="preserve" text-anchor="middle" x="85.12" y="-653.7" font-family="Helvetica,sans-Serif" font-size="9.00">884</text>
</g>
<!-- מ:אות&#45;ג -->
<g id="node17" class="node">
<title>מ:אות&#45;ג</title>
<polygon fill="none" stroke="black" points="696,-681.25 642,-681.25 642,-645.25 696,-645.25 696,-681.25"/>
<text xml:space="preserve" text-anchor="middle" x="669" y="-658.23" font-family="SBL Hebrew,Helvetica" font-size="12.00">מ:אות&#45;ג</text>
</g>
<!-- E&#45;&gt;מ:אות&#45;ג -->
<g id="edge11" class="edge">
<title>E&#45;&gt;מ:אות&#45;ג</title>
<path fill="none" stroke="black" d="M29.09,-781.45C32.88,-840.91 46.62,-1028.72 72,-1083.25 99.04,-1141.36 122.16,-1171.25 186.25,-1171.25 186.25,-1171.25 186.25,-1171.25 561,-1171.25 659.39,-1171.25 667.78,-801.73 668.12,-693"/>
<polygon fill="black" stroke="black" points="671.62,-693.15 668.13,-683.14 664.62,-693.14 671.62,-693.15"/>
<text xml:space="preserve" text-anchor="middle" x="397.38" y="-1173.2" font-family="Helvetica,sans-Serif" font-size="9.00">54</text>
</g>
<!-- מ:אות&#45;ק -->
<g id="node18" class="node">
<title>מ:אות&#45;ק</title>
<polygon fill="none" stroke="black" points="696,-506.25 642,-506.25 642,-470.25 696,-470.25 696,-506.25"/>
<text xml:space="preserve" text-anchor="middle" x="669" y="-483.23" font-family="SBL Hebrew,Helvetica" font-size="12.00">מ:אות&#45;ק</text>
</g>
<!-- E&#45;&gt;מ:אות&#45;ק -->
<g id="edge12" class="edge">
<title>E&#45;&gt;מ:אות&#45;ק</title>
<path fill="none" stroke="black" d="M28.41,-744.8C30.08,-682.73 38.06,-482.35 72,-429.25 84.54,-409.64 94,-408.07 116.25,-401.25 280.72,-350.87 334.9,-360.95 503.25,-396.25 547.96,-405.63 559.12,-411.53 598.75,-434.25 612.77,-442.29 627.05,-452.92 638.97,-462.63"/>
<polygon fill="black" stroke="black" points="636.5,-465.13 646.42,-468.85 640.99,-459.75 636.5,-465.13"/>
<text xml:space="preserve" text-anchor="middle" x="397.38" y="-383.43" font-family="Helvetica,sans-Serif" font-size="9.00">26</text>
</g>
<!-- מ:דחי -->
<g id="node19" class="node">
<title>מ:דחי</title>
<polygon fill="none" stroke="black" points="587,-681.25 533,-681.25 533,-645.25 587,-645.25 587,-681.25"/>
<text xml:space="preserve" text-anchor="middle" x="560" y="-658.23" font-family="SBL Hebrew,Helvetica" font-size="12.00">מ:דחי</text>
</g>
<!-- E&#45;&gt;מ:דחי -->
<g id="edge13" class="edge">
<title>E&#45;&gt;מ:דחי</title>
<path fill="none" stroke="black" d="M28.06,-744.84C29.37,-698.71 40.22,-579.05 116.25,-540.25 241.18,-476.5 294.75,-489.03 431.25,-521.25 466.07,-529.47 478.35,-531.56 503.25,-557.25 516.54,-570.96 512.56,-579.25 521.25,-596.25 527.88,-609.21 535.71,-623.29 542.52,-635.18"/>
<polygon fill="black" stroke="black" points="539.39,-636.76 547.42,-643.67 545.45,-633.26 539.39,-636.76"/>
<text xml:space="preserve" text-anchor="middle" x="310.88" y="-503.83" font-family="Helvetica,sans-Serif" font-size="9.00">2277</text>
</g>
<!-- מ:ירושלם -->
<g id="node20" class="node">
<title>מ:ירושלם</title>
<polygon fill="none" stroke="black" points="698,-1235.25 640,-1235.25 640,-1199.25 698,-1199.25 698,-1235.25"/>
<text xml:space="preserve" text-anchor="middle" x="669" y="-1212.22" font-family="SBL Hebrew,Helvetica" font-size="12.00">מ:ירושלם</text>
</g>
<!-- E&#45;&gt;מ:ירושלם -->
<g id="edge15" class="edge">
<title>E&#45;&gt;מ:ירושלם</title>
<path fill="none" stroke="black" d="M28.91,-781.74C32.3,-845.97 45.33,-1058.93 72,-1121.25 99.61,-1185.77 116.07,-1230.25 186.25,-1230.25 186.25,-1230.25 186.25,-1230.25 561,-1230.25 583.37,-1230.25 608.18,-1227.42 628.27,-1224.39"/>
<polygon fill="black" stroke="black" points="628.68,-1227.87 638.01,-1222.85 627.58,-1220.96 628.68,-1227.87"/>
<text xml:space="preserve" text-anchor="middle" x="397.38" y="-1232.2" font-family="Helvetica,sans-Serif" font-size="9.00">634</text>
</g>
<!-- מ:לגרמיה&#45;2 -->
<g id="node21" class="node">
<title>מ:לגרמיה&#45;2</title>
<polygon fill="none" stroke="black" points="431.25,-848.25 363.5,-848.25 363.5,-812.25 431.25,-812.25 431.25,-848.25"/>
<text xml:space="preserve" text-anchor="middle" x="397.38" y="-825.23" font-family="SBL Hebrew,Helvetica" font-size="12.00">מ:לגרמיה&#45;2</text>
</g>
<!-- E&#45;&gt;מ:לגרמיה&#45;2 -->
<g id="edge18" class="edge">
<title>E&#45;&gt;מ:לגרמיה&#45;2</title>
<path fill="none" stroke="black" d="M54.22,-764.62C110.93,-767.76 241.3,-776.07 258.25,-786.75 271.24,-794.94 263.31,-807.97 276.25,-816.25 298.44,-830.45 327.73,-834.1 351.84,-834.12"/>
<polygon fill="black" stroke="black" points="351.76,-837.62 361.68,-833.91 351.61,-830.63 351.76,-837.62"/>
<text xml:space="preserve" text-anchor="middle" x="187.25" y="-788.7" font-family="Helvetica,sans-Serif" font-size="9.00">1815</text>
</g>
<!-- מ:מקף אפור -->
<g id="node22" class="node">
<title>מ:מקף אפור</title>
<polygon fill="none" stroke="black" points="594.62,-967.25 525.38,-967.25 525.38,-931.25 594.62,-931.25 594.62,-967.25"/>
<text xml:space="preserve" text-anchor="middle" x="560" y="-944.23" font-family="SBL Hebrew,Helvetica" font-size="12.00">מ:מקף אפור</text>
</g>
<!-- E&#45;&gt;מ:מקף אפור -->
<g id="edge19" class="edge">
<title>E&#45;&gt;מ:מקף אפור</title>
<path fill="none" stroke="black" d="M27.51,-781.54C26.95,-828.23 29.74,-954.72 72,-1048.25 84.64,-1076.21 88.45,-1088.25 116.25,-1101.25 243.53,-1160.79 305.64,-1137.22 431.25,-1074.25 477.06,-1051.29 516.92,-1005.94 539.45,-976.64"/>
<polygon fill="black" stroke="black" points="542.02,-979.04 545.23,-968.95 536.43,-974.84 542.02,-979.04"/>
<text xml:space="preserve" text-anchor="middle" x="310.88" y="-1135.34" font-family="Helvetica,sans-Serif" font-size="9.00">114</text>
</g>
<!-- מ:פסק -->
<g id="node23" class="node">
<title>מ:פסק</title>
<polygon fill="none" stroke="black" points="424.38,-1065.25 370.38,-1065.25 370.38,-1029.25 424.38,-1029.25 424.38,-1065.25"/>
<text xml:space="preserve" text-anchor="middle" x="397.38" y="-1042.22" font-family="SBL Hebrew,Helvetica" font-size="12.00">מ:פסק</text>
</g>
<!-- E&#45;&gt;מ:פסק -->
<g id="edge20" class="edge">
<title>E&#45;&gt;מ:פסק</title>
<path fill="none" stroke="black" d="M28.17,-781.67C29.2,-824.23 35.52,-931.91 72,-1012.25 84.97,-1040.82 87.95,-1053.7 116.25,-1067.25 196.06,-1105.47 303.51,-1079.45 359.29,-1061.06"/>
<polygon fill="black" stroke="black" points="360.28,-1064.42 368.62,-1057.88 358.03,-1057.79 360.28,-1064.42"/>
<text xml:space="preserve" text-anchor="middle" x="187.25" y="-1088.89" font-family="Helvetica,sans-Serif" font-size="9.00">515</text>
</g>
<!-- מ:קמץ -->
<g id="node24" class="node">
<title>מ:קמץ</title>
<polygon fill="none" stroke="black" points="424.38,-715.25 370.38,-715.25 370.38,-679.25 424.38,-679.25 424.38,-715.25"/>
<text xml:space="preserve" text-anchor="middle" x="397.38" y="-692.23" font-family="SBL Hebrew,Helvetica" font-size="12.00">מ:קמץ</text>
</g>
<!-- E&#45;&gt;מ:קמץ -->
<g id="edge22" class="edge">
<title>E&#45;&gt;מ:קמץ</title>
<path fill="none" stroke="black" d="M41.88,-744.98C57.54,-726.03 84.96,-697.54 116.25,-685.75 198.53,-654.75 304.18,-673.23 359.24,-686.79"/>
<polygon fill="black" stroke="black" points="358.18,-690.13 368.73,-689.22 359.91,-683.35 358.18,-690.13"/>
<text xml:space="preserve" text-anchor="middle" x="187.25" y="-687.7" font-family="Helvetica,sans-Serif" font-size="9.00">363</text>
</g>
<!-- פרשה&#45;מרכז -->
<g id="node25" class="node">
<title>פרשה&#45;מרכז</title>
<polygon fill="none" stroke="black" points="345.5,-479.25 276.25,-479.25 276.25,-443.25 345.5,-443.25 345.5,-479.25"/>
<text xml:space="preserve" text-anchor="middle" x="310.88" y="-456.23" font-family="SBL Hebrew,Helvetica" font-size="12.00">פרשה&#45;מרכז</text>
</g>
<!-- E&#45;&gt;פרשה&#45;מרכז -->
<g id="edge24" class="edge">
<title>E&#45;&gt;פרשה&#45;מרכז</title>
<path fill="none" stroke="black" d="M27.98,-744.85C28.33,-687.54 32.69,-513.9 72,-477.75 123.81,-430.11 211.73,-438.47 264.94,-449.46"/>
<polygon fill="black" stroke="black" points="264.06,-452.85 274.58,-451.58 265.57,-446.02 264.06,-452.85"/>
<text xml:space="preserve" text-anchor="middle" x="85.12" y="-479.7" font-family="Helvetica,sans-Serif" font-size="9.00">26</text>
</g>
<!-- קו&quot;כ -->
<g id="node26" class="node">
<title>קו&quot;כ</title>
<polygon fill="none" stroke="black" points="214.25,-842.25 160.25,-842.25 160.25,-806.25 214.25,-806.25 214.25,-842.25"/>
<text xml:space="preserve" text-anchor="middle" x="187.25" y="-819.23" font-family="SBL Hebrew,Helvetica" font-size="12.00">קו&quot;כ</text>
</g>
<!-- E&#45;&gt;קו&quot;כ -->
<g id="edge25" class="edge">
<title>E&#45;&gt;קו&quot;כ</title>
<path fill="none" stroke="black" d="M54.31,-781.7C59.98,-785.18 66.06,-788.57 72,-791.25 96.79,-802.44 126.32,-810.85 149.15,-816.38"/>
<polygon fill="black" stroke="black" points="148.08,-819.73 158.62,-818.59 149.68,-812.91 148.08,-819.73"/>
<text xml:space="preserve" text-anchor="middle" x="85.12" y="-802.83" font-family="Helvetica,sans-Serif" font-size="9.00">126</text>
</g>
<!-- קו&quot;כ&#45;אם -->
<g id="node27" class="node">
<title>קו&quot;כ&#45;אם</title>
<polygon fill="none" stroke="black" points="214.25,-741.25 160.25,-741.25 160.25,-705.25 214.25,-705.25 214.25,-741.25"/>
<text xml:space="preserve" text-anchor="middle" x="187.25" y="-718.23" font-family="SBL Hebrew,Helvetica" font-size="12.00">קו&quot;כ&#45;אם</text>
</g>
<!-- E&#45;&gt;קו&quot;כ&#45;אם -->
<g id="edge26" class="edge">
<title>E&#45;&gt;קו&quot;כ&#45;אם</title>
<path fill="none" stroke="black" d="M54.49,-756.55C80.35,-750.02 119.96,-740.01 148.99,-732.67"/>
<polygon fill="black" stroke="black" points="149.64,-736.12 158.47,-730.27 147.92,-729.33 149.64,-736.12"/>
<text xml:space="preserve" text-anchor="middle" x="85.12" y="-753.38" font-family="Helvetica,sans-Serif" font-size="9.00">146</text>
</g>
<!-- מ:כו&quot;ק כתיב מילה חדה וקרי תרתין מילין&#45;&gt;מ:לגרמיה&#45;2 -->
<g id="edge38" class="edge">
<title>מ:כו&quot;ק כתיב מילה חדה וקרי תרתין מילין&#45;&gt;מ:לגרמיה&#45;2</title>
<path fill="none" stroke="black" d="M228.58,-877.27C260.89,-875.51 307.03,-870.78 345.5,-858.25 349.42,-856.97 353.39,-855.39 357.29,-853.63"/>
<polygon fill="black" stroke="black" points="358.59,-856.89 366.01,-849.32 355.49,-850.61 358.59,-856.89"/>
<text xml:space="preserve" text-anchor="middle" x="310.88" y="-874.72" font-family="Helvetica,sans-Serif" font-size="9.00">1</text>
</g>
<!-- מ:כו&quot;ק כתיב מילה חדה וקרי תרתין מילין&#45;&gt;מ:פסק -->
<g id="edge39" class="edge">
<title>מ:כו&quot;ק כתיב מילה חדה וקרי תרתין מילין&#45;&gt;מ:פסק</title>
<path fill="none" stroke="black" d="M228.44,-886.19C239.51,-890.2 250.57,-896.22 258.25,-905.25 283.54,-935 251.99,-960.65 276.25,-991.25 281.91,-998.39 326.54,-1018.12 359.75,-1032.14"/>
<polygon fill="black" stroke="black" points="358.1,-1035.24 368.68,-1035.88 360.81,-1028.79 358.1,-1035.24"/>
<text xml:space="preserve" text-anchor="middle" x="310.88" y="-1027.03" font-family="Helvetica,sans-Serif" font-size="9.00">3</text>
</g>
<!-- מ:כו&quot;ק … אחת, …&#45;&gt;מ:פסק -->
<g id="edge40" class="edge">
<title>מ:כו&quot;ק … אחת, …&#45;&gt;מ:פסק</title>
<path fill="none" stroke="black" d="M235.74,-1041.85C272.98,-1043.1 324.1,-1044.82 358.59,-1045.98"/>
<polygon fill="black" stroke="black" points="358.42,-1049.48 368.54,-1046.31 358.66,-1042.48 358.42,-1049.48"/>
<text xml:space="preserve" text-anchor="middle" x="310.88" y="-1047.32" font-family="Helvetica,sans-Serif" font-size="9.00">2</text>
</g>
<!-- מ:כל קמץ קטן מרכא -->
<g id="node8" class="node">
<title>מ:כל קמץ קטן מרכא</title>
<g id="a_node8"><a xlink:title="מ:כל קמץ קטן מרכא">
<polygon fill="none" stroke="black" points="598.75,-735.25 521.25,-735.25 521.25,-699.25 598.75,-699.25 598.75,-735.25"/>
<text xml:space="preserve" text-anchor="middle" x="560" y="-712.23" font-family="SBL Hebrew,Helvetica" font-size="12.00">מ:כל … מרכא</text>
</a>
</g>
</g>
<!-- מ:טעם -->
<g id="node29" class="node">
<title>מ:טעם</title>
<polygon fill="none" stroke="black" points="424.38,-997.25 370.38,-997.25 370.38,-961.25 424.38,-961.25 424.38,-997.25"/>
<text xml:space="preserve" text-anchor="middle" x="397.38" y="-974.23" font-family="SBL Hebrew,Helvetica" font-size="12.00">מ:טעם</text>
</g>
<!-- שני טעמים באות אחת קמץ&#45;תחתון&#45;פתח&#45;עליון&#45;&gt;מ:טעם -->
<g id="edge51" class="edge">
<title>שני טעמים באות אחת קמץ&#45;תחתון&#45;פתח&#45;עליון&#45;&gt;מ:טעם</title>
<path fill="none" stroke="black" d="M258.36,-981.55C264.41,-981.24 270.44,-980.97 276.25,-980.75 303.89,-979.71 335.12,-979.35 358.81,-979.24"/>
<polygon fill="black" stroke="black" points="358.62,-982.74 368.61,-979.21 358.6,-975.74 358.62,-982.74"/>
<text xml:space="preserve" text-anchor="middle" x="310.88" y="-982.7" font-family="Helvetica,sans-Serif" font-size="9.00">4</text>
</g>
<!-- מ:הערה&#45;&gt;מ:אות&#45;ג -->
<g id="edge36" class="edge">
<title>מ:הערה&#45;&gt;מ:אות&#45;ג</title>
<path fill="none" stroke="black" d="M492.82,-441.47C496.3,-445.63 499.94,-450.06 503.25,-454.25 509.79,-462.51 610.07,-598.1 616.75,-606.25 625.08,-616.41 634.62,-627.22 643.18,-636.66"/>
<polygon fill="black" stroke="black" points="640.36,-638.76 649.69,-643.77 645.52,-634.03 640.36,-638.76"/>
<text xml:space="preserve" text-anchor="middle" x="560" y="-583.36" font-family="Helvetica,sans-Serif" font-size="9.00">5</text>
</g>
<!-- מ:הערה&#45;&gt;מ:אות&#45;ק -->
<g id="edge37" class="edge">
<title>מ:הערה&#45;&gt;מ:אות&#45;ק</title>
<path fill="none" stroke="black" d="M503.37,-432.15C536.43,-443.42 593.58,-462.89 631.09,-475.67"/>
<polygon fill="black" stroke="black" points="629.55,-478.85 640.15,-478.76 631.81,-472.22 629.55,-478.85"/>
<text xml:space="preserve" text-anchor="middle" x="560" y="-465.98" font-family="Helvetica,sans-Serif" font-size="9.00">1</text>
</g>
<!-- מ:עלייה -->
<g id="node28" class="node">
<title>מ:עלייה</title>
<polygon fill="none" stroke="black" points="424.38,-62.25 370.38,-62.25 370.38,-26.25 424.38,-26.25 424.38,-62.25"/>
<text xml:space="preserve" text-anchor="middle" x="397.38" y="-39.23" font-family="SBL Hebrew,Helvetica" font-size="12.00">מ:עלייה</text>
</g>
<!-- מ:פסוק&#45;&gt;מ:עלייה -->
<g id="edge41" class="edge">
<title>מ:פסוק&#45;&gt;מ:עלייה</title>
<path fill="none" stroke="black" d="M214.61,-44.25C251.02,-44.25 316.93,-44.25 358.59,-44.25"/>
<polygon fill="black" stroke="black" points="358.39,-47.75 368.39,-44.25 358.39,-40.75 358.39,-47.75"/>
<text xml:space="preserve" text-anchor="middle" x="310.88" y="-46.2" font-family="Helvetica,sans-Serif" font-size="9.00">532</text>
</g>
<!-- מודגש&#45;&gt;קק -->
<g id="edge45" class="edge">
<title>מודגש&#45;&gt;קק</title>
<path fill="none" stroke="black" d="M214.61,-198.83C251.02,-194.11 316.93,-185.56 358.59,-180.15"/>
<polygon fill="black" stroke="black" points="358.93,-183.64 368.4,-178.88 358.03,-176.69 358.93,-183.64"/>
<text xml:space="preserve" text-anchor="middle" x="310.88" y="-192.32" font-family="Helvetica,sans-Serif" font-size="9.00">2</text>
</g>
<!-- כו&quot;ק&#45;&gt;גלגל&#45;2 -->
<g id="edge28" class="edge">
<title>כו&quot;ק&#45;&gt;גלגל&#45;2</title>
<path fill="none" stroke="black" d="M214.43,-602.03C231.34,-591.08 254.24,-577.76 276.25,-569.75 302.94,-560.04 334.62,-554.6 358.74,-551.63"/>
<polygon fill="black" stroke="black" points="358.88,-555.13 368.42,-550.53 358.09,-548.18 358.88,-555.13"/>
<text xml:space="preserve" text-anchor="middle" x="310.88" y="-571.7" font-family="Helvetica,sans-Serif" font-size="9.00">1</text>
</g>
<!-- כו&quot;ק&#45;&gt;מ:אות&#45;ק -->
<g id="edge29" class="edge">
<title>כו&quot;ק&#45;&gt;מ:אות&#45;ק</title>
<path fill="none" stroke="black" d="M214.47,-616.88C259.38,-610.77 353.67,-596.52 431.25,-575.25 503.77,-555.36 585.54,-523.01 631.5,-503.86"/>
<polygon fill="black" stroke="black" points="632.58,-507.2 640.45,-500.11 629.88,-500.75 632.58,-507.2"/>
<text xml:space="preserve" text-anchor="middle" x="476.25" y="-571.43" font-family="Helvetica,sans-Serif" font-size="9.00">1</text>
</g>
<!-- כו&quot;ק&#45;&gt;מ:דחי -->
<g id="edge30" class="edge">
<title>כו&quot;ק&#45;&gt;מ:דחי</title>
<path fill="none" stroke="black" d="M214.73,-621.98C246.02,-624.12 299.63,-628.14 345.5,-633.25 407.38,-640.15 479,-650.75 521.56,-657.33"/>
<polygon fill="black" stroke="black" points="520.85,-660.76 531.27,-658.84 521.93,-653.84 520.85,-660.76"/>
<text xml:space="preserve" text-anchor="middle" x="397.38" y="-645.92" font-family="Helvetica,sans-Serif" font-size="9.00">7</text>
</g>
<!-- כו&quot;ק&#45;&gt;מ:לגרמיה&#45;2 -->
<g id="edge31" class="edge">
<title>כו&quot;ק&#45;&gt;מ:לגרמיה&#45;2</title>
<path fill="none" stroke="black" d="M214.73,-627.06C229.58,-632.19 247.27,-640.72 258.25,-654.25 279.04,-679.86 256.89,-699.55 276.25,-726.25 297.59,-755.67 318.08,-745.89 345.5,-769.75 356.82,-779.6 367.76,-792.08 376.57,-803.14"/>
<polygon fill="black" stroke="black" points="373.62,-805.05 382.5,-810.81 379.15,-800.76 373.62,-805.05"/>
<text xml:space="preserve" text-anchor="middle" x="310.88" y="-771.7" font-family="Helvetica,sans-Serif" font-size="9.00">9</text>
</g>
<!-- כו&quot;ק&#45;&gt;מ:קמץ -->
<g id="edge32" class="edge">
<title>כו&quot;ק&#45;&gt;מ:קמץ</title>
<path fill="none" stroke="black" d="M214.59,-621.89C246.92,-624.77 302.7,-632.62 345.5,-653.75 354.64,-658.26 363.48,-664.79 371.17,-671.42"/>
<polygon fill="black" stroke="black" points="368.74,-673.94 378.48,-678.11 373.47,-668.78 368.74,-673.94"/>
<text xml:space="preserve" text-anchor="middle" x="310.88" y="-655.7" font-family="Helvetica,sans-Serif" font-size="9.00">10</text>
</g>
<!-- מ:דחי&#45;&gt;מ:אות&#45;ג -->
<g id="edge33" class="edge">
<title>מ:דחי&#45;&gt;מ:אות&#45;ג</title>
<path fill="none" stroke="black" d="M587.45,-663.25C600.41,-663.25 616.24,-663.25 630.42,-663.25"/>
<polygon fill="black" stroke="black" points="630.34,-666.75 640.34,-663.25 630.34,-659.75 630.34,-666.75"/>
<text xml:space="preserve" text-anchor="middle" x="619.38" y="-665.2" font-family="Helvetica,sans-Serif" font-size="9.00">4</text>
</g>
<!-- מ:דחי&#45;&gt;מ:אות&#45;ק -->
<g id="edge34" class="edge">
<title>מ:דחי&#45;&gt;מ:אות&#45;ק</title>
<path fill="none" stroke="black" d="M585.6,-645C590.32,-640.81 594.96,-636.14 598.75,-631.25 626.32,-595.68 646.88,-547.36 658.16,-517"/>
<polygon fill="black" stroke="black" points="661.4,-518.32 661.51,-507.73 654.82,-515.94 661.4,-518.32"/>
<text xml:space="preserve" text-anchor="middle" x="619.38" y="-604.49" font-family="Helvetica,sans-Serif" font-size="9.00">2</text>
</g>
<!-- מ:דחי&#45;&gt;מ:ירושלם -->
<g id="edge35" class="edge">
<title>מ:דחי&#45;&gt;מ:ירושלם</title>
<path fill="none" stroke="black" d="M587.23,-677.64C591.71,-681.2 595.85,-685.41 598.75,-690.25 649.73,-775.25 663.91,-1088.66 667.16,-1187.32"/>
<polygon fill="black" stroke="black" points="663.66,-1187.36 667.47,-1197.25 670.65,-1187.14 663.66,-1187.36"/>
<text xml:space="preserve" text-anchor="middle" x="619.38" y="-751.76" font-family="Helvetica,sans-Serif" font-size="9.00">2</text>
</g>
<!-- מ:קמץ&#45;&gt;מ:כל קמץ קטן מרכא -->
<g id="edge43" class="edge">
<title>מ:קמץ&#45;&gt;מ:כל קמץ קטן מרכא</title>
<path fill="none" stroke="black" d="M424.7,-699.83C445.94,-701.98 476.55,-705.25 503.25,-708.75 505.4,-709.03 507.59,-709.33 509.81,-709.63"/>
<polygon fill="black" stroke="black" points="509.05,-713.06 519.45,-711.01 510.04,-706.13 509.05,-713.06"/>
<text xml:space="preserve" text-anchor="middle" x="476.25" y="-710.7" font-family="Helvetica,sans-Serif" font-size="9.00">2</text>
</g>
<!-- מ:קמץ&#45;&gt;מ:דחי -->
<g id="edge42" class="edge">
<title>מ:קמץ&#45;&gt;מ:דחי</title>
<path fill="none" stroke="black" d="M424.54,-691.71C450.83,-686.15 491.61,-677.51 521.37,-671.22"/>
<polygon fill="black" stroke="black" points="522.04,-674.65 531.1,-669.16 520.59,-667.8 522.04,-674.65"/>
<text xml:space="preserve" text-anchor="middle" x="476.25" y="-688.2" font-family="Helvetica,sans-Serif" font-size="9.00">14</text>
</g>
<!-- מ:קמץ&#45;&gt;מ:מקף אפור -->
<g id="edge44" class="edge">
<title>מ:קמץ&#45;&gt;מ:מקף אפור</title>
<path fill="none" stroke="black" d="M414.34,-715.53C419.91,-722.2 426.06,-729.91 431.25,-737.25 475.85,-800.37 520.83,-879.43 543.65,-920.89"/>
<polygon fill="black" stroke="black" points="540.49,-922.4 548.36,-929.49 546.63,-919.04 540.49,-922.4"/>
<text xml:space="preserve" text-anchor="middle" x="476.25" y="-847.14" font-family="Helvetica,sans-Serif" font-size="9.00">2</text>
</g>
<!-- פרשה&#45;מרכז&#45;&gt;מ:דחי -->
<g id="edge46" class="edge">
<title>פרשה&#45;מרכז&#45;&gt;מ:דחי</title>
<path fill="none" stroke="black" d="M345.99,-454.9C389.08,-449.06 462.49,-446.68 503.25,-488.25 548.1,-533.99 490.74,-574.93 521.25,-631.25 522.41,-633.4 523.78,-635.46 525.3,-637.44"/>
<polygon fill="black" stroke="black" points="522.34,-639.39 531.69,-644.38 527.49,-634.65 522.34,-639.39"/>
<text xml:space="preserve" text-anchor="middle" x="397.38" y="-456.12" font-family="Helvetica,sans-Serif" font-size="9.00">10</text>
</g>
<!-- קו&quot;כ&#45;&gt;מ:לגרמיה&#45;2 -->
<g id="edge47" class="edge">
<title>קו&quot;כ&#45;&gt;מ:לגרמיה&#45;2</title>
<path fill="none" stroke="black" d="M214.63,-830.71C232.01,-834.63 255.34,-839.25 276.25,-841.25 306.89,-844.18 314.9,-844.52 345.5,-841.25 347.66,-841.02 349.86,-840.74 352.07,-840.41"/>
<polygon fill="black" stroke="black" points="352.4,-843.9 361.66,-838.75 351.21,-837.01 352.4,-843.9"/>
<text xml:space="preserve" text-anchor="middle" x="310.88" y="-845.53" font-family="Helvetica,sans-Serif" font-size="9.00">1</text>
</g>
<!-- קו&quot;כ&#45;אם&#45;&gt;מ:דחי -->
<g id="edge48" class="edge">
<title>קו&quot;כ&#45;אם&#45;&gt;מ:דחי</title>
<path fill="none" stroke="black" d="M214.66,-727.79C286.28,-739.82 480.42,-770.47 503.25,-753.25 526.5,-735.71 504.47,-714.05 521.25,-690.25 522.21,-688.89 523.26,-687.58 524.37,-686.31"/>
<polygon fill="black" stroke="black" points="526.57,-689.05 531.45,-679.65 521.77,-683.96 526.57,-689.05"/>
<text xml:space="preserve" text-anchor="middle" x="397.38" y="-758.41" font-family="Helvetica,sans-Serif" font-size="9.00">4</text>
</g>
<!-- קו&quot;כ&#45;אם&#45;&gt;מ:לגרמיה&#45;2 -->
<g id="edge49" class="edge">
<title>קו&quot;כ&#45;אם&#45;&gt;מ:לגרמיה&#45;2</title>
<path fill="none" stroke="black" d="M214.49,-731.3C228.55,-736.53 245.54,-744.42 258.25,-755.25 269.23,-764.6 264.81,-773.46 276.25,-782.25 302.03,-802.05 315.41,-793.45 345.5,-805.75 347.95,-806.75 350.45,-807.81 352.96,-808.91"/>
<polygon fill="black" stroke="black" points="351.32,-812.01 361.87,-812.96 354.21,-805.64 351.32,-812.01"/>
<text xml:space="preserve" text-anchor="middle" x="310.88" y="-807.7" font-family="Helvetica,sans-Serif" font-size="9.00">2</text>
</g>
<!-- קו&quot;כ&#45;אם&#45;&gt;מ:קמץ -->
<g id="edge50" class="edge">
<title>קו&quot;כ&#45;אם&#45;&gt;מ:קמץ</title>
<path fill="none" stroke="black" d="M214.61,-719.96C251.02,-715.41 316.93,-707.17 358.59,-701.97"/>
<polygon fill="black" stroke="black" points="358.91,-705.46 368.4,-700.74 358.04,-698.51 358.91,-705.46"/>
<text xml:space="preserve" text-anchor="middle" x="310.88" y="-713.76" font-family="Helvetica,sans-Serif" font-size="9.00">1</text>
</g>
</g>
</svg>
