<?xml version="1.0" encoding="UTF-8" standalone="no"?>
<!DOCTYPE svg PUBLIC "-//W3C//DTD SVG 1.1//EN"
 "http://www.w3.org/Graphics/SVG/1.1/DTD/svg11.dtd">
<!-- Generated by graphviz version 14.1.2 (20260124.0452)
 -->
<!-- Title: template_call_graph Pages: 1 -->
<svg width="450pt" height="199pt"
 viewBox="0.00 0.00 450.00 199.00" xmlns="http://www.w3.org/2000/svg" xmlns:xlink="http://www.w3.org/1999/xlink">
<g id="graph0" class="graph" transform="scale(1 1) rotate(0) translate(4 195)">
<title>template_call_graph</title>
<polygon fill="white" stroke="none" points="-4,4 -4,-195 446,-195 446,4 -4,4"/>
<!-- C -->
<g id="node1" class="node">
<title>C</title>
<polygon fill="none" stroke="black" stroke-width="2" points="154.5,-191 100.5,-191 100.5,-155 154.5,-155 154.5,-191"/>
<text xml:space="preserve" text-anchor="middle" x="127.5" y="-167.97" font-family="SBL Hebrew,Helvetica" font-size="12.00">C</text>
</g>
<!-- נוסח -->
<g id="node5" class="node">
<title>נוסח</title>
<polygon fill="none" stroke="black" points="260.25,-113 206.25,-113 206.25,-77 260.25,-77 260.25,-113"/>
<text xml:space="preserve" text-anchor="middle" x="233.25" y="-89.97" font-family="SBL Hebrew,Helvetica" font-size="12.00">נוסח</text>
</g>
<!-- C&#45;&gt;נוסח -->
<g id="edge1" class="edge">
<title>C&#45;&gt;נוסח</title>
<path fill="none" stroke="black" d="M153.09,-154.52C166.78,-144.22 184.03,-131.25 198.92,-120.06"/>
<polygon fill="black" stroke="black" points="200.74,-123.07 206.63,-114.26 196.53,-117.47 200.74,-123.07"/>
<text xml:space="preserve" text-anchor="middle" x="180.38" y="-140.62" font-family="Helvetica,sans-Serif" font-size="9.00">277</text>
</g>
<!-- D -->
<g id="node2" class="node">
<title>D</title>
<polygon fill="none" stroke="black" stroke-width="2" points="154.5,-137 100.5,-137 100.5,-101 154.5,-101 154.5,-137"/>
<text xml:space="preserve" text-anchor="middle" x="127.5" y="-113.97" font-family="SBL Hebrew,Helvetica" font-size="12.00">D</text>
</g>
<!-- D&#45;&gt;נוסח -->
<g id="edge2" class="edge">
<title>D&#45;&gt;נוסח</title>
<path fill="none" stroke="black" d="M154.95,-112.88C167.02,-110.09 181.54,-106.73 194.71,-103.68"/>
<polygon fill="black" stroke="black" points="195.42,-107.11 204.37,-101.45 193.84,-100.29 195.42,-107.11"/>
<text xml:space="preserve" text-anchor="middle" x="180.38" y="-110.39" font-family="Helvetica,sans-Serif" font-size="9.00">35</text>
</g>
<!-- E -->
<g id="node3" class="node">
<title>E</title>
<polygon fill="none" stroke="black" stroke-width="2" points="54,-63 0,-63 0,-27 54,-27 54,-63"/>
<text xml:space="preserve" text-anchor="middle" x="27" y="-39.98" font-family="SBL Hebrew,Helvetica" font-size="12.00">E</text>
</g>
<!-- E&#45;&gt;נוסח -->
<g id="edge4" class="edge">
<title>E&#45;&gt;נוסח</title>
<path fill="none" stroke="black" d="M54.28,-51.43C90.06,-60.19 154.27,-75.91 194.99,-85.88"/>
<polygon fill="black" stroke="black" points="194.05,-89.25 204.6,-88.23 195.72,-82.45 194.05,-89.25"/>
<text xml:space="preserve" text-anchor="middle" x="127.5" y="-77.74" font-family="Helvetica,sans-Serif" font-size="9.00">3539</text>
</g>
<!-- מ:כפול -->
<g id="node6" class="node">
<title>מ:כפול</title>
<polygon fill="none" stroke="black" points="154.5,-36 100.5,-36 100.5,0 154.5,0 154.5,-36"/>
<text xml:space="preserve" text-anchor="middle" x="127.5" y="-12.97" font-family="SBL Hebrew,Helvetica" font-size="12.00">מ:כפול</text>
</g>
<!-- E&#45;&gt;מ:כפול -->
<g id="edge3" class="edge">
<title>E&#45;&gt;מ:כפול</title>
<path fill="none" stroke="black" d="M54.4,-37.76C65.11,-34.83 77.67,-31.39 89.28,-28.2"/>
<polygon fill="black" stroke="black" points="89.85,-31.67 98.57,-25.66 88,-24.92 89.85,-31.67"/>
<text xml:space="preserve" text-anchor="middle" x="77.25" y="-34.26" font-family="Helvetica,sans-Serif" font-size="9.00">34</text>
</g>
<!-- direct children of נוסח -->
<g id="node4" class="node">
<title>direct children of נוסח</title>
<g id="a_node4"><a xlink:title="גלגל&#45;2&#10;כו&quot;ק&#10;כתיב ולא קרי&#10;מ:אות מנוקדת&#10;מ:אות&#45;ג&#10;מ:אות&#45;ק&#10;מ:אין פרשה בתחילת פרק&#10;מ:אין פרשה בתחילת פרק בספרי אמ&quot;ת&#10;מ:גרש ותלישא גדולה&#10;מ:גרשיים ותלישא גדולה&#10;מ:דחי&#10;מ:טעם ומתג באות אחת&#10;מ:ירושלם&#10;מ:כו&quot;ק בין שני מקפים&#10;מ:כו&quot;ק כתיב מילה חדה וקרי תרתין מילין&#10;מ:כו&quot;ק כתיב מילה חדה וקרי תרתין מילין בין שני מקפים&#10;מ:כו&quot;ק כתיב תרתין מילין וקרי מילה חדה&#10;מ:כו&quot;ק קרי שונה מהכתיב בשתי מילים&#10;מ:כו&quot;ק של שלוש מילים בהערה אחת&#10;מ:כו&quot;ק של שתי מילים בהערה אחת&#10;מ:לגרמיה&#45;2&#10;מ:מקף אפור&#10;מ:נו&quot;ן הפוכה&#10;מ:סיום בטוב&#10;מ:פסוק&#10;מ:פסק&#10;מ:צינור&#10;מ:קו&quot;כ כתיב מילה חדה וקרי תרתין מילין&#10;מ:קו&quot;כ קרי שונה מהכתיב בשתי מילים&#10;מ:קישור בהערה&#10;מ:קישור פנימי בהערה&#10;מ:קמץ&#10;מודגש&#10;סס&#10;ססס&#10;פפ&#10;פפפ&#10;קו&quot;כ&#10;קו&quot;כ&#45;אם&#10;קרי ולא כתיב&#10;ר0&#10;ר1&#10;ר3&#10;ר4&#10;ש&#10;שני טעמים באות אחת קמץ&#45;תחתון&#45;פתח&#45;עליון">
<polygon fill="none" stroke="black" points="442,-113 317.25,-113 317.25,-77 442,-77 442,-113"/>
<text xml:space="preserve" text-anchor="middle" x="379.62" y="-89.97" font-family="SBL Hebrew,Helvetica" font-size="12.00">direct children of נוסח</text>
</a>
</g>
</g>
<!-- נוסח&#45;&gt;direct children of נוסח -->
<g id="edge6" class="edge">
<title>נוסח&#45;&gt;direct children of נוסח</title>
<path fill="none" stroke="black" d="M260.73,-95C273.56,-95 289.67,-95 305.81,-95"/>
<polygon fill="black" stroke="black" points="305.45,-98.5 315.45,-95 305.45,-91.5 305.45,-98.5"/>
<text xml:space="preserve" text-anchor="middle" x="288.75" y="-96.95" font-family="Helvetica,sans-Serif" font-size="9.00">4214</text>
</g>
<!-- מ:כפול&#45;&gt;נוסח -->
<g id="edge5" class="edge">
<title>מ:כפול&#45;&gt;נוסח</title>
<path fill="none" stroke="black" d="M154.98,-28.55C165.81,-33.49 178.14,-39.96 188.25,-47.5 196.28,-53.49 204.05,-61.07 210.77,-68.4"/>
<polygon fill="black" stroke="black" points="207.9,-70.44 217.13,-75.65 213.17,-65.82 207.9,-70.44"/>
<text xml:space="preserve" text-anchor="middle" x="180.38" y="-49.45" font-family="Helvetica,sans-Serif" font-size="9.00">42</text>
</g>
</g>
</svg>
