<?xml version="1.0" encoding="UTF-8" standalone="no"?>
<!DOCTYPE svg PUBLIC "-//W3C//DTD SVG 1.1//EN"
 "http://www.w3.org/Graphics/SVG/1.1/DTD/svg11.dtd">
<!-- Generated by graphviz version 14.1.2 (20260124.0452)
 -->
<!-- This file was generated by MAM&#45;basics/py/main_tmpl_survey.py. -->
<!-- Title: template_call_graph Pages: 1 -->
<svg width="388pt" height="260pt"
 viewBox="0.00 0.00 388.00 260.00" xmlns="http://www.w3.org/2000/svg" xmlns:xlink="http://www.w3.org/1999/xlink">
<g id="graph0" class="graph" transform="scale(1 1) rotate(0) translate(4 256)">
<title>template_call_graph</title>
<polygon fill="white" stroke="none" points="-4,4 -4,-256 383.75,-256 383.75,4 -4,4"/>
<!-- E -->
<g id="node1" class="node">
<title>E</title>
<polygon fill="none" stroke="black" stroke-width="2" points="54,-144 0,-144 0,-108 54,-108 54,-144"/>
<text xml:space="preserve" text-anchor="middle" x="27" y="-120.97" font-family="SBL Hebrew,Helvetica" font-size="12.00">E</text>
</g>
<!-- כו״ק -->
<g id="node2" class="node">
<title>כו״ק</title>
<polygon fill="none" stroke="black" points="265.5,-144 211.5,-144 211.5,-108 265.5,-108 265.5,-144"/>
<text xml:space="preserve" text-anchor="middle" x="238.5" y="-120.97" font-family="SBL Hebrew,Helvetica" font-size="12.00">כו״ק</text>
</g>
<!-- E&#45;&gt;כו״ק -->
<g id="edge1" class="edge">
<title>E&#45;&gt;כו״ק</title>
<path fill="none" stroke="black" d="M54.04,-128.07C59.94,-128.46 66.18,-128.8 72,-129 125.97,-130.84 139.53,-130.84 193.5,-129 195.68,-128.93 197.92,-128.83 200.18,-128.72"/>
<polygon fill="black" stroke="black" points="200.16,-132.23 209.95,-128.16 199.76,-125.24 200.16,-132.23"/>
<text xml:space="preserve" text-anchor="middle" x="132.75" y="-132.33" font-family="Helvetica,sans-Serif" font-size="9.00">764</text>
</g>
<!-- נוסח -->
<g id="node3" class="node">
<title>נוסח</title>
<polygon fill="none" stroke="black" points="159.75,-117 105.75,-117 105.75,-81 159.75,-81 159.75,-117"/>
<text xml:space="preserve" text-anchor="middle" x="132.75" y="-93.97" font-family="SBL Hebrew,Helvetica" font-size="12.00">נוסח</text>
</g>
<!-- E&#45;&gt;נוסח -->
<g id="edge2" class="edge">
<title>E&#45;&gt;נוסח</title>
<path fill="none" stroke="black" d="M54.45,-119.12C66.52,-115.98 81.04,-112.2 94.21,-108.77"/>
<polygon fill="black" stroke="black" points="95.09,-112.16 103.88,-106.25 93.33,-105.38 95.09,-112.16"/>
<text xml:space="preserve" text-anchor="middle" x="79.88" y="-116.07" font-family="Helvetica,sans-Serif" font-size="9.00">148</text>
</g>
<!-- גלגל&#45;2 -->
<g id="node4" class="node">
<title>גלגל&#45;2</title>
<polygon fill="none" stroke="black" points="372.88,-252 318.88,-252 318.88,-216 372.88,-216 372.88,-252"/>
<text xml:space="preserve" text-anchor="middle" x="345.88" y="-228.97" font-family="SBL Hebrew,Helvetica" font-size="12.00">גלגל&#45;2</text>
</g>
<!-- כו״ק&#45;&gt;גלגל&#45;2 -->
<g id="edge3" class="edge">
<title>כו״ק&#45;&gt;גלגל&#45;2</title>
<path fill="none" stroke="black" d="M254.59,-144.42C268.76,-161.33 290.88,-186.76 312,-207 312.37,-207.36 312.75,-207.72 313.13,-208.07"/>
<polygon fill="black" stroke="black" points="310.58,-210.49 320.37,-214.54 315.25,-205.27 310.58,-210.49"/>
<text xml:space="preserve" text-anchor="middle" x="288.75" y="-189.88" font-family="Helvetica,sans-Serif" font-size="9.00">1</text>
</g>
<!-- מ:אות&#45;ק -->
<g id="node5" class="node">
<title>מ:אות&#45;ק</title>
<polygon fill="none" stroke="black" points="372.88,-198 318.88,-198 318.88,-162 372.88,-162 372.88,-198"/>
<text xml:space="preserve" text-anchor="middle" x="345.88" y="-174.97" font-family="SBL Hebrew,Helvetica" font-size="12.00">מ:אות&#45;ק</text>
</g>
<!-- כו״ק&#45;&gt;מ:אות&#45;ק -->
<g id="edge4" class="edge">
<title>כו״ק&#45;&gt;מ:אות&#45;ק</title>
<path fill="none" stroke="black" d="M265.82,-139.49C278.77,-146.12 294.58,-154.23 308.65,-161.44"/>
<polygon fill="black" stroke="black" points="306.68,-164.36 317.18,-165.81 309.88,-158.13 306.68,-164.36"/>
<text xml:space="preserve" text-anchor="middle" x="288.75" y="-154.95" font-family="Helvetica,sans-Serif" font-size="9.00">1</text>
</g>
<!-- מ:דחי -->
<g id="node6" class="node">
<title>מ:דחי</title>
<polygon fill="none" stroke="black" points="372.88,-144 318.88,-144 318.88,-108 372.88,-108 372.88,-144"/>
<text xml:space="preserve" text-anchor="middle" x="345.88" y="-120.97" font-family="SBL Hebrew,Helvetica" font-size="12.00">מ:דחי</text>
</g>
<!-- כו״ק&#45;&gt;מ:דחי -->
<g id="edge5" class="edge">
<title>כו״ק&#45;&gt;מ:דחי</title>
<path fill="none" stroke="black" d="M265.82,-126C278.39,-126 293.66,-126 307.42,-126"/>
<polygon fill="black" stroke="black" points="307.01,-129.5 317.01,-126 307.01,-122.5 307.01,-129.5"/>
<text xml:space="preserve" text-anchor="middle" x="288.75" y="-127.95" font-family="Helvetica,sans-Serif" font-size="9.00">7</text>
</g>
<!-- מ:לגרמיה&#45;2 -->
<g id="node7" class="node">
<title>מ:לגרמיה&#45;2</title>
<polygon fill="none" stroke="black" points="379.75,-90 312,-90 312,-54 379.75,-54 379.75,-90"/>
<text xml:space="preserve" text-anchor="middle" x="345.88" y="-66.97" font-family="SBL Hebrew,Helvetica" font-size="12.00">מ:לגרמיה&#45;2</text>
</g>
<!-- כו״ק&#45;&gt;מ:לגרמיה&#45;2 -->
<g id="edge6" class="edge">
<title>כו״ק&#45;&gt;מ:לגרמיה&#45;2</title>
<path fill="none" stroke="black" d="M265.82,-112.51C276.68,-106.95 289.55,-100.35 301.72,-94.12"/>
<polygon fill="black" stroke="black" points="303.07,-97.36 310.37,-89.68 299.87,-91.13 303.07,-97.36"/>
<text xml:space="preserve" text-anchor="middle" x="288.75" y="-104.18" font-family="Helvetica,sans-Serif" font-size="9.00">9</text>
</g>
<!-- מ:קמץ -->
<g id="node8" class="node">
<title>מ:קמץ</title>
<polygon fill="none" stroke="black" points="372.88,-36 318.88,-36 318.88,0 372.88,0 372.88,-36"/>
<text xml:space="preserve" text-anchor="middle" x="345.88" y="-12.97" font-family="SBL Hebrew,Helvetica" font-size="12.00">מ:קמץ</text>
</g>
<!-- כו״ק&#45;&gt;מ:קמץ -->
<g id="edge7" class="edge">
<title>כו״ק&#45;&gt;מ:קמץ</title>
<path fill="none" stroke="black" d="M254.59,-107.58C268.76,-90.67 290.88,-65.24 312,-45 312.37,-44.64 312.75,-44.28 313.13,-43.93"/>
<polygon fill="black" stroke="black" points="315.25,-46.73 320.37,-37.46 310.58,-41.51 315.25,-46.73"/>
<text xml:space="preserve" text-anchor="middle" x="288.75" y="-74.81" font-family="Helvetica,sans-Serif" font-size="9.00">10</text>
</g>
<!-- נוסח&#45;&gt;כו״ק -->
<g id="edge8" class="edge">
<title>נוסח&#45;&gt;כו״ק</title>
<path fill="none" stroke="black" d="M160.2,-105.88C172.27,-109.02 186.79,-112.8 199.96,-116.23"/>
<polygon fill="black" stroke="black" points="199.08,-119.62 209.63,-118.75 200.84,-112.84 199.08,-119.62"/>
<text xml:space="preserve" text-anchor="middle" x="185.62" y="-116.07" font-family="Helvetica,sans-Serif" font-size="9.00">148</text>
</g>
</g>
</svg>
