<?xml version="1.0" encoding="UTF-8" standalone="no"?>
<!DOCTYPE svg PUBLIC "-//W3C//DTD SVG 1.1//EN"
 "http://www.w3.org/Graphics/SVG/1.1/DTD/svg11.dtd">
<!-- Generated by graphviz version 14.1.2 (20260124.0452)
 -->
<!-- Title: template_call_graph Pages: 1 -->
<svg width="663pt" height="1232pt"
 viewBox="0.00 0.00 663.00 1232.00" xmlns="http://www.w3.org/2000/svg" xmlns:xlink="http://www.w3.org/1999/xlink">
<g id="graph0" class="graph" transform="scale(1 1) rotate(0) translate(4 1227.75)">
<title>template_call_graph</title>
<polygon fill="white" stroke="none" points="-4,4 -4,-1227.75 658.5,-1227.75 658.5,4 -4,4"/>
<text xml:space="preserve" text-anchor="middle" x="327.25" y="-5.75" font-family="Times New Roman,serif" font-size="10.00">מ:כפול, נוסח, ש have been discarded</text>
<!-- C -->
<g id="node1" class="node">
<title>C</title>
<polygon fill="none" stroke="black" stroke-width="2" points="54,-193.25 0,-193.25 0,-157.25 54,-157.25 54,-193.25"/>
<text xml:space="preserve" text-anchor="middle" x="27" y="-170.22" font-family="SBL Hebrew,Helvetica" font-size="12.00">C</text>
</g>
<!-- #בלי קטע:, … -->
<g id="node4" class="node">
<title>#בלי קטע:, …</title>
<g id="a_node4"><a xlink:title="#בלי קטע:&#10;#בלי קטע:דברי הימים א טז/טעמים&#10;#בלי קטע:דברים לב/טעמים&#10;#בלי קטע:יהושע יב/טעמים&#10;#בלי קטע:מלכי כנען/צורת השיר&#10;#בלי קטע:עשרת בני המן/צורת השיר&#10;#בלי קטע:שופטים ה/טעמים&#10;#בלי קטע:שירת אסף/צורת השיר&#10;#בלי קטע:שירת דבורה/צורת השיר&#10;#בלי קטע:שירת דוד/צורת השיר&#10;#בלי קטע:שירת האזינו/צורת השיר&#10;#בלי קטע:שירת הים/צורת השיר&#10;#בלי קטע:שירת העתים/צורת השיר&#10;#בלי קטע:שמואל ב כב/טעמים&#10;#בלי קטע:שמות טו/טעמים&#10;#קטע:אסתר ט/טעמים&#10;#קטע:דברי הימים א טז/טעמים&#10;#קטע:דברים לב/טעמים&#10;#קטע:יהושע יב/טעמים&#10;#קטע:מלכי כנען/צורות נוספות&#10;#קטע:מלכי כנען/צורת השיר&#10;#קטע:עשרת בני המן/צורות נוספות&#10;#קטע:עשרת בני המן/צורת השיר&#10;#קטע:עשרת הדברות בסיס/טעמים&#10;#קטע:עשרת הדברות/טעמים&#10;#קטע:קהלת ג/טעמים&#10;#קטע:שירת אסף/צורות נוספות&#10;#קטע:שירת אסף/צורת השיר&#10;#קטע:שירת דבורה/צורות נוספות&#10;#קטע:שירת דבורה/צורת השיר&#10;#קטע:שירת דוד/צורות נוספות&#10;#קטע:שירת דוד/צורת השיר&#10;#קטע:שירת האזינו/צורות נוספות&#10;#קטע:שירת האזינו/צורת השיר&#10;#קטע:שירת הים/צורות נוספות&#10;#קטע:שירת הים/צורת השיר&#10;#קטע:שירת העתים/צורות נוספות&#10;#קטע:שירת העתים/צורת השיר&#10;#קטע:שמות טו/טעמים&#10;בסיס&#45;משתמש&#10;טעמי המקרא באינטרנט&#10;מ:אין פרשה בתחילת פרק&#10;מ:אין פרשה בתחילת פרק בספרי אמ&quot;ת&#10;מ:אין רווח של פרשה בתחילת פרשת השבוע&#10;מ:טעמי המקרא&#10;מ:טעמי המקרא&#45;סוף&#10;מ:יישור&#45;בשני&#45;הצדדים&#10;מ:יישור&#45;בשני&#45;הצדדים&#45;סוף&#10;מ:סיום בטוב&#10;מ:ספר חדש&#10;מ:רווח בתרי עשר&#10;מ:רווח בתרי עשר בפסוק הראשון&#10;מ:רווח לספר בתהלים&#10;מ:רווח לספר בתהלים בפסוק הראשון&#10;מ:שוליים&#10;מ:שוליים&#45;סוף&#10;ניווט טעמים&#10;עוגן בשורה&#10;צורות כתיבה בספרי אמ&quot;ת&#10;ר4">
<polygon fill="none" stroke="black" points="226.38,-119.25 148.12,-119.25 148.12,-83.25 226.38,-83.25 226.38,-119.25"/>
<text xml:space="preserve" text-anchor="middle" x="187.25" y="-96.22" font-family="SBL Hebrew,Helvetica" font-size="12.00">#בלי קטע:, …</text>
</a>
</g>
</g>
<!-- C&#45;&gt;#בלי קטע:, … -->
<g id="edge1" class="edge">
<title>C&#45;&gt;#בלי קטע:, …</title>
<path fill="none" stroke="black" d="M42.1,-156.87C49.98,-147.77 60.51,-137.36 72,-130.75 91.63,-119.46 115.61,-112.42 136.52,-108.07"/>
<polygon fill="black" stroke="black" points="137.12,-111.51 146.29,-106.2 135.81,-104.64 137.12,-111.51"/>
<text xml:space="preserve" text-anchor="middle" x="85.12" y="-132.7" font-family="Helvetica,sans-Serif" font-size="9.00">13315</text>
</g>
<!-- מ:קישור בהערה, … -->
<g id="node9" class="node">
<title>מ:קישור בהערה, …</title>
<g id="a_node9"><a xlink:title="מ:קישור בהערה&#10;מ:ששש&#10;סס&#10;ססס&#10;פפ&#10;פפפ&#10;ר1">
<polygon fill="none" stroke="black" points="238.38,-333.25 136.12,-333.25 136.12,-297.25 238.38,-297.25 238.38,-333.25"/>
<text xml:space="preserve" text-anchor="middle" x="187.25" y="-310.23" font-family="SBL Hebrew,Helvetica" font-size="12.00">מ:קישור בהערה, …</text>
</a>
</g>
</g>
<!-- C&#45;&gt;מ:קישור בהערה, … -->
<g id="edge4" class="edge">
<title>C&#45;&gt;מ:קישור בהערה, …</title>
<path fill="none" stroke="black" d="M30.34,-193.54C34.42,-217.83 45.14,-260.4 72,-284.25 86.51,-297.14 105.87,-304.73 124.51,-309.19"/>
<polygon fill="black" stroke="black" points="123.69,-312.59 134.19,-311.21 125.12,-305.74 123.69,-312.59"/>
<text xml:space="preserve" text-anchor="middle" x="85.12" y="-301.53" font-family="Helvetica,sans-Serif" font-size="9.00">3523</text>
</g>
<!-- מ:הערה -->
<g id="node11" class="node">
<title>מ:הערה</title>
<polygon fill="none" stroke="black" points="337.88,-397.25 283.88,-397.25 283.88,-361.25 337.88,-361.25 337.88,-397.25"/>
<text xml:space="preserve" text-anchor="middle" x="310.88" y="-374.23" font-family="SBL Hebrew,Helvetica" font-size="12.00">מ:הערה</text>
</g>
<!-- C&#45;&gt;מ:הערה -->
<g id="edge2" class="edge">
<title>C&#45;&gt;מ:הערה</title>
<path fill="none" stroke="black" d="M54.41,-192.9C71.63,-204.04 94.81,-218.32 116.25,-229.25 177.14,-260.29 207.06,-242.97 258.25,-288.25 277.22,-305.03 290.84,-330.52 299.31,-350.26"/>
<polygon fill="black" stroke="black" points="296.02,-351.47 303.02,-359.42 302.51,-348.84 296.02,-351.47"/>
<text xml:space="preserve" text-anchor="middle" x="85.12" y="-220.62" font-family="Helvetica,sans-Serif" font-size="9.00">4</text>
</g>
<!-- מ:פסוק -->
<g id="node12" class="node">
<title>מ:פסוק</title>
<polygon fill="none" stroke="black" points="214.25,-62.25 160.25,-62.25 160.25,-26.25 214.25,-26.25 214.25,-62.25"/>
<text xml:space="preserve" text-anchor="middle" x="187.25" y="-39.23" font-family="SBL Hebrew,Helvetica" font-size="12.00">מ:פסוק</text>
</g>
<!-- C&#45;&gt;מ:פסוק -->
<g id="edge3" class="edge">
<title>C&#45;&gt;מ:פסוק</title>
<path fill="none" stroke="black" d="M37.13,-156.77C45.03,-141.93 57.47,-121.09 72,-105.75 93.36,-83.2 124.85,-67.1 149.37,-57.04"/>
<polygon fill="black" stroke="black" points="150.64,-60.31 158.67,-53.4 148.08,-53.79 150.64,-60.31"/>
<text xml:space="preserve" text-anchor="middle" x="85.12" y="-107.7" font-family="Helvetica,sans-Serif" font-size="9.00">81</text>
</g>
<!-- מודגש -->
<g id="node13" class="node">
<title>מודגש</title>
<polygon fill="none" stroke="black" points="214.25,-220.25 160.25,-220.25 160.25,-184.25 214.25,-184.25 214.25,-220.25"/>
<text xml:space="preserve" text-anchor="middle" x="187.25" y="-197.22" font-family="SBL Hebrew,Helvetica" font-size="12.00">מודגש</text>
</g>
<!-- C&#45;&gt;מודגש -->
<g id="edge5" class="edge">
<title>C&#45;&gt;מודגש</title>
<path fill="none" stroke="black" d="M54.49,-179.77C80.24,-184.16 119.61,-190.88 148.61,-195.83"/>
<polygon fill="black" stroke="black" points="148,-199.27 158.45,-197.51 149.18,-192.37 148,-199.27"/>
<text xml:space="preserve" text-anchor="middle" x="85.12" y="-189.08" font-family="Helvetica,sans-Serif" font-size="9.00">2</text>
</g>
<!-- קק -->
<g id="node14" class="node">
<title>קק</title>
<polygon fill="none" stroke="black" points="424.38,-193.25 370.38,-193.25 370.38,-157.25 424.38,-157.25 424.38,-193.25"/>
<text xml:space="preserve" text-anchor="middle" x="397.38" y="-170.22" font-family="SBL Hebrew,Helvetica" font-size="12.00">קק</text>
</g>
<!-- C&#45;&gt;קק -->
<g id="edge6" class="edge">
<title>C&#45;&gt;קק</title>
<path fill="none" stroke="black" d="M54.19,-171.31C71.71,-168.88 95.3,-165.99 116.25,-164.75 179.25,-161.02 195.18,-162.36 258.25,-164.75 292.32,-166.04 331,-169.12 358.75,-171.62"/>
<polygon fill="black" stroke="black" points="358.14,-175.07 368.42,-172.5 358.78,-168.1 358.14,-175.07"/>
<text xml:space="preserve" text-anchor="middle" x="187.25" y="-166.7" font-family="Helvetica,sans-Serif" font-size="9.00">1</text>
</g>
<!-- D -->
<g id="node2" class="node">
<title>D</title>
<polygon fill="none" stroke="black" stroke-width="2" points="54,-55.25 0,-55.25 0,-19.25 54,-19.25 54,-55.25"/>
<text xml:space="preserve" text-anchor="middle" x="27" y="-32.23" font-family="SBL Hebrew,Helvetica" font-size="12.00">D</text>
</g>
<!-- D&#45;&gt;מ:פסוק -->
<g id="edge7" class="edge">
<title>D&#45;&gt;מ:פסוק</title>
<path fill="none" stroke="black" d="M54.36,-37.56C67.55,-37.78 83.75,-38.14 98.25,-38.75 114.83,-39.44 133.14,-40.54 148.75,-41.57"/>
<polygon fill="black" stroke="black" points="148.36,-45.05 158.57,-42.23 148.83,-38.06 148.36,-45.05"/>
<text xml:space="preserve" text-anchor="middle" x="85.12" y="-40.7" font-family="Helvetica,sans-Serif" font-size="9.00">23202</text>
</g>
<!-- E -->
<g id="node3" class="node">
<title>E</title>
<polygon fill="none" stroke="black" stroke-width="2" points="54,-757.25 0,-757.25 0,-721.25 54,-721.25 54,-757.25"/>
<text xml:space="preserve" text-anchor="middle" x="27" y="-734.23" font-family="SBL Hebrew,Helvetica" font-size="12.00">E</text>
</g>
<!-- ירח … יומו&#45;2, … -->
<g id="node5" class="node">
<title>ירח … יומו&#45;2, …</title>
<g id="a_node5"><a xlink:title="ירח בן יומו&#45;2&#10;כתיב ולא קרי&#10;מ:אות מנוקדת&#10;מ:אות תלויה&#10;מ:גרש ותלישא גדולה&#10;מ:גרשיים ותלישא גדולה&#10;מ:טעם ומתג באות אחת&#10;מ:ירושלמה&#10;מ:כו&quot;ק בין שני מקפים&#10;מ:כו&quot;ק כתיב מילה חדה וקרי תרתין מילין בין שני מקפים&#10;מ:כו&quot;ק כתיב תרתין מילין וקרי מילה חדה&#10;מ:כו&quot;ק קרי שונה מהכתיב בשתי מילים&#10;מ:כו&quot;ק של שלוש מילים בהערה אחת&#10;מ:נו&quot;ן הפוכה&#10;מ:צינור&#10;מ:קו&quot;כ קרי שונה מהכתיב בשתי מילים&#10;מ:קישור פנימי בהערה&#10;קרי ולא כתיב&#10;ר0&#10;ר2&#10;ר3&#10;רווח בסוף שורה">
<polygon fill="none" stroke="black" points="230.88,-917.25 143.62,-917.25 143.62,-881.25 230.88,-881.25 230.88,-917.25"/>
<text xml:space="preserve" text-anchor="middle" x="187.25" y="-894.23" font-family="SBL Hebrew,Helvetica" font-size="12.00">ירח … יומו&#45;2, …</text>
</a>
</g>
</g>
<!-- E&#45;&gt;ירח … יומו&#45;2, … -->
<g id="edge9" class="edge">
<title>E&#45;&gt;ירח … יומו&#45;2, …</title>
<path fill="none" stroke="black" d="M29.18,-757.62C31.95,-785.16 41.19,-837.02 72,-866.25 88.19,-881.61 111.07,-889.88 132.11,-894.31"/>
<polygon fill="black" stroke="black" points="131.27,-897.72 141.73,-896.08 132.53,-890.83 131.27,-897.72"/>
<text xml:space="preserve" text-anchor="middle" x="85.12" y="-884.23" font-family="Helvetica,sans-Serif" font-size="9.00">1434</text>
</g>
<!-- מ:כו&quot;ק כתיב מילה חדה וקרי תרתין מילין -->
<g id="node6" class="node">
<title>מ:כו&quot;ק כתיב מילה חדה וקרי תרתין מילין</title>
<g id="a_node6"><a xlink:title="מ:כו&quot;ק כתיב מילה חדה וקרי תרתין מילין">
<polygon fill="none" stroke="black" points="228.25,-971.25 146.25,-971.25 146.25,-935.25 228.25,-935.25 228.25,-971.25"/>
<text xml:space="preserve" text-anchor="middle" x="187.25" y="-948.23" font-family="SBL Hebrew,Helvetica" font-size="12.00">מ:כו&quot;ק … מילין</text>
</a>
</g>
</g>
<!-- E&#45;&gt;מ:כו&quot;ק כתיב מילה חדה וקרי תרתין מילין -->
<g id="edge16" class="edge">
<title>E&#45;&gt;מ:כו&quot;ק כתיב מילה חדה וקרי תרתין מילין</title>
<path fill="none" stroke="black" d="M28.98,-757.62C31.49,-789.08 40.41,-854.03 72,-897.25 87.25,-918.11 112.41,-931.6 135.25,-940.1"/>
<polygon fill="black" stroke="black" points="133.85,-943.32 144.45,-943.28 136.14,-936.7 133.85,-943.32"/>
<text xml:space="preserve" text-anchor="middle" x="85.12" y="-922.56" font-family="Helvetica,sans-Serif" font-size="9.00">13</text>
</g>
<!-- מ:כו&quot;ק … אחת, … -->
<g id="node7" class="node">
<title>מ:כו&quot;ק … אחת, …</title>
<g id="a_node7"><a xlink:title="מ:כו&quot;ק של שתי מילים בהערה אחת&#10;מ:קו&quot;כ כתיב מילה חדה וקרי תרתין מילין">
<polygon fill="none" stroke="black" points="235.38,-1079.25 139.12,-1079.25 139.12,-1043.25 235.38,-1043.25 235.38,-1079.25"/>
<text xml:space="preserve" text-anchor="middle" x="187.25" y="-1056.22" font-family="SBL Hebrew,Helvetica" font-size="12.00">מ:כו&quot;ק … אחת, …</text>
</a>
</g>
</g>
<!-- E&#45;&gt;מ:כו&quot;ק … אחת, … -->
<g id="edge17" class="edge">
<title>E&#45;&gt;מ:כו&quot;ק … אחת, …</title>
<path fill="none" stroke="black" d="M28.12,-757.61C29.06,-799.5 35.22,-904.55 72,-982.25 84.98,-1009.68 91.5,-1016.69 116.25,-1034.25 120.07,-1036.96 124.21,-1039.45 128.49,-1041.71"/>
<polygon fill="black" stroke="black" points="126.77,-1044.77 137.3,-1045.95 129.8,-1038.46 126.77,-1044.77"/>
<text xml:space="preserve" text-anchor="middle" x="85.12" y="-1022.41" font-family="Helvetica,sans-Serif" font-size="9.00">9</text>
</g>
<!-- E&#45;&gt;מ:קישור בהערה, … -->
<g id="edge22" class="edge">
<title>E&#45;&gt;מ:קישור בהערה, …</title>
<path fill="none" stroke="black" d="M28.8,-720.85C32.21,-646.45 46.49,-370.46 72,-341.75 85.23,-326.86 105.03,-319.49 124.44,-316.05"/>
<polygon fill="black" stroke="black" points="124.86,-319.52 134.28,-314.67 123.89,-312.59 124.86,-319.52"/>
<text xml:space="preserve" text-anchor="middle" x="85.12" y="-343.7" font-family="Helvetica,sans-Serif" font-size="9.00">5058</text>
</g>
<!-- שני טעמים באות אחת קמץ&#45;תחתון&#45;פתח&#45;עליון -->
<g id="node10" class="node">
<title>שני טעמים באות אחת קמץ&#45;תחתון&#45;פתח&#45;עליון</title>
<g id="a_node10"><a xlink:title="שני טעמים באות אחת קמץ&#45;תחתון&#45;פתח&#45;עליון">
<polygon fill="none" stroke="black" points="258.25,-1025.25 116.25,-1025.25 116.25,-989.25 258.25,-989.25 258.25,-1025.25"/>
<text xml:space="preserve" text-anchor="middle" x="187.25" y="-1002.23" font-family="SBL Hebrew,Helvetica" font-size="12.00">שני … קמץ&#45;תחתון&#45;פתח&#45;עליון</text>
</a>
</g>
</g>
<!-- E&#45;&gt;שני טעמים באות אחת קמץ&#45;תחתון&#45;פתח&#45;עליון -->
<g id="edge27" class="edge">
<title>E&#45;&gt;שני טעמים באות אחת קמץ&#45;תחתון&#45;פתח&#45;עליון</title>
<path fill="none" stroke="black" d="M28.8,-757.72C31.05,-793.91 39.63,-875.84 72,-935.25 85.42,-959.88 92.8,-964.86 116.25,-980.25 118.05,-981.43 119.9,-982.57 121.8,-983.67"/>
<polygon fill="black" stroke="black" points="119.78,-986.56 130.26,-988.13 123.05,-980.37 119.78,-986.56"/>
<text xml:space="preserve" text-anchor="middle" x="85.12" y="-969.64" font-family="Helvetica,sans-Serif" font-size="9.00">4</text>
</g>
<!-- E&#45;&gt;מ:הערה -->
<g id="edge14" class="edge">
<title>E&#45;&gt;מ:הערה</title>
<path fill="none" stroke="black" d="M27.91,-721.07C28.01,-660.88 31.56,-469.57 72,-426.75 98.9,-398.26 212.39,-386.09 272.37,-381.57"/>
<polygon fill="black" stroke="black" points="272.37,-385.08 282.1,-380.87 271.87,-378.09 272.37,-385.08"/>
<text xml:space="preserve" text-anchor="middle" x="85.12" y="-428.7" font-family="Helvetica,sans-Serif" font-size="9.00">27</text>
</g>
<!-- E&#45;&gt;מודגש -->
<g id="edge24" class="edge">
<title>E&#45;&gt;מודגש</title>
<path fill="none" stroke="black" d="M27.58,-720.76C26.16,-643.69 24.01,-348.46 72,-271.75 76.82,-264.05 118.47,-239.77 150.11,-222.08"/>
<polygon fill="black" stroke="black" points="151.61,-225.25 158.64,-217.33 148.2,-219.13 151.61,-225.25"/>
<text xml:space="preserve" text-anchor="middle" x="85.12" y="-273.7" font-family="Helvetica,sans-Serif" font-size="9.00">19</text>
</g>
<!-- גלגל&#45;2 -->
<g id="node15" class="node">
<title>גלגל&#45;2</title>
<polygon fill="none" stroke="black" points="424.38,-547.25 370.38,-547.25 370.38,-511.25 424.38,-511.25 424.38,-547.25"/>
<text xml:space="preserve" text-anchor="middle" x="397.38" y="-524.23" font-family="SBL Hebrew,Helvetica" font-size="12.00">גלגל&#45;2</text>
</g>
<!-- E&#45;&gt;גלגל&#45;2 -->
<g id="edge8" class="edge">
<title>E&#45;&gt;גלגל&#45;2</title>
<path fill="none" stroke="black" d="M30.8,-720.93C37.62,-683.57 58.95,-599.31 116.25,-565.75 193.1,-520.74 301.86,-521.22 358.61,-525.3"/>
<polygon fill="black" stroke="black" points="358.14,-528.77 368.38,-526.09 358.7,-521.8 358.14,-528.77"/>
<text xml:space="preserve" text-anchor="middle" x="187.25" y="-567.7" font-family="Helvetica,sans-Serif" font-size="9.00">39</text>
</g>
<!-- כו&quot;ק -->
<g id="node16" class="node">
<title>כו&quot;ק</title>
<polygon fill="none" stroke="black" points="214.25,-621.25 160.25,-621.25 160.25,-585.25 214.25,-585.25 214.25,-621.25"/>
<text xml:space="preserve" text-anchor="middle" x="187.25" y="-598.23" font-family="SBL Hebrew,Helvetica" font-size="12.00">כו&quot;ק</text>
</g>
<!-- E&#45;&gt;כו&quot;ק -->
<g id="edge10" class="edge">
<title>E&#45;&gt;כו&quot;ק</title>
<path fill="none" stroke="black" d="M30.73,-720.91C35.19,-697.51 46.26,-657.35 72,-634.75 93.12,-616.2 124.25,-608.48 148.68,-605.31"/>
<polygon fill="black" stroke="black" points="148.98,-608.8 158.55,-604.25 148.24,-601.84 148.98,-608.8"/>
<text xml:space="preserve" text-anchor="middle" x="85.12" y="-636.7" font-family="Helvetica,sans-Serif" font-size="9.00">884</text>
</g>
<!-- מ:אות&#45;ג -->
<g id="node17" class="node">
<title>מ:אות&#45;ג</title>
<polygon fill="none" stroke="black" points="652.5,-618.25 598.5,-618.25 598.5,-582.25 652.5,-582.25 652.5,-618.25"/>
<text xml:space="preserve" text-anchor="middle" x="625.5" y="-595.23" font-family="SBL Hebrew,Helvetica" font-size="12.00">מ:אות&#45;ג</text>
</g>
<!-- E&#45;&gt;מ:אות&#45;ג -->
<g id="edge11" class="edge">
<title>E&#45;&gt;מ:אות&#45;ג</title>
<path fill="none" stroke="black" d="M29.08,-757.62C32.85,-818.55 46.67,-1013.31 72,-1070.25 97.62,-1127.83 123.22,-1154.25 186.25,-1154.25 186.25,-1154.25 186.25,-1154.25 517.5,-1154.25 625.25,-1154.25 626.83,-745.17 625.14,-630.06"/>
<polygon fill="black" stroke="black" points="628.64,-630.14 624.97,-620.2 621.64,-630.25 628.64,-630.14"/>
<text xml:space="preserve" text-anchor="middle" x="397.38" y="-1156.2" font-family="Helvetica,sans-Serif" font-size="9.00">54</text>
</g>
<!-- מ:אות&#45;ק -->
<g id="node18" class="node">
<title>מ:אות&#45;ק</title>
<polygon fill="none" stroke="black" points="652.5,-443.25 598.5,-443.25 598.5,-407.25 652.5,-407.25 652.5,-443.25"/>
<text xml:space="preserve" text-anchor="middle" x="625.5" y="-420.23" font-family="SBL Hebrew,Helvetica" font-size="12.00">מ:אות&#45;ק</text>
</g>
<!-- E&#45;&gt;מ:אות&#45;ק -->
<g id="edge12" class="edge">
<title>E&#45;&gt;מ:אות&#45;ק</title>
<path fill="none" stroke="black" d="M28.49,-721.01C30.43,-659.62 39.16,-461.38 72,-408.25 84.49,-388.04 94.17,-387.03 116.25,-378.25 206.91,-342.2 464.35,-338.82 555.25,-374.25 570.33,-380.13 585.05,-390.17 597.02,-399.79"/>
<polygon fill="black" stroke="black" points="594.52,-402.27 604.43,-406.02 599.03,-396.91 594.52,-402.27"/>
<text xml:space="preserve" text-anchor="middle" x="397.38" y="-353.99" font-family="Helvetica,sans-Serif" font-size="9.00">26</text>
</g>
<!-- מ:דחי -->
<g id="node19" class="node">
<title>מ:דחי</title>
<polygon fill="none" stroke="black" points="543.5,-618.25 489.5,-618.25 489.5,-582.25 543.5,-582.25 543.5,-618.25"/>
<text xml:space="preserve" text-anchor="middle" x="516.5" y="-595.23" font-family="SBL Hebrew,Helvetica" font-size="12.00">מ:דחי</text>
</g>
<!-- E&#45;&gt;מ:דחי -->
<g id="edge13" class="edge">
<title>E&#45;&gt;מ:דחי</title>
<path fill="none" stroke="black" d="M28.33,-720.77C30.31,-675.6 42.65,-560.54 116.25,-522.25 240.7,-457.51 298.48,-456.97 431.25,-502.25 464.32,-513.53 488.34,-547.36 502.08,-572.12"/>
<polygon fill="black" stroke="black" points="498.86,-573.54 506.62,-580.75 505.06,-570.27 498.86,-573.54"/>
<text xml:space="preserve" text-anchor="middle" x="310.88" y="-479.36" font-family="Helvetica,sans-Serif" font-size="9.00">2277</text>
</g>
<!-- מ:ירושלם -->
<g id="node20" class="node">
<title>מ:ירושלם</title>
<polygon fill="none" stroke="black" points="654.5,-1218.25 596.5,-1218.25 596.5,-1182.25 654.5,-1182.25 654.5,-1218.25"/>
<text xml:space="preserve" text-anchor="middle" x="625.5" y="-1195.22" font-family="SBL Hebrew,Helvetica" font-size="12.00">מ:ירושלם</text>
</g>
<!-- E&#45;&gt;מ:ירושלם -->
<g id="edge15" class="edge">
<title>E&#45;&gt;מ:ירושלם</title>
<path fill="none" stroke="black" d="M28.78,-757.37C31.81,-822.33 43.98,-1043.13 72,-1107.25 99.74,-1170.72 116.98,-1213.25 186.25,-1213.25 186.25,-1213.25 186.25,-1213.25 517.5,-1213.25 539.87,-1213.25 564.68,-1210.42 584.77,-1207.39"/>
<polygon fill="black" stroke="black" points="585.18,-1210.87 594.51,-1205.85 584.08,-1203.96 585.18,-1210.87"/>
<text xml:space="preserve" text-anchor="middle" x="397.38" y="-1215.2" font-family="Helvetica,sans-Serif" font-size="9.00">634</text>
</g>
<!-- מ:לגרמיה&#45;2 -->
<g id="node21" class="node">
<title>מ:לגרמיה&#45;2</title>
<polygon fill="none" stroke="black" points="431.25,-871.25 363.5,-871.25 363.5,-835.25 431.25,-835.25 431.25,-871.25"/>
<text xml:space="preserve" text-anchor="middle" x="397.38" y="-848.23" font-family="SBL Hebrew,Helvetica" font-size="12.00">מ:לגרמיה&#45;2</text>
</g>
<!-- E&#45;&gt;מ:לגרמיה&#45;2 -->
<g id="edge18" class="edge">
<title>E&#45;&gt;מ:לגרמיה&#45;2</title>
<path fill="none" stroke="black" d="M40.87,-757.66C56.24,-778.02 83.96,-809.96 116.25,-825.25 182.04,-856.41 203.88,-852.43 276.25,-860.25 306.85,-863.56 314.79,-862.35 345.5,-860.25 347.55,-860.11 349.63,-859.94 351.74,-859.74"/>
<polygon fill="black" stroke="black" points="351.99,-863.24 361.55,-858.66 351.23,-856.28 351.99,-863.24"/>
<text xml:space="preserve" text-anchor="middle" x="187.25" y="-860.36" font-family="Helvetica,sans-Serif" font-size="9.00">1815</text>
</g>
<!-- מ:מקף אפור -->
<g id="node22" class="node">
<title>מ:מקף אפור</title>
<polygon fill="none" stroke="black" points="551.12,-771.25 481.88,-771.25 481.88,-735.25 551.12,-735.25 551.12,-771.25"/>
<text xml:space="preserve" text-anchor="middle" x="516.5" y="-748.23" font-family="SBL Hebrew,Helvetica" font-size="12.00">מ:מקף אפור</text>
</g>
<!-- E&#45;&gt;מ:מקף אפור -->
<g id="edge19" class="edge">
<title>E&#45;&gt;מ:מקף אפור</title>
<path fill="none" stroke="black" d="M54.39,-742.65C99.68,-748.28 195.16,-759.34 276.25,-763.25 306.99,-764.73 314.74,-764.15 345.5,-763.25 387.98,-762 436.36,-759 470.61,-756.61"/>
<polygon fill="black" stroke="black" points="470.42,-760.13 480.15,-755.94 469.93,-753.15 470.42,-760.13"/>
<text xml:space="preserve" text-anchor="middle" x="310.88" y="-766.11" font-family="Helvetica,sans-Serif" font-size="9.00">114</text>
</g>
<!-- מ:פסק -->
<g id="node23" class="node">
<title>מ:פסק</title>
<polygon fill="none" stroke="black" points="424.38,-1086.25 370.38,-1086.25 370.38,-1050.25 424.38,-1050.25 424.38,-1086.25"/>
<text xml:space="preserve" text-anchor="middle" x="397.38" y="-1063.22" font-family="SBL Hebrew,Helvetica" font-size="12.00">מ:פסק</text>
</g>
<!-- E&#45;&gt;מ:פסק -->
<g id="edge20" class="edge">
<title>E&#45;&gt;מ:פסק</title>
<path fill="none" stroke="black" d="M27.37,-757.54C26.4,-805.44 28.2,-937.6 72,-1035.25 84.56,-1063.25 88.45,-1075.25 116.25,-1088.25 196.4,-1125.75 303.71,-1100.02 359.37,-1081.87"/>
<polygon fill="black" stroke="black" points="360.32,-1085.25 368.68,-1078.74 358.09,-1078.61 360.32,-1085.25"/>
<text xml:space="preserve" text-anchor="middle" x="187.25" y="-1109.45" font-family="Helvetica,sans-Serif" font-size="9.00">515</text>
</g>
<!-- מ:קו&quot;כ&#45;אם&#45;2 -->
<g id="node24" class="node">
<title>מ:קו&quot;כ&#45;אם&#45;2</title>
<polygon fill="none" stroke="black" points="223.75,-724.25 150.75,-724.25 150.75,-688.25 223.75,-688.25 223.75,-724.25"/>
<text xml:space="preserve" text-anchor="middle" x="187.25" y="-701.23" font-family="SBL Hebrew,Helvetica" font-size="12.00">מ:קו&quot;כ&#45;אם&#45;2</text>
</g>
<!-- E&#45;&gt;מ:קו&quot;כ&#45;אם&#45;2 -->
<g id="edge21" class="edge">
<title>E&#45;&gt;מ:קו&quot;כ&#45;אם&#45;2</title>
<path fill="none" stroke="black" d="M54.45,-732.02C60.22,-730.53 66.3,-729.03 72,-727.75 94.02,-722.81 118.59,-718.08 139.29,-714.33"/>
<polygon fill="black" stroke="black" points="139.64,-717.82 148.86,-712.61 138.4,-710.93 139.64,-717.82"/>
<text xml:space="preserve" text-anchor="middle" x="85.12" y="-729.7" font-family="Helvetica,sans-Serif" font-size="9.00">148</text>
</g>
<!-- מ:קמץ -->
<g id="node25" class="node">
<title>מ:קמץ</title>
<polygon fill="none" stroke="black" points="424.38,-686.25 370.38,-686.25 370.38,-650.25 424.38,-650.25 424.38,-686.25"/>
<text xml:space="preserve" text-anchor="middle" x="397.38" y="-663.23" font-family="SBL Hebrew,Helvetica" font-size="12.00">מ:קמץ</text>
</g>
<!-- E&#45;&gt;מ:קמץ -->
<g id="edge23" class="edge">
<title>E&#45;&gt;מ:קמץ</title>
<path fill="none" stroke="black" d="M43.74,-721.01C59.91,-703.78 86.83,-679.09 116.25,-668.75 198.75,-639.76 303.55,-651.25 358.63,-660.65"/>
<polygon fill="black" stroke="black" points="357.97,-664.09 368.43,-662.41 359.2,-657.2 357.97,-664.09"/>
<text xml:space="preserve" text-anchor="middle" x="187.25" y="-670.7" font-family="Helvetica,sans-Serif" font-size="9.00">363</text>
</g>
<!-- פרשה&#45;מרכז -->
<g id="node26" class="node">
<title>פרשה&#45;מרכז</title>
<polygon fill="none" stroke="black" points="345.5,-460.25 276.25,-460.25 276.25,-424.25 345.5,-424.25 345.5,-460.25"/>
<text xml:space="preserve" text-anchor="middle" x="310.88" y="-437.23" font-family="SBL Hebrew,Helvetica" font-size="12.00">פרשה&#45;מרכז</text>
</g>
<!-- E&#45;&gt;פרשה&#45;מרכז -->
<g id="edge25" class="edge">
<title>E&#45;&gt;פרשה&#45;מרכז</title>
<path fill="none" stroke="black" d="M28.04,-720.77C28.57,-664.05 33.4,-494.15 72,-458.75 123.87,-411.17 211.77,-419.52 264.96,-430.49"/>
<polygon fill="black" stroke="black" points="264.08,-433.88 274.6,-432.6 265.58,-427.04 264.08,-433.88"/>
<text xml:space="preserve" text-anchor="middle" x="85.12" y="-460.7" font-family="Helvetica,sans-Serif" font-size="9.00">26</text>
</g>
<!-- קו&quot;כ -->
<g id="node27" class="node">
<title>קו&quot;כ</title>
<polygon fill="none" stroke="black" points="214.25,-816.25 160.25,-816.25 160.25,-780.25 214.25,-780.25 214.25,-816.25"/>
<text xml:space="preserve" text-anchor="middle" x="187.25" y="-793.23" font-family="SBL Hebrew,Helvetica" font-size="12.00">קו&quot;כ</text>
</g>
<!-- E&#45;&gt;קו&quot;כ -->
<g id="edge26" class="edge">
<title>E&#45;&gt;קו&quot;כ</title>
<path fill="none" stroke="black" d="M54.35,-757.04C60.02,-760.4 66.09,-763.67 72,-766.25 96.87,-777.11 126.4,-785.27 149.21,-790.63"/>
<polygon fill="black" stroke="black" points="148.13,-793.97 158.66,-792.77 149.68,-787.15 148.13,-793.97"/>
<text xml:space="preserve" text-anchor="middle" x="85.12" y="-777.54" font-family="Helvetica,sans-Serif" font-size="9.00">126</text>
</g>
<!-- מ:כו&quot;ק כתיב מילה חדה וקרי תרתין מילין&#45;&gt;מ:לגרמיה&#45;2 -->
<g id="edge38" class="edge">
<title>מ:כו&quot;ק כתיב מילה חדה וקרי תרתין מילין&#45;&gt;מ:לגרמיה&#45;2</title>
<path fill="none" stroke="black" d="M228.51,-941.6C261.19,-931.29 307.87,-914.57 345.5,-893.25 352.89,-889.06 360.36,-883.86 367.21,-878.6"/>
<polygon fill="black" stroke="black" points="369.29,-881.42 374.92,-872.44 364.92,-875.95 369.29,-881.42"/>
<text xml:space="preserve" text-anchor="middle" x="310.88" y="-926.07" font-family="Helvetica,sans-Serif" font-size="9.00">1</text>
</g>
<!-- מ:כו&quot;ק כתיב מילה חדה וקרי תרתין מילין&#45;&gt;מ:פסק -->
<g id="edge39" class="edge">
<title>מ:כו&quot;ק כתיב מילה חדה וקרי תרתין מילין&#45;&gt;מ:פסק</title>
<path fill="none" stroke="black" d="M228.65,-963.46C239.1,-967.47 249.78,-972.92 258.25,-980.25 270.59,-990.93 264.28,-1001.16 276.25,-1012.25 289.06,-1024.12 328.94,-1041.62 359.27,-1053.88"/>
<polygon fill="black" stroke="black" points="357.95,-1057.12 368.54,-1057.58 360.55,-1050.62 357.95,-1057.12"/>
<text xml:space="preserve" text-anchor="middle" x="310.88" y="-1049.71" font-family="Helvetica,sans-Serif" font-size="9.00">3</text>
</g>
<!-- מ:כו&quot;ק … אחת, …&#45;&gt;מ:פסק -->
<g id="edge40" class="edge">
<title>מ:כו&quot;ק … אחת, …&#45;&gt;מ:פסק</title>
<path fill="none" stroke="black" d="M235.74,-1062.85C272.98,-1064.1 324.1,-1065.82 358.59,-1066.98"/>
<polygon fill="black" stroke="black" points="358.42,-1070.48 368.54,-1067.31 358.66,-1063.48 358.42,-1070.48"/>
<text xml:space="preserve" text-anchor="middle" x="310.88" y="-1068.32" font-family="Helvetica,sans-Serif" font-size="9.00">2</text>
</g>
<!-- מ:כל קמץ קטן מרכא -->
<g id="node8" class="node">
<title>מ:כל קמץ קטן מרכא</title>
<g id="a_node8"><a xlink:title="מ:כל קמץ קטן מרכא">
<polygon fill="none" stroke="black" points="555.25,-685.25 477.75,-685.25 477.75,-649.25 555.25,-649.25 555.25,-685.25"/>
<text xml:space="preserve" text-anchor="middle" x="516.5" y="-662.23" font-family="SBL Hebrew,Helvetica" font-size="12.00">מ:כל … מרכא</text>
</a>
</g>
</g>
<!-- מ:טעם -->
<g id="node29" class="node">
<title>מ:טעם</title>
<polygon fill="none" stroke="black" points="424.38,-1018.25 370.38,-1018.25 370.38,-982.25 424.38,-982.25 424.38,-1018.25"/>
<text xml:space="preserve" text-anchor="middle" x="397.38" y="-995.23" font-family="SBL Hebrew,Helvetica" font-size="12.00">מ:טעם</text>
</g>
<!-- שני טעמים באות אחת קמץ&#45;תחתון&#45;פתח&#45;עליון&#45;&gt;מ:טעם -->
<g id="edge51" class="edge">
<title>שני טעמים באות אחת קמץ&#45;תחתון&#45;פתח&#45;עליון&#45;&gt;מ:טעם</title>
<path fill="none" stroke="black" d="M258.36,-1002.55C264.41,-1002.24 270.44,-1001.97 276.25,-1001.75 303.89,-1000.71 335.12,-1000.35 358.81,-1000.24"/>
<polygon fill="black" stroke="black" points="358.62,-1003.74 368.61,-1000.21 358.6,-996.74 358.62,-1003.74"/>
<text xml:space="preserve" text-anchor="middle" x="310.88" y="-1003.7" font-family="Helvetica,sans-Serif" font-size="9.00">4</text>
</g>
<!-- מ:הערה&#45;&gt;מ:אות&#45;ג -->
<g id="edge36" class="edge">
<title>מ:הערה&#45;&gt;מ:אות&#45;ג</title>
<path fill="none" stroke="black" d="M337.99,-391.19C362.2,-402.27 399.21,-419.28 431.25,-434.25 443.95,-440.18 448.14,-439.9 459.75,-447.75 515.17,-485.23 570.35,-541.01 600.68,-573.7"/>
<polygon fill="black" stroke="black" points="597.84,-575.78 607.18,-580.77 602.99,-571.04 597.84,-575.78"/>
<text xml:space="preserve" text-anchor="middle" x="454.5" y="-449.7" font-family="Helvetica,sans-Serif" font-size="9.00">5</text>
</g>
<!-- מ:הערה&#45;&gt;מ:אות&#45;ק -->
<g id="edge37" class="edge">
<title>מ:הערה&#45;&gt;מ:אות&#45;ק</title>
<path fill="none" stroke="black" d="M338.2,-378.13C365.85,-377.02 410.6,-375.38 449.25,-374.75 453.92,-374.67 455.13,-374.06 459.75,-374.75 504.94,-381.52 554.85,-398.19 587.76,-410.53"/>
<polygon fill="black" stroke="black" points="586.24,-413.7 596.83,-413.99 588.73,-407.16 586.24,-413.7"/>
<text xml:space="preserve" text-anchor="middle" x="454.5" y="-376.7" font-family="Helvetica,sans-Serif" font-size="9.00">1</text>
</g>
<!-- מ:עלייה -->
<g id="node28" class="node">
<title>מ:עלייה</title>
<polygon fill="none" stroke="black" points="424.38,-62.25 370.38,-62.25 370.38,-26.25 424.38,-26.25 424.38,-62.25"/>
<text xml:space="preserve" text-anchor="middle" x="397.38" y="-39.23" font-family="SBL Hebrew,Helvetica" font-size="12.00">מ:עלייה</text>
</g>
<!-- מ:פסוק&#45;&gt;מ:עלייה -->
<g id="edge41" class="edge">
<title>מ:פסוק&#45;&gt;מ:עלייה</title>
<path fill="none" stroke="black" d="M214.61,-44.25C251.02,-44.25 316.93,-44.25 358.59,-44.25"/>
<polygon fill="black" stroke="black" points="358.39,-47.75 368.39,-44.25 358.39,-40.75 358.39,-47.75"/>
<text xml:space="preserve" text-anchor="middle" x="310.88" y="-46.2" font-family="Helvetica,sans-Serif" font-size="9.00">532</text>
</g>
<!-- מודגש&#45;&gt;קק -->
<g id="edge48" class="edge">
<title>מודגש&#45;&gt;קק</title>
<path fill="none" stroke="black" d="M214.61,-198.83C251.02,-194.11 316.93,-185.56 358.59,-180.15"/>
<polygon fill="black" stroke="black" points="358.93,-183.64 368.4,-178.88 358.03,-176.69 358.93,-183.64"/>
<text xml:space="preserve" text-anchor="middle" x="310.88" y="-192.32" font-family="Helvetica,sans-Serif" font-size="9.00">2</text>
</g>
<!-- כו&quot;ק&#45;&gt;גלגל&#45;2 -->
<g id="edge28" class="edge">
<title>כו&quot;ק&#45;&gt;גלגל&#45;2</title>
<path fill="none" stroke="black" d="M213.57,-584.78C230.51,-573.29 253.75,-559.15 276.25,-550.75 302.86,-540.81 334.54,-535.39 358.69,-532.47"/>
<polygon fill="black" stroke="black" points="358.82,-535.98 368.37,-531.4 358.05,-529.02 358.82,-535.98"/>
<text xml:space="preserve" text-anchor="middle" x="310.88" y="-552.7" font-family="Helvetica,sans-Serif" font-size="9.00">1</text>
</g>
<!-- כו&quot;ק&#45;&gt;מ:אות&#45;ק -->
<g id="edge29" class="edge">
<title>כו&quot;ק&#45;&gt;מ:אות&#45;ק</title>
<path fill="none" stroke="black" d="M214.42,-601.65C260.05,-598.11 356.44,-587.3 431.25,-556.25 494.75,-529.9 558.94,-480.95 595.03,-450.93"/>
<polygon fill="black" stroke="black" points="597.03,-453.82 602.43,-444.7 592.52,-448.46 597.03,-453.82"/>
<text xml:space="preserve" text-anchor="middle" x="454.5" y="-549.25" font-family="Helvetica,sans-Serif" font-size="9.00">1</text>
</g>
<!-- כו&quot;ק&#45;&gt;מ:דחי -->
<g id="edge30" class="edge">
<title>כו&quot;ק&#45;&gt;מ:דחי</title>
<path fill="none" stroke="black" d="M214.48,-603.01C272.28,-602.48 410.82,-601.21 477.88,-600.59"/>
<polygon fill="black" stroke="black" points="477.67,-604.1 487.63,-600.51 477.6,-597.1 477.67,-604.1"/>
<text xml:space="preserve" text-anchor="middle" x="397.38" y="-603.55" font-family="Helvetica,sans-Serif" font-size="9.00">7</text>
</g>
<!-- כו&quot;ק&#45;&gt;מ:לגרמיה&#45;2 -->
<g id="edge31" class="edge">
<title>כו&quot;ק&#45;&gt;מ:לגרמיה&#45;2</title>
<path fill="none" stroke="black" d="M214.64,-610.13C229.46,-615.29 247.15,-623.81 258.25,-637.25 277.89,-661.02 258.56,-679 276.25,-704.25 297.81,-735.02 320.89,-724.36 345.5,-752.75 363.85,-773.92 377.59,-802.87 386.14,-824.26"/>
<polygon fill="black" stroke="black" points="382.86,-825.47 389.7,-833.56 389.39,-822.97 382.86,-825.47"/>
<text xml:space="preserve" text-anchor="middle" x="310.88" y="-754.7" font-family="Helvetica,sans-Serif" font-size="9.00">9</text>
</g>
<!-- כו&quot;ק&#45;&gt;מ:קמץ -->
<g id="edge32" class="edge">
<title>כו&quot;ק&#45;&gt;מ:קמץ</title>
<path fill="none" stroke="black" d="M214.74,-605.43C246.74,-608.77 301.72,-616.75 345.5,-634.75 351.52,-637.22 357.58,-640.44 363.31,-643.9"/>
<polygon fill="black" stroke="black" points="361.02,-646.59 371.33,-649.05 364.81,-640.7 361.02,-646.59"/>
<text xml:space="preserve" text-anchor="middle" x="310.88" y="-636.7" font-family="Helvetica,sans-Serif" font-size="9.00">10</text>
</g>
<!-- מ:דחי&#45;&gt;מ:אות&#45;ג -->
<g id="edge33" class="edge">
<title>מ:דחי&#45;&gt;מ:אות&#45;ג</title>
<path fill="none" stroke="black" d="M543.95,-600.25C556.91,-600.25 572.74,-600.25 586.92,-600.25"/>
<polygon fill="black" stroke="black" points="586.84,-603.75 596.84,-600.25 586.84,-596.75 586.84,-603.75"/>
<text xml:space="preserve" text-anchor="middle" x="575.88" y="-602.2" font-family="Helvetica,sans-Serif" font-size="9.00">4</text>
</g>
<!-- מ:דחי&#45;&gt;מ:אות&#45;ק -->
<g id="edge34" class="edge">
<title>מ:דחי&#45;&gt;מ:אות&#45;ק</title>
<path fill="none" stroke="black" d="M528.79,-582.03C541.06,-562.19 561.24,-529.51 578.5,-501.25 588.14,-485.47 598.84,-467.8 607.49,-453.47"/>
<polygon fill="black" stroke="black" points="610.43,-455.37 612.6,-445 604.44,-451.75 610.43,-455.37"/>
<text xml:space="preserve" text-anchor="middle" x="575.88" y="-511.24" font-family="Helvetica,sans-Serif" font-size="9.00">2</text>
</g>
<!-- מ:דחי&#45;&gt;מ:ירושלם -->
<g id="edge35" class="edge">
<title>מ:דחי&#45;&gt;מ:ירושלם</title>
<path fill="none" stroke="black" d="M539.52,-618.68C545.58,-624.9 551.51,-632.3 555.25,-640.25 600.29,-735.98 618.62,-1068.81 623.25,-1170.51"/>
<polygon fill="black" stroke="black" points="619.76,-1170.64 623.7,-1180.48 626.75,-1170.33 619.76,-1170.64"/>
<text xml:space="preserve" text-anchor="middle" x="575.88" y="-719.05" font-family="Helvetica,sans-Serif" font-size="9.00">2</text>
</g>
<!-- מ:קו&quot;כ&#45;אם&#45;2&#45;&gt;מ:דחי -->
<g id="edge42" class="edge">
<title>מ:קו&quot;כ&#45;אם&#45;2&#45;&gt;מ:דחי</title>
<path fill="none" stroke="black" d="M224.25,-712.62C289.57,-723.32 424.16,-741.13 459.75,-713.25 486.06,-692.64 461.76,-669.59 477.75,-640.25 480.23,-635.69 483.36,-631.27 486.75,-627.13"/>
<polygon fill="black" stroke="black" points="489.36,-629.47 493.43,-619.69 484.15,-624.79 489.36,-629.47"/>
<text xml:space="preserve" text-anchor="middle" x="397.38" y="-730.1" font-family="Helvetica,sans-Serif" font-size="9.00">8</text>
</g>
<!-- מ:קו&quot;כ&#45;אם&#45;2&#45;&gt;מ:לגרמיה&#45;2 -->
<g id="edge43" class="edge">
<title>מ:קו&quot;כ&#45;אם&#45;2&#45;&gt;מ:לגרמיה&#45;2</title>
<path fill="none" stroke="black" d="M210.56,-724.75C224.92,-737.18 243.59,-754.33 258.25,-771.25 267.45,-781.87 264.92,-788.93 276.25,-797.25 302.23,-816.32 316.46,-804.78 345.5,-818.75 351.41,-821.6 357.42,-825.07 363.14,-828.69"/>
<polygon fill="black" stroke="black" points="360.89,-831.4 371.16,-834.03 364.77,-825.58 360.89,-831.4"/>
<text xml:space="preserve" text-anchor="middle" x="310.88" y="-820.7" font-family="Helvetica,sans-Serif" font-size="9.00">2</text>
</g>
<!-- מ:קו&quot;כ&#45;אם&#45;2&#45;&gt;מ:קמץ -->
<g id="edge44" class="edge">
<title>מ:קו&quot;כ&#45;אם&#45;2&#45;&gt;מ:קמץ</title>
<path fill="none" stroke="black" d="M224.03,-699.72C261.63,-692.85 320.53,-682.1 358.79,-675.11"/>
<polygon fill="black" stroke="black" points="359.26,-678.58 368.47,-673.34 358.01,-671.7 359.26,-678.58"/>
<text xml:space="preserve" text-anchor="middle" x="310.88" y="-691.48" font-family="Helvetica,sans-Serif" font-size="9.00">2</text>
</g>
<!-- מ:קמץ&#45;&gt;מ:כל קמץ קטן מרכא -->
<g id="edge46" class="edge">
<title>מ:קמץ&#45;&gt;מ:כל קמץ קטן מרכא</title>
<path fill="none" stroke="black" d="M424.66,-668.03C436.9,-667.92 451.88,-667.79 466.11,-667.67"/>
<polygon fill="black" stroke="black" points="465.82,-671.17 475.79,-667.59 465.76,-664.17 465.82,-671.17"/>
<text xml:space="preserve" text-anchor="middle" x="454.5" y="-669.76" font-family="Helvetica,sans-Serif" font-size="9.00">2</text>
</g>
<!-- מ:קמץ&#45;&gt;מ:דחי -->
<g id="edge45" class="edge">
<title>מ:קמץ&#45;&gt;מ:דחי</title>
<path fill="none" stroke="black" d="M424.66,-652.99C440.94,-643.54 462.05,-631.28 479.82,-620.96"/>
<polygon fill="black" stroke="black" points="481.1,-624.27 487.99,-616.22 477.59,-618.21 481.1,-624.27"/>
<text xml:space="preserve" text-anchor="middle" x="454.5" y="-640.27" font-family="Helvetica,sans-Serif" font-size="9.00">14</text>
</g>
<!-- מ:קמץ&#45;&gt;מ:מקף אפור -->
<g id="edge47" class="edge">
<title>מ:קמץ&#45;&gt;מ:מקף אפור</title>
<path fill="none" stroke="black" d="M423.79,-686.69C440.52,-698.83 462.63,-714.88 480.95,-728.18"/>
<polygon fill="black" stroke="black" points="478.76,-730.91 488.91,-733.95 482.87,-725.25 478.76,-730.91"/>
<text xml:space="preserve" text-anchor="middle" x="454.5" y="-712.7" font-family="Helvetica,sans-Serif" font-size="9.00">2</text>
</g>
<!-- פרשה&#45;מרכז&#45;&gt;מ:דחי -->
<g id="edge49" class="edge">
<title>פרשה&#45;מרכז&#45;&gt;מ:דחי</title>
<path fill="none" stroke="black" d="M345.9,-438.65C379.3,-437.11 429.5,-440.46 459.75,-469.25 488.55,-496.66 503.16,-541.34 510.05,-570.77"/>
<polygon fill="black" stroke="black" points="506.62,-571.46 512.16,-580.5 513.47,-569.98 506.62,-571.46"/>
<text xml:space="preserve" text-anchor="middle" x="397.38" y="-452.83" font-family="Helvetica,sans-Serif" font-size="9.00">10</text>
</g>
<!-- קו&quot;כ&#45;&gt;מ:לגרמיה&#45;2 -->
<g id="edge50" class="edge">
<title>קו&quot;כ&#45;&gt;מ:לגרמיה&#45;2</title>
<path fill="none" stroke="black" d="M214.42,-809.46C231.71,-816.52 255.02,-825.38 276.25,-831.25 300.99,-838.09 329.19,-843.38 352.05,-847.06"/>
<polygon fill="black" stroke="black" points="351.22,-850.47 361.64,-848.55 352.29,-843.56 351.22,-850.47"/>
<text xml:space="preserve" text-anchor="middle" x="310.88" y="-847.72" font-family="Helvetica,sans-Serif" font-size="9.00">1</text>
</g>
</g>
</svg>
