<?xml version="1.0" encoding="UTF-8" standalone="no"?>
<!DOCTYPE svg PUBLIC "-//W3C//DTD SVG 1.1//EN"
 "http://www.w3.org/Graphics/SVG/1.1/DTD/svg11.dtd">
<!-- Generated by graphviz version 14.1.2 (20260124.0452)
 -->
<!-- This file was generated by MAM&#45;basics/py/main_tmpl_survey.py. -->
<!-- Title: template_call_graph Pages: 1 -->
<svg width="663pt" height="1167pt"
 viewBox="0.00 0.00 663.00 1167.00" xmlns="http://www.w3.org/2000/svg" xmlns:xlink="http://www.w3.org/1999/xlink">
<g id="graph0" class="graph" transform="scale(1 1) rotate(0) translate(4 1162.75)">
<title>template_call_graph</title>
<polygon fill="white" stroke="none" points="-4,4 -4,-1162.75 658.5,-1162.75 658.5,4 -4,4"/>
<text xml:space="preserve" text-anchor="middle" x="327.25" y="-5.75" font-family="Times New Roman,serif" font-size="10.00">מ:כפול, מ:קישור בהערה, מ:קישור פנימי בהערה, נוסח, ש have been discarded</text>
<!-- C -->
<g id="node1" class="node">
<title>C</title>
<polygon fill="none" stroke="black" stroke-width="2" points="54,-190.25 0,-190.25 0,-154.25 54,-154.25 54,-190.25"/>
<text xml:space="preserve" text-anchor="middle" x="27" y="-167.22" font-family="SBL Hebrew,Helvetica" font-size="12.00">C</text>
</g>
<!-- #בלי קטע:, … -->
<g id="node4" class="node">
<title>#בלי קטע:, …</title>
<g id="a_node4"><a xlink:title="#בלי קטע:&#10;#בלי קטע:דברי הימים א טז/טעמים&#10;#בלי קטע:דברים לב/טעמים&#10;#בלי קטע:יהושע יב/טעמים&#10;#בלי קטע:מלכי כנען/צורת השיר&#10;#בלי קטע:עשרת בני המן/צורת השיר&#10;#בלי קטע:שופטים ה/טעמים&#10;#בלי קטע:שירת אסף/צורת השיר&#10;#בלי קטע:שירת דבורה/צורת השיר&#10;#בלי קטע:שירת דוד/צורת השיר&#10;#בלי קטע:שירת האזינו/צורת השיר&#10;#בלי קטע:שירת הים/צורת השיר&#10;#בלי קטע:שירת העתים/צורת השיר&#10;#בלי קטע:שמואל ב כב/טעמים&#10;#בלי קטע:שמות טו/טעמים&#10;#קטע:אסתר ט/טעמים&#10;#קטע:דברי הימים א טז/טעמים&#10;#קטע:דברים לב/טעמים&#10;#קטע:יהושע יב/טעמים&#10;#קטע:מלכי כנען/צורות נוספות&#10;#קטע:מלכי כנען/צורת השיר&#10;#קטע:עשרת בני המן/צורות נוספות&#10;#קטע:עשרת בני המן/צורת השיר&#10;#קטע:עשרת הדברות בסיס/טעמים&#10;#קטע:עשרת הדברות/טעמים&#10;#קטע:קהלת ג/טעמים&#10;#קטע:שירת אסף/צורות נוספות&#10;#קטע:שירת אסף/צורת השיר&#10;#קטע:שירת דבורה/צורות נוספות&#10;#קטע:שירת דבורה/צורת השיר&#10;#קטע:שירת דוד/צורות נוספות&#10;#קטע:שירת דוד/צורת השיר&#10;#קטע:שירת האזינו/צורות נוספות&#10;#קטע:שירת האזינו/צורת השיר&#10;#קטע:שירת הים/צורות נוספות&#10;#קטע:שירת הים/צורת השיר&#10;#קטע:שירת העתים/צורות נוספות&#10;#קטע:שירת העתים/צורת השיר&#10;#קטע:שמות טו/טעמים&#10;בסיס&#45;משתמש&#10;טעמי המקרא באינטרנט&#10;מ:אין פרשה בתחילת פרק&#10;מ:אין פרשה בתחילת פרק בספרי אמ״ת&#10;מ:אין רווח של פרשה בתחילת פרשת השבוע&#10;מ:טעמי המקרא&#10;מ:טעמי המקרא&#45;סוף&#10;מ:יישור&#45;בשני&#45;הצדדים&#10;מ:יישור&#45;בשני&#45;הצדדים&#45;סוף&#10;מ:סיום בטוב&#10;מ:ספר חדש&#10;מ:רווח בתרי עשר&#10;מ:רווח בתרי עשר בפסוק הראשון&#10;מ:רווח לספר בתהלים&#10;מ:רווח לספר בתהלים בפסוק הראשון&#10;מ:שוליים&#10;מ:שוליים&#45;סוף&#10;ניווט טעמים&#10;עוגן בשורה&#10;צורות כתיבה בספרי אמ״ת&#10;ר4">
<polygon fill="none" stroke="black" points="226.38,-119.25 148.12,-119.25 148.12,-83.25 226.38,-83.25 226.38,-119.25"/>
<text xml:space="preserve" text-anchor="middle" x="187.25" y="-96.22" font-family="SBL Hebrew,Helvetica" font-size="12.00">#בלי קטע:, …</text>
</a>
</g>
</g>
<!-- C&#45;&gt;#בלי קטע:, … -->
<g id="edge1" class="edge">
<title>C&#45;&gt;#בלי קטע:, …</title>
<path fill="none" stroke="black" d="M43.52,-153.87C51.3,-145.71 61.34,-136.64 72,-130.75 91.75,-119.85 115.64,-112.87 136.47,-108.45"/>
<polygon fill="black" stroke="black" points="137.05,-111.9 146.19,-106.54 135.7,-105.03 137.05,-111.9"/>
<text xml:space="preserve" text-anchor="middle" x="85.12" y="-132.7" font-family="Helvetica,sans-Serif" font-size="9.00">13315</text>
</g>
<!-- מ:ששש, … -->
<g id="node7" class="node">
<title>מ:ששש, …</title>
<g id="a_node7"><a xlink:title="מ:ששש&#10;סס&#10;ססס&#10;פפ&#10;פפפ&#10;ר1">
<polygon fill="none" stroke="black" points="219.62,-312.25 154.88,-312.25 154.88,-276.25 219.62,-276.25 219.62,-312.25"/>
<text xml:space="preserve" text-anchor="middle" x="187.25" y="-289.23" font-family="SBL Hebrew,Helvetica" font-size="12.00">מ:ששש, …</text>
</a>
</g>
</g>
<!-- C&#45;&gt;מ:ששש, … -->
<g id="edge4" class="edge">
<title>C&#45;&gt;מ:ששש, …</title>
<path fill="none" stroke="black" d="M32.44,-190.47C38.23,-210.43 50.28,-242.02 72,-260.25 91.93,-276.98 119.85,-285.48 143.1,-289.79"/>
<polygon fill="black" stroke="black" points="142.5,-293.24 152.93,-291.4 143.63,-286.33 142.5,-293.24"/>
<text xml:space="preserve" text-anchor="middle" x="85.12" y="-277.47" font-family="Helvetica,sans-Serif" font-size="9.00">3522</text>
</g>
<!-- מ:הערה -->
<g id="node9" class="node">
<title>מ:הערה</title>
<polygon fill="none" stroke="black" points="337.88,-494.25 283.88,-494.25 283.88,-458.25 337.88,-458.25 337.88,-494.25"/>
<text xml:space="preserve" text-anchor="middle" x="310.88" y="-471.23" font-family="SBL Hebrew,Helvetica" font-size="12.00">מ:הערה</text>
</g>
<!-- C&#45;&gt;מ:הערה -->
<g id="edge2" class="edge">
<title>C&#45;&gt;מ:הערה</title>
<path fill="none" stroke="black" d="M51.93,-190.64C69.05,-203.05 93.08,-218.97 116.25,-229.25 175.97,-255.74 213.84,-219.33 258.25,-267.25 287.76,-299.09 266.05,-321.06 276.25,-363.25 283.22,-392.05 293.06,-424.41 300.29,-447.1"/>
<polygon fill="black" stroke="black" points="296.95,-448.13 303.35,-456.57 303.61,-445.98 296.95,-448.13"/>
<text xml:space="preserve" text-anchor="middle" x="85.12" y="-222.08" font-family="Helvetica,sans-Serif" font-size="9.00">4</text>
</g>
<!-- מ:פסוק -->
<g id="node10" class="node">
<title>מ:פסוק</title>
<polygon fill="none" stroke="black" points="214.25,-62.25 160.25,-62.25 160.25,-26.25 214.25,-26.25 214.25,-62.25"/>
<text xml:space="preserve" text-anchor="middle" x="187.25" y="-39.23" font-family="SBL Hebrew,Helvetica" font-size="12.00">מ:פסוק</text>
</g>
<!-- C&#45;&gt;מ:פסוק -->
<g id="edge3" class="edge">
<title>C&#45;&gt;מ:פסוק</title>
<path fill="none" stroke="black" d="M37.61,-154.02C45.62,-139.87 57.95,-120.28 72,-105.75 93.58,-83.42 125.06,-67.3 149.51,-57.18"/>
<polygon fill="black" stroke="black" points="150.78,-60.45 158.78,-53.51 148.2,-53.94 150.78,-60.45"/>
<text xml:space="preserve" text-anchor="middle" x="85.12" y="-107.7" font-family="Helvetica,sans-Serif" font-size="9.00">81</text>
</g>
<!-- מודגש -->
<g id="node11" class="node">
<title>מודגש</title>
<polygon fill="none" stroke="black" points="214.25,-220.25 160.25,-220.25 160.25,-184.25 214.25,-184.25 214.25,-220.25"/>
<text xml:space="preserve" text-anchor="middle" x="187.25" y="-197.22" font-family="SBL Hebrew,Helvetica" font-size="12.00">מודגש</text>
</g>
<!-- C&#45;&gt;מודגש -->
<g id="edge5" class="edge">
<title>C&#45;&gt;מודגש</title>
<path fill="none" stroke="black" d="M54.49,-177.27C80.35,-182.17 119.96,-189.68 148.99,-195.19"/>
<polygon fill="black" stroke="black" points="147.98,-198.56 158.45,-196.98 149.28,-191.68 147.98,-198.56"/>
<text xml:space="preserve" text-anchor="middle" x="85.12" y="-187.4" font-family="Helvetica,sans-Serif" font-size="9.00">2</text>
</g>
<!-- קק -->
<g id="node12" class="node">
<title>קק</title>
<polygon fill="none" stroke="black" points="424.38,-193.25 370.38,-193.25 370.38,-157.25 424.38,-157.25 424.38,-193.25"/>
<text xml:space="preserve" text-anchor="middle" x="397.38" y="-170.22" font-family="SBL Hebrew,Helvetica" font-size="12.00">קק</text>
</g>
<!-- C&#45;&gt;קק -->
<g id="edge6" class="edge">
<title>C&#45;&gt;קק</title>
<path fill="none" stroke="black" d="M54.22,-169.44C71.76,-167.7 95.36,-165.64 116.25,-164.75 179.3,-162.08 195.18,-162.36 258.25,-164.75 292.32,-166.04 331,-169.12 358.75,-171.62"/>
<polygon fill="black" stroke="black" points="358.14,-175.07 368.42,-172.5 358.78,-168.1 358.14,-175.07"/>
<text xml:space="preserve" text-anchor="middle" x="187.25" y="-166.7" font-family="Helvetica,sans-Serif" font-size="9.00">1</text>
</g>
<!-- D -->
<g id="node2" class="node">
<title>D</title>
<polygon fill="none" stroke="black" stroke-width="2" points="54,-55.25 0,-55.25 0,-19.25 54,-19.25 54,-55.25"/>
<text xml:space="preserve" text-anchor="middle" x="27" y="-32.23" font-family="SBL Hebrew,Helvetica" font-size="12.00">D</text>
</g>
<!-- D&#45;&gt;מ:פסוק -->
<g id="edge7" class="edge">
<title>D&#45;&gt;מ:פסוק</title>
<path fill="none" stroke="black" d="M54.36,-37.56C67.55,-37.78 83.75,-38.14 98.25,-38.75 114.83,-39.44 133.14,-40.54 148.75,-41.57"/>
<polygon fill="black" stroke="black" points="148.36,-45.05 158.57,-42.23 148.83,-38.06 148.36,-45.05"/>
<text xml:space="preserve" text-anchor="middle" x="85.12" y="-40.7" font-family="Helvetica,sans-Serif" font-size="9.00">23202</text>
</g>
<!-- E -->
<g id="node3" class="node">
<title>E</title>
<polygon fill="none" stroke="black" stroke-width="2" points="54,-682.25 0,-682.25 0,-646.25 54,-646.25 54,-682.25"/>
<text xml:space="preserve" text-anchor="middle" x="27" y="-659.23" font-family="SBL Hebrew,Helvetica" font-size="12.00">E</text>
</g>
<!-- ירח … יומו&#45;2, … -->
<g id="node5" class="node">
<title>ירח … יומו&#45;2, …</title>
<g id="a_node5"><a xlink:title="ירח בן יומו&#45;2&#10;כתיב ולא קרי&#10;מ:אות מנוקדת&#10;מ:אות תלויה&#10;מ:גרש ותלישא גדולה&#10;מ:גרשיים ותלישא גדולה&#10;מ:טעם ומתג באות אחת&#10;מ:ירושלמה&#10;מ:נו״ן הפוכה&#10;מ:צינור&#10;קרי ולא כתיב&#10;ר0&#10;ר2&#10;ר3&#10;רווח בסוף שורה">
<polygon fill="none" stroke="black" points="230.88,-420.25 143.62,-420.25 143.62,-384.25 230.88,-384.25 230.88,-420.25"/>
<text xml:space="preserve" text-anchor="middle" x="187.25" y="-397.23" font-family="SBL Hebrew,Helvetica" font-size="12.00">ירח … יומו&#45;2, …</text>
</a>
</g>
</g>
<!-- E&#45;&gt;ירח … יומו&#45;2, … -->
<g id="edge9" class="edge">
<title>E&#45;&gt;ירח … יומו&#45;2, …</title>
<path fill="none" stroke="black" d="M28.74,-646.09C31.19,-595.59 40.71,-455.19 72,-423.75 87.57,-408.1 110.68,-401.9 132.05,-399.93"/>
<polygon fill="black" stroke="black" points="132.07,-403.44 141.84,-399.34 131.65,-396.45 132.07,-403.44"/>
<text xml:space="preserve" text-anchor="middle" x="85.12" y="-425.7" font-family="Helvetica,sans-Serif" font-size="9.00">1416</text>
</g>
<!-- E&#45;&gt;מ:ששש, … -->
<g id="edge22" class="edge">
<title>E&#45;&gt;מ:ששש, …</title>
<path fill="none" stroke="black" d="M28.91,-645.85C32.06,-587.54 43.89,-407.78 72,-357.75 86.98,-331.09 117.84,-314.9 143.72,-305.55"/>
<polygon fill="black" stroke="black" points="144.64,-308.93 153.01,-302.43 142.41,-302.3 144.64,-308.93"/>
<text xml:space="preserve" text-anchor="middle" x="85.12" y="-359.7" font-family="Helvetica,sans-Serif" font-size="9.00">5031</text>
</g>
<!-- שני טעמים באות אחת קמץ&#45;תחתון&#45;פתח&#45;עליון -->
<g id="node8" class="node">
<title>שני טעמים באות אחת קמץ&#45;תחתון&#45;פתח&#45;עליון</title>
<g id="a_node8"><a xlink:title="שני טעמים באות אחת קמץ&#45;תחתון&#45;פתח&#45;עליון">
<polygon fill="none" stroke="black" points="258.25,-366.25 116.25,-366.25 116.25,-330.25 258.25,-330.25 258.25,-366.25"/>
<text xml:space="preserve" text-anchor="middle" x="187.25" y="-343.23" font-family="SBL Hebrew,Helvetica" font-size="12.00">שני … קמץ&#45;תחתון&#45;פתח&#45;עליון</text>
</a>
</g>
</g>
<!-- E&#45;&gt;שני טעמים באות אחת קמץ&#45;תחתון&#45;פתח&#45;עליון -->
<g id="edge26" class="edge">
<title>E&#45;&gt;שני טעמים באות אחת קמץ&#45;תחתון&#45;פתח&#45;עליון</title>
<path fill="none" stroke="black" d="M28.66,-646.06C30.96,-591.74 40.35,-432.1 72,-392.75 80.84,-381.76 92.77,-373.47 105.58,-367.23"/>
<polygon fill="black" stroke="black" points="106.87,-370.49 114.62,-363.26 104.06,-364.08 106.87,-370.49"/>
<text xml:space="preserve" text-anchor="middle" x="85.12" y="-394.7" font-family="Helvetica,sans-Serif" font-size="9.00">4</text>
</g>
<!-- E&#45;&gt;מ:הערה -->
<g id="edge14" class="edge">
<title>E&#45;&gt;מ:הערה</title>
<path fill="none" stroke="black" d="M30.28,-645.96C35.5,-607.18 49.63,-518.74 72,-499.75 101.3,-474.87 212.74,-473.69 272.11,-474.94"/>
<polygon fill="black" stroke="black" points="272,-478.44 282.09,-475.19 272.18,-471.44 272,-478.44"/>
<text xml:space="preserve" text-anchor="middle" x="85.12" y="-501.7" font-family="Helvetica,sans-Serif" font-size="9.00">27</text>
</g>
<!-- E&#45;&gt;מודגש -->
<g id="edge23" class="edge">
<title>E&#45;&gt;מודגש</title>
<path fill="none" stroke="black" d="M28.71,-646.14C31.44,-583.23 42.53,-374.82 72,-315.75 79.26,-301.2 87.38,-302.35 98.25,-290.25 106.93,-280.59 107.47,-276.81 116.25,-267.25 128.74,-253.66 143.6,-239.6 156.41,-228.04"/>
<polygon fill="black" stroke="black" points="158.63,-230.76 163.77,-221.49 153.98,-225.53 158.63,-230.76"/>
<text xml:space="preserve" text-anchor="middle" x="85.12" y="-317.7" font-family="Helvetica,sans-Serif" font-size="9.00">19</text>
</g>
<!-- גלגל&#45;2 -->
<g id="node13" class="node">
<title>גלגל&#45;2</title>
<polygon fill="none" stroke="black" points="424.38,-980.25 370.38,-980.25 370.38,-944.25 424.38,-944.25 424.38,-980.25"/>
<text xml:space="preserve" text-anchor="middle" x="397.38" y="-957.23" font-family="SBL Hebrew,Helvetica" font-size="12.00">גלגל&#45;2</text>
</g>
<!-- E&#45;&gt;גלגל&#45;2 -->
<g id="edge8" class="edge">
<title>E&#45;&gt;גלגל&#45;2</title>
<path fill="none" stroke="black" d="M27.43,-682.68C27.07,-722.18 30.93,-816.57 72,-880.25 132.99,-974.81 287.41,-973.22 358.95,-966.84"/>
<polygon fill="black" stroke="black" points="358.97,-970.36 368.58,-965.9 358.29,-963.39 358.97,-970.36"/>
<text xml:space="preserve" text-anchor="middle" x="187.25" y="-969.32" font-family="Helvetica,sans-Serif" font-size="9.00">39</text>
</g>
<!-- כו״ק -->
<g id="node14" class="node">
<title>כו״ק</title>
<polygon fill="none" stroke="black" points="214.25,-903.25 160.25,-903.25 160.25,-867.25 214.25,-867.25 214.25,-903.25"/>
<text xml:space="preserve" text-anchor="middle" x="187.25" y="-880.23" font-family="SBL Hebrew,Helvetica" font-size="12.00">כו״ק</text>
</g>
<!-- E&#45;&gt;כו״ק -->
<g id="edge10" class="edge">
<title>E&#45;&gt;כו״ק</title>
<path fill="none" stroke="black" d="M30.17,-682.5C35.41,-723.68 49.98,-822.11 72,-846.25 91.63,-867.77 123.62,-877.42 148.77,-881.74"/>
<polygon fill="black" stroke="black" points="148.22,-885.2 158.62,-883.2 149.24,-878.28 148.22,-885.2"/>
<text xml:space="preserve" text-anchor="middle" x="85.12" y="-867.48" font-family="Helvetica,sans-Serif" font-size="9.00">884</text>
</g>
<!-- מ:אות&#45;ג -->
<g id="node15" class="node">
<title>מ:אות&#45;ג</title>
<polygon fill="none" stroke="black" points="652.5,-474.25 598.5,-474.25 598.5,-438.25 652.5,-438.25 652.5,-474.25"/>
<text xml:space="preserve" text-anchor="middle" x="625.5" y="-451.23" font-family="SBL Hebrew,Helvetica" font-size="12.00">מ:אות&#45;ג</text>
</g>
<!-- E&#45;&gt;מ:אות&#45;ג -->
<g id="edge11" class="edge">
<title>E&#45;&gt;מ:אות&#45;ג</title>
<path fill="none" stroke="black" d="M30.11,-646.03C35.24,-604.94 49.57,-506.77 72,-483.25 142.18,-409.67 474.29,-439.34 586.98,-451.8"/>
<polygon fill="black" stroke="black" points="586.27,-455.24 596.6,-452.88 587.05,-448.28 586.27,-455.24"/>
<text xml:space="preserve" text-anchor="middle" x="397.38" y="-440.54" font-family="Helvetica,sans-Serif" font-size="9.00">54</text>
</g>
<!-- מ:אות&#45;ק -->
<g id="node16" class="node">
<title>מ:אות&#45;ק</title>
<polygon fill="none" stroke="black" points="652.5,-904.25 598.5,-904.25 598.5,-868.25 652.5,-868.25 652.5,-904.25"/>
<text xml:space="preserve" text-anchor="middle" x="625.5" y="-881.23" font-family="SBL Hebrew,Helvetica" font-size="12.00">מ:אות&#45;ק</text>
</g>
<!-- E&#45;&gt;מ:אות&#45;ק -->
<g id="edge12" class="edge">
<title>E&#45;&gt;מ:אות&#45;ק</title>
<path fill="none" stroke="black" d="M27.63,-682.72C26.62,-752.17 26.4,-996.72 72,-1056.25 105.19,-1099.57 131.68,-1101.25 186.25,-1101.25 186.25,-1101.25 186.25,-1101.25 517.5,-1101.25 558.54,-1101.25 599.74,-974.09 616.58,-915.36"/>
<polygon fill="black" stroke="black" points="619.86,-916.61 619.21,-906.04 613.13,-914.71 619.86,-916.61"/>
<text xml:space="preserve" text-anchor="middle" x="397.38" y="-1103.2" font-family="Helvetica,sans-Serif" font-size="9.00">26</text>
</g>
<!-- מ:דחי -->
<g id="node17" class="node">
<title>מ:דחי</title>
<polygon fill="none" stroke="black" points="543.5,-881.25 489.5,-881.25 489.5,-845.25 543.5,-845.25 543.5,-881.25"/>
<text xml:space="preserve" text-anchor="middle" x="516.5" y="-858.23" font-family="SBL Hebrew,Helvetica" font-size="12.00">מ:דחי</text>
</g>
<!-- E&#45;&gt;מ:דחי -->
<g id="edge13" class="edge">
<title>E&#45;&gt;מ:דחי</title>
<path fill="none" stroke="black" d="M29.01,-682.69C31.78,-724.34 41.45,-828.4 72,-909.25 85.41,-944.74 83.46,-963.17 116.25,-982.25 176.76,-1017.47 369.49,-1022.25 431.25,-989.25 469.49,-968.82 493.41,-922.49 505.6,-892.07"/>
<polygon fill="black" stroke="black" points="508.73,-893.66 509.02,-883.07 502.19,-891.17 508.73,-893.66"/>
<text xml:space="preserve" text-anchor="middle" x="310.88" y="-1013.47" font-family="Helvetica,sans-Serif" font-size="9.00">2277</text>
</g>
<!-- מ:ירושלם -->
<g id="node18" class="node">
<title>מ:ירושלם</title>
<polygon fill="none" stroke="black" points="654.5,-1077.25 596.5,-1077.25 596.5,-1041.25 654.5,-1041.25 654.5,-1077.25"/>
<text xml:space="preserve" text-anchor="middle" x="625.5" y="-1054.22" font-family="SBL Hebrew,Helvetica" font-size="12.00">מ:ירושלם</text>
</g>
<!-- E&#45;&gt;מ:ירושלם -->
<g id="edge15" class="edge">
<title>E&#45;&gt;מ:ירושלם</title>
<path fill="none" stroke="black" d="M27.85,-682.72C27.57,-754.58 29.56,-1014.9 72,-1083.25 82.14,-1099.58 181.32,-1148.25 186.25,-1148.25 186.25,-1148.25 186.25,-1148.25 517.5,-1148.25 556.28,-1148.25 588.49,-1113.27 607.13,-1087.17"/>
<polygon fill="black" stroke="black" points="610,-1089.17 612.74,-1078.94 604.21,-1085.23 610,-1089.17"/>
<text xml:space="preserve" text-anchor="middle" x="397.38" y="-1150.2" font-family="Helvetica,sans-Serif" font-size="9.00">634</text>
</g>
<!-- מ:כו״ק מיוחד -->
<g id="node19" class="node">
<title>מ:כו״ק מיוחד</title>
<polygon fill="none" stroke="black" points="224.5,-736.25 150,-736.25 150,-700.25 224.5,-700.25 224.5,-736.25"/>
<text xml:space="preserve" text-anchor="middle" x="187.25" y="-713.23" font-family="SBL Hebrew,Helvetica" font-size="12.00">מ:כו״ק מיוחד</text>
</g>
<!-- E&#45;&gt;מ:כו״ק מיוחד -->
<g id="edge16" class="edge">
<title>E&#45;&gt;מ:כו״ק מיוחד</title>
<path fill="none" stroke="black" d="M54.49,-673.29C77.48,-681.13 111.32,-692.68 138.96,-702.11"/>
<polygon fill="black" stroke="black" points="137.56,-705.33 148.16,-705.25 139.82,-698.71 137.56,-705.33"/>
<text xml:space="preserve" text-anchor="middle" x="85.12" y="-689.97" font-family="Helvetica,sans-Serif" font-size="9.00">37</text>
</g>
<!-- מ:לגרמיה&#45;2 -->
<g id="node20" class="node">
<title>מ:לגרמיה&#45;2</title>
<polygon fill="none" stroke="black" points="431.25,-790.25 363.5,-790.25 363.5,-754.25 431.25,-754.25 431.25,-790.25"/>
<text xml:space="preserve" text-anchor="middle" x="397.38" y="-767.23" font-family="SBL Hebrew,Helvetica" font-size="12.00">מ:לגרמיה&#45;2</text>
</g>
<!-- E&#45;&gt;מ:לגרמיה&#45;2 -->
<g id="edge17" class="edge">
<title>E&#45;&gt;מ:לגרמיה&#45;2</title>
<path fill="none" stroke="black" d="M33.58,-682.46C44.07,-713.12 69.97,-774.17 116.25,-799.25 206.14,-847.97 250.09,-854.99 345.5,-818.25 356.22,-814.12 366.09,-806.57 374.22,-798.76"/>
<polygon fill="black" stroke="black" points="376.56,-801.38 380.98,-791.76 371.52,-796.52 376.56,-801.38"/>
<text xml:space="preserve" text-anchor="middle" x="187.25" y="-843.49" font-family="Helvetica,sans-Serif" font-size="9.00">1815</text>
</g>
<!-- מ:מקף אפור -->
<g id="node21" class="node">
<title>מ:מקף אפור</title>
<polygon fill="none" stroke="black" points="551.12,-580.25 481.88,-580.25 481.88,-544.25 551.12,-544.25 551.12,-580.25"/>
<text xml:space="preserve" text-anchor="middle" x="516.5" y="-557.23" font-family="SBL Hebrew,Helvetica" font-size="12.00">מ:מקף אפור</text>
</g>
<!-- E&#45;&gt;מ:מקף אפור -->
<g id="edge18" class="edge">
<title>E&#45;&gt;מ:מקף אפור</title>
<path fill="none" stroke="black" d="M34.11,-645.94C40.86,-628.26 53.31,-601.79 72,-585.25 87.9,-571.18 95.56,-572 116.25,-567.25 252.88,-535.91 291.36,-542.16 431.25,-551.25 443.98,-552.08 457.73,-553.6 470.36,-555.26"/>
<polygon fill="black" stroke="black" points="469.69,-558.7 480.07,-556.59 470.64,-551.76 469.69,-558.7"/>
<text xml:space="preserve" text-anchor="middle" x="310.88" y="-547.52" font-family="Helvetica,sans-Serif" font-size="9.00">114</text>
</g>
<!-- מ:פסק -->
<g id="node22" class="node">
<title>מ:פסק</title>
<polygon fill="none" stroke="black" points="424.38,-596.25 370.38,-596.25 370.38,-560.25 424.38,-560.25 424.38,-596.25"/>
<text xml:space="preserve" text-anchor="middle" x="397.38" y="-573.23" font-family="SBL Hebrew,Helvetica" font-size="12.00">מ:פסק</text>
</g>
<!-- E&#45;&gt;מ:פסק -->
<g id="edge19" class="edge">
<title>E&#45;&gt;מ:פסק</title>
<path fill="none" stroke="black" d="M54.45,-651.11C71.68,-643.04 94.85,-633.06 116.25,-626.75 201.15,-601.73 304.58,-587.96 358.9,-581.96"/>
<polygon fill="black" stroke="black" points="358.97,-585.47 368.54,-580.93 358.22,-578.51 358.97,-585.47"/>
<text xml:space="preserve" text-anchor="middle" x="187.25" y="-628.7" font-family="Helvetica,sans-Serif" font-size="9.00">515</text>
</g>
<!-- מ:קו״כ&#45;אם&#45;2 -->
<g id="node23" class="node">
<title>מ:קו״כ&#45;אם&#45;2</title>
<polygon fill="none" stroke="black" points="223.75,-682.25 150.75,-682.25 150.75,-646.25 223.75,-646.25 223.75,-682.25"/>
<text xml:space="preserve" text-anchor="middle" x="187.25" y="-659.23" font-family="SBL Hebrew,Helvetica" font-size="12.00">מ:קו״כ&#45;אם&#45;2</text>
</g>
<!-- E&#45;&gt;מ:קו״כ&#45;אם&#45;2 -->
<g id="edge20" class="edge">
<title>E&#45;&gt;מ:קו״כ&#45;אם&#45;2</title>
<path fill="none" stroke="black" d="M54.49,-664.25C77.51,-664.25 111.41,-664.25 139.05,-664.25"/>
<polygon fill="black" stroke="black" points="138.96,-667.75 148.96,-664.25 138.96,-660.75 138.96,-667.75"/>
<text xml:space="preserve" text-anchor="middle" x="85.12" y="-666.2" font-family="Helvetica,sans-Serif" font-size="9.00">148</text>
</g>
<!-- מ:קמץ -->
<g id="node24" class="node">
<title>מ:קמץ</title>
<polygon fill="none" stroke="black" points="424.38,-650.25 370.38,-650.25 370.38,-614.25 424.38,-614.25 424.38,-650.25"/>
<text xml:space="preserve" text-anchor="middle" x="397.38" y="-627.23" font-family="SBL Hebrew,Helvetica" font-size="12.00">מ:קמץ</text>
</g>
<!-- E&#45;&gt;מ:קמץ -->
<g id="edge21" class="edge">
<title>E&#45;&gt;מ:קמץ</title>
<path fill="none" stroke="black" d="M37.6,-645.87C45.36,-632.53 57.37,-614.86 72,-603.25 88.7,-590 95.35,-588.94 116.25,-584.75 216.44,-564.65 250.06,-565.74 345.5,-602.25 350.45,-604.14 355.47,-606.49 360.33,-609.04"/>
<polygon fill="black" stroke="black" points="358.27,-611.89 368.71,-613.72 361.68,-605.78 358.27,-611.89"/>
<text xml:space="preserve" text-anchor="middle" x="187.25" y="-586.7" font-family="Helvetica,sans-Serif" font-size="9.00">363</text>
</g>
<!-- פרשה&#45;מרכז -->
<g id="node25" class="node">
<title>פרשה&#45;מרכז</title>
<polygon fill="none" stroke="black" points="345.5,-1070.25 276.25,-1070.25 276.25,-1034.25 345.5,-1034.25 345.5,-1070.25"/>
<text xml:space="preserve" text-anchor="middle" x="310.88" y="-1047.22" font-family="SBL Hebrew,Helvetica" font-size="12.00">פרשה&#45;מרכז</text>
</g>
<!-- E&#45;&gt;פרשה&#45;מרכז -->
<g id="edge24" class="edge">
<title>E&#45;&gt;פרשה&#45;מרכז</title>
<path fill="none" stroke="black" d="M28.95,-682.52C32.73,-752.12 47.74,-997.91 72,-1022.25 122.1,-1072.51 210.97,-1069.13 264.75,-1061.27"/>
<polygon fill="black" stroke="black" points="265.17,-1064.74 274.5,-1059.72 264.08,-1057.83 265.17,-1064.74"/>
<text xml:space="preserve" text-anchor="middle" x="85.12" y="-1043.38" font-family="Helvetica,sans-Serif" font-size="9.00">26</text>
</g>
<!-- קו״כ -->
<g id="node26" class="node">
<title>קו״כ</title>
<polygon fill="none" stroke="black" points="214.25,-790.25 160.25,-790.25 160.25,-754.25 214.25,-754.25 214.25,-790.25"/>
<text xml:space="preserve" text-anchor="middle" x="187.25" y="-767.23" font-family="SBL Hebrew,Helvetica" font-size="12.00">קו״כ</text>
</g>
<!-- E&#45;&gt;קו״כ -->
<g id="edge25" class="edge">
<title>E&#45;&gt;קו״כ</title>
<path fill="none" stroke="black" d="M43.99,-682.48C60.57,-700.45 87.98,-727.71 116.25,-745.25 126.38,-751.53 138.21,-756.78 149.23,-760.92"/>
<polygon fill="black" stroke="black" points="147.87,-764.15 158.46,-764.18 150.2,-757.55 147.87,-764.15"/>
<text xml:space="preserve" text-anchor="middle" x="85.12" y="-734.16" font-family="Helvetica,sans-Serif" font-size="9.00">126</text>
</g>
<!-- מ:כל קמץ קטן מרכא -->
<g id="node6" class="node">
<title>מ:כל קמץ קטן מרכא</title>
<g id="a_node6"><a xlink:title="מ:כל קמץ קטן מרכא">
<polygon fill="none" stroke="black" points="555.25,-644.25 477.75,-644.25 477.75,-608.25 555.25,-608.25 555.25,-644.25"/>
<text xml:space="preserve" text-anchor="middle" x="516.5" y="-621.23" font-family="SBL Hebrew,Helvetica" font-size="12.00">מ:כל … מרכא</text>
</a>
</g>
</g>
<!-- מ:טעם -->
<g id="node28" class="node">
<title>מ:טעם</title>
<polygon fill="none" stroke="black" points="424.38,-366.25 370.38,-366.25 370.38,-330.25 424.38,-330.25 424.38,-366.25"/>
<text xml:space="preserve" text-anchor="middle" x="397.38" y="-343.23" font-family="SBL Hebrew,Helvetica" font-size="12.00">מ:טעם</text>
</g>
<!-- שני טעמים באות אחת קמץ&#45;תחתון&#45;פתח&#45;עליון&#45;&gt;מ:טעם -->
<g id="edge49" class="edge">
<title>שני טעמים באות אחת קמץ&#45;תחתון&#45;פתח&#45;עליון&#45;&gt;מ:טעם</title>
<path fill="none" stroke="black" d="M258.71,-348.25C292.25,-348.25 331,-348.25 358.83,-348.25"/>
<polygon fill="black" stroke="black" points="358.52,-351.75 368.52,-348.25 358.52,-344.75 358.52,-351.75"/>
<text xml:space="preserve" text-anchor="middle" x="310.88" y="-350.2" font-family="Helvetica,sans-Serif" font-size="9.00">4</text>
</g>
<!-- מ:הערה&#45;&gt;מ:אות&#45;ג -->
<g id="edge35" class="edge">
<title>מ:הערה&#45;&gt;מ:אות&#45;ג</title>
<path fill="none" stroke="black" d="M338.21,-474.36C365.86,-472.39 410.6,-469.24 449.25,-466.75 496.66,-463.69 551.31,-460.46 586.81,-458.41"/>
<polygon fill="black" stroke="black" points="586.78,-461.92 596.56,-457.84 586.38,-454.93 586.78,-461.92"/>
<text xml:space="preserve" text-anchor="middle" x="454.5" y="-468.7" font-family="Helvetica,sans-Serif" font-size="9.00">5</text>
</g>
<!-- מ:הערה&#45;&gt;מ:אות&#45;ק -->
<g id="edge36" class="edge">
<title>מ:הערה&#45;&gt;מ:אות&#45;ק</title>
<path fill="none" stroke="black" d="M338.35,-478.98C395.16,-485.41 526,-503.38 555.25,-535.25 598.51,-582.38 616.99,-780.9 622.56,-856.68"/>
<polygon fill="black" stroke="black" points="619.04,-856.51 623.23,-866.24 626.02,-856.02 619.04,-856.51"/>
<text xml:space="preserve" text-anchor="middle" x="454.5" y="-500.02" font-family="Helvetica,sans-Serif" font-size="9.00">1</text>
</g>
<!-- מ:עלייה -->
<g id="node27" class="node">
<title>מ:עלייה</title>
<polygon fill="none" stroke="black" points="424.38,-62.25 370.38,-62.25 370.38,-26.25 424.38,-26.25 424.38,-62.25"/>
<text xml:space="preserve" text-anchor="middle" x="397.38" y="-39.23" font-family="SBL Hebrew,Helvetica" font-size="12.00">מ:עלייה</text>
</g>
<!-- מ:פסוק&#45;&gt;מ:עלייה -->
<g id="edge39" class="edge">
<title>מ:פסוק&#45;&gt;מ:עלייה</title>
<path fill="none" stroke="black" d="M214.61,-44.25C251.02,-44.25 316.93,-44.25 358.59,-44.25"/>
<polygon fill="black" stroke="black" points="358.39,-47.75 368.39,-44.25 358.39,-40.75 358.39,-47.75"/>
<text xml:space="preserve" text-anchor="middle" x="310.88" y="-46.2" font-family="Helvetica,sans-Serif" font-size="9.00">532</text>
</g>
<!-- מודגש&#45;&gt;קק -->
<g id="edge46" class="edge">
<title>מודגש&#45;&gt;קק</title>
<path fill="none" stroke="black" d="M214.61,-198.83C251.02,-194.11 316.93,-185.56 358.59,-180.15"/>
<polygon fill="black" stroke="black" points="358.93,-183.64 368.4,-178.88 358.03,-176.69 358.93,-183.64"/>
<text xml:space="preserve" text-anchor="middle" x="310.88" y="-192.32" font-family="Helvetica,sans-Serif" font-size="9.00">2</text>
</g>
<!-- כו״ק&#45;&gt;גלגל&#45;2 -->
<g id="edge27" class="edge">
<title>כו״ק&#45;&gt;גלגל&#45;2</title>
<path fill="none" stroke="black" d="M214.72,-899.27C231.94,-908.04 255.06,-919.17 276.25,-927.25 303.46,-937.63 335.11,-946.74 359.1,-953.06"/>
<polygon fill="black" stroke="black" points="358.18,-956.43 368.73,-955.55 359.93,-949.66 358.18,-956.43"/>
<text xml:space="preserve" text-anchor="middle" x="310.88" y="-950.94" font-family="Helvetica,sans-Serif" font-size="9.00">1</text>
</g>
<!-- כו״ק&#45;&gt;מ:אות&#45;ק -->
<g id="edge28" class="edge">
<title>כו״ק&#45;&gt;מ:אות&#45;ק</title>
<path fill="none" stroke="black" d="M214.4,-888.04C231.89,-889.81 255.42,-891.99 276.25,-893.25 408.07,-901.23 441.2,-900.25 573.25,-902.25 575.58,-902.29 576.2,-902.64 578.5,-902.25 581.35,-901.77 584.25,-901.13 587.15,-900.39"/>
<polygon fill="black" stroke="black" points="588.11,-903.75 596.69,-897.54 586.11,-897.05 588.11,-903.75"/>
<text xml:space="preserve" text-anchor="middle" x="454.5" y="-902.64" font-family="Helvetica,sans-Serif" font-size="9.00">1</text>
</g>
<!-- כו״ק&#45;&gt;מ:דחי -->
<g id="edge29" class="edge">
<title>כו״ק&#45;&gt;מ:דחי</title>
<path fill="none" stroke="black" d="M214.7,-884.16C245.96,-882.81 299.54,-880.31 345.5,-877.25 390.96,-874.22 443.19,-869.78 477.62,-866.71"/>
<polygon fill="black" stroke="black" points="477.86,-870.2 487.51,-865.82 477.24,-863.23 477.86,-870.2"/>
<text xml:space="preserve" text-anchor="middle" x="397.38" y="-877.77" font-family="Helvetica,sans-Serif" font-size="9.00">7</text>
</g>
<!-- כו״ק&#45;&gt;מ:לגרמיה&#45;2 -->
<g id="edge30" class="edge">
<title>כו״ק&#45;&gt;מ:לגרמיה&#45;2</title>
<path fill="none" stroke="black" d="M214.67,-879.22C256.58,-869.51 334.69,-850.72 345.5,-843.25 361.21,-832.39 373.77,-815.03 382.49,-800.2"/>
<polygon fill="black" stroke="black" points="385.37,-802.21 387.16,-791.77 379.25,-798.81 385.37,-802.21"/>
<text xml:space="preserve" text-anchor="middle" x="310.88" y="-865.56" font-family="Helvetica,sans-Serif" font-size="9.00">9</text>
</g>
<!-- כו״ק&#45;&gt;מ:קמץ -->
<g id="edge31" class="edge">
<title>כו״ק&#45;&gt;מ:קמץ</title>
<path fill="none" stroke="black" d="M214.66,-873.29C228.27,-866.54 244.8,-857.44 258.25,-847.25 267.39,-840.32 267.37,-836.01 276.25,-828.75 304.58,-805.6 325.63,-814.97 345.5,-784.25 374.8,-738.97 338.89,-712.24 363.5,-664.25 364.37,-662.54 365.38,-660.88 366.47,-659.26"/>
<polygon fill="black" stroke="black" points="369.02,-661.67 372.61,-651.7 363.59,-657.26 369.02,-661.67"/>
<text xml:space="preserve" text-anchor="middle" x="310.88" y="-830.7" font-family="Helvetica,sans-Serif" font-size="9.00">10</text>
</g>
<!-- מ:דחי&#45;&gt;מ:אות&#45;ג -->
<g id="edge32" class="edge">
<title>מ:דחי&#45;&gt;מ:אות&#45;ג</title>
<path fill="none" stroke="black" d="M522.31,-844.97C539.21,-780.68 596.02,-564.58 616.8,-485.53"/>
<polygon fill="black" stroke="black" points="620.17,-486.5 619.32,-475.94 613.4,-484.72 620.17,-486.5"/>
<text xml:space="preserve" text-anchor="middle" x="575.88" y="-649.5" font-family="Helvetica,sans-Serif" font-size="9.00">4</text>
</g>
<!-- מ:דחי&#45;&gt;מ:אות&#45;ק -->
<g id="edge33" class="edge">
<title>מ:דחי&#45;&gt;מ:אות&#45;ק</title>
<path fill="none" stroke="black" d="M543.71,-856.75C554.64,-855.1 567.35,-854.58 578.5,-857.75 582.53,-858.9 586.56,-860.51 590.45,-862.39"/>
<polygon fill="black" stroke="black" points="588.61,-865.38 599.06,-867.14 591.99,-859.25 588.61,-865.38"/>
<text xml:space="preserve" text-anchor="middle" x="575.88" y="-859.7" font-family="Helvetica,sans-Serif" font-size="9.00">2</text>
</g>
<!-- מ:דחי&#45;&gt;מ:ירושלם -->
<g id="edge34" class="edge">
<title>מ:דחי&#45;&gt;מ:ירושלם</title>
<path fill="none" stroke="black" d="M527.57,-881.69C546.33,-916.07 586.78,-990.15 609.04,-1030.92"/>
<polygon fill="black" stroke="black" points="605.95,-1032.57 613.81,-1039.67 612.09,-1029.22 605.95,-1032.57"/>
<text xml:space="preserve" text-anchor="middle" x="575.88" y="-974.93" font-family="Helvetica,sans-Serif" font-size="9.00">2</text>
</g>
<!-- מ:כו״ק מיוחד&#45;&gt;מ:לגרמיה&#45;2 -->
<g id="edge37" class="edge">
<title>מ:כו״ק מיוחד&#45;&gt;מ:לגרמיה&#45;2</title>
<path fill="none" stroke="black" d="M224.87,-727.1C256.8,-734.9 304.31,-746.71 345.5,-757.75 347.63,-758.32 349.81,-758.91 352,-759.51"/>
<polygon fill="black" stroke="black" points="351,-762.87 361.57,-762.18 352.88,-756.12 351,-762.87"/>
<text xml:space="preserve" text-anchor="middle" x="310.88" y="-759.7" font-family="Helvetica,sans-Serif" font-size="9.00">1</text>
</g>
<!-- מ:כו״ק מיוחד&#45;&gt;מ:פסק -->
<g id="edge38" class="edge">
<title>מ:כו״ק מיוחד&#45;&gt;מ:פסק</title>
<path fill="none" stroke="black" d="M224.79,-706.47C235.85,-702.3 247.82,-697.15 258.25,-691.25 268.95,-685.2 336.29,-631.39 345.5,-623.25 353.98,-615.76 355.12,-612.85 363.5,-605.25 364,-604.8 364.5,-604.35 365,-603.9"/>
<polygon fill="black" stroke="black" points="367.07,-606.73 372.35,-597.55 362.49,-601.44 367.07,-606.73"/>
<text xml:space="preserve" text-anchor="middle" x="310.88" y="-678.93" font-family="Helvetica,sans-Serif" font-size="9.00">5</text>
</g>
<!-- מ:קו״כ&#45;אם&#45;2&#45;&gt;מ:דחי -->
<g id="edge40" class="edge">
<title>מ:קו״כ&#45;אם&#45;2&#45;&gt;מ:דחי</title>
<path fill="none" stroke="black" d="M223.9,-665.09C275.88,-668.2 372.65,-681.34 431.25,-734.75 462.89,-763.59 487.97,-806.78 502.28,-834.98"/>
<polygon fill="black" stroke="black" points="498.99,-836.23 506.56,-843.64 505.27,-833.13 498.99,-836.23"/>
<text xml:space="preserve" text-anchor="middle" x="397.38" y="-736.7" font-family="Helvetica,sans-Serif" font-size="9.00">8</text>
</g>
<!-- מ:קו״כ&#45;אם&#45;2&#45;&gt;מ:לגרמיה&#45;2 -->
<g id="edge41" class="edge">
<title>מ:קו״כ&#45;אם&#45;2&#45;&gt;מ:לגרמיה&#45;2</title>
<path fill="none" stroke="black" d="M224.05,-674.07C257.13,-684.09 306.84,-701.59 345.5,-725.75 354.74,-731.52 363.84,-739.07 371.74,-746.41"/>
<polygon fill="black" stroke="black" points="369.07,-748.7 378.69,-753.13 373.94,-743.66 369.07,-748.7"/>
<text xml:space="preserve" text-anchor="middle" x="310.88" y="-727.7" font-family="Helvetica,sans-Serif" font-size="9.00">2</text>
</g>
<!-- מ:קו״כ&#45;אם&#45;2&#45;&gt;מ:קמץ -->
<g id="edge42" class="edge">
<title>מ:קו״כ&#45;אם&#45;2&#45;&gt;מ:קמץ</title>
<path fill="none" stroke="black" d="M223.93,-651.2C235.42,-646.16 247.86,-639.78 258.25,-632.25 267.8,-625.33 265.45,-617.48 276.25,-612.75 302.6,-601.21 334.9,-607.46 359.37,-615.84"/>
<polygon fill="black" stroke="black" points="358,-619.07 368.59,-619.26 360.43,-612.5 358,-619.07"/>
<text xml:space="preserve" text-anchor="middle" x="310.88" y="-614.7" font-family="Helvetica,sans-Serif" font-size="9.00">2</text>
</g>
<!-- מ:קמץ&#45;&gt;מ:כל קמץ קטן מרכא -->
<g id="edge44" class="edge">
<title>מ:קמץ&#45;&gt;מ:כל קמץ קטן מרכא</title>
<path fill="none" stroke="black" d="M424.76,-629.59C432.63,-628.88 441.28,-628.19 449.25,-627.75 454.64,-627.45 460.28,-627.21 465.89,-627.02"/>
<polygon fill="black" stroke="black" points="465.89,-630.52 475.78,-626.73 465.69,-623.52 465.89,-630.52"/>
<text xml:space="preserve" text-anchor="middle" x="454.5" y="-629.7" font-family="Helvetica,sans-Serif" font-size="9.00">2</text>
</g>
<!-- מ:קמץ&#45;&gt;מ:דחי -->
<g id="edge43" class="edge">
<title>מ:קמץ&#45;&gt;מ:דחי</title>
<path fill="none" stroke="black" d="M424.85,-639.39C437.06,-643.94 450.8,-651.05 459.75,-661.75 501.58,-711.79 512.16,-790.85 514.74,-833.55"/>
<polygon fill="black" stroke="black" points="511.24,-833.49 515.22,-843.3 518.23,-833.15 511.24,-833.49"/>
<text xml:space="preserve" text-anchor="middle" x="454.5" y="-663.7" font-family="Helvetica,sans-Serif" font-size="9.00">14</text>
</g>
<!-- מ:קמץ&#45;&gt;מ:מקף אפור -->
<g id="edge45" class="edge">
<title>מ:קמץ&#45;&gt;מ:מקף אפור</title>
<path fill="none" stroke="black" d="M424.66,-616.54C439.54,-607.64 458.47,-596.33 475.2,-586.34"/>
<polygon fill="black" stroke="black" points="476.65,-589.54 483.44,-581.41 473.06,-583.54 476.65,-589.54"/>
<text xml:space="preserve" text-anchor="middle" x="454.5" y="-603.39" font-family="Helvetica,sans-Serif" font-size="9.00">2</text>
</g>
<!-- פרשה&#45;מרכז&#45;&gt;מ:דחי -->
<g id="edge47" class="edge">
<title>פרשה&#45;מרכז&#45;&gt;מ:דחי</title>
<path fill="none" stroke="black" d="M345.95,-1054.38C378.91,-1054.56 428.35,-1049.62 459.75,-1022.25 497.59,-989.27 509.75,-929.06 513.66,-892.95"/>
<polygon fill="black" stroke="black" points="517.12,-893.48 514.55,-883.2 510.15,-892.84 517.12,-893.48"/>
<text xml:space="preserve" text-anchor="middle" x="397.38" y="-1055.88" font-family="Helvetica,sans-Serif" font-size="9.00">10</text>
</g>
<!-- קו״כ&#45;&gt;מ:לגרמיה&#45;2 -->
<g id="edge48" class="edge">
<title>קו״כ&#45;&gt;מ:לגרמיה&#45;2</title>
<path fill="none" stroke="black" d="M214.61,-772.25C249.03,-772.25 309.8,-772.25 351.53,-772.25"/>
<polygon fill="black" stroke="black" points="351.51,-775.75 361.51,-772.25 351.51,-768.75 351.51,-775.75"/>
<text xml:space="preserve" text-anchor="middle" x="310.88" y="-774.2" font-family="Helvetica,sans-Serif" font-size="9.00">1</text>
</g>
</g>
</svg>
