<?xml version="1.0" encoding="UTF-8" standalone="no"?>
<!DOCTYPE svg PUBLIC "-//W3C//DTD SVG 1.1//EN"
 "http://www.w3.org/Graphics/SVG/1.1/DTD/svg11.dtd">
<!-- Generated by graphviz version 14.1.2 (20260124.0452)
 -->
<!-- Title: template_call_graph Pages: 1 -->
<svg width="773pt" height="902pt"
 viewBox="0.00 0.00 773.00 902.00" xmlns="http://www.w3.org/2000/svg" xmlns:xlink="http://www.w3.org/1999/xlink">
<g id="graph0" class="graph" transform="scale(1 1) rotate(0) translate(4 897.94)">
<title>template_call_graph</title>
<polygon fill="white" stroke="none" points="-4,4 -4,-897.94 769.25,-897.94 769.25,4 -4,4"/>
<text xml:space="preserve" text-anchor="middle" x="382.62" y="-5.75" font-family="Times New Roman,serif" font-size="10.00">מ:כפול, נוסח, ש have been discarded</text>
<!-- C -->
<g id="node1" class="node">
<title>C</title>
<polygon fill="none" stroke="black" stroke-width="2" points="54,-55.25 0,-55.25 0,-19.25 54,-19.25 54,-55.25"/>
<text xml:space="preserve" text-anchor="middle" x="27" y="-32.23" font-family="SBL Hebrew,Helvetica" font-size="12.00">C</text>
</g>
<!-- מ:פסוק -->
<g id="node10" class="node">
<title>מ:פסוק</title>
<polygon fill="none" stroke="black" points="189.12,-55.25 135.12,-55.25 135.12,-19.25 189.12,-19.25 189.12,-55.25"/>
<text xml:space="preserve" text-anchor="middle" x="162.12" y="-32.23" font-family="SBL Hebrew,Helvetica" font-size="12.00">מ:פסוק</text>
</g>
<!-- C&#45;&gt;מ:פסוק -->
<g id="edge1" class="edge">
<title>C&#45;&gt;מ:פסוק</title>
<path fill="none" stroke="black" d="M54.3,-37.25C74.08,-37.25 101.47,-37.25 123.56,-37.25"/>
<polygon fill="black" stroke="black" points="123.36,-40.75 133.36,-37.25 123.36,-33.75 123.36,-40.75"/>
<text xml:space="preserve" text-anchor="middle" x="82.5" y="-39.2" font-family="Helvetica,sans-Serif" font-size="9.00">895</text>
</g>
<!-- D -->
<g id="node2" class="node">
<title>D</title>
<polygon fill="none" stroke="black" stroke-width="2" points="54,-846.25 0,-846.25 0,-810.25 54,-810.25 54,-846.25"/>
<text xml:space="preserve" text-anchor="middle" x="27" y="-823.23" font-family="SBL Hebrew,Helvetica" font-size="12.00">D</text>
</g>
<!-- מ:אין … פרק, … -->
<g id="node6" class="node">
<title>מ:אין … פרק, …</title>
<g id="a_node6"><a xlink:title="מ:אין פרשה בתחילת פרק&#10;מ:אין פרשה בתחילת פרק בספרי אמ&quot;ת&#10;מ:אין רווח של פרשה בתחילת פרשת השבוע&#10;מ:ספר חדש&#10;מ:רווח בתרי עשר בפסוק הראשון&#10;מ:רווח לספר בתהלים בפסוק הראשון&#10;ר4">
<polygon fill="none" stroke="black" points="205.75,-863.25 118.5,-863.25 118.5,-827.25 205.75,-827.25 205.75,-863.25"/>
<text xml:space="preserve" text-anchor="middle" x="162.12" y="-840.23" font-family="SBL Hebrew,Helvetica" font-size="12.00">מ:אין … פרק, …</text>
</a>
</g>
</g>
<!-- D&#45;&gt;מ:אין … פרק, … -->
<g id="edge2" class="edge">
<title>D&#45;&gt;מ:אין … פרק, …</title>
<path fill="none" stroke="black" d="M54.3,-831.61C69.29,-833.52 88.64,-835.99 106.75,-838.31"/>
<polygon fill="black" stroke="black" points="106.25,-841.77 116.61,-839.57 107.13,-834.83 106.25,-841.77"/>
<text xml:space="preserve" text-anchor="middle" x="82.5" y="-838.19" font-family="Helvetica,sans-Serif" font-size="9.00">4483</text>
</g>
<!-- מ:קישור בהערה, … -->
<g id="node9" class="node">
<title>מ:קישור בהערה, …</title>
<g id="a_node9"><a xlink:title="מ:קישור בהערה&#10;מ:ששש&#10;סס&#10;ססס&#10;פפפ&#10;ר1">
<polygon fill="none" stroke="black" points="213.25,-809.25 111,-809.25 111,-773.25 213.25,-773.25 213.25,-809.25"/>
<text xml:space="preserve" text-anchor="middle" x="162.12" y="-786.23" font-family="SBL Hebrew,Helvetica" font-size="12.00">מ:קישור בהערה, …</text>
</a>
</g>
</g>
<!-- D&#45;&gt;מ:קישור בהערה, … -->
<g id="edge4" class="edge">
<title>D&#45;&gt;מ:קישור בהערה, …</title>
<path fill="none" stroke="black" d="M54.3,-820.94C67.35,-817.31 83.71,-812.77 99.68,-808.33"/>
<polygon fill="black" stroke="black" points="100.47,-811.74 109.17,-805.69 98.59,-805 100.47,-811.74"/>
<text xml:space="preserve" text-anchor="middle" x="82.5" y="-817.18" font-family="Helvetica,sans-Serif" font-size="9.00">1943</text>
</g>
<!-- מ:הערה&#45;2 -->
<g id="node11" class="node">
<title>מ:הערה&#45;2</title>
<polygon fill="none" stroke="black" points="192.62,-708.25 131.62,-708.25 131.62,-672.25 192.62,-672.25 192.62,-708.25"/>
<text xml:space="preserve" text-anchor="middle" x="162.12" y="-685.23" font-family="SBL Hebrew,Helvetica" font-size="12.00">מ:הערה&#45;2</text>
</g>
<!-- D&#45;&gt;מ:הערה&#45;2 -->
<g id="edge3" class="edge">
<title>D&#45;&gt;מ:הערה&#45;2</title>
<path fill="none" stroke="black" d="M34.35,-809.9C41.36,-791.71 54.06,-763.87 72,-744.75 85.87,-729.96 104.63,-717.7 121.35,-708.57"/>
<polygon fill="black" stroke="black" points="122.86,-711.73 130.1,-704 119.62,-705.53 122.86,-711.73"/>
<text xml:space="preserve" text-anchor="middle" x="82.5" y="-746.7" font-family="Helvetica,sans-Serif" font-size="9.00">4</text>
</g>
<!-- פפ -->
<g id="node12" class="node">
<title>פפ</title>
<polygon fill="none" stroke="black" points="357.25,-762.25 303.25,-762.25 303.25,-726.25 357.25,-726.25 357.25,-762.25"/>
<text xml:space="preserve" text-anchor="middle" x="330.25" y="-739.23" font-family="SBL Hebrew,Helvetica" font-size="12.00">פפ</text>
</g>
<!-- D&#45;&gt;פפ -->
<g id="edge5" class="edge">
<title>D&#45;&gt;פפ</title>
<path fill="none" stroke="black" d="M54.31,-846.47C69.99,-856.21 90.74,-867.21 111,-872.25 155.1,-883.22 171.7,-890.67 213.25,-872.25 259.07,-851.94 294.5,-803.6 313.58,-772.48"/>
<polygon fill="black" stroke="black" points="316.54,-774.34 318.64,-763.96 310.52,-770.77 316.54,-774.34"/>
<text xml:space="preserve" text-anchor="middle" x="162.12" y="-885.39" font-family="Helvetica,sans-Serif" font-size="9.00">1541</text>
</g>
<!-- E -->
<g id="node3" class="node">
<title>E</title>
<polygon fill="none" stroke="black" stroke-width="2" points="54,-443.25 0,-443.25 0,-407.25 54,-407.25 54,-443.25"/>
<text xml:space="preserve" text-anchor="middle" x="27" y="-420.23" font-family="SBL Hebrew,Helvetica" font-size="12.00">E</text>
</g>
<!-- כתיב … קרי, … -->
<g id="node4" class="node">
<title>כתיב … קרי, …</title>
<g id="a_node4"><a xlink:title="כתיב ולא קרי&#10;מ:כו&quot;ק בין שני מקפים&#10;מ:כו&quot;ק כתיב מילה חדה וקרי תרתין מילין בין שני מקפים&#10;מ:כו&quot;ק כתיב תרתין מילין וקרי מילה חדה&#10;מ:כו&quot;ק קרי שונה מהכתיב בשתי מילים&#10;מ:כו&quot;ק של שלוש מילים בהערה אחת&#10;מ:נו&quot;ן הפוכה&#10;מ:צינור&#10;מ:קו&quot;כ קרי שונה מהכתיב בשתי מילים&#10;מ:קישור פנימי בהערה&#10;מודגש&#10;קרי ולא כתיב&#10;ר0&#10;ר2&#10;ר3">
<polygon fill="none" stroke="black" points="203.5,-610.25 120.75,-610.25 120.75,-574.25 203.5,-574.25 203.5,-610.25"/>
<text xml:space="preserve" text-anchor="middle" x="162.12" y="-587.23" font-family="SBL Hebrew,Helvetica" font-size="12.00">כתיב … קרי, …</text>
</a>
</g>
</g>
<!-- E&#45;&gt;כתיב … קרי, … -->
<g id="edge7" class="edge">
<title>E&#45;&gt;כתיב … קרי, …</title>
<path fill="none" stroke="black" d="M32.43,-443.45C38.58,-466.1 51.34,-505.22 72,-533.25 82.39,-547.34 97.22,-559.06 111.82,-568.24"/>
<polygon fill="black" stroke="black" points="109.64,-571.02 120.02,-573.13 113.22,-565 109.64,-571.02"/>
<text xml:space="preserve" text-anchor="middle" x="82.5" y="-556.02" font-family="Helvetica,sans-Serif" font-size="9.00">1393</text>
</g>
<!-- מ:כו&quot;ק כתיב מילה חדה וקרי תרתין מילין -->
<g id="node7" class="node">
<title>מ:כו&quot;ק כתיב מילה חדה וקרי תרתין מילין</title>
<g id="a_node7"><a xlink:title="מ:כו&quot;ק כתיב מילה חדה וקרי תרתין מילין">
<polygon fill="none" stroke="black" points="203.12,-248.25 121.12,-248.25 121.12,-212.25 203.12,-212.25 203.12,-248.25"/>
<text xml:space="preserve" text-anchor="middle" x="162.12" y="-225.22" font-family="SBL Hebrew,Helvetica" font-size="12.00">מ:כו&quot;ק … מילין</text>
</a>
</g>
</g>
<!-- E&#45;&gt;מ:כו&quot;ק כתיב מילה חדה וקרי תרתין מילין -->
<g id="edge11" class="edge">
<title>E&#45;&gt;מ:כו&quot;ק כתיב מילה חדה וקרי תרתין מילין</title>
<path fill="none" stroke="black" d="M30.26,-406.81C35.55,-366.74 49.95,-273.54 72,-251.75 82.09,-241.77 95.97,-236.14 109.76,-233.03"/>
<polygon fill="black" stroke="black" points="110.03,-236.54 119.25,-231.31 108.79,-229.65 110.03,-236.54"/>
<text xml:space="preserve" text-anchor="middle" x="82.5" y="-253.7" font-family="Helvetica,sans-Serif" font-size="9.00">13</text>
</g>
<!-- מ:כו&quot;ק … אחת, … -->
<g id="node8" class="node">
<title>מ:כו&quot;ק … אחת, …</title>
<g id="a_node8"><a xlink:title="מ:כו&quot;ק של שתי מילים בהערה אחת&#10;מ:קו&quot;כ כתיב מילה חדה וקרי תרתין מילין">
<polygon fill="none" stroke="black" points="210.25,-194.25 114,-194.25 114,-158.25 210.25,-158.25 210.25,-194.25"/>
<text xml:space="preserve" text-anchor="middle" x="162.12" y="-171.22" font-family="SBL Hebrew,Helvetica" font-size="12.00">מ:כו&quot;ק … אחת, …</text>
</a>
</g>
</g>
<!-- E&#45;&gt;מ:כו&quot;ק … אחת, … -->
<g id="edge12" class="edge">
<title>E&#45;&gt;מ:כו&quot;ק … אחת, …</title>
<path fill="none" stroke="black" d="M27.15,-407.04C26.32,-369 29.42,-279.99 72,-223.75 80.19,-212.94 91.56,-204.32 103.45,-197.57"/>
<polygon fill="black" stroke="black" points="104.91,-200.75 112.16,-193.02 101.67,-194.54 104.91,-200.75"/>
<text xml:space="preserve" text-anchor="middle" x="82.5" y="-225.7" font-family="Helvetica,sans-Serif" font-size="9.00">9</text>
</g>
<!-- E&#45;&gt;מ:קישור בהערה, … -->
<g id="edge17" class="edge">
<title>E&#45;&gt;מ:קישור בהערה, …</title>
<path fill="none" stroke="black" d="M28.09,-443.72C28.74,-505.83 33.83,-706.04 72,-755.25 79.29,-764.64 89.42,-771.6 100.25,-776.74"/>
<polygon fill="black" stroke="black" points="98.8,-779.93 109.38,-780.55 101.5,-773.47 98.8,-779.93"/>
<text xml:space="preserve" text-anchor="middle" x="82.5" y="-773.91" font-family="Helvetica,sans-Serif" font-size="9.00">5047</text>
</g>
<!-- E&#45;&gt;מ:הערה&#45;2 -->
<g id="edge10" class="edge">
<title>E&#45;&gt;מ:הערה&#45;2</title>
<path fill="none" stroke="black" d="M29.18,-443.58C32.69,-492.52 44.54,-624.77 72,-657.25 84.06,-671.51 102.88,-679.62 120.13,-684.22"/>
<polygon fill="black" stroke="black" points="119.14,-687.58 129.67,-686.42 120.71,-680.76 119.14,-687.58"/>
<text xml:space="preserve" text-anchor="middle" x="82.5" y="-675.02" font-family="Helvetica,sans-Serif" font-size="9.00">27</text>
</g>
<!-- E&#45;&gt;פפ -->
<g id="edge19" class="edge">
<title>E&#45;&gt;פפ</title>
<path fill="none" stroke="black" d="M27.76,-443.64C27.38,-503.56 29.66,-691.52 72,-730.25 103.15,-758.74 228.21,-752.83 291.77,-747.76"/>
<polygon fill="black" stroke="black" points="291.7,-751.28 301.38,-746.95 291.12,-744.3 291.7,-751.28"/>
<text xml:space="preserve" text-anchor="middle" x="162.12" y="-753.94" font-family="Helvetica,sans-Serif" font-size="9.00">11</text>
</g>
<!-- כו&quot;ק -->
<g id="node13" class="node">
<title>כו&quot;ק</title>
<polygon fill="none" stroke="black" points="189.12,-556.25 135.12,-556.25 135.12,-520.25 189.12,-520.25 189.12,-556.25"/>
<text xml:space="preserve" text-anchor="middle" x="162.12" y="-533.23" font-family="SBL Hebrew,Helvetica" font-size="12.00">כו&quot;ק</text>
</g>
<!-- E&#45;&gt;כו&quot;ק -->
<g id="edge6" class="edge">
<title>E&#45;&gt;כו&quot;ק</title>
<path fill="none" stroke="black" d="M33.6,-443.5C40.08,-461.76 52.44,-489.48 72,-506.25 86.64,-518.81 106.57,-526.57 123.88,-531.31"/>
<polygon fill="black" stroke="black" points="122.77,-534.64 133.32,-533.63 124.45,-527.84 122.77,-534.64"/>
<text xml:space="preserve" text-anchor="middle" x="82.5" y="-520.89" font-family="Helvetica,sans-Serif" font-size="9.00">884</text>
</g>
<!-- מ:אות&#45;מיוחדת&#45;במילה -->
<g id="node14" class="node">
<title>מ:אות&#45;מיוחדת&#45;במילה</title>
<polygon fill="none" stroke="black" points="633.75,-600.25 524,-600.25 524,-564.25 633.75,-564.25 633.75,-600.25"/>
<text xml:space="preserve" text-anchor="middle" x="578.88" y="-577.23" font-family="SBL Hebrew,Helvetica" font-size="12.00">מ:אות&#45;מיוחדת&#45;במילה</text>
</g>
<!-- E&#45;&gt;מ:אות&#45;מיוחדת&#45;במילה -->
<g id="edge8" class="edge">
<title>E&#45;&gt;מ:אות&#45;מיוחדת&#45;במילה</title>
<path fill="none" stroke="black" d="M54.22,-426.8C121.67,-430.53 299.95,-438.78 357.25,-425.25 365.96,-423.2 366.54,-418.3 375.25,-416.25 384.01,-414.18 386.7,-414.37 395.5,-416.25 437.04,-425.11 449.57,-428.74 482.75,-455.25 517.44,-482.97 546.16,-526.14 562.68,-554.31"/>
<polygon fill="black" stroke="black" points="559.44,-555.7 567.44,-562.64 565.51,-552.22 559.44,-555.7"/>
<text xml:space="preserve" text-anchor="middle" x="330.25" y="-433.24" font-family="Helvetica,sans-Serif" font-size="9.00">79</text>
</g>
<!-- מ:דחי -->
<g id="node15" class="node">
<title>מ:דחי</title>
<polygon fill="none" stroke="black" points="475.12,-500.25 421.12,-500.25 421.12,-464.25 475.12,-464.25 475.12,-500.25"/>
<text xml:space="preserve" text-anchor="middle" x="448.12" y="-477.23" font-family="SBL Hebrew,Helvetica" font-size="12.00">מ:דחי</text>
</g>
<!-- E&#45;&gt;מ:דחי -->
<g id="edge9" class="edge">
<title>E&#45;&gt;מ:דחי</title>
<path fill="none" stroke="black" d="M54.38,-434.19C60.15,-435.99 66.25,-437.78 72,-439.25 141.86,-457.1 159.7,-461.34 231.25,-470.25 293.39,-477.99 366.21,-480.74 409.4,-481.71"/>
<polygon fill="black" stroke="black" points="409.19,-485.21 419.26,-481.91 409.33,-478.21 409.19,-485.21"/>
<text xml:space="preserve" text-anchor="middle" x="258.25" y="-477.46" font-family="Helvetica,sans-Serif" font-size="9.00">2287</text>
</g>
<!-- מ:לגרמיה&#45;2 -->
<g id="node16" class="node">
<title>מ:לגרמיה&#45;2</title>
<polygon fill="none" stroke="black" points="756.62,-436.25 688.88,-436.25 688.88,-400.25 756.62,-400.25 756.62,-436.25"/>
<text xml:space="preserve" text-anchor="middle" x="722.75" y="-413.23" font-family="SBL Hebrew,Helvetica" font-size="12.00">מ:לגרמיה&#45;2</text>
</g>
<!-- E&#45;&gt;מ:לגרמיה&#45;2 -->
<g id="edge13" class="edge">
<title>E&#45;&gt;מ:לגרמיה&#45;2</title>
<path fill="none" stroke="black" d="M28.71,-443.75C31.47,-485.64 44.99,-586.63 111,-619.25 151.74,-639.38 167.81,-619.79 213.25,-619.25 412.85,-616.88 503.48,-729.24 662.25,-608.25 675.32,-598.29 701.81,-498.26 714.57,-447.49"/>
<polygon fill="black" stroke="black" points="717.89,-448.61 716.92,-438.06 711.1,-446.91 717.89,-448.61"/>
<text xml:space="preserve" text-anchor="middle" x="385.38" y="-646.71" font-family="Helvetica,sans-Serif" font-size="9.00">1811</text>
</g>
<!-- מ:מקף אפור -->
<g id="node17" class="node">
<title>מ:מקף אפור</title>
<polygon fill="none" stroke="black" points="482.75,-365.25 413.5,-365.25 413.5,-329.25 482.75,-329.25 482.75,-365.25"/>
<text xml:space="preserve" text-anchor="middle" x="448.12" y="-342.23" font-family="SBL Hebrew,Helvetica" font-size="12.00">מ:מקף אפור</text>
</g>
<!-- E&#45;&gt;מ:מקף אפור -->
<g id="edge14" class="edge">
<title>E&#45;&gt;מ:מקף אפור</title>
<path fill="none" stroke="black" d="M35.54,-406.9C43.02,-390.24 55.72,-365.7 72,-348.25 125.06,-291.4 154.8,-290.02 231.25,-275.75 296.1,-263.65 368.27,-297.81 410.57,-322.99"/>
<polygon fill="black" stroke="black" points="408.5,-325.83 418.86,-328.06 412.15,-319.86 408.5,-325.83"/>
<text xml:space="preserve" text-anchor="middle" x="258.25" y="-277.7" font-family="Helvetica,sans-Serif" font-size="9.00">114</text>
</g>
<!-- מ:פסק -->
<g id="node18" class="node">
<title>מ:פסק</title>
<polygon fill="none" stroke="black" points="357.25,-182.25 303.25,-182.25 303.25,-146.25 357.25,-146.25 357.25,-182.25"/>
<text xml:space="preserve" text-anchor="middle" x="330.25" y="-159.22" font-family="SBL Hebrew,Helvetica" font-size="12.00">מ:פסק</text>
</g>
<!-- E&#45;&gt;מ:פסק -->
<g id="edge15" class="edge">
<title>E&#45;&gt;מ:פסק</title>
<path fill="none" stroke="black" d="M29.34,-406.91C32.68,-367.85 43.26,-274.06 72,-201.25 84.02,-170.79 82.37,-154.63 111,-138.75 168.17,-107.04 246.6,-129.21 292.21,-147.33"/>
<polygon fill="black" stroke="black" points="290.81,-150.55 301.39,-151.13 293.48,-144.07 290.81,-150.55"/>
<text xml:space="preserve" text-anchor="middle" x="162.12" y="-140.7" font-family="Helvetica,sans-Serif" font-size="9.00">515</text>
</g>
<!-- מ:קו&quot;כ&#45;אם&#45;2 -->
<g id="node19" class="node">
<title>מ:קו&quot;כ&#45;אם&#45;2</title>
<polygon fill="none" stroke="black" points="198.62,-397.25 125.62,-397.25 125.62,-361.25 198.62,-361.25 198.62,-397.25"/>
<text xml:space="preserve" text-anchor="middle" x="162.12" y="-374.23" font-family="SBL Hebrew,Helvetica" font-size="12.00">מ:קו&quot;כ&#45;אם&#45;2</text>
</g>
<!-- E&#45;&gt;מ:קו&quot;כ&#45;אם&#45;2 -->
<g id="edge16" class="edge">
<title>E&#45;&gt;מ:קו&quot;כ&#45;אם&#45;2</title>
<path fill="none" stroke="black" d="M54.43,-409.02C60.09,-405.98 66.14,-403.04 72,-400.75 85.45,-395.49 100.57,-391.26 114.47,-387.99"/>
<polygon fill="black" stroke="black" points="114.84,-391.5 123.84,-385.9 113.31,-384.66 114.84,-391.5"/>
<text xml:space="preserve" text-anchor="middle" x="82.5" y="-402.7" font-family="Helvetica,sans-Serif" font-size="9.00">148</text>
</g>
<!-- מ:קמץ -->
<g id="node20" class="node">
<title>מ:קמץ</title>
<polygon fill="none" stroke="black" points="357.25,-364.25 303.25,-364.25 303.25,-328.25 357.25,-328.25 357.25,-364.25"/>
<text xml:space="preserve" text-anchor="middle" x="330.25" y="-341.23" font-family="SBL Hebrew,Helvetica" font-size="12.00">מ:קמץ</text>
</g>
<!-- E&#45;&gt;מ:קמץ -->
<g id="edge18" class="edge">
<title>E&#45;&gt;מ:קמץ</title>
<path fill="none" stroke="black" d="M39.44,-407.11C53.46,-386.78 79.29,-354.94 111,-341.75 170.39,-317.05 246.96,-327.08 291.83,-336.64"/>
<polygon fill="black" stroke="black" points="290.79,-340 301.32,-338.78 292.33,-333.17 290.79,-340"/>
<text xml:space="preserve" text-anchor="middle" x="162.12" y="-343.7" font-family="Helvetica,sans-Serif" font-size="9.00">363</text>
</g>
<!-- קו&quot;כ -->
<g id="node21" class="node">
<title>קו&quot;כ</title>
<polygon fill="none" stroke="black" points="285.25,-107.25 231.25,-107.25 231.25,-71.25 285.25,-71.25 285.25,-107.25"/>
<text xml:space="preserve" text-anchor="middle" x="258.25" y="-84.22" font-family="SBL Hebrew,Helvetica" font-size="12.00">קו&quot;כ</text>
</g>
<!-- E&#45;&gt;קו&quot;כ -->
<g id="edge20" class="edge">
<title>E&#45;&gt;קו&quot;כ</title>
<path fill="none" stroke="black" d="M27.66,-406.85C26.93,-345.04 28.09,-146.39 72,-104.75 111.06,-67.7 177.88,-72.36 219.69,-80.09"/>
<polygon fill="black" stroke="black" points="218.8,-83.48 229.29,-82.03 220.18,-76.62 218.8,-83.48"/>
<text xml:space="preserve" text-anchor="middle" x="82.5" y="-106.7" font-family="Helvetica,sans-Serif" font-size="9.00">126</text>
</g>
<!-- מ:אות תלויה, … -->
<g id="node5" class="node">
<title>מ:אות תלויה, …</title>
<g id="a_node5"><a xlink:title="מ:אות תלויה&#10;מ:אות&#45;ג&#10;מ:אות&#45;ק">
<polygon fill="none" stroke="black" points="765.25,-621.25 680.25,-621.25 680.25,-585.25 765.25,-585.25 765.25,-621.25"/>
<text xml:space="preserve" text-anchor="middle" x="722.75" y="-598.23" font-family="SBL Hebrew,Helvetica" font-size="12.00">מ:אות תלויה, …</text>
</a>
</g>
</g>
<!-- מ:כו&quot;ק כתיב מילה חדה וקרי תרתין מילין&#45;&gt;מ:לגרמיה&#45;2 -->
<g id="edge30" class="edge">
<title>מ:כו&quot;ק כתיב מילה חדה וקרי תרתין מילין&#45;&gt;מ:לגרמיה&#45;2</title>
<path fill="none" stroke="black" d="M203.39,-227.98C237.03,-226.28 286.25,-224.25 329.25,-224.25 329.25,-224.25 329.25,-224.25 579.88,-224.25 660.54,-224.25 700.28,-334.88 714.91,-389.05"/>
<polygon fill="black" stroke="black" points="711.46,-389.72 717.35,-398.53 718.24,-387.98 711.46,-389.72"/>
<text xml:space="preserve" text-anchor="middle" x="448.12" y="-226.2" font-family="Helvetica,sans-Serif" font-size="9.00">1</text>
</g>
<!-- מ:כו&quot;ק כתיב מילה חדה וקרי תרתין מילין&#45;&gt;מ:פסק -->
<g id="edge31" class="edge">
<title>מ:כו&quot;ק כתיב מילה חדה וקרי תרתין מילין&#45;&gt;מ:פסק</title>
<path fill="none" stroke="black" d="M202.9,-211.85C212.15,-207.74 222,-203.49 231.25,-199.75 251.21,-191.68 273.79,-183.44 292.23,-176.94"/>
<polygon fill="black" stroke="black" points="293.13,-180.33 301.42,-173.72 290.82,-173.72 293.13,-180.33"/>
<text xml:space="preserve" text-anchor="middle" x="258.25" y="-201.7" font-family="Helvetica,sans-Serif" font-size="9.00">3</text>
</g>
<!-- מ:כו&quot;ק … אחת, …&#45;&gt;מ:פסק -->
<g id="edge32" class="edge">
<title>מ:כו&quot;ק … אחת, …&#45;&gt;מ:פסק</title>
<path fill="none" stroke="black" d="M210.67,-168.07C217.56,-167.13 224.57,-166.31 231.25,-165.75 251.14,-164.07 273.38,-163.62 291.64,-163.62"/>
<polygon fill="black" stroke="black" points="291.47,-167.12 301.48,-163.67 291.5,-160.12 291.47,-167.12"/>
<text xml:space="preserve" text-anchor="middle" x="258.25" y="-167.7" font-family="Helvetica,sans-Serif" font-size="9.00">2</text>
</g>
<!-- מ:עלייה -->
<g id="node22" class="node">
<title>מ:עלייה</title>
<polygon fill="none" stroke="black" points="357.25,-55.25 303.25,-55.25 303.25,-19.25 357.25,-19.25 357.25,-55.25"/>
<text xml:space="preserve" text-anchor="middle" x="330.25" y="-32.23" font-family="SBL Hebrew,Helvetica" font-size="12.00">מ:עלייה</text>
</g>
<!-- מ:פסוק&#45;&gt;מ:עלייה -->
<g id="edge33" class="edge">
<title>מ:פסוק&#45;&gt;מ:עלייה</title>
<path fill="none" stroke="black" d="M189.45,-37.25C216.95,-37.25 260.35,-37.25 291.5,-37.25"/>
<polygon fill="black" stroke="black" points="291.26,-40.75 301.26,-37.25 291.26,-33.75 291.26,-40.75"/>
<text xml:space="preserve" text-anchor="middle" x="258.25" y="-39.2" font-family="Helvetica,sans-Serif" font-size="9.00">532</text>
</g>
<!-- מ:הערה&#45;2&#45;&gt;פפ -->
<g id="edge29" class="edge">
<title>מ:הערה&#45;2&#45;&gt;פפ</title>
<path fill="none" stroke="black" d="M192.93,-695.11C218.09,-699.76 254.78,-707.84 285.25,-719.75 287.72,-720.72 290.23,-721.8 292.73,-722.96"/>
<polygon fill="black" stroke="black" points="290.96,-725.99 301.47,-727.35 294.1,-719.73 290.96,-725.99"/>
<text xml:space="preserve" text-anchor="middle" x="258.25" y="-721.7" font-family="Helvetica,sans-Serif" font-size="9.00">3</text>
</g>
<!-- מ:הערה&#45;2&#45;&gt;מ:אות&#45;מיוחדת&#45;במילה -->
<g id="edge28" class="edge">
<title>מ:הערה&#45;2&#45;&gt;מ:אות&#45;מיוחדת&#45;במילה</title>
<path fill="none" stroke="black" d="M193,-689.44C237.77,-687.6 324.55,-681.63 395.5,-662.25 444.68,-648.82 497.71,-624.32 533.83,-605.96"/>
<polygon fill="black" stroke="black" points="535.38,-609.1 542.67,-601.41 532.18,-602.87 535.38,-609.1"/>
<text xml:space="preserve" text-anchor="middle" x="385.38" y="-668.96" font-family="Helvetica,sans-Serif" font-size="9.00">9</text>
</g>
<!-- כו&quot;ק&#45;&gt;מ:אות&#45;מיוחדת&#45;במילה -->
<g id="edge21" class="edge">
<title>כו&quot;ק&#45;&gt;מ:אות&#45;מיוחדת&#45;במילה</title>
<path fill="none" stroke="black" d="M189.38,-541.04C253.49,-547.84 419.5,-565.45 512.42,-575.31"/>
<polygon fill="black" stroke="black" points="511.84,-578.76 522.15,-576.34 512.58,-571.8 511.84,-578.76"/>
<text xml:space="preserve" text-anchor="middle" x="385.38" y="-564.73" font-family="Helvetica,sans-Serif" font-size="9.00">1</text>
</g>
<!-- כו&quot;ק&#45;&gt;מ:דחי -->
<g id="edge22" class="edge">
<title>כו&quot;ק&#45;&gt;מ:דחי</title>
<path fill="none" stroke="black" d="M189.45,-534.55C232.72,-528.27 321.49,-514.48 395.5,-497.25 400.15,-496.17 405.01,-494.92 409.8,-493.61"/>
<polygon fill="black" stroke="black" points="410.62,-497.02 419.29,-490.92 408.71,-490.28 410.62,-497.02"/>
<text xml:space="preserve" text-anchor="middle" x="330.25" y="-517.91" font-family="Helvetica,sans-Serif" font-size="9.00">7</text>
</g>
<!-- כו&quot;ק&#45;&gt;מ:לגרמיה&#45;2 -->
<g id="edge23" class="edge">
<title>כו&quot;ק&#45;&gt;מ:לגרמיה&#45;2</title>
<path fill="none" stroke="black" d="M189.61,-538.27C244.85,-537.8 376.08,-533.91 482.75,-509.25 553.38,-492.92 631.14,-460.4 678.2,-438.99"/>
<polygon fill="black" stroke="black" points="679.62,-442.19 687.25,-434.83 676.7,-435.83 679.62,-442.19"/>
<text xml:space="preserve" text-anchor="middle" x="448.12" y="-523.99" font-family="Helvetica,sans-Serif" font-size="9.00">9</text>
</g>
<!-- כו&quot;ק&#45;&gt;מ:קמץ -->
<g id="edge24" class="edge">
<title>כו&quot;ק&#45;&gt;מ:קמץ</title>
<path fill="none" stroke="black" d="M179.05,-519.84C208.51,-485.79 271.62,-412.86 305.91,-373.22"/>
<polygon fill="black" stroke="black" points="308.48,-375.6 312.38,-365.75 303.19,-371.02 308.48,-375.6"/>
<text xml:space="preserve" text-anchor="middle" x="258.25" y="-461.4" font-family="Helvetica,sans-Serif" font-size="9.00">10</text>
</g>
<!-- מ:אות&#45;מיוחדת&#45;במילה&#45;&gt;מ:אות תלויה, … -->
<g id="edge25" class="edge">
<title>מ:אות&#45;מיוחדת&#45;במילה&#45;&gt;מ:אות תלויה, …</title>
<path fill="none" stroke="black" d="M633.92,-590.25C645.31,-591.94 657.32,-593.71 668.68,-595.39"/>
<polygon fill="black" stroke="black" points="667.87,-598.81 678.27,-596.81 668.9,-591.89 667.87,-598.81"/>
<text xml:space="preserve" text-anchor="middle" x="657" y="-595.96" font-family="Helvetica,sans-Serif" font-size="9.00">97</text>
</g>
<!-- מ:אות&#45;מיוחדת&#45;במילה&#45;&gt;מ:לגרמיה&#45;2 -->
<g id="edge26" class="edge">
<title>מ:אות&#45;מיוחדת&#45;במילה&#45;&gt;מ:לגרמיה&#45;2</title>
<path fill="none" stroke="black" d="M633.92,-566.07C644.19,-561.22 654.22,-555.04 662.25,-547.25 690.57,-519.78 706.73,-476.27 714.87,-447.5"/>
<polygon fill="black" stroke="black" points="718.21,-448.55 717.4,-437.98 711.44,-446.75 718.21,-448.55"/>
<text xml:space="preserve" text-anchor="middle" x="657" y="-556.91" font-family="Helvetica,sans-Serif" font-size="9.00">4</text>
</g>
<!-- מ:דחי&#45;&gt;מ:אות&#45;מיוחדת&#45;במילה -->
<g id="edge27" class="edge">
<title>מ:דחי&#45;&gt;מ:אות&#45;מיוחדת&#45;במילה</title>
<path fill="none" stroke="black" d="M472.74,-500.59C493.16,-516.45 522.87,-539.53 545.5,-557.11"/>
<polygon fill="black" stroke="black" points="543.17,-559.73 553.21,-563.1 547.46,-554.2 543.17,-559.73"/>
<text xml:space="preserve" text-anchor="middle" x="503.38" y="-528.21" font-family="Helvetica,sans-Serif" font-size="9.00">6</text>
</g>
<!-- מ:קו&quot;כ&#45;אם&#45;2&#45;&gt;מ:דחי -->
<g id="edge34" class="edge">
<title>מ:קו&quot;כ&#45;אם&#45;2&#45;&gt;מ:דחי</title>
<path fill="none" stroke="black" d="M198.89,-379.38C239.54,-380.92 306.77,-387.82 357.25,-414.75 367.37,-420.15 366.47,-425.87 375.25,-433.25 386.45,-442.66 399.47,-451.97 411.32,-459.9"/>
<polygon fill="black" stroke="black" points="409.39,-462.82 419.67,-465.38 413.23,-456.97 409.39,-462.82"/>
<text xml:space="preserve" text-anchor="middle" x="330.25" y="-416.7" font-family="Helvetica,sans-Serif" font-size="9.00">8</text>
</g>
<!-- מ:קו&quot;כ&#45;אם&#45;2&#45;&gt;מ:לגרמיה&#45;2 -->
<g id="edge35" class="edge">
<title>מ:קו&quot;כ&#45;אם&#45;2&#45;&gt;מ:לגרמיה&#45;2</title>
<path fill="none" stroke="black" d="M199.03,-362.88C203.82,-360.66 208.66,-358.41 213.25,-356.25 265.05,-331.87 272,-300.25 329.25,-300.25 329.25,-300.25 329.25,-300.25 579.88,-300.25 636.1,-300.25 681.91,-355.71 705.17,-390.58"/>
<polygon fill="black" stroke="black" points="701.93,-392.03 710.3,-398.54 707.82,-388.24 701.93,-392.03"/>
<text xml:space="preserve" text-anchor="middle" x="448.12" y="-302.2" font-family="Helvetica,sans-Serif" font-size="9.00">2</text>
</g>
<!-- מ:קו&quot;כ&#45;אם&#45;2&#45;&gt;מ:קמץ -->
<g id="edge36" class="edge">
<title>מ:קו&quot;כ&#45;אם&#45;2&#45;&gt;מ:קמץ</title>
<path fill="none" stroke="black" d="M198.76,-372.17C226.12,-366.74 263.81,-359.25 291.65,-353.72"/>
<polygon fill="black" stroke="black" points="292.31,-357.16 301.44,-351.77 290.95,-350.29 292.31,-357.16"/>
<text xml:space="preserve" text-anchor="middle" x="258.25" y="-367.66" font-family="Helvetica,sans-Serif" font-size="9.00">2</text>
</g>
<!-- מ:קמץ&#45;&gt;מ:דחי -->
<g id="edge37" class="edge">
<title>מ:קמץ&#45;&gt;מ:דחי</title>
<path fill="none" stroke="black" d="M346.88,-364.59C366.75,-387.91 401.21,-428.37 424.1,-455.22"/>
<polygon fill="black" stroke="black" points="421.24,-457.27 430.39,-462.61 426.57,-452.73 421.24,-457.27"/>
<text xml:space="preserve" text-anchor="middle" x="385.38" y="-420.28" font-family="Helvetica,sans-Serif" font-size="9.00">14</text>
</g>
<!-- מ:קמץ&#45;&gt;מ:מקף אפור -->
<g id="edge38" class="edge">
<title>מ:קמץ&#45;&gt;מ:מקף אפור</title>
<path fill="none" stroke="black" d="M357.54,-346.48C370.63,-346.59 386.83,-346.73 401.84,-346.86"/>
<polygon fill="black" stroke="black" points="401.47,-350.36 411.5,-346.94 401.53,-343.36 401.47,-350.36"/>
<text xml:space="preserve" text-anchor="middle" x="385.38" y="-348.73" font-family="Helvetica,sans-Serif" font-size="9.00">2</text>
</g>
<!-- קו&quot;כ&#45;&gt;מ:לגרמיה&#45;2 -->
<g id="edge39" class="edge">
<title>קו&quot;כ&#45;&gt;מ:לגרמיה&#45;2</title>
<path fill="none" stroke="black" d="M285.54,-93.25C310.81,-96.74 350.11,-101.25 384.38,-101.25 384.38,-101.25 384.38,-101.25 579.88,-101.25 705.19,-101.25 720.54,-310.18 721.88,-388.8"/>
<polygon fill="black" stroke="black" points="718.38,-388.36 721.97,-398.32 725.38,-388.29 718.38,-388.36"/>
<text xml:space="preserve" text-anchor="middle" x="448.12" y="-103.2" font-family="Helvetica,sans-Serif" font-size="9.00">1</text>
</g>
</g>
</svg>
