<?xml version="1.0" encoding="UTF-8" standalone="no"?>
<!DOCTYPE svg PUBLIC "-//W3C//DTD SVG 1.1//EN"
 "http://www.w3.org/Graphics/SVG/1.1/DTD/svg11.dtd">
<!-- Generated by graphviz version 14.1.2 (20260124.0452)
 -->
<!-- Title: template_call_graph Pages: 1 -->
<svg width="750pt" height="348pt"
 viewBox="0.00 0.00 750.00 348.00" xmlns="http://www.w3.org/2000/svg" xmlns:xlink="http://www.w3.org/1999/xlink">
<g id="graph0" class="graph" transform="scale(1 1) rotate(0) translate(4 344.29)">
<title>template_call_graph</title>
<polygon fill="white" stroke="none" points="-4,4 -4,-344.29 746.25,-344.29 746.25,4 -4,4"/>
<!-- C -->
<g id="node1" class="node">
<title>C</title>
<polygon fill="none" stroke="black" stroke-width="2" points="154.5,-304 100.5,-304 100.5,-268 154.5,-268 154.5,-304"/>
<text xml:space="preserve" text-anchor="middle" x="127.5" y="-280.98" font-family="SBL Hebrew,Helvetica" font-size="12.00">C</text>
</g>
<!-- נוסח -->
<g id="node4" class="node">
<title>נוסח</title>
<polygon fill="none" stroke="black" points="260.25,-230 206.25,-230 206.25,-194 260.25,-194 260.25,-230"/>
<text xml:space="preserve" text-anchor="middle" x="233.25" y="-206.97" font-family="SBL Hebrew,Helvetica" font-size="12.00">נוסח</text>
</g>
<!-- C&#45;&gt;נוסח -->
<g id="edge1" class="edge">
<title>C&#45;&gt;נוסח</title>
<path fill="none" stroke="black" d="M154.93,-273.2C165.64,-267.56 177.89,-260.51 188.25,-253 194.5,-248.47 200.8,-243.14 206.62,-237.85"/>
<polygon fill="black" stroke="black" points="208.73,-240.66 213.61,-231.26 203.93,-235.57 208.73,-240.66"/>
<text xml:space="preserve" text-anchor="middle" x="180.38" y="-265.22" font-family="Helvetica,sans-Serif" font-size="9.00">273</text>
</g>
<!-- D -->
<g id="node2" class="node">
<title>D</title>
<polygon fill="none" stroke="black" stroke-width="2" points="154.5,-203 100.5,-203 100.5,-167 154.5,-167 154.5,-203"/>
<text xml:space="preserve" text-anchor="middle" x="127.5" y="-179.97" font-family="SBL Hebrew,Helvetica" font-size="12.00">D</text>
</g>
<!-- D&#45;&gt;נוסח -->
<g id="edge2" class="edge">
<title>D&#45;&gt;נוסח</title>
<path fill="none" stroke="black" d="M154.95,-191.88C167.02,-195.02 181.54,-198.8 194.71,-202.23"/>
<polygon fill="black" stroke="black" points="193.83,-205.62 204.38,-204.75 195.59,-198.84 193.83,-205.62"/>
<text xml:space="preserve" text-anchor="middle" x="180.38" y="-202.07" font-family="Helvetica,sans-Serif" font-size="9.00">35</text>
</g>
<!-- E -->
<g id="node3" class="node">
<title>E</title>
<polygon fill="none" stroke="black" stroke-width="2" points="54,-126 0,-126 0,-90 54,-90 54,-126"/>
<text xml:space="preserve" text-anchor="middle" x="27" y="-102.97" font-family="SBL Hebrew,Helvetica" font-size="12.00">E</text>
</g>
<!-- E&#45;&gt;נוסח -->
<g id="edge8" class="edge">
<title>E&#45;&gt;נוסח</title>
<path fill="none" stroke="black" d="M34.69,-126.25C44.76,-150.72 66.35,-193.26 100.5,-212 129.19,-227.74 166.96,-225.89 194.7,-221.19"/>
<polygon fill="black" stroke="black" points="195.27,-224.65 204.43,-219.33 193.95,-217.77 195.27,-224.65"/>
<text xml:space="preserve" text-anchor="middle" x="127.5" y="-226.43" font-family="Helvetica,sans-Serif" font-size="9.00">3541</text>
</g>
<!-- כו״ק -->
<g id="node5" class="node">
<title>כו״ק</title>
<polygon fill="none" stroke="black" points="380.75,-249 326.75,-249 326.75,-213 380.75,-213 380.75,-249"/>
<text xml:space="preserve" text-anchor="middle" x="353.75" y="-225.97" font-family="SBL Hebrew,Helvetica" font-size="12.00">כו״ק</text>
</g>
<!-- E&#45;&gt;כו״ק -->
<g id="edge3" class="edge">
<title>E&#45;&gt;כו״ק</title>
<path fill="none" stroke="black" d="M28.02,-126.26C29.18,-167.8 38.54,-269.19 100.5,-313 170.94,-362.8 273.37,-295.8 323.25,-256.28"/>
<polygon fill="black" stroke="black" points="325.18,-259.22 330.75,-250.21 320.78,-253.78 325.18,-259.22"/>
<text xml:space="preserve" text-anchor="middle" x="180.38" y="-331.74" font-family="Helvetica,sans-Serif" font-size="9.00">741</text>
</g>
<!-- מ:דחי -->
<g id="node6" class="node">
<title>מ:דחי</title>
<polygon fill="none" stroke="black" points="591.25,-156 537.25,-156 537.25,-120 591.25,-120 591.25,-156"/>
<text xml:space="preserve" text-anchor="middle" x="564.25" y="-132.97" font-family="SBL Hebrew,Helvetica" font-size="12.00">מ:דחי</text>
</g>
<!-- E&#45;&gt;מ:דחי -->
<g id="edge4" class="edge">
<title>E&#45;&gt;מ:דחי</title>
<path fill="none" stroke="black" d="M34.85,-89.68C47.71,-58.87 78.54,0 126.5,0 126.5,0 126.5,0 464.75,0 517.66,0 544.83,-68.04 556.32,-108.57"/>
<polygon fill="black" stroke="black" points="552.94,-109.45 558.89,-118.21 559.7,-107.65 552.94,-109.45"/>
<text xml:space="preserve" text-anchor="middle" x="288.75" y="-1.95" font-family="Helvetica,sans-Serif" font-size="9.00">2250</text>
</g>
<!-- מ:כפול -->
<g id="node7" class="node">
<title>מ:כפול</title>
<polygon fill="none" stroke="black" points="154.5,-149 100.5,-149 100.5,-113 154.5,-113 154.5,-149"/>
<text xml:space="preserve" text-anchor="middle" x="127.5" y="-125.97" font-family="SBL Hebrew,Helvetica" font-size="12.00">מ:כפול</text>
</g>
<!-- E&#45;&gt;מ:כפול -->
<g id="edge5" class="edge">
<title>E&#45;&gt;מ:כפול</title>
<path fill="none" stroke="black" d="M54.4,-114.16C65,-116.64 77.41,-119.54 88.92,-122.23"/>
<polygon fill="black" stroke="black" points="88.02,-125.61 98.56,-124.48 89.61,-118.79 88.02,-125.61"/>
<text xml:space="preserve" text-anchor="middle" x="77.25" y="-122.14" font-family="Helvetica,sans-Serif" font-size="9.00">34</text>
</g>
<!-- מ:קו״כ&#45;אם&#45;2 -->
<g id="node8" class="node">
<title>מ:קו״כ&#45;אם&#45;2</title>
<polygon fill="none" stroke="black" points="390.25,-110 317.25,-110 317.25,-74 390.25,-74 390.25,-110"/>
<text xml:space="preserve" text-anchor="middle" x="353.75" y="-86.97" font-family="SBL Hebrew,Helvetica" font-size="12.00">מ:קו״כ&#45;אם&#45;2</text>
</g>
<!-- E&#45;&gt;מ:קו״כ&#45;אם&#45;2 -->
<g id="edge6" class="edge">
<title>E&#45;&gt;מ:קו״כ&#45;אם&#45;2</title>
<path fill="none" stroke="black" d="M54.17,-106.51C67.96,-105.73 85.14,-104.79 100.5,-104 171.99,-100.33 254.91,-96.46 305.59,-94.14"/>
<polygon fill="black" stroke="black" points="305.48,-97.65 315.31,-93.69 305.16,-90.65 305.48,-97.65"/>
<text xml:space="preserve" text-anchor="middle" x="180.38" y="-102.23" font-family="Helvetica,sans-Serif" font-size="9.00">133</text>
</g>
<!-- מ:קמץ -->
<g id="node9" class="node">
<title>מ:קמץ</title>
<polygon fill="none" stroke="black" points="490.75,-156 436.75,-156 436.75,-120 490.75,-120 490.75,-156"/>
<text xml:space="preserve" text-anchor="middle" x="463.75" y="-132.97" font-family="SBL Hebrew,Helvetica" font-size="12.00">מ:קמץ</text>
</g>
<!-- E&#45;&gt;מ:קמץ -->
<g id="edge7" class="edge">
<title>E&#45;&gt;מ:קמץ</title>
<path fill="none" stroke="black" d="M44.18,-89.73C62.26,-71.44 93.36,-46 126.5,-46 126.5,-46 126.5,-46 354.75,-46 399.03,-46 402.38,-76.89 433.92,-111.65"/>
<polygon fill="black" stroke="black" points="431.07,-113.74 440.54,-118.5 436.11,-108.88 431.07,-113.74"/>
<text xml:space="preserve" text-anchor="middle" x="233.25" y="-47.95" font-family="Helvetica,sans-Serif" font-size="9.00">330</text>
</g>
<!-- נוסח&#45;&gt;כו״ק -->
<g id="edge17" class="edge">
<title>נוסח&#45;&gt;כו״ק</title>
<path fill="none" stroke="black" d="M260.55,-216.22C276.66,-218.8 297.53,-222.15 315.34,-225"/>
<polygon fill="black" stroke="black" points="314.6,-228.43 325.03,-226.56 315.71,-221.52 314.6,-228.43"/>
<text xml:space="preserve" text-anchor="middle" x="288.75" y="-224.02" font-family="Helvetica,sans-Serif" font-size="9.00">143</text>
</g>
<!-- נוסח&#45;&gt;מ:דחי -->
<g id="edge18" class="edge">
<title>נוסח&#45;&gt;מ:דחי</title>
<path fill="none" stroke="black" d="M260.72,-227.17C266.48,-230.44 272.56,-233.85 278.25,-237 295.48,-246.53 298.16,-253.19 317.25,-258 348.71,-265.93 358.36,-263.97 390.25,-258 437.34,-249.18 451.35,-246.27 490.75,-219 511.7,-204.5 530.72,-182.77 544.01,-165.46"/>
<polygon fill="black" stroke="black" points="546.71,-167.7 549.88,-157.59 541.1,-163.52 546.71,-167.7"/>
<text xml:space="preserve" text-anchor="middle" x="413.5" y="-256.37" font-family="Helvetica,sans-Serif" font-size="9.00">37</text>
</g>
<!-- נוסח&#45;&gt;מ:קו״כ&#45;אם&#45;2 -->
<g id="edge19" class="edge">
<title>נוסח&#45;&gt;מ:קו״כ&#45;אם&#45;2</title>
<path fill="none" stroke="black" d="M251.74,-193.78C259.78,-185.43 269.47,-175.43 278.25,-166.5 294.12,-150.36 312.05,-132.43 326.34,-118.19"/>
<polygon fill="black" stroke="black" points="328.6,-120.89 333.22,-111.35 323.66,-115.92 328.6,-120.89"/>
<text xml:space="preserve" text-anchor="middle" x="288.75" y="-168.45" font-family="Helvetica,sans-Serif" font-size="9.00">15</text>
</g>
<!-- נוסח&#45;&gt;מ:קמץ -->
<g id="edge20" class="edge">
<title>נוסח&#45;&gt;מ:קמץ</title>
<path fill="none" stroke="black" d="M260.46,-203.51C301.07,-190.36 379.34,-165.01 425.71,-149.99"/>
<polygon fill="black" stroke="black" points="426.62,-153.38 435.05,-146.97 424.46,-146.72 426.62,-153.38"/>
<text xml:space="preserve" text-anchor="middle" x="353.75" y="-186.71" font-family="Helvetica,sans-Serif" font-size="9.00">29</text>
</g>
<!-- כו״ק&#45;&gt;מ:דחי -->
<g id="edge9" class="edge">
<title>כו״ק&#45;&gt;מ:דחי</title>
<path fill="none" stroke="black" d="M380.97,-224.4C392.7,-221.14 406.59,-216.87 418.75,-212 456.73,-196.79 498.11,-175.03 526.81,-159.05"/>
<polygon fill="black" stroke="black" points="528.46,-162.13 535.46,-154.18 525.03,-156.03 528.46,-162.13"/>
<text xml:space="preserve" text-anchor="middle" x="463.75" y="-206.36" font-family="Helvetica,sans-Serif" font-size="9.00">7</text>
</g>
<!-- כו״ק&#45;&gt;מ:קמץ -->
<g id="edge10" class="edge">
<title>כו״ק&#45;&gt;מ:קמץ</title>
<path fill="none" stroke="black" d="M381.22,-216.49C393.26,-209.29 407.33,-200 418.75,-190 427.24,-182.56 435.52,-173.44 442.56,-164.92"/>
<polygon fill="black" stroke="black" points="445.22,-167.21 448.73,-157.21 439.75,-162.84 445.22,-167.21"/>
<text xml:space="preserve" text-anchor="middle" x="413.5" y="-199.78" font-family="Helvetica,sans-Serif" font-size="9.00">10</text>
</g>
<!-- מ:אות&#45;מיוחדת&#45;במילה -->
<g id="node10" class="node">
<title>מ:אות&#45;מיוחדת&#45;במילה</title>
<polygon fill="none" stroke="black" points="742.25,-156 632.5,-156 632.5,-120 742.25,-120 742.25,-156"/>
<text xml:space="preserve" text-anchor="middle" x="687.38" y="-132.97" font-family="SBL Hebrew,Helvetica" font-size="12.00">מ:אות&#45;מיוחדת&#45;במילה</text>
</g>
<!-- מ:דחי&#45;&gt;מ:אות&#45;מיוחדת&#45;במילה -->
<g id="edge11" class="edge">
<title>מ:דחי&#45;&gt;מ:אות&#45;מיוחדת&#45;במילה</title>
<path fill="none" stroke="black" d="M591.53,-138C600.32,-138 610.55,-138 620.96,-138"/>
<polygon fill="black" stroke="black" points="620.77,-141.5 630.77,-138 620.77,-134.5 620.77,-141.5"/>
<text xml:space="preserve" text-anchor="middle" x="611.88" y="-139.95" font-family="Helvetica,sans-Serif" font-size="9.00">6</text>
</g>
<!-- מ:כפול&#45;&gt;נוסח -->
<g id="edge13" class="edge">
<title>מ:כפול&#45;&gt;נוסח</title>
<path fill="none" stroke="black" d="M152.04,-149.38C166.24,-160.46 184.51,-174.73 200.03,-186.85"/>
<polygon fill="black" stroke="black" points="197.57,-189.37 207.61,-192.76 201.88,-183.85 197.57,-189.37"/>
<text xml:space="preserve" text-anchor="middle" x="180.38" y="-178.3" font-family="Helvetica,sans-Serif" font-size="9.00">42</text>
</g>
<!-- מ:כפול&#45;&gt;מ:קמץ -->
<g id="edge12" class="edge">
<title>מ:כפול&#45;&gt;מ:קמץ</title>
<path fill="none" stroke="black" d="M154.83,-130.78C188.37,-130.56 248.13,-130.41 299.25,-131.5 342.38,-132.42 391.87,-134.54 425,-136.1"/>
<polygon fill="black" stroke="black" points="424.76,-139.6 434.91,-136.58 425.09,-132.61 424.76,-139.6"/>
<text xml:space="preserve" text-anchor="middle" x="288.75" y="-133.45" font-family="Helvetica,sans-Serif" font-size="9.00">4</text>
</g>
<!-- מ:קו״כ&#45;אם&#45;2&#45;&gt;מ:דחי -->
<g id="edge14" class="edge">
<title>מ:קו״כ&#45;אם&#45;2&#45;&gt;מ:דחי</title>
<path fill="none" stroke="black" d="M390.64,-90.25C418.45,-89.84 457.69,-91.35 490.75,-100.5 503.09,-103.91 515.75,-109.59 526.97,-115.5"/>
<polygon fill="black" stroke="black" points="525.04,-118.44 535.49,-120.21 528.43,-112.31 525.04,-118.44"/>
<text xml:space="preserve" text-anchor="middle" x="463.75" y="-102.45" font-family="Helvetica,sans-Serif" font-size="9.00">8</text>
</g>
<!-- מ:קו״כ&#45;אם&#45;2&#45;&gt;מ:קמץ -->
<g id="edge15" class="edge">
<title>מ:קו״כ&#45;אם&#45;2&#45;&gt;מ:קמץ</title>
<path fill="none" stroke="black" d="M390.74,-102.8C400,-105.93 409.85,-109.57 418.75,-113.5 421.34,-114.64 423.98,-115.89 426.61,-117.2"/>
<polygon fill="black" stroke="black" points="424.8,-120.2 435.29,-121.72 428.04,-113.99 424.8,-120.2"/>
<text xml:space="preserve" text-anchor="middle" x="413.5" y="-115.45" font-family="Helvetica,sans-Serif" font-size="9.00">2</text>
</g>
<!-- מ:קמץ&#45;&gt;מ:דחי -->
<g id="edge16" class="edge">
<title>מ:קמץ&#45;&gt;מ:דחי</title>
<path fill="none" stroke="black" d="M491.15,-138C501.64,-138 513.9,-138 525.31,-138"/>
<polygon fill="black" stroke="black" points="525.27,-141.5 535.27,-138 525.27,-134.5 525.27,-141.5"/>
<text xml:space="preserve" text-anchor="middle" x="514" y="-139.95" font-family="Helvetica,sans-Serif" font-size="9.00">14</text>
</g>
</g>
</svg>
