<?xml version="1.0" encoding="UTF-8" standalone="no"?>
<!DOCTYPE svg PUBLIC "-//W3C//DTD SVG 1.1//EN"
 "http://www.w3.org/Graphics/SVG/1.1/DTD/svg11.dtd">
<!-- Generated by graphviz version 14.1.2 (20260124.0452)
 -->
<!-- This file was generated by MAM-basics/py/main_tmpl_survey.py. -->
<!-- Title: template_call_graph Pages: 1 -->
<svg width="388pt" height="325pt"
 viewBox="0.00 0.00 388.00 325.00" xmlns="http://www.w3.org/2000/svg" xmlns:xlink="http://www.w3.org/1999/xlink">
<g id="graph0" class="graph" transform="scale(1 1) rotate(0) translate(4 321.22)">
<title>template_call_graph</title>
<polygon fill="white" stroke="none" points="-4,4 -4,-321.22 383.75,-321.22 383.75,4 -4,4"/>
<!-- E -->
<g id="node1" class="node">
<title>E</title>
<polygon fill="none" stroke="black" stroke-width="2" points="54,-142.22 0,-142.22 0,-106.22 54,-106.22 54,-142.22"/>
<text xml:space="preserve" text-anchor="middle" x="27" y="-119.2" font-family="SBL Hebrew,Helvetica" font-size="12.00">E</text>
</g>
<!-- מ:כפול -->
<g id="node2" class="node">
<title>מ:כפול</title>
<polygon fill="none" stroke="black" points="159.75,-142.22 105.75,-142.22 105.75,-106.22 159.75,-106.22 159.75,-142.22"/>
<text xml:space="preserve" text-anchor="middle" x="132.75" y="-119.2" font-family="SBL Hebrew,Helvetica" font-size="12.00">מ:כפול</text>
</g>
<!-- E&#45;&gt;מ:כפול -->
<g id="edge1" class="edge">
<title>E&#45;&gt;מ:כפול</title>
<path fill="none" stroke="black" d="M54.45,-124.22C66.52,-124.22 81.04,-124.22 94.21,-124.22"/>
<polygon fill="black" stroke="black" points="93.84,-127.72 103.84,-124.22 93.84,-120.72 93.84,-127.72"/>
<text xml:space="preserve" text-anchor="middle" x="79.88" y="-126.17" font-family="Helvetica,sans-Serif" font-size="9.00">183</text>
</g>
<!-- מ:לגרמיה&#45;2 -->
<g id="node3" class="node">
<title>מ:לגרמיה&#45;2</title>
<polygon fill="none" stroke="black" points="279.25,-317.22 211.5,-317.22 211.5,-281.22 279.25,-281.22 279.25,-317.22"/>
<text xml:space="preserve" text-anchor="middle" x="245.38" y="-294.2" font-family="SBL Hebrew,Helvetica" font-size="12.00">מ:לגרמיה&#45;2</text>
</g>
<!-- מ:כפול&#45;&gt;מ:לגרמיה&#45;2 -->
<g id="edge2" class="edge">
<title>מ:כפול&#45;&gt;מ:לגרמיה&#45;2</title>
<path fill="none" stroke="black" d="M134.88,-142.55C137.59,-171.91 146.78,-229.88 177.75,-266.22 184.01,-273.57 192.29,-279.44 200.88,-284.07"/>
<polygon fill="black" stroke="black" points="199.12,-287.1 209.65,-288.29 202.16,-280.79 199.12,-287.1"/>
<text xml:space="preserve" text-anchor="middle" x="185.62" y="-281.26" font-family="Helvetica,sans-Serif" font-size="9.00">14</text>
</g>
<!-- מ:פסק -->
<g id="node4" class="node">
<title>מ:פסק</title>
<polygon fill="none" stroke="black" points="379.75,-267.22 325.75,-267.22 325.75,-231.22 379.75,-231.22 379.75,-267.22"/>
<text xml:space="preserve" text-anchor="middle" x="352.75" y="-244.2" font-family="SBL Hebrew,Helvetica" font-size="12.00">מ:פסק</text>
</g>
<!-- מ:כפול&#45;&gt;מ:פסק -->
<g id="edge3" class="edge">
<title>מ:כפול&#45;&gt;מ:פסק</title>
<path fill="none" stroke="black" d="M154.21,-142.48C169.35,-155.42 190.83,-172.65 211.5,-185.22 244.95,-205.58 285.98,-223.57 314.99,-235.25"/>
<polygon fill="black" stroke="black" points="313.49,-238.42 324.08,-238.86 316.07,-231.92 313.49,-238.42"/>
<text xml:space="preserve" text-anchor="middle" x="245.38" y="-221.47" font-family="Helvetica,sans-Serif" font-size="9.00">7</text>
</g>
<!-- מ:קמץ -->
<g id="node5" class="node">
<title>מ:קמץ</title>
<polygon fill="none" stroke="black" points="379.75,-138.22 325.75,-138.22 325.75,-102.22 379.75,-102.22 379.75,-138.22"/>
<text xml:space="preserve" text-anchor="middle" x="352.75" y="-115.2" font-family="SBL Hebrew,Helvetica" font-size="12.00">מ:קמץ</text>
</g>
<!-- מ:כפול&#45;&gt;מ:קמץ -->
<g id="edge4" class="edge">
<title>מ:כפול&#45;&gt;מ:קמץ</title>
<path fill="none" stroke="black" d="M160.11,-116.89C194.3,-108.39 255.74,-96.6 307.75,-105.22 310.05,-105.61 312.39,-106.09 314.74,-106.65"/>
<polygon fill="black" stroke="black" points="313.56,-109.96 324.13,-109.33 315.47,-103.22 313.56,-109.96"/>
<text xml:space="preserve" text-anchor="middle" x="245.38" y="-108.37" font-family="Helvetica,sans-Serif" font-size="9.00">4</text>
</g>
<!-- נוסח -->
<g id="node6" class="node">
<title>נוסח</title>
<polygon fill="none" stroke="black" points="272.38,-176.22 218.38,-176.22 218.38,-140.22 272.38,-140.22 272.38,-176.22"/>
<text xml:space="preserve" text-anchor="middle" x="245.38" y="-153.2" font-family="SBL Hebrew,Helvetica" font-size="12.00">נוסח</text>
</g>
<!-- מ:כפול&#45;&gt;נוסח -->
<g id="edge5" class="edge">
<title>מ:כפול&#45;&gt;נוסח</title>
<path fill="none" stroke="black" d="M160.25,-132.37C174.34,-136.7 191.9,-142.09 207.32,-146.84"/>
<polygon fill="black" stroke="black" points="206.06,-150.11 216.65,-149.7 208.12,-143.42 206.06,-150.11"/>
<text xml:space="preserve" text-anchor="middle" x="185.62" y="-144.19" font-family="Helvetica,sans-Serif" font-size="9.00">104</text>
</g>
<!-- סס -->
<g id="node7" class="node">
<title>סס</title>
<polygon fill="none" stroke="black" points="272.38,-65.22 218.38,-65.22 218.38,-29.22 272.38,-29.22 272.38,-65.22"/>
<text xml:space="preserve" text-anchor="middle" x="245.38" y="-42.2" font-family="SBL Hebrew,Helvetica" font-size="12.00">סס</text>
</g>
<!-- מ:כפול&#45;&gt;סס -->
<g id="edge6" class="edge">
<title>מ:כפול&#45;&gt;סס</title>
<path fill="none" stroke="black" d="M147.73,-105.82C155.73,-96.22 166.41,-84.83 177.75,-76.72 186.75,-70.3 197.36,-64.82 207.45,-60.4"/>
<polygon fill="black" stroke="black" points="208.77,-63.64 216.68,-56.59 206.1,-57.17 208.77,-63.64"/>
<text xml:space="preserve" text-anchor="middle" x="185.62" y="-78.67" font-family="Helvetica,sans-Serif" font-size="9.00">18</text>
</g>
<!-- פפ -->
<g id="node8" class="node">
<title>פפ</title>
<polygon fill="none" stroke="black" points="379.75,-47.22 325.75,-47.22 325.75,-11.22 379.75,-11.22 379.75,-47.22"/>
<text xml:space="preserve" text-anchor="middle" x="352.75" y="-24.2" font-family="SBL Hebrew,Helvetica" font-size="12.00">פפ</text>
</g>
<!-- מ:כפול&#45;&gt;פפ -->
<g id="edge7" class="edge">
<title>מ:כפול&#45;&gt;פפ</title>
<path fill="none" stroke="black" d="M139.96,-105.74C150.11,-78.89 173.07,-30.08 211.5,-9.72 243.48,7.21 285.05,-1.77 314.61,-12.47"/>
<polygon fill="black" stroke="black" points="313.31,-15.72 323.89,-16.06 315.83,-9.19 313.31,-15.72"/>
<text xml:space="preserve" text-anchor="middle" x="245.38" y="-11.67" font-family="Helvetica,sans-Serif" font-size="9.00">2</text>
</g>
<!-- נוסח&#45;&gt;מ:פסק -->
<g id="edge8" class="edge">
<title>נוסח&#45;&gt;מ:פסק</title>
<path fill="none" stroke="black" d="M267.7,-176.64C283.27,-190.08 304.58,-208.49 321.85,-223.4"/>
<polygon fill="black" stroke="black" points="319.46,-225.96 329.31,-229.85 324.03,-220.66 319.46,-225.96"/>
<text xml:space="preserve" text-anchor="middle" x="302.5" y="-211.12" font-family="Helvetica,sans-Serif" font-size="9.00">1</text>
</g>
<!-- נוסח&#45;&gt;מ:קמץ -->
<g id="edge9" class="edge">
<title>נוסח&#45;&gt;מ:קמץ</title>
<path fill="none" stroke="black" d="M272.67,-148.83C283.53,-144.94 296.25,-140.37 307.75,-136.22 310.11,-135.37 312.54,-134.49 314.99,-133.6"/>
<polygon fill="black" stroke="black" points="316.07,-136.94 324.28,-130.24 313.68,-130.36 316.07,-136.94"/>
<text xml:space="preserve" text-anchor="middle" x="302.5" y="-141.79" font-family="Helvetica,sans-Serif" font-size="9.00">2</text>
</g>
<!-- נוסח&#45;&gt;פפ -->
<g id="edge10" class="edge">
<title>נוסח&#45;&gt;פפ</title>
<path fill="none" stroke="black" d="M261.47,-139.74C279.31,-117.9 309.15,-81.37 329.61,-56.33"/>
<polygon fill="black" stroke="black" points="332.11,-58.8 335.72,-48.84 326.69,-54.37 332.11,-58.8"/>
<text xml:space="preserve" text-anchor="middle" x="302.5" y="-95.67" font-family="Helvetica,sans-Serif" font-size="9.00">1</text>
</g>
<!-- ש -->
<g id="node9" class="node">
<title>ש</title>
<polygon fill="none" stroke="black" points="379.75,-210.22 325.75,-210.22 325.75,-174.22 379.75,-174.22 379.75,-210.22"/>
<text xml:space="preserve" text-anchor="middle" x="352.75" y="-187.2" font-family="SBL Hebrew,Helvetica" font-size="12.00">ש</text>
</g>
<!-- נוסח&#45;&gt;ש -->
<g id="edge11" class="edge">
<title>נוסח&#45;&gt;ש</title>
<path fill="none" stroke="black" d="M272.69,-166.72C285.39,-170.81 300.84,-175.8 314.71,-180.27"/>
<polygon fill="black" stroke="black" points="313.37,-183.52 323.96,-183.26 315.52,-176.86 313.37,-183.52"/>
<text xml:space="preserve" text-anchor="middle" x="302.5" y="-179.21" font-family="Helvetica,sans-Serif" font-size="9.00">58</text>
</g>
</g>
</svg>
