<?xml version="1.0" encoding="UTF-8" standalone="no"?>
<!DOCTYPE svg PUBLIC "-//W3C//DTD SVG 1.1//EN"
 "http://www.w3.org/Graphics/SVG/1.1/DTD/svg11.dtd">
<!-- Generated by graphviz version 14.1.2 (20260124.0452)
 -->
<!-- Title: template_call_graph Pages: 1 -->
<svg width="773pt" height="928pt"
 viewBox="0.00 0.00 773.00 928.00" xmlns="http://www.w3.org/2000/svg" xmlns:xlink="http://www.w3.org/1999/xlink">
<g id="graph0" class="graph" transform="scale(1 1) rotate(0) translate(4 923.69)">
<title>template_call_graph</title>
<polygon fill="white" stroke="none" points="-4,4 -4,-923.69 769.25,-923.69 769.25,4 -4,4"/>
<text xml:space="preserve" text-anchor="middle" x="382.62" y="-5.75" font-family="Times New Roman,serif" font-size="10.00">מ:כפול, נוסח, ש have been discarded</text>
<!-- C -->
<g id="node1" class="node">
<title>C</title>
<polygon fill="none" stroke="black" stroke-width="2" points="54,-55.25 0,-55.25 0,-19.25 54,-19.25 54,-55.25"/>
<text xml:space="preserve" text-anchor="middle" x="27" y="-32.23" font-family="SBL Hebrew,Helvetica" font-size="12.00">C</text>
</g>
<!-- מ:פסוק -->
<g id="node10" class="node">
<title>מ:פסוק</title>
<polygon fill="none" stroke="black" points="189.12,-55.25 135.12,-55.25 135.12,-19.25 189.12,-19.25 189.12,-55.25"/>
<text xml:space="preserve" text-anchor="middle" x="162.12" y="-32.23" font-family="SBL Hebrew,Helvetica" font-size="12.00">מ:פסוק</text>
</g>
<!-- C&#45;&gt;מ:פסוק -->
<g id="edge1" class="edge">
<title>C&#45;&gt;מ:פסוק</title>
<path fill="none" stroke="black" d="M54.3,-37.25C74.08,-37.25 101.47,-37.25 123.56,-37.25"/>
<polygon fill="black" stroke="black" points="123.36,-40.75 133.36,-37.25 123.36,-33.75 123.36,-40.75"/>
<text xml:space="preserve" text-anchor="middle" x="82.5" y="-39.2" font-family="Helvetica,sans-Serif" font-size="9.00">895</text>
</g>
<!-- D -->
<g id="node2" class="node">
<title>D</title>
<polygon fill="none" stroke="black" stroke-width="2" points="54,-878.25 0,-878.25 0,-842.25 54,-842.25 54,-878.25"/>
<text xml:space="preserve" text-anchor="middle" x="27" y="-855.23" font-family="SBL Hebrew,Helvetica" font-size="12.00">D</text>
</g>
<!-- מ:אין … פרק, … -->
<g id="node6" class="node">
<title>מ:אין … פרק, …</title>
<g id="a_node6"><a xlink:title="מ:אין פרשה בתחילת פרק&#10;מ:אין פרשה בתחילת פרק בספרי אמ&quot;ת&#10;מ:אין רווח של פרשה בתחילת פרשת השבוע&#10;מ:ספר חדש&#10;מ:רווח בתרי עשר בפסוק הראשון&#10;מ:רווח לספר בתהלים בפסוק הראשון&#10;ר4">
<polygon fill="none" stroke="black" points="205.75,-890.25 118.5,-890.25 118.5,-854.25 205.75,-854.25 205.75,-890.25"/>
<text xml:space="preserve" text-anchor="middle" x="162.12" y="-867.23" font-family="SBL Hebrew,Helvetica" font-size="12.00">מ:אין … פרק, …</text>
</a>
</g>
</g>
<!-- D&#45;&gt;מ:אין … פרק, … -->
<g id="edge2" class="edge">
<title>D&#45;&gt;מ:אין … פרק, …</title>
<path fill="none" stroke="black" d="M54.3,-862.62C69.29,-863.97 88.64,-865.72 106.75,-867.35"/>
<polygon fill="black" stroke="black" points="106.33,-870.82 116.6,-868.24 106.96,-863.85 106.33,-870.82"/>
<text xml:space="preserve" text-anchor="middle" x="82.5" y="-867.84" font-family="Helvetica,sans-Serif" font-size="9.00">4483</text>
</g>
<!-- מ:קישור בהערה, … -->
<g id="node9" class="node">
<title>מ:קישור בהערה, …</title>
<g id="a_node9"><a xlink:title="מ:קישור בהערה&#10;מ:ששש&#10;סס&#10;ססס&#10;פפפ&#10;ר1">
<polygon fill="none" stroke="black" points="213.25,-831.25 111,-831.25 111,-795.25 213.25,-795.25 213.25,-831.25"/>
<text xml:space="preserve" text-anchor="middle" x="162.12" y="-808.23" font-family="SBL Hebrew,Helvetica" font-size="12.00">מ:קישור בהערה, …</text>
</a>
</g>
</g>
<!-- D&#45;&gt;מ:קישור בהערה, … -->
<g id="edge4" class="edge">
<title>D&#45;&gt;מ:קישור בהערה, …</title>
<path fill="none" stroke="black" d="M54.3,-850.96C67.48,-846.31 84.03,-840.47 100.14,-834.78"/>
<polygon fill="black" stroke="black" points="100.93,-838.21 109.2,-831.58 98.6,-831.61 100.93,-838.21"/>
<text xml:space="preserve" text-anchor="middle" x="82.5" y="-845.66" font-family="Helvetica,sans-Serif" font-size="9.00">1943</text>
</g>
<!-- מ:הערה&#45;2 -->
<g id="node11" class="node">
<title>מ:הערה&#45;2</title>
<polygon fill="none" stroke="black" points="192.62,-718.25 131.62,-718.25 131.62,-682.25 192.62,-682.25 192.62,-718.25"/>
<text xml:space="preserve" text-anchor="middle" x="162.12" y="-695.23" font-family="SBL Hebrew,Helvetica" font-size="12.00">מ:הערה&#45;2</text>
</g>
<!-- D&#45;&gt;מ:הערה&#45;2 -->
<g id="edge3" class="edge">
<title>D&#45;&gt;מ:הערה&#45;2</title>
<path fill="none" stroke="black" d="M36.11,-841.96C44.18,-824.55 57.43,-797.95 72,-776.75 86.9,-755.08 91.05,-749.39 111,-732.25 114.38,-729.34 118.05,-726.51 121.81,-723.8"/>
<polygon fill="black" stroke="black" points="123.71,-726.75 130,-718.22 119.76,-720.96 123.71,-726.75"/>
<text xml:space="preserve" text-anchor="middle" x="82.5" y="-778.7" font-family="Helvetica,sans-Serif" font-size="9.00">4</text>
</g>
<!-- פפ -->
<g id="node12" class="node">
<title>פפ</title>
<polygon fill="none" stroke="black" points="357.25,-772.25 303.25,-772.25 303.25,-736.25 357.25,-736.25 357.25,-772.25"/>
<text xml:space="preserve" text-anchor="middle" x="330.25" y="-749.23" font-family="SBL Hebrew,Helvetica" font-size="12.00">פפ</text>
</g>
<!-- D&#45;&gt;פפ -->
<g id="edge5" class="edge">
<title>D&#45;&gt;פפ</title>
<path fill="none" stroke="black" d="M54.43,-875.96C91.56,-895.84 160.52,-924.59 213.25,-899.25 263.41,-875.14 298.67,-817.61 316.32,-782.69"/>
<polygon fill="black" stroke="black" points="319.32,-784.53 320.56,-774 313.03,-781.45 319.32,-784.53"/>
<text xml:space="preserve" text-anchor="middle" x="162.12" y="-911.14" font-family="Helvetica,sans-Serif" font-size="9.00">1541</text>
</g>
<!-- E -->
<g id="node3" class="node">
<title>E</title>
<polygon fill="none" stroke="black" stroke-width="2" points="54,-446.25 0,-446.25 0,-410.25 54,-410.25 54,-446.25"/>
<text xml:space="preserve" text-anchor="middle" x="27" y="-423.23" font-family="SBL Hebrew,Helvetica" font-size="12.00">E</text>
</g>
<!-- כתיב … קרי, … -->
<g id="node4" class="node">
<title>כתיב … קרי, …</title>
<g id="a_node4"><a xlink:title="כתיב ולא קרי&#10;מ:כו&quot;ק בין שני מקפים&#10;מ:כו&quot;ק כתיב מילה חדה וקרי תרתין מילין בין שני מקפים&#10;מ:כו&quot;ק כתיב תרתין מילין וקרי מילה חדה&#10;מ:כו&quot;ק קרי שונה מהכתיב בשתי מילים&#10;מ:כו&quot;ק של שלוש מילים בהערה אחת&#10;מ:נו&quot;ן הפוכה&#10;מ:צינור&#10;מ:קו&quot;כ קרי שונה מהכתיב בשתי מילים&#10;מ:קישור פנימי בהערה&#10;מודגש&#10;קרי ולא כתיב&#10;ר0&#10;ר2&#10;ר3">
<polygon fill="none" stroke="black" points="203.5,-623.25 120.75,-623.25 120.75,-587.25 203.5,-587.25 203.5,-623.25"/>
<text xml:space="preserve" text-anchor="middle" x="162.12" y="-600.23" font-family="SBL Hebrew,Helvetica" font-size="12.00">כתיב … קרי, …</text>
</a>
</g>
</g>
<!-- E&#45;&gt;כתיב … קרי, … -->
<g id="edge7" class="edge">
<title>E&#45;&gt;כתיב … קרי, …</title>
<path fill="none" stroke="black" d="M31.65,-446.44C37.22,-470.91 49.63,-514.94 72,-546.25 81.99,-560.24 96.42,-571.82 110.77,-580.92"/>
<polygon fill="black" stroke="black" points="108.95,-583.91 119.33,-586.04 112.54,-577.91 108.95,-583.91"/>
<text xml:space="preserve" text-anchor="middle" x="82.5" y="-569.18" font-family="Helvetica,sans-Serif" font-size="9.00">1393</text>
</g>
<!-- מ:כו&quot;ק כתיב מילה חדה וקרי תרתין מילין -->
<g id="node7" class="node">
<title>מ:כו&quot;ק כתיב מילה חדה וקרי תרתין מילין</title>
<g id="a_node7"><a xlink:title="מ:כו&quot;ק כתיב מילה חדה וקרי תרתין מילין">
<polygon fill="none" stroke="black" points="203.12,-248.25 121.12,-248.25 121.12,-212.25 203.12,-212.25 203.12,-248.25"/>
<text xml:space="preserve" text-anchor="middle" x="162.12" y="-225.22" font-family="SBL Hebrew,Helvetica" font-size="12.00">מ:כו&quot;ק … מילין</text>
</a>
</g>
</g>
<!-- E&#45;&gt;מ:כו&quot;ק כתיב מילה חדה וקרי תרתין מילין -->
<g id="edge11" class="edge">
<title>E&#45;&gt;מ:כו&quot;ק כתיב מילה חדה וקרי תרתין מילין</title>
<path fill="none" stroke="black" d="M30.18,-409.8C35.34,-369.21 49.58,-274 72,-251.75 82.07,-241.75 95.94,-236.11 109.74,-233"/>
<polygon fill="black" stroke="black" points="110.01,-236.51 119.23,-231.29 108.76,-229.62 110.01,-236.51"/>
<text xml:space="preserve" text-anchor="middle" x="82.5" y="-253.7" font-family="Helvetica,sans-Serif" font-size="9.00">13</text>
</g>
<!-- מ:כו&quot;ק … אחת, … -->
<g id="node8" class="node">
<title>מ:כו&quot;ק … אחת, …</title>
<g id="a_node8"><a xlink:title="מ:כו&quot;ק של שתי מילים בהערה אחת&#10;מ:קו&quot;כ כתיב מילה חדה וקרי תרתין מילין">
<polygon fill="none" stroke="black" points="210.25,-194.25 114,-194.25 114,-158.25 210.25,-158.25 210.25,-194.25"/>
<text xml:space="preserve" text-anchor="middle" x="162.12" y="-171.22" font-family="SBL Hebrew,Helvetica" font-size="12.00">מ:כו&quot;ק … אחת, …</text>
</a>
</g>
</g>
<!-- E&#45;&gt;מ:כו&quot;ק … אחת, … -->
<g id="edge12" class="edge">
<title>E&#45;&gt;מ:כו&quot;ק … אחת, …</title>
<path fill="none" stroke="black" d="M29.95,-410.02C34.99,-365.62 49.69,-253.32 72,-223.75 80.25,-212.82 91.77,-204.13 103.79,-197.34"/>
<polygon fill="black" stroke="black" points="105.33,-200.49 112.6,-192.77 102.11,-194.27 105.33,-200.49"/>
<text xml:space="preserve" text-anchor="middle" x="82.5" y="-225.7" font-family="Helvetica,sans-Serif" font-size="9.00">9</text>
</g>
<!-- E&#45;&gt;מ:קישור בהערה, … -->
<g id="edge16" class="edge">
<title>E&#45;&gt;מ:קישור בהערה, …</title>
<path fill="none" stroke="black" d="M27.69,-446.64C26.94,-512.46 27.78,-735.22 72,-787.25 79.28,-795.82 89.21,-801.64 99.8,-805.59"/>
<polygon fill="black" stroke="black" points="98.51,-808.85 109.1,-808.49 100.6,-802.17 98.51,-808.85"/>
<text xml:space="preserve" text-anchor="middle" x="82.5" y="-803.98" font-family="Helvetica,sans-Serif" font-size="9.00">5047</text>
</g>
<!-- E&#45;&gt;מ:הערה&#45;2 -->
<g id="edge10" class="edge">
<title>E&#45;&gt;מ:הערה&#45;2</title>
<path fill="none" stroke="black" d="M29.03,-446.49C32.21,-496.55 43.43,-634.58 72,-668.25 84.04,-682.44 102.86,-690.34 120.11,-694.73"/>
<polygon fill="black" stroke="black" points="119.14,-698.1 129.65,-696.82 120.63,-691.26 119.14,-698.1"/>
<text xml:space="preserve" text-anchor="middle" x="82.5" y="-685.85" font-family="Helvetica,sans-Serif" font-size="9.00">27</text>
</g>
<!-- E&#45;&gt;פפ -->
<g id="edge18" class="edge">
<title>E&#45;&gt;פפ</title>
<path fill="none" stroke="black" d="M29.19,-446.38C32.95,-499.78 45.96,-655.44 72,-698.25 116.09,-770.74 231.5,-767.55 291.61,-760.31"/>
<polygon fill="black" stroke="black" points="291.9,-763.81 301.36,-759.03 290.99,-756.87 291.9,-763.81"/>
<text xml:space="preserve" text-anchor="middle" x="162.12" y="-765.21" font-family="Helvetica,sans-Serif" font-size="9.00">11</text>
</g>
<!-- כו&quot;ק -->
<g id="node13" class="node">
<title>כו&quot;ק</title>
<polygon fill="none" stroke="black" points="189.12,-569.25 135.12,-569.25 135.12,-533.25 189.12,-533.25 189.12,-569.25"/>
<text xml:space="preserve" text-anchor="middle" x="162.12" y="-546.23" font-family="SBL Hebrew,Helvetica" font-size="12.00">כו&quot;ק</text>
</g>
<!-- E&#45;&gt;כו&quot;ק -->
<g id="edge6" class="edge">
<title>E&#45;&gt;כו&quot;ק</title>
<path fill="none" stroke="black" d="M32.55,-446.62C38.44,-466.79 50.59,-498.88 72,-518.25 86.45,-531.32 106.54,-539.36 123.99,-544.22"/>
<polygon fill="black" stroke="black" points="122.97,-547.57 133.52,-546.61 124.68,-540.78 122.97,-547.57"/>
<text xml:space="preserve" text-anchor="middle" x="82.5" y="-533.31" font-family="Helvetica,sans-Serif" font-size="9.00">884</text>
</g>
<!-- מ:אות&#45;מיוחדת&#45;במילה -->
<g id="node14" class="node">
<title>מ:אות&#45;מיוחדת&#45;במילה</title>
<polygon fill="none" stroke="black" points="633.75,-591.25 524,-591.25 524,-555.25 633.75,-555.25 633.75,-591.25"/>
<text xml:space="preserve" text-anchor="middle" x="578.88" y="-568.23" font-family="SBL Hebrew,Helvetica" font-size="12.00">מ:אות&#45;מיוחדת&#45;במילה</text>
</g>
<!-- E&#45;&gt;מ:אות&#45;מיוחדת&#45;במילה -->
<g id="edge8" class="edge">
<title>E&#45;&gt;מ:אות&#45;מיוחדת&#45;במילה</title>
<path fill="none" stroke="black" d="M42.62,-409.88C57.69,-392.43 82.91,-367.16 111,-355.25 211.97,-312.45 251.24,-311.67 357.25,-339.75 419.3,-356.19 437.06,-366.16 482.75,-411.25 522.44,-450.43 551.55,-509.54 566.5,-544.48"/>
<polygon fill="black" stroke="black" points="563.2,-545.64 570.28,-553.53 569.66,-542.95 563.2,-545.64"/>
<text xml:space="preserve" text-anchor="middle" x="330.25" y="-341.7" font-family="Helvetica,sans-Serif" font-size="9.00">79</text>
</g>
<!-- מ:דחי -->
<g id="node15" class="node">
<title>מ:דחי</title>
<polygon fill="none" stroke="black" points="475.12,-551.25 421.12,-551.25 421.12,-515.25 475.12,-515.25 475.12,-551.25"/>
<text xml:space="preserve" text-anchor="middle" x="448.12" y="-528.23" font-family="SBL Hebrew,Helvetica" font-size="12.00">מ:דחי</text>
</g>
<!-- E&#45;&gt;מ:דחי -->
<g id="edge9" class="edge">
<title>E&#45;&gt;מ:דחי</title>
<path fill="none" stroke="black" d="M54.33,-414.3C119.46,-381.9 290.46,-310.1 395.5,-388.25 417.84,-404.87 404.37,-421.95 413.5,-448.25 420.05,-467.13 428.3,-488.01 434.98,-504.34"/>
<polygon fill="black" stroke="black" points="431.69,-505.54 438.74,-513.45 438.16,-502.87 431.69,-505.54"/>
<text xml:space="preserve" text-anchor="middle" x="258.25" y="-358.21" font-family="Helvetica,sans-Serif" font-size="9.00">2287</text>
</g>
<!-- מ:לגרמיה&#45;2 -->
<g id="node16" class="node">
<title>מ:לגרמיה&#45;2</title>
<polygon fill="none" stroke="black" points="756.62,-397.25 688.88,-397.25 688.88,-361.25 756.62,-361.25 756.62,-397.25"/>
<text xml:space="preserve" text-anchor="middle" x="722.75" y="-374.23" font-family="SBL Hebrew,Helvetica" font-size="12.00">מ:לגרמיה&#45;2</text>
</g>
<!-- E&#45;&gt;מ:לגרמיה&#45;2 -->
<g id="edge13" class="edge">
<title>E&#45;&gt;מ:לגרמיה&#45;2</title>
<path fill="none" stroke="black" d="M28.25,-446.44C30,-489.74 41.41,-597.86 111,-632.25 151.74,-652.38 167.84,-633.98 213.25,-632.25 400.54,-625.13 482.73,-711.26 633.75,-600.25 695.87,-554.59 714.19,-458 719.55,-409.04"/>
<polygon fill="black" stroke="black" points="723.02,-409.48 720.51,-399.19 716.06,-408.8 723.02,-409.48"/>
<text xml:space="preserve" text-anchor="middle" x="385.38" y="-651.23" font-family="Helvetica,sans-Serif" font-size="9.00">1811</text>
</g>
<!-- מ:מקף אפור -->
<g id="node17" class="node">
<title>מ:מקף אפור</title>
<polygon fill="none" stroke="black" points="482.75,-288.25 413.5,-288.25 413.5,-252.25 482.75,-252.25 482.75,-288.25"/>
<text xml:space="preserve" text-anchor="middle" x="448.12" y="-265.23" font-family="SBL Hebrew,Helvetica" font-size="12.00">מ:מקף אפור</text>
</g>
<!-- E&#45;&gt;מ:מקף אפור -->
<g id="edge14" class="edge">
<title>E&#45;&gt;מ:מקף אפור</title>
<path fill="none" stroke="black" d="M28.64,-410C30.68,-382.23 38.98,-329.88 72,-304.25 122.36,-265.15 313.65,-265.89 401.95,-268.46"/>
<polygon fill="black" stroke="black" points="401.58,-271.95 411.69,-268.77 401.8,-264.96 401.58,-271.95"/>
<text xml:space="preserve" text-anchor="middle" x="258.25" y="-272.06" font-family="Helvetica,sans-Serif" font-size="9.00">114</text>
</g>
<!-- מ:פסק -->
<g id="node18" class="node">
<title>מ:פסק</title>
<polygon fill="none" stroke="black" points="357.25,-181.25 303.25,-181.25 303.25,-145.25 357.25,-145.25 357.25,-181.25"/>
<text xml:space="preserve" text-anchor="middle" x="330.25" y="-158.22" font-family="SBL Hebrew,Helvetica" font-size="12.00">מ:פסק</text>
</g>
<!-- E&#45;&gt;מ:פסק -->
<g id="edge15" class="edge">
<title>E&#45;&gt;מ:פסק</title>
<path fill="none" stroke="black" d="M29.27,-409.96C32.5,-370.56 42.91,-275.22 72,-201.25 83.98,-170.78 82.37,-154.63 111,-138.75 168.14,-107.05 246.58,-128.77 292.2,-146.6"/>
<polygon fill="black" stroke="black" points="290.8,-149.8 301.38,-150.32 293.43,-143.32 290.8,-149.8"/>
<text xml:space="preserve" text-anchor="middle" x="162.12" y="-140.7" font-family="Helvetica,sans-Serif" font-size="9.00">515</text>
</g>
<!-- מ:קמץ -->
<g id="node19" class="node">
<title>מ:קמץ</title>
<polygon fill="none" stroke="black" points="357.25,-497.25 303.25,-497.25 303.25,-461.25 357.25,-461.25 357.25,-497.25"/>
<text xml:space="preserve" text-anchor="middle" x="330.25" y="-474.23" font-family="SBL Hebrew,Helvetica" font-size="12.00">מ:קמץ</text>
</g>
<!-- E&#45;&gt;מ:קמץ -->
<g id="edge17" class="edge">
<title>E&#45;&gt;מ:קמץ</title>
<path fill="none" stroke="black" d="M54.15,-438.35C70.3,-444.19 91.57,-451.17 111,-455.25 173.53,-468.4 247.75,-474.62 291.54,-477.34"/>
<polygon fill="black" stroke="black" points="291.08,-480.82 301.27,-477.92 291.5,-473.84 291.08,-480.82"/>
<text xml:space="preserve" text-anchor="middle" x="162.12" y="-472.34" font-family="Helvetica,sans-Serif" font-size="9.00">363</text>
</g>
<!-- קו&quot;כ -->
<g id="node20" class="node">
<title>קו&quot;כ</title>
<polygon fill="none" stroke="black" points="285.25,-107.25 231.25,-107.25 231.25,-71.25 285.25,-71.25 285.25,-107.25"/>
<text xml:space="preserve" text-anchor="middle" x="258.25" y="-84.22" font-family="SBL Hebrew,Helvetica" font-size="12.00">קו&quot;כ</text>
</g>
<!-- E&#45;&gt;קו&quot;כ -->
<g id="edge19" class="edge">
<title>E&#45;&gt;קו&quot;כ</title>
<path fill="none" stroke="black" d="M27.64,-410.11C26.8,-348.23 27.61,-146.9 72,-104.75 111.04,-67.68 177.86,-72.34 219.68,-80.08"/>
<polygon fill="black" stroke="black" points="218.79,-83.48 229.29,-82.02 220.17,-76.61 218.79,-83.48"/>
<text xml:space="preserve" text-anchor="middle" x="82.5" y="-106.7" font-family="Helvetica,sans-Serif" font-size="9.00">126</text>
</g>
<!-- קו&quot;כ&#45;אם -->
<g id="node21" class="node">
<title>קו&quot;כ&#45;אם</title>
<polygon fill="none" stroke="black" points="189.12,-446.25 135.12,-446.25 135.12,-410.25 189.12,-410.25 189.12,-446.25"/>
<text xml:space="preserve" text-anchor="middle" x="162.12" y="-423.23" font-family="SBL Hebrew,Helvetica" font-size="12.00">קו&quot;כ&#45;אם</text>
</g>
<!-- E&#45;&gt;קו&quot;כ&#45;אם -->
<g id="edge20" class="edge">
<title>E&#45;&gt;קו&quot;כ&#45;אם</title>
<path fill="none" stroke="black" d="M54.3,-428.25C74.08,-428.25 101.47,-428.25 123.56,-428.25"/>
<polygon fill="black" stroke="black" points="123.36,-431.75 133.36,-428.25 123.36,-424.75 123.36,-431.75"/>
<text xml:space="preserve" text-anchor="middle" x="82.5" y="-430.2" font-family="Helvetica,sans-Serif" font-size="9.00">145</text>
</g>
<!-- מ:אות תלויה, … -->
<g id="node5" class="node">
<title>מ:אות תלויה, …</title>
<g id="a_node5"><a xlink:title="מ:אות תלויה&#10;מ:אות&#45;ג&#10;מ:אות&#45;ק">
<polygon fill="none" stroke="black" points="765.25,-711.25 680.25,-711.25 680.25,-675.25 765.25,-675.25 765.25,-711.25"/>
<text xml:space="preserve" text-anchor="middle" x="722.75" y="-688.23" font-family="SBL Hebrew,Helvetica" font-size="12.00">מ:אות תלויה, …</text>
</a>
</g>
</g>
<!-- מ:כו&quot;ק כתיב מילה חדה וקרי תרתין מילין&#45;&gt;מ:לגרמיה&#45;2 -->
<g id="edge30" class="edge">
<title>מ:כו&quot;ק כתיב מילה חדה וקרי תרתין מילין&#45;&gt;מ:לגרמיה&#45;2</title>
<path fill="none" stroke="black" d="M203.39,-227.6C237.02,-225.62 286.24,-223.25 329.25,-223.25 329.25,-223.25 329.25,-223.25 579.88,-223.25 647.88,-223.25 691.89,-305.39 710.93,-350.46"/>
<polygon fill="black" stroke="black" points="707.65,-351.7 714.66,-359.65 714.14,-349.07 707.65,-351.7"/>
<text xml:space="preserve" text-anchor="middle" x="448.12" y="-225.2" font-family="Helvetica,sans-Serif" font-size="9.00">1</text>
</g>
<!-- מ:כו&quot;ק כתיב מילה חדה וקרי תרתין מילין&#45;&gt;מ:פסק -->
<g id="edge31" class="edge">
<title>מ:כו&quot;ק כתיב מילה חדה וקרי תרתין מילין&#45;&gt;מ:פסק</title>
<path fill="none" stroke="black" d="M201.42,-211.84C211.09,-207.39 221.49,-202.77 231.25,-198.75 251.16,-190.56 273.73,-182.31 292.19,-175.83"/>
<polygon fill="black" stroke="black" points="293.09,-179.23 301.38,-172.64 290.79,-172.62 293.09,-179.23"/>
<text xml:space="preserve" text-anchor="middle" x="258.25" y="-200.7" font-family="Helvetica,sans-Serif" font-size="9.00">3</text>
</g>
<!-- מ:כו&quot;ק … אחת, …&#45;&gt;מ:פסק -->
<g id="edge32" class="edge">
<title>מ:כו&quot;ק … אחת, …&#45;&gt;מ:פסק</title>
<path fill="none" stroke="black" d="M210.65,-167.28C217.54,-166.26 224.56,-165.36 231.25,-164.75 251.13,-162.93 273.37,-162.46 291.63,-162.49"/>
<polygon fill="black" stroke="black" points="291.45,-165.99 301.47,-162.56 291.5,-158.99 291.45,-165.99"/>
<text xml:space="preserve" text-anchor="middle" x="258.25" y="-166.7" font-family="Helvetica,sans-Serif" font-size="9.00">2</text>
</g>
<!-- מ:עלייה -->
<g id="node22" class="node">
<title>מ:עלייה</title>
<polygon fill="none" stroke="black" points="357.25,-55.25 303.25,-55.25 303.25,-19.25 357.25,-19.25 357.25,-55.25"/>
<text xml:space="preserve" text-anchor="middle" x="330.25" y="-32.23" font-family="SBL Hebrew,Helvetica" font-size="12.00">מ:עלייה</text>
</g>
<!-- מ:פסוק&#45;&gt;מ:עלייה -->
<g id="edge33" class="edge">
<title>מ:פסוק&#45;&gt;מ:עלייה</title>
<path fill="none" stroke="black" d="M189.45,-37.25C216.95,-37.25 260.35,-37.25 291.5,-37.25"/>
<polygon fill="black" stroke="black" points="291.26,-40.75 301.26,-37.25 291.26,-33.75 291.26,-40.75"/>
<text xml:space="preserve" text-anchor="middle" x="258.25" y="-39.2" font-family="Helvetica,sans-Serif" font-size="9.00">532</text>
</g>
<!-- מ:הערה&#45;2&#45;&gt;פפ -->
<g id="edge29" class="edge">
<title>מ:הערה&#45;2&#45;&gt;פפ</title>
<path fill="none" stroke="black" d="M192.93,-705.11C218.09,-709.76 254.78,-717.84 285.25,-729.75 287.72,-730.72 290.23,-731.8 292.73,-732.96"/>
<polygon fill="black" stroke="black" points="290.96,-735.99 301.47,-737.35 294.1,-729.73 290.96,-735.99"/>
<text xml:space="preserve" text-anchor="middle" x="258.25" y="-731.7" font-family="Helvetica,sans-Serif" font-size="9.00">3</text>
</g>
<!-- מ:הערה&#45;2&#45;&gt;מ:אות&#45;מיוחדת&#45;במילה -->
<g id="edge28" class="edge">
<title>מ:הערה&#45;2&#45;&gt;מ:אות&#45;מיוחדת&#45;במילה</title>
<path fill="none" stroke="black" d="M192.86,-700.21C237.8,-699.36 325.23,-694.65 395.5,-672.25 449.94,-654.9 506.92,-621.05 542.4,-597.81"/>
<polygon fill="black" stroke="black" points="544.16,-600.84 550.55,-592.39 540.29,-595.01 544.16,-600.84"/>
<text xml:space="preserve" text-anchor="middle" x="385.38" y="-679.64" font-family="Helvetica,sans-Serif" font-size="9.00">9</text>
</g>
<!-- כו&quot;ק&#45;&gt;מ:אות&#45;מיוחדת&#45;במילה -->
<g id="edge21" class="edge">
<title>כו&quot;ק&#45;&gt;מ:אות&#45;מיוחדת&#45;במילה</title>
<path fill="none" stroke="black" d="M189.35,-559.8C201.88,-563.47 217.19,-567.34 231.25,-569.25 328.41,-582.44 442.3,-580.46 512.27,-577.28"/>
<polygon fill="black" stroke="black" points="512.2,-580.79 522.03,-576.81 511.87,-573.79 512.2,-580.79"/>
<text xml:space="preserve" text-anchor="middle" x="385.38" y="-581.51" font-family="Helvetica,sans-Serif" font-size="9.00">1</text>
</g>
<!-- כו&quot;ק&#45;&gt;מ:דחי -->
<g id="edge22" class="edge">
<title>כו&quot;ק&#45;&gt;מ:דחי</title>
<path fill="none" stroke="black" d="M189.46,-553.14C232.76,-555.72 321.55,-558.81 395.5,-547.25 400.2,-546.52 405.08,-545.52 409.88,-544.38"/>
<polygon fill="black" stroke="black" points="410.56,-547.83 419.37,-541.95 408.82,-541.05 410.56,-547.83"/>
<text xml:space="preserve" text-anchor="middle" x="330.25" y="-557" font-family="Helvetica,sans-Serif" font-size="9.00">7</text>
</g>
<!-- כו&quot;ק&#45;&gt;מ:לגרמיה&#45;2 -->
<g id="edge23" class="edge">
<title>כו&quot;ק&#45;&gt;מ:לגרמיה&#45;2</title>
<path fill="none" stroke="black" d="M182.02,-532.81C218.13,-499.62 300.79,-433.25 384.38,-433.25 384.38,-433.25 384.38,-433.25 579.88,-433.25 616.21,-433.25 654.57,-417.58 682.22,-403.13"/>
<polygon fill="black" stroke="black" points="683.81,-406.25 690.94,-398.4 680.48,-400.09 683.81,-406.25"/>
<text xml:space="preserve" text-anchor="middle" x="448.12" y="-435.2" font-family="Helvetica,sans-Serif" font-size="9.00">9</text>
</g>
<!-- כו&quot;ק&#45;&gt;מ:קמץ -->
<g id="edge24" class="edge">
<title>כו&quot;ק&#45;&gt;מ:קמץ</title>
<path fill="none" stroke="black" d="M189.2,-547.77C214.85,-543.54 254.51,-534.83 285.25,-518.25 291.74,-514.75 298.06,-510.13 303.8,-505.29"/>
<polygon fill="black" stroke="black" points="306.08,-507.95 311.16,-498.65 301.39,-502.75 306.08,-507.95"/>
<text xml:space="preserve" text-anchor="middle" x="258.25" y="-540.02" font-family="Helvetica,sans-Serif" font-size="9.00">10</text>
</g>
<!-- מ:אות&#45;מיוחדת&#45;במילה&#45;&gt;מ:אות תלויה, … -->
<g id="edge25" class="edge">
<title>מ:אות&#45;מיוחדת&#45;במילה&#45;&gt;מ:אות תלויה, …</title>
<path fill="none" stroke="black" d="M601.73,-591.74C625.76,-612.06 664.51,-644.83 691.45,-667.62"/>
<polygon fill="black" stroke="black" points="689.05,-670.18 698.95,-673.96 693.57,-664.83 689.05,-670.18"/>
<text xml:space="preserve" text-anchor="middle" x="657" y="-642.38" font-family="Helvetica,sans-Serif" font-size="9.00">97</text>
</g>
<!-- מ:אות&#45;מיוחדת&#45;במילה&#45;&gt;מ:לגרמיה&#45;2 -->
<g id="edge26" class="edge">
<title>מ:אות&#45;מיוחדת&#45;במילה&#45;&gt;מ:לגרמיה&#45;2</title>
<path fill="none" stroke="black" d="M593.22,-555C618.2,-520.84 672.15,-447.08 701.58,-406.83"/>
<polygon fill="black" stroke="black" points="704.36,-408.95 707.44,-398.82 698.71,-404.82 704.36,-408.95"/>
<text xml:space="preserve" text-anchor="middle" x="657" y="-472.38" font-family="Helvetica,sans-Serif" font-size="9.00">4</text>
</g>
<!-- מ:דחי&#45;&gt;מ:אות&#45;מיוחדת&#45;במילה -->
<g id="edge27" class="edge">
<title>מ:דחי&#45;&gt;מ:אות&#45;מיוחדת&#45;במילה</title>
<path fill="none" stroke="black" d="M475.49,-541.44C486.46,-544.85 499.73,-548.97 513.02,-553.1"/>
<polygon fill="black" stroke="black" points="511.61,-556.33 522.2,-555.95 513.69,-549.64 511.61,-556.33"/>
<text xml:space="preserve" text-anchor="middle" x="503.38" y="-552.81" font-family="Helvetica,sans-Serif" font-size="9.00">6</text>
</g>
<!-- מ:קמץ&#45;&gt;מ:דחי -->
<g id="edge34" class="edge">
<title>מ:קמץ&#45;&gt;מ:דחי</title>
<path fill="none" stroke="black" d="M357.54,-491.23C369.19,-496.56 383.04,-502.93 395.5,-508.75 400.36,-511.02 405.46,-513.42 410.5,-515.8"/>
<polygon fill="black" stroke="black" points="408.72,-518.83 419.26,-519.95 411.72,-512.5 408.72,-518.83"/>
<text xml:space="preserve" text-anchor="middle" x="385.38" y="-510.7" font-family="Helvetica,sans-Serif" font-size="9.00">14</text>
</g>
<!-- מ:קמץ&#45;&gt;מ:מקף אפור -->
<g id="edge35" class="edge">
<title>מ:קמץ&#45;&gt;מ:מקף אפור</title>
<path fill="none" stroke="black" d="M337.17,-460.98C348.55,-427.48 375.76,-354.83 413.5,-302.25 414.91,-300.28 416.46,-298.33 418.08,-296.43"/>
<polygon fill="black" stroke="black" points="420.26,-299.22 424.54,-289.53 415.15,-294.44 420.26,-299.22"/>
<text xml:space="preserve" text-anchor="middle" x="385.38" y="-368.75" font-family="Helvetica,sans-Serif" font-size="9.00">2</text>
</g>
<!-- קו&quot;כ&#45;&gt;מ:לגרמיה&#45;2 -->
<g id="edge36" class="edge">
<title>קו&quot;כ&#45;&gt;מ:לגרמיה&#45;2</title>
<path fill="none" stroke="black" d="M285.55,-92.91C310.83,-96.11 350.14,-100.25 384.38,-100.25 384.38,-100.25 384.38,-100.25 579.88,-100.25 690.83,-100.25 715.05,-277.74 720.3,-349.59"/>
<polygon fill="black" stroke="black" points="716.8,-349.68 720.94,-359.43 723.79,-349.23 716.8,-349.68"/>
<text xml:space="preserve" text-anchor="middle" x="448.12" y="-102.2" font-family="Helvetica,sans-Serif" font-size="9.00">1</text>
</g>
<!-- קו&quot;כ&#45;אם&#45;&gt;מ:דחי -->
<g id="edge37" class="edge">
<title>קו&quot;כ&#45;אם&#45;&gt;מ:דחי</title>
<path fill="none" stroke="black" d="M189.47,-438.96C197.32,-442.52 205.8,-446.73 213.25,-451.25 221.91,-456.51 222.82,-459.62 231.25,-465.25 261.86,-485.72 268.68,-493.57 303.25,-506.25 338.11,-519.04 380.04,-526.02 409.62,-529.66"/>
<polygon fill="black" stroke="black" points="408.86,-533.1 419.2,-530.77 409.66,-526.15 408.86,-533.1"/>
<text xml:space="preserve" text-anchor="middle" x="330.25" y="-523.03" font-family="Helvetica,sans-Serif" font-size="9.00">4</text>
</g>
<!-- קו&quot;כ&#45;אם&#45;&gt;מ:לגרמיה&#45;2 -->
<g id="edge38" class="edge">
<title>קו&quot;כ&#45;אם&#45;&gt;מ:לגרמיה&#45;2</title>
<path fill="none" stroke="black" d="M189.59,-415.44C237.64,-392.46 337.71,-345.88 375.25,-338.25 482.71,-316.4 611.46,-345.95 677.65,-365.14"/>
<polygon fill="black" stroke="black" points="676.46,-368.44 687.04,-367.92 678.45,-361.72 676.46,-368.44"/>
<text xml:space="preserve" text-anchor="middle" x="448.12" y="-334.56" font-family="Helvetica,sans-Serif" font-size="9.00">2</text>
</g>
<!-- קו&quot;כ&#45;אם&#45;&gt;מ:קמץ -->
<g id="edge39" class="edge">
<title>קו&quot;כ&#45;אם&#45;&gt;מ:קמץ</title>
<path fill="none" stroke="black" d="M189.49,-431.68C214.67,-435.48 253.38,-442.72 285.25,-454.75 287.73,-455.69 290.25,-456.75 292.75,-457.89"/>
<polygon fill="black" stroke="black" points="290.99,-460.92 301.51,-462.24 294.11,-454.66 290.99,-460.92"/>
<text xml:space="preserve" text-anchor="middle" x="258.25" y="-456.7" font-family="Helvetica,sans-Serif" font-size="9.00">1</text>
</g>
</g>
</svg>
