<?xml version="1.0" encoding="UTF-8" standalone="no"?>
<!DOCTYPE svg PUBLIC "-//W3C//DTD SVG 1.1//EN"
 "http://www.w3.org/Graphics/SVG/1.1/DTD/svg11.dtd">
<!-- Generated by graphviz version 14.1.2 (20260124.0452)
 -->
<!-- This file was generated by MAM&#45;basics/py/main_tmpl_survey.py. -->
<!-- Title: template_call_graph Pages: 1 -->
<svg width="534pt" height="218pt"
 viewBox="0.00 0.00 534.00 218.00" xmlns="http://www.w3.org/2000/svg" xmlns:xlink="http://www.w3.org/1999/xlink">
<g id="graph0" class="graph" transform="scale(1 1) rotate(0) translate(4 214.25)">
<title>template_call_graph</title>
<polygon fill="white" stroke="none" points="-4,4 -4,-214.25 529.5,-214.25 529.5,4 -4,4"/>
<text xml:space="preserve" text-anchor="middle" x="262.75" y="-5.75" font-family="Times New Roman,serif" font-size="10.00">מ:כפול, מ:קישור בהערה, מ:קישור פנימי בהערה, מודגש, נוסח, ש have been discarded</text>
<!-- E -->
<g id="node1" class="node">
<title>E</title>
<polygon fill="none" stroke="black" stroke-width="2" points="54,-149.25 0,-149.25 0,-113.25 54,-113.25 54,-149.25"/>
<text xml:space="preserve" text-anchor="middle" x="27" y="-126.22" font-family="SBL Hebrew,Helvetica" font-size="12.00">E</text>
</g>
<!-- כו״ק -->
<g id="node2" class="node">
<title>כו״ק</title>
<polygon fill="none" stroke="black" points="164,-210.25 110,-210.25 110,-174.25 164,-174.25 164,-210.25"/>
<text xml:space="preserve" text-anchor="middle" x="137" y="-187.22" font-family="SBL Hebrew,Helvetica" font-size="12.00">כו״ק</text>
</g>
<!-- E&#45;&gt;כו״ק -->
<g id="edge1" class="edge">
<title>E&#45;&gt;כו״ק</title>
<path fill="none" stroke="black" d="M54.29,-148.52C60.06,-152.17 66.19,-155.91 72,-159.25 80.73,-164.26 90.29,-169.39 99.31,-174.05"/>
<polygon fill="black" stroke="black" points="97.71,-177.17 108.21,-178.6 100.9,-170.94 97.71,-177.17"/>
<text xml:space="preserve" text-anchor="middle" x="77.25" y="-166.96" font-family="Helvetica,sans-Serif" font-size="9.00">7</text>
</g>
<!-- מ:דחי -->
<g id="node3" class="node">
<title>מ:דחי</title>
<polygon fill="none" stroke="black" points="274,-149.25 220,-149.25 220,-113.25 274,-113.25 274,-149.25"/>
<text xml:space="preserve" text-anchor="middle" x="247" y="-126.22" font-family="SBL Hebrew,Helvetica" font-size="12.00">מ:דחי</text>
</g>
<!-- E&#45;&gt;מ:דחי -->
<g id="edge2" class="edge">
<title>E&#45;&gt;מ:דחי</title>
<path fill="none" stroke="black" d="M54.3,-131.25C92.68,-131.25 164.25,-131.25 208.25,-131.25"/>
<polygon fill="black" stroke="black" points="208.1,-134.75 218.1,-131.25 208.1,-127.75 208.1,-134.75"/>
<text xml:space="preserve" text-anchor="middle" x="137" y="-133.2" font-family="Helvetica,sans-Serif" font-size="9.00">2299</text>
</g>
<!-- מ:קו״כ&#45;אם&#45;2 -->
<g id="node4" class="node">
<title>מ:קו״כ&#45;אם&#45;2</title>
<polygon fill="none" stroke="black" points="173.5,-109.25 100.5,-109.25 100.5,-73.25 173.5,-73.25 173.5,-109.25"/>
<text xml:space="preserve" text-anchor="middle" x="137" y="-86.22" font-family="SBL Hebrew,Helvetica" font-size="12.00">מ:קו״כ&#45;אם&#45;2</text>
</g>
<!-- E&#45;&gt;מ:קו״כ&#45;אם&#45;2 -->
<g id="edge3" class="edge">
<title>E&#45;&gt;מ:קו״כ&#45;אם&#45;2</title>
<path fill="none" stroke="black" d="M54.42,-121.46C64.94,-117.57 77.37,-112.97 89.31,-108.54"/>
<polygon fill="black" stroke="black" points="90.49,-111.84 98.65,-105.08 88.06,-105.27 90.49,-111.84"/>
<text xml:space="preserve" text-anchor="middle" x="77.25" y="-116.78" font-family="Helvetica,sans-Serif" font-size="9.00">8</text>
</g>
<!-- מ:קמץ -->
<g id="node5" class="node">
<title>מ:קמץ</title>
<polygon fill="none" stroke="black" points="164,-55.25 110,-55.25 110,-19.25 164,-19.25 164,-55.25"/>
<text xml:space="preserve" text-anchor="middle" x="137" y="-32.23" font-family="SBL Hebrew,Helvetica" font-size="12.00">מ:קמץ</text>
</g>
<!-- E&#45;&gt;מ:קמץ -->
<g id="edge4" class="edge">
<title>E&#45;&gt;מ:קמץ</title>
<path fill="none" stroke="black" d="M46.93,-112.82C61.3,-99.06 81.73,-80 100.5,-64.25 101.15,-63.71 101.8,-63.16 102.46,-62.62"/>
<polygon fill="black" stroke="black" points="104.51,-65.46 110.13,-56.48 100.14,-60 104.51,-65.46"/>
<text xml:space="preserve" text-anchor="middle" x="77.25" y="-89.48" font-family="Helvetica,sans-Serif" font-size="9.00">14</text>
</g>
<!-- כו״ק&#45;&gt;מ:דחי -->
<g id="edge5" class="edge">
<title>כו״ק&#45;&gt;מ:דחי</title>
<path fill="none" stroke="black" d="M164.44,-179.29C176.09,-173.41 189.86,-166.22 202,-159.25 204.63,-157.74 207.33,-156.14 210.03,-154.51"/>
<polygon fill="black" stroke="black" points="211.76,-157.55 218.43,-149.32 208.08,-151.6 211.76,-157.55"/>
<text xml:space="preserve" text-anchor="middle" x="196.75" y="-166.96" font-family="Helvetica,sans-Serif" font-size="9.00">7</text>
</g>
<!-- מ:אות&#45;מיוחדת&#45;במילה -->
<g id="node6" class="node">
<title>מ:אות&#45;מיוחדת&#45;במילה</title>
<polygon fill="none" stroke="black" points="430.25,-149.25 320.5,-149.25 320.5,-113.25 430.25,-113.25 430.25,-149.25"/>
<text xml:space="preserve" text-anchor="middle" x="375.38" y="-126.22" font-family="SBL Hebrew,Helvetica" font-size="12.00">מ:אות&#45;מיוחדת&#45;במילה</text>
</g>
<!-- מ:דחי&#45;&gt;מ:אות&#45;מיוחדת&#45;במילה -->
<g id="edge8" class="edge">
<title>מ:דחי&#45;&gt;מ:אות&#45;מיוחדת&#45;במילה</title>
<path fill="none" stroke="black" d="M274.49,-131.25C284.63,-131.25 296.7,-131.25 308.89,-131.25"/>
<polygon fill="black" stroke="black" points="308.54,-134.75 318.54,-131.25 308.54,-127.75 308.54,-134.75"/>
<text xml:space="preserve" text-anchor="middle" x="297.25" y="-133.2" font-family="Helvetica,sans-Serif" font-size="9.00">12</text>
</g>
<!-- מ:קו״כ&#45;אם&#45;2&#45;&gt;מ:דחי -->
<g id="edge9" class="edge">
<title>מ:קו״כ&#45;אם&#45;2&#45;&gt;מ:דחי</title>
<path fill="none" stroke="black" d="M173.96,-104.57C185.31,-108.77 197.86,-113.42 209.26,-117.64"/>
<polygon fill="black" stroke="black" points="207.74,-120.81 218.34,-121 210.18,-114.25 207.74,-120.81"/>
<text xml:space="preserve" text-anchor="middle" x="196.75" y="-116.78" font-family="Helvetica,sans-Serif" font-size="9.00">8</text>
</g>
<!-- מ:קמץ&#45;&gt;מ:דחי -->
<g id="edge10" class="edge">
<title>מ:קמץ&#45;&gt;מ:דחי</title>
<path fill="none" stroke="black" d="M162.68,-55.54C166.36,-58.4 170.06,-61.36 173.5,-64.25 188.9,-77.17 205.41,-92.32 218.78,-104.94"/>
<polygon fill="black" stroke="black" points="216.31,-107.42 225.97,-111.78 221.13,-102.35 216.31,-107.42"/>
<text xml:space="preserve" text-anchor="middle" x="196.75" y="-89.48" font-family="Helvetica,sans-Serif" font-size="9.00">14</text>
</g>
<!-- מ:אות&#45;ג -->
<g id="node7" class="node">
<title>מ:אות&#45;ג</title>
<polygon fill="none" stroke="black" points="525.5,-176.25 471.5,-176.25 471.5,-140.25 525.5,-140.25 525.5,-176.25"/>
<text xml:space="preserve" text-anchor="middle" x="498.5" y="-153.22" font-family="SBL Hebrew,Helvetica" font-size="12.00">מ:אות&#45;ג</text>
</g>
<!-- מ:אות&#45;מיוחדת&#45;במילה&#45;&gt;מ:אות&#45;ג -->
<g id="edge6" class="edge">
<title>מ:אות&#45;מיוחדת&#45;במילה&#45;&gt;מ:אות&#45;ג</title>
<path fill="none" stroke="black" d="M430.56,-143.33C440.59,-145.56 450.86,-147.85 460.24,-149.95"/>
<polygon fill="black" stroke="black" points="459.18,-153.29 469.7,-152.05 460.7,-146.46 459.18,-153.29"/>
<text xml:space="preserve" text-anchor="middle" x="450.88" y="-149.91" font-family="Helvetica,sans-Serif" font-size="9.00">4</text>
</g>
<!-- מ:אות&#45;ק -->
<g id="node8" class="node">
<title>מ:אות&#45;ק</title>
<polygon fill="none" stroke="black" points="525.5,-122.25 471.5,-122.25 471.5,-86.25 525.5,-86.25 525.5,-122.25"/>
<text xml:space="preserve" text-anchor="middle" x="498.5" y="-99.22" font-family="SBL Hebrew,Helvetica" font-size="12.00">מ:אות&#45;ק</text>
</g>
<!-- מ:אות&#45;מיוחדת&#45;במילה&#45;&gt;מ:אות&#45;ק -->
<g id="edge7" class="edge">
<title>מ:אות&#45;מיוחדת&#45;במילה&#45;&gt;מ:אות&#45;ק</title>
<path fill="none" stroke="black" d="M430.56,-119.17C440.59,-116.94 450.86,-114.65 460.24,-112.55"/>
<polygon fill="black" stroke="black" points="460.7,-116.04 469.7,-110.45 459.18,-109.21 460.7,-116.04"/>
<text xml:space="preserve" text-anchor="middle" x="450.88" y="-116.49" font-family="Helvetica,sans-Serif" font-size="9.00">2</text>
</g>
</g>
</svg>
