<?xml version="1.0" encoding="UTF-8" standalone="no"?>
<!DOCTYPE svg PUBLIC "-//W3C//DTD SVG 1.1//EN"
 "http://www.w3.org/Graphics/SVG/1.1/DTD/svg11.dtd">
<!-- Generated by graphviz version 14.1.2 (20260124.0452)
 -->
<!-- This file was generated by MAM&#45;basics/py/main_tmpl_survey.py. -->
<!-- Title: template_call_graph Pages: 1 -->
<svg width="525pt" height="206pt"
 viewBox="0.00 0.00 525.00 206.00" xmlns="http://www.w3.org/2000/svg" xmlns:xlink="http://www.w3.org/1999/xlink">
<g id="graph0" class="graph" transform="scale(1 1) rotate(0) translate(4 202)">
<title>template_call_graph</title>
<polygon fill="white" stroke="none" points="-4,4 -4,-202 521,-202 521,4 -4,4"/>
<!-- E -->
<g id="node1" class="node">
<title>E</title>
<polygon fill="none" stroke="black" stroke-width="2" points="54,-117 0,-117 0,-81 54,-81 54,-117"/>
<text xml:space="preserve" text-anchor="middle" x="27" y="-93.97" font-family="SBL Hebrew,Helvetica" font-size="12.00">E</text>
</g>
<!-- כו״ק -->
<g id="node2" class="node">
<title>כו״ק</title>
<polygon fill="none" stroke="black" points="265.5,-117 211.5,-117 211.5,-81 265.5,-81 265.5,-117"/>
<text xml:space="preserve" text-anchor="middle" x="238.5" y="-93.97" font-family="SBL Hebrew,Helvetica" font-size="12.00">כו״ק</text>
</g>
<!-- E&#45;&gt;כו״ק -->
<g id="edge1" class="edge">
<title>E&#45;&gt;כו״ק</title>
<path fill="none" stroke="black" d="M54.04,-101.07C59.94,-101.46 66.18,-101.8 72,-102 125.97,-103.84 139.53,-103.84 193.5,-102 195.68,-101.93 197.92,-101.83 200.18,-101.72"/>
<polygon fill="black" stroke="black" points="200.16,-105.23 209.95,-101.16 199.76,-98.24 200.16,-105.23"/>
<text xml:space="preserve" text-anchor="middle" x="132.75" y="-105.33" font-family="Helvetica,sans-Serif" font-size="9.00">763</text>
</g>
<!-- נוסח -->
<g id="node3" class="node">
<title>נוסח</title>
<polygon fill="none" stroke="black" points="159.75,-90 105.75,-90 105.75,-54 159.75,-54 159.75,-90"/>
<text xml:space="preserve" text-anchor="middle" x="132.75" y="-66.97" font-family="SBL Hebrew,Helvetica" font-size="12.00">נוסח</text>
</g>
<!-- E&#45;&gt;נוסח -->
<g id="edge2" class="edge">
<title>E&#45;&gt;נוסח</title>
<path fill="none" stroke="black" d="M54.45,-92.12C66.52,-88.98 81.04,-85.2 94.21,-81.77"/>
<polygon fill="black" stroke="black" points="95.09,-85.16 103.88,-79.25 93.33,-78.38 95.09,-85.16"/>
<text xml:space="preserve" text-anchor="middle" x="79.88" y="-89.07" font-family="Helvetica,sans-Serif" font-size="9.00">149</text>
</g>
<!-- מ:אות&#45;מיוחדת&#45;במילה -->
<g id="node4" class="node">
<title>מ:אות&#45;מיוחדת&#45;במילה</title>
<polygon fill="none" stroke="black" points="421.75,-198 312,-198 312,-162 421.75,-162 421.75,-198"/>
<text xml:space="preserve" text-anchor="middle" x="366.88" y="-174.97" font-family="SBL Hebrew,Helvetica" font-size="12.00">מ:אות&#45;מיוחדת&#45;במילה</text>
</g>
<!-- כו״ק&#45;&gt;מ:אות&#45;מיוחדת&#45;במילה -->
<g id="edge3" class="edge">
<title>כו״ק&#45;&gt;מ:אות&#45;מיוחדת&#45;במילה</title>
<path fill="none" stroke="black" d="M261.96,-117.33C275.92,-128.32 294.5,-142.21 312,-153 313.8,-154.11 315.66,-155.22 317.55,-156.31"/>
<polygon fill="black" stroke="black" points="315.4,-159.12 325.84,-160.9 318.79,-152.99 315.4,-159.12"/>
<text xml:space="preserve" text-anchor="middle" x="288.75" y="-142.68" font-family="Helvetica,sans-Serif" font-size="9.00">2</text>
</g>
<!-- מ:דחי -->
<g id="node5" class="node">
<title>מ:דחי</title>
<polygon fill="none" stroke="black" points="393.88,-144 339.88,-144 339.88,-108 393.88,-108 393.88,-144"/>
<text xml:space="preserve" text-anchor="middle" x="366.88" y="-120.97" font-family="SBL Hebrew,Helvetica" font-size="12.00">מ:דחי</text>
</g>
<!-- כו״ק&#45;&gt;מ:דחי -->
<g id="edge4" class="edge">
<title>כו״ק&#45;&gt;מ:דחי</title>
<path fill="none" stroke="black" d="M265.99,-104.66C284.02,-108.51 308.15,-113.67 328.18,-117.95"/>
<polygon fill="black" stroke="black" points="327.43,-121.36 337.94,-120.03 328.89,-114.52 327.43,-121.36"/>
<text xml:space="preserve" text-anchor="middle" x="288.75" y="-112.03" font-family="Helvetica,sans-Serif" font-size="9.00">7</text>
</g>
<!-- מ:לגרמיה&#45;2 -->
<g id="node6" class="node">
<title>מ:לגרמיה&#45;2</title>
<polygon fill="none" stroke="black" points="400.75,-90 333,-90 333,-54 400.75,-54 400.75,-90"/>
<text xml:space="preserve" text-anchor="middle" x="366.88" y="-66.97" font-family="SBL Hebrew,Helvetica" font-size="12.00">מ:לגרמיה&#45;2</text>
</g>
<!-- כו״ק&#45;&gt;מ:לגרמיה&#45;2 -->
<g id="edge5" class="edge">
<title>כו״ק&#45;&gt;מ:לגרמיה&#45;2</title>
<path fill="none" stroke="black" d="M265.99,-93.34C282.06,-89.91 302.96,-85.44 321.49,-81.48"/>
<polygon fill="black" stroke="black" points="322.13,-84.93 331.18,-79.41 320.67,-78.08 322.13,-84.93"/>
<text xml:space="preserve" text-anchor="middle" x="288.75" y="-91.45" font-family="Helvetica,sans-Serif" font-size="9.00">9</text>
</g>
<!-- מ:קמץ -->
<g id="node7" class="node">
<title>מ:קמץ</title>
<polygon fill="none" stroke="black" points="393.88,-36 339.88,-36 339.88,0 393.88,0 393.88,-36"/>
<text xml:space="preserve" text-anchor="middle" x="366.88" y="-12.97" font-family="SBL Hebrew,Helvetica" font-size="12.00">מ:קמץ</text>
</g>
<!-- כו״ק&#45;&gt;מ:קמץ -->
<g id="edge6" class="edge">
<title>כו״ק&#45;&gt;מ:קמץ</title>
<path fill="none" stroke="black" d="M261.96,-80.67C275.92,-69.68 294.5,-55.79 312,-45 317.59,-41.55 323.68,-38.17 329.69,-35.03"/>
<polygon fill="black" stroke="black" points="330.92,-38.33 338.26,-30.69 327.76,-32.09 330.92,-38.33"/>
<text xml:space="preserve" text-anchor="middle" x="288.75" y="-65.01" font-family="Helvetica,sans-Serif" font-size="9.00">10</text>
</g>
<!-- נוסח&#45;&gt;כו״ק -->
<g id="edge8" class="edge">
<title>נוסח&#45;&gt;כו״ק</title>
<path fill="none" stroke="black" d="M160.2,-78.88C172.27,-82.02 186.79,-85.8 199.96,-89.23"/>
<polygon fill="black" stroke="black" points="199.08,-92.62 209.63,-91.75 200.84,-85.84 199.08,-92.62"/>
<text xml:space="preserve" text-anchor="middle" x="185.62" y="-89.07" font-family="Helvetica,sans-Serif" font-size="9.00">149</text>
</g>
<!-- מ:אות&#45;ק -->
<g id="node8" class="node">
<title>מ:אות&#45;ק</title>
<polygon fill="none" stroke="black" points="517,-198 463,-198 463,-162 517,-162 517,-198"/>
<text xml:space="preserve" text-anchor="middle" x="490" y="-174.97" font-family="SBL Hebrew,Helvetica" font-size="12.00">מ:אות&#45;ק</text>
</g>
<!-- מ:אות&#45;מיוחדת&#45;במילה&#45;&gt;מ:אות&#45;ק -->
<g id="edge7" class="edge">
<title>מ:אות&#45;מיוחדת&#45;במילה&#45;&gt;מ:אות&#45;ק</title>
<path fill="none" stroke="black" d="M422.06,-180C431.98,-180 442.13,-180 451.43,-180"/>
<polygon fill="black" stroke="black" points="451.17,-183.5 461.17,-180 451.17,-176.5 451.17,-183.5"/>
<text xml:space="preserve" text-anchor="middle" x="442.38" y="-181.95" font-family="Helvetica,sans-Serif" font-size="9.00">1</text>
</g>
</g>
</svg>
