<?xml version="1.0" encoding="UTF-8" standalone="no"?>
<!DOCTYPE svg PUBLIC "-//W3C//DTD SVG 1.1//EN"
 "http://www.w3.org/Graphics/SVG/1.1/DTD/svg11.dtd">
<!-- Generated by graphviz version 14.1.2 (20260124.0452)
 -->
<!-- Title: template_call_graph Pages: 1 -->
<svg width="801pt" height="1251pt"
 viewBox="0.00 0.00 801.00 1251.00" xmlns="http://www.w3.org/2000/svg" xmlns:xlink="http://www.w3.org/1999/xlink">
<g id="graph0" class="graph" transform="scale(1 1) rotate(0) translate(4 1246.75)">
<title>template_call_graph</title>
<polygon fill="white" stroke="none" points="-4,4 -4,-1246.75 797.25,-1246.75 797.25,4 -4,4"/>
<text xml:space="preserve" text-anchor="middle" x="396.62" y="-5.75" font-family="Times New Roman,serif" font-size="10.00">מ:כפול, נוסח, ש have been discarded</text>
<!-- C -->
<g id="node1" class="node">
<title>C</title>
<polygon fill="none" stroke="black" stroke-width="2" points="54,-191.25 0,-191.25 0,-155.25 54,-155.25 54,-191.25"/>
<text xml:space="preserve" text-anchor="middle" x="27" y="-168.22" font-family="SBL Hebrew,Helvetica" font-size="12.00">C</text>
</g>
<!-- #בלי קטע: -->
<g id="node4" class="node">
<title>#בלי קטע:</title>
<g id="a_node4"><a xlink:title="#בלי קטע:&#10;#בלי קטע:דברי הימים א טז/טעמים&#10;#בלי קטע:דברים לב/טעמים&#10;#בלי קטע:יהושע יב/טעמים&#10;#בלי קטע:מלכי כנען/צורת השיר&#10;#בלי קטע:עשרת בני המן/צורת השיר&#10;#בלי קטע:שופטים ה/טעמים&#10;#בלי קטע:שירת אסף/צורת השיר&#10;#בלי קטע:שירת דבורה/צורת השיר&#10;#בלי קטע:שירת דוד/צורת השיר&#10;#בלי קטע:שירת האזינו/צורת השיר&#10;#בלי קטע:שירת הים/צורת השיר&#10;#בלי קטע:שירת העתים/צורת השיר&#10;#בלי קטע:שמואל ב כב/טעמים&#10;#בלי קטע:שמות טו/טעמים&#10;#קטע:אסתר ט/טעמים&#10;#קטע:דברי הימים א טז/טעמים&#10;#קטע:דברים לב/טעמים&#10;#קטע:יהושע יב/טעמים&#10;#קטע:מלכי כנען/צורות נוספות&#10;#קטע:מלכי כנען/צורת השיר&#10;#קטע:עשרת בני המן/צורות נוספות&#10;#קטע:עשרת בני המן/צורת השיר&#10;#קטע:עשרת הדברות בסיס/טעמים&#10;#קטע:עשרת הדברות/טעמים&#10;#קטע:קהלת ג/טעמים&#10;#קטע:שירת אסף/צורות נוספות&#10;#קטע:שירת אסף/צורת השיר&#10;#קטע:שירת דבורה/צורות נוספות&#10;#קטע:שירת דבורה/צורת השיר&#10;#קטע:שירת דוד/צורות נוספות&#10;#קטע:שירת דוד/צורת השיר&#10;#קטע:שירת האזינו/צורות נוספות&#10;#קטע:שירת האזינו/צורת השיר&#10;#קטע:שירת הים/צורות נוספות&#10;#קטע:שירת הים/צורת השיר&#10;#קטע:שירת העתים/צורות נוספות&#10;#קטע:שירת העתים/צורת השיר&#10;#קטע:שמות טו/טעמים&#10;בסיס&#45;משתמש&#10;טעמי המקרא באינטרנט&#10;מ:אין פרשה בתחילת פרק&#10;מ:אין פרשה בתחילת פרק בספרי אמ&quot;ת&#10;מ:אין רווח של פרשה בתחילת פרשת השבוע&#10;מ:טעמי המקרא&#10;מ:טעמי המקרא&#45;סוף&#10;מ:יישור&#45;בשני&#45;הצדדים&#10;מ:יישור&#45;בשני&#45;הצדדים&#45;סוף&#10;מ:סיום בטוב&#10;מ:ספר חדש&#10;מ:רווח בתרי עשר&#10;מ:רווח בתרי עשר בפסוק הראשון&#10;מ:רווח לספר בתהלים&#10;מ:רווח לספר בתהלים בפסוק הראשון&#10;מ:שוליים&#10;מ:שוליים&#45;סוף&#10;ניווט טעמים&#10;עוגן בשורה&#10;צורות כתיבה בספרי אמ&quot;ת&#10;ר4">
<polygon fill="none" stroke="black" points="226.38,-119.25 148.12,-119.25 148.12,-83.25 226.38,-83.25 226.38,-119.25"/>
<text xml:space="preserve" text-anchor="middle" x="187.25" y="-96.22" font-family="SBL Hebrew,Helvetica" font-size="12.00">#בלי קטע:, …</text>
</a>
</g>
</g>
<!-- C&#45;&gt;#בלי קטע: -->
<g id="edge1" class="edge">
<title>C&#45;&gt;#בלי קטע:</title>
<path fill="none" stroke="black" d="M43.04,-154.85C50.86,-146.38 61.06,-136.87 72,-130.75 91.76,-119.69 115.75,-112.68 136.64,-108.29"/>
<polygon fill="black" stroke="black" points="137.25,-111.73 146.4,-106.39 135.91,-104.86 137.25,-111.73"/>
<text xml:space="preserve" text-anchor="middle" x="85.12" y="-132.7" font-family="Helvetica,sans-Serif" font-size="9.00">13315</text>
</g>
<!-- מ:קישור בהערה -->
<g id="node9" class="node">
<title>מ:קישור בהערה</title>
<g id="a_node9"><a xlink:title="מ:קישור בהערה&#10;מ:ששש&#10;סס&#10;ססס&#10;פפ&#10;פפפ&#10;ר1">
<polygon fill="none" stroke="black" points="238.38,-322.25 136.12,-322.25 136.12,-286.25 238.38,-286.25 238.38,-322.25"/>
<text xml:space="preserve" text-anchor="middle" x="187.25" y="-299.23" font-family="SBL Hebrew,Helvetica" font-size="12.00">מ:קישור בהערה, …</text>
</a>
</g>
</g>
<!-- C&#45;&gt;מ:קישור בהערה -->
<g id="edge4" class="edge">
<title>C&#45;&gt;מ:קישור בהערה</title>
<path fill="none" stroke="black" d="M41.77,-191.48C61.85,-217.68 98.7,-264.16 116.25,-276.25 119.27,-278.33 122.46,-280.29 125.76,-282.13"/>
<polygon fill="black" stroke="black" points="124.04,-285.18 134.54,-286.61 127.22,-278.95 124.04,-285.18"/>
<text xml:space="preserve" text-anchor="middle" x="85.12" y="-260.92" font-family="Helvetica,sans-Serif" font-size="9.00">3523</text>
</g>
<!-- מ:הערה -->
<g id="node11" class="node">
<title>מ:הערה</title>
<polygon fill="none" stroke="black" points="489.5,-410.25 435.5,-410.25 435.5,-374.25 489.5,-374.25 489.5,-410.25"/>
<text xml:space="preserve" text-anchor="middle" x="462.5" y="-387.23" font-family="SBL Hebrew,Helvetica" font-size="12.00">מ:הערה</text>
</g>
<!-- C&#45;&gt;מ:הערה -->
<g id="edge2" class="edge">
<title>C&#45;&gt;מ:הערה</title>
<path fill="none" stroke="black" d="M54.3,-164.53C123.94,-143.25 314.83,-97.12 417.5,-192.25 442.07,-215.02 454.31,-312.66 459.06,-362.59"/>
<polygon fill="black" stroke="black" points="455.56,-362.75 459.95,-372.39 462.53,-362.11 455.56,-362.75"/>
<text xml:space="preserve" text-anchor="middle" x="187.25" y="-150.36" font-family="Helvetica,sans-Serif" font-size="9.00">4</text>
</g>
<!-- מ:פסוק -->
<g id="node12" class="node">
<title>מ:פסוק</title>
<polygon fill="none" stroke="black" points="214.25,-62.25 160.25,-62.25 160.25,-26.25 214.25,-26.25 214.25,-62.25"/>
<text xml:space="preserve" text-anchor="middle" x="187.25" y="-39.23" font-family="SBL Hebrew,Helvetica" font-size="12.00">מ:פסוק</text>
</g>
<!-- C&#45;&gt;מ:פסוק -->
<g id="edge3" class="edge">
<title>C&#45;&gt;מ:פסוק</title>
<path fill="none" stroke="black" d="M37.39,-155.03C45.37,-140.64 57.76,-120.59 72,-105.75 93.51,-83.34 124.99,-67.23 149.46,-57.13"/>
<polygon fill="black" stroke="black" points="150.73,-60.4 158.75,-53.47 148.16,-53.89 150.73,-60.4"/>
<text xml:space="preserve" text-anchor="middle" x="85.12" y="-107.7" font-family="Helvetica,sans-Serif" font-size="9.00">81</text>
</g>
<!-- מודגש -->
<g id="node13" class="node">
<title>מודגש</title>
<polygon fill="none" stroke="black" points="214.25,-267.25 160.25,-267.25 160.25,-231.25 214.25,-231.25 214.25,-267.25"/>
<text xml:space="preserve" text-anchor="middle" x="187.25" y="-244.22" font-family="SBL Hebrew,Helvetica" font-size="12.00">מודגש</text>
</g>
<!-- C&#45;&gt;מודגש -->
<g id="edge5" class="edge">
<title>C&#45;&gt;מודגש</title>
<path fill="none" stroke="black" d="M54.02,-191.58C59.81,-195.33 66.02,-199.08 72,-202.25 97.09,-215.52 126.77,-227.63 149.59,-236.24"/>
<polygon fill="black" stroke="black" points="148.18,-239.44 158.78,-239.64 150.62,-232.88 148.18,-239.44"/>
<text xml:space="preserve" text-anchor="middle" x="85.12" y="-216.12" font-family="Helvetica,sans-Serif" font-size="9.00">2</text>
</g>
<!-- קק -->
<g id="node14" class="node">
<title>קק</title>
<polygon fill="none" stroke="black" points="417.5,-237.25 363.5,-237.25 363.5,-201.25 417.5,-201.25 417.5,-237.25"/>
<text xml:space="preserve" text-anchor="middle" x="390.5" y="-214.22" font-family="SBL Hebrew,Helvetica" font-size="12.00">קק</text>
</g>
<!-- C&#45;&gt;קק -->
<g id="edge6" class="edge">
<title>C&#45;&gt;קק</title>
<path fill="none" stroke="black" d="M54.29,-176.6C117.68,-184.66 279.09,-205.2 352.34,-214.52"/>
<polygon fill="black" stroke="black" points="351.45,-217.94 361.81,-215.73 352.33,-210.99 351.45,-217.94"/>
<text xml:space="preserve" text-anchor="middle" x="187.25" y="-204.27" font-family="Helvetica,sans-Serif" font-size="9.00">1</text>
</g>
<!-- D -->
<g id="node2" class="node">
<title>D</title>
<polygon fill="none" stroke="black" stroke-width="2" points="54,-55.25 0,-55.25 0,-19.25 54,-19.25 54,-55.25"/>
<text xml:space="preserve" text-anchor="middle" x="27" y="-32.23" font-family="SBL Hebrew,Helvetica" font-size="12.00">D</text>
</g>
<!-- D&#45;&gt;מ:פסוק -->
<g id="edge7" class="edge">
<title>D&#45;&gt;מ:פסוק</title>
<path fill="none" stroke="black" d="M54.36,-37.56C67.55,-37.78 83.75,-38.14 98.25,-38.75 114.83,-39.44 133.14,-40.54 148.75,-41.57"/>
<polygon fill="black" stroke="black" points="148.36,-45.05 158.57,-42.23 148.83,-38.06 148.36,-45.05"/>
<text xml:space="preserve" text-anchor="middle" x="85.12" y="-40.7" font-family="Helvetica,sans-Serif" font-size="9.00">23202</text>
</g>
<!-- E -->
<g id="node3" class="node">
<title>E</title>
<polygon fill="none" stroke="black" stroke-width="2" points="54,-819.25 0,-819.25 0,-783.25 54,-783.25 54,-819.25"/>
<text xml:space="preserve" text-anchor="middle" x="27" y="-796.23" font-family="SBL Hebrew,Helvetica" font-size="12.00">E</text>
</g>
<!-- ירח בן יומו&#45;2 -->
<g id="node5" class="node">
<title>ירח בן יומו&#45;2</title>
<g id="a_node5"><a xlink:title="ירח בן יומו&#45;2&#10;כתיב ולא קרי&#10;מ:אות מנוקדת&#10;מ:אות תלויה&#10;מ:גרש ותלישא גדולה&#10;מ:גרשיים ותלישא גדולה&#10;מ:טעם ומתג באות אחת&#10;מ:ירושלמה&#10;מ:כו&quot;ק בין שני מקפים&#10;מ:כו&quot;ק כתיב מילה חדה וקרי תרתין מילין בין שני מקפים&#10;מ:כו&quot;ק כתיב תרתין מילין וקרי מילה חדה&#10;מ:כו&quot;ק קרי שונה מהכתיב בשתי מילים&#10;מ:כו&quot;ק של שלוש מילים בהערה אחת&#10;מ:נו&quot;ן הפוכה&#10;מ:צינור&#10;מ:קו&quot;כ קרי שונה מהכתיב בשתי מילים&#10;מ:קישור פנימי בהערה&#10;קרי ולא כתיב&#10;ר0&#10;ר2&#10;ר3&#10;רווח בסוף שורה">
<polygon fill="none" stroke="black" points="230.88,-956.25 143.62,-956.25 143.62,-920.25 230.88,-920.25 230.88,-956.25"/>
<text xml:space="preserve" text-anchor="middle" x="187.25" y="-933.23" font-family="SBL Hebrew,Helvetica" font-size="12.00">ירח … יומו&#45;2, …</text>
</a>
</g>
</g>
<!-- E&#45;&gt;ירח בן יומו&#45;2 -->
<g id="edge9" class="edge">
<title>E&#45;&gt;ירח בן יומו&#45;2</title>
<path fill="none" stroke="black" d="M30.72,-819.66C35.16,-843.16 46.22,-883.48 72,-906.25 88.54,-920.86 111.25,-928.85 132.07,-933.2"/>
<polygon fill="black" stroke="black" points="131.44,-936.64 141.9,-934.98 132.69,-929.75 131.44,-936.64"/>
<text xml:space="preserve" text-anchor="middle" x="85.12" y="-923.61" font-family="Helvetica,sans-Serif" font-size="9.00">1434</text>
</g>
<!-- מ:כו&quot;ק כתיב מילה חדה וקרי תרתין מילין -->
<g id="node6" class="node">
<title>מ:כו&quot;ק כתיב מילה חדה וקרי תרתין מילין</title>
<g id="a_node6"><a xlink:title="מ:כו&quot;ק כתיב מילה חדה וקרי תרתין מילין">
<polygon fill="none" stroke="black" points="228.25,-1165.25 146.25,-1165.25 146.25,-1129.25 228.25,-1129.25 228.25,-1165.25"/>
<text xml:space="preserve" text-anchor="middle" x="187.25" y="-1142.22" font-family="SBL Hebrew,Helvetica" font-size="12.00">מ:כו&quot;ק … מילין</text>
</a>
</g>
</g>
<!-- E&#45;&gt;מ:כו&quot;ק כתיב מילה חדה וקרי תרתין מילין -->
<g id="edge16" class="edge">
<title>E&#45;&gt;מ:כו&quot;ק כתיב מילה חדה וקרי תרתין מילין</title>
<path fill="none" stroke="black" d="M28.77,-819.75C31.44,-876.63 41.86,-1047.87 72,-1093.25 86.35,-1114.86 111.83,-1128.03 135.09,-1135.95"/>
<polygon fill="black" stroke="black" points="133.89,-1139.24 144.47,-1138.87 135.97,-1132.55 133.89,-1139.24"/>
<text xml:space="preserve" text-anchor="middle" x="85.12" y="-1118.78" font-family="Helvetica,sans-Serif" font-size="9.00">13</text>
</g>
<!-- מ:כו&quot;ק של שתי מילים בהערה אחת -->
<g id="node7" class="node">
<title>מ:כו&quot;ק של שתי מילים בהערה אחת</title>
<g id="a_node7"><a xlink:title="מ:כו&quot;ק של שתי מילים בהערה אחת&#10;מ:קו&quot;כ כתיב מילה חדה וקרי תרתין מילין">
<polygon fill="none" stroke="black" points="235.38,-1111.25 139.12,-1111.25 139.12,-1075.25 235.38,-1075.25 235.38,-1111.25"/>
<text xml:space="preserve" text-anchor="middle" x="187.25" y="-1088.22" font-family="SBL Hebrew,Helvetica" font-size="12.00">מ:כו&quot;ק … אחת, …</text>
</a>
</g>
</g>
<!-- E&#45;&gt;מ:כו&quot;ק של שתי מילים בהערה אחת -->
<g id="edge17" class="edge">
<title>E&#45;&gt;מ:כו&quot;ק של שתי מילים בהערה אחת</title>
<path fill="none" stroke="black" d="M28.65,-819.49C30.88,-872.41 40.03,-1024.44 72,-1060.25 86.16,-1076.1 107.4,-1084.54 127.74,-1088.97"/>
<polygon fill="black" stroke="black" points="126.94,-1092.38 137.41,-1090.76 128.22,-1085.49 126.94,-1092.38"/>
<text xml:space="preserve" text-anchor="middle" x="85.12" y="-1080.77" font-family="Helvetica,sans-Serif" font-size="9.00">9</text>
</g>
<!-- E&#45;&gt;מ:קישור בהערה -->
<g id="edge21" class="edge">
<title>E&#45;&gt;מ:קישור בהערה</title>
<path fill="none" stroke="black" d="M28.44,-782.8C30.58,-699.64 41.12,-362.23 72,-327.75 85.21,-313 105.01,-306.08 124.42,-303.18"/>
<polygon fill="black" stroke="black" points="124.71,-306.67 134.25,-302.07 123.93,-299.71 124.71,-306.67"/>
<text xml:space="preserve" text-anchor="middle" x="85.12" y="-329.7" font-family="Helvetica,sans-Serif" font-size="9.00">5058</text>
</g>
<!-- שני טעמים באות אחת קמץ&#45;תחתון&#45;פתח&#45;עליון -->
<g id="node10" class="node">
<title>שני טעמים באות אחת קמץ&#45;תחתון&#45;פתח&#45;עליון</title>
<g id="a_node10"><a xlink:title="שני טעמים באות אחת קמץ&#45;תחתון&#45;פתח&#45;עליון">
<polygon fill="none" stroke="black" points="258.25,-1010.25 116.25,-1010.25 116.25,-974.25 258.25,-974.25 258.25,-1010.25"/>
<text xml:space="preserve" text-anchor="middle" x="187.25" y="-987.23" font-family="SBL Hebrew,Helvetica" font-size="12.00">שני … קמץ&#45;תחתון&#45;פתח&#45;עליון</text>
</a>
</g>
</g>
<!-- E&#45;&gt;שני טעמים באות אחת קמץ&#45;תחתון&#45;פתח&#45;עליון -->
<g id="edge27" class="edge">
<title>E&#45;&gt;שני טעמים באות אחת קמץ&#45;תחתון&#45;פתח&#45;עליון</title>
<path fill="none" stroke="black" d="M30.07,-819.64C34,-847.41 44.75,-900.61 72,-936.25 82.62,-950.14 97.6,-960.79 113.22,-968.89"/>
<polygon fill="black" stroke="black" points="111.65,-972.01 122.18,-973.19 114.68,-965.7 111.65,-972.01"/>
<text xml:space="preserve" text-anchor="middle" x="85.12" y="-961.27" font-family="Helvetica,sans-Serif" font-size="9.00">4</text>
</g>
<!-- E&#45;&gt;מ:הערה -->
<g id="edge14" class="edge">
<title>E&#45;&gt;מ:הערה</title>
<path fill="none" stroke="black" d="M28.91,-783.08C32.66,-711.47 47.86,-451.39 72,-424.25 117.7,-372.87 335.19,-382.79 423.8,-389.15"/>
<polygon fill="black" stroke="black" points="423.43,-392.63 433.66,-389.89 423.95,-385.65 423.43,-392.63"/>
<text xml:space="preserve" text-anchor="middle" x="187.25" y="-401.63" font-family="Helvetica,sans-Serif" font-size="9.00">27</text>
</g>
<!-- E&#45;&gt;מודגש -->
<g id="edge23" class="edge">
<title>E&#45;&gt;מודגש</title>
<path fill="none" stroke="black" d="M28.49,-782.86C30.91,-696.73 42.74,-335.81 72,-295.75 89.93,-271.2 123.12,-259.57 149.12,-254.09"/>
<polygon fill="black" stroke="black" points="149.45,-257.59 158.63,-252.32 148.16,-250.71 149.45,-257.59"/>
<text xml:space="preserve" text-anchor="middle" x="85.12" y="-297.7" font-family="Helvetica,sans-Serif" font-size="9.00">19</text>
</g>
<!-- גלגל&#45;2 -->
<g id="node15" class="node">
<title>גלגל&#45;2</title>
<polygon fill="none" stroke="black" points="417.5,-588.25 363.5,-588.25 363.5,-552.25 417.5,-552.25 417.5,-588.25"/>
<text xml:space="preserve" text-anchor="middle" x="390.5" y="-565.23" font-family="SBL Hebrew,Helvetica" font-size="12.00">גלגל&#45;2</text>
</g>
<!-- E&#45;&gt;גלגל&#45;2 -->
<g id="edge8" class="edge">
<title>E&#45;&gt;גלגל&#45;2</title>
<path fill="none" stroke="black" d="M34.03,-782.77C45.3,-750.97 72.44,-685.67 116.25,-647.75 184.3,-588.85 294.21,-574.54 351.7,-571.18"/>
<polygon fill="black" stroke="black" points="351.82,-574.68 361.63,-570.69 351.47,-567.69 351.82,-574.68"/>
<text xml:space="preserve" text-anchor="middle" x="187.25" y="-649.7" font-family="Helvetica,sans-Serif" font-size="9.00">39</text>
</g>
<!-- כו&quot;ק -->
<g id="node16" class="node">
<title>כו&quot;ק</title>
<polygon fill="none" stroke="black" points="214.25,-703.25 160.25,-703.25 160.25,-667.25 214.25,-667.25 214.25,-703.25"/>
<text xml:space="preserve" text-anchor="middle" x="187.25" y="-680.23" font-family="SBL Hebrew,Helvetica" font-size="12.00">כו&quot;ק</text>
</g>
<!-- E&#45;&gt;כו&quot;ק -->
<g id="edge10" class="edge">
<title>E&#45;&gt;כו&quot;ק</title>
<path fill="none" stroke="black" d="M51.78,-782.8C69.44,-769.2 94.18,-750.34 116.25,-734.25 127.28,-726.21 139.43,-717.61 150.46,-709.9"/>
<polygon fill="black" stroke="black" points="152.37,-712.84 158.58,-704.26 148.37,-707.1 152.37,-712.84"/>
<text xml:space="preserve" text-anchor="middle" x="85.12" y="-768.83" font-family="Helvetica,sans-Serif" font-size="9.00">882</text>
</g>
<!-- מ:אות&#45;ג -->
<g id="node17" class="node">
<title>מ:אות&#45;ג</title>
<polygon fill="none" stroke="black" points="682.25,-537.25 628.25,-537.25 628.25,-501.25 682.25,-501.25 682.25,-537.25"/>
<text xml:space="preserve" text-anchor="middle" x="655.25" y="-514.23" font-family="SBL Hebrew,Helvetica" font-size="12.00">מ:אות&#45;ג</text>
</g>
<!-- E&#45;&gt;מ:אות&#45;ג -->
<g id="edge11" class="edge">
<title>E&#45;&gt;מ:אות&#45;ג</title>
<path fill="none" stroke="black" d="M28.19,-782.77C29.17,-721.58 35.17,-526.67 72,-478.25 118.52,-417.09 341.72,-450.97 417.5,-463.75 488.69,-475.75 570.41,-496.49 616.83,-508.93"/>
<polygon fill="black" stroke="black" points="615.82,-512.28 626.38,-511.51 617.64,-505.52 615.82,-512.28"/>
<text xml:space="preserve" text-anchor="middle" x="390.5" y="-465.7" font-family="Helvetica,sans-Serif" font-size="9.00">54</text>
</g>
<!-- מ:אות&#45;ק -->
<g id="node18" class="node">
<title>מ:אות&#45;ק</title>
<polygon fill="none" stroke="black" points="682.25,-651.25 628.25,-651.25 628.25,-615.25 682.25,-615.25 682.25,-651.25"/>
<text xml:space="preserve" text-anchor="middle" x="655.25" y="-628.23" font-family="SBL Hebrew,Helvetica" font-size="12.00">מ:אות&#45;ק</text>
</g>
<!-- E&#45;&gt;מ:אות&#45;ק -->
<g id="edge12" class="edge">
<title>E&#45;&gt;מ:אות&#45;ק</title>
<path fill="none" stroke="black" d="M44.89,-819.46C61.31,-835.74 87.88,-858.48 116.25,-868.25 215.22,-902.32 507.51,-984.61 585,-914.25 615.75,-886.34 590.9,-767.98 603,-728.25 610.29,-704.31 623.92,-679.5 635.29,-661.24"/>
<polygon fill="black" stroke="black" points="638.23,-663.14 640.67,-652.83 632.33,-659.36 638.23,-663.14"/>
<text xml:space="preserve" text-anchor="middle" x="390.5" y="-940.21" font-family="Helvetica,sans-Serif" font-size="9.00">26</text>
</g>
<!-- מ:דחי -->
<g id="node19" class="node">
<title>מ:דחי</title>
<polygon fill="none" stroke="black" points="573.25,-680.25 519.25,-680.25 519.25,-644.25 573.25,-644.25 573.25,-680.25"/>
<text xml:space="preserve" text-anchor="middle" x="546.25" y="-657.23" font-family="SBL Hebrew,Helvetica" font-size="12.00">מ:דחי</text>
</g>
<!-- E&#45;&gt;מ:דחי -->
<g id="edge13" class="edge">
<title>E&#45;&gt;מ:דחי</title>
<path fill="none" stroke="black" d="M28.96,-782.95C32.34,-739.17 47.62,-628.45 116.25,-580.25 226.64,-502.73 291.98,-493.84 417.5,-543.25 464.13,-561.6 503.81,-605.87 526.07,-634.94"/>
<polygon fill="black" stroke="black" points="523.25,-637.01 532.03,-642.94 528.86,-632.83 523.25,-637.01"/>
<text xml:space="preserve" text-anchor="middle" x="310.88" y="-521.49" font-family="Helvetica,sans-Serif" font-size="9.00">2277</text>
</g>
<!-- מ:ירושלם -->
<g id="node20" class="node">
<title>מ:ירושלם</title>
<polygon fill="none" stroke="black" points="684.25,-800.25 626.25,-800.25 626.25,-764.25 684.25,-764.25 684.25,-800.25"/>
<text xml:space="preserve" text-anchor="middle" x="655.25" y="-777.23" font-family="SBL Hebrew,Helvetica" font-size="12.00">מ:ירושלם</text>
</g>
<!-- E&#45;&gt;מ:ירושלם -->
<g id="edge15" class="edge">
<title>E&#45;&gt;מ:ירושלם</title>
<path fill="none" stroke="black" d="M28.88,-819.66C32.02,-880.71 44.07,-1075.75 72,-1131.25 97.97,-1182.86 128.48,-1193.25 186.25,-1193.25 186.25,-1193.25 186.25,-1193.25 547.25,-1193.25 626.1,-1193.25 647.88,-906.38 652.92,-811.97"/>
<polygon fill="black" stroke="black" points="656.4,-812.38 653.41,-802.22 649.41,-812.03 656.4,-812.38"/>
<text xml:space="preserve" text-anchor="middle" x="390.5" y="-1195.2" font-family="Helvetica,sans-Serif" font-size="9.00">634</text>
</g>
<!-- מ:לגרמיה&#45;2 -->
<g id="node21" class="node">
<title>מ:לגרמיה&#45;2</title>
<polygon fill="none" stroke="black" points="793.25,-800.25 725.5,-800.25 725.5,-764.25 793.25,-764.25 793.25,-800.25"/>
<text xml:space="preserve" text-anchor="middle" x="759.38" y="-777.23" font-family="SBL Hebrew,Helvetica" font-size="12.00">מ:לגרמיה&#45;2</text>
</g>
<!-- E&#45;&gt;מ:לגרמיה&#45;2 -->
<g id="edge18" class="edge">
<title>E&#45;&gt;מ:לגרמיה&#45;2</title>
<path fill="none" stroke="black" d="M28.5,-819.68C30.51,-884.69 39.61,-1102.68 72,-1163.25 99.97,-1215.56 126.93,-1232.25 186.25,-1232.25 186.25,-1232.25 186.25,-1232.25 656.25,-1232.25 742.67,-1232.25 755.96,-912.63 758,-812.12"/>
<polygon fill="black" stroke="black" points="761.5,-812.3 758.18,-802.24 754.5,-812.18 761.5,-812.3"/>
<text xml:space="preserve" text-anchor="middle" x="462.5" y="-1234.2" font-family="Helvetica,sans-Serif" font-size="9.00">1814</text>
</g>
<!-- מ:מקף אפור -->
<g id="node22" class="node">
<title>מ:מקף אפור</title>
<polygon fill="none" stroke="black" points="580.88,-905.25 511.62,-905.25 511.62,-869.25 580.88,-869.25 580.88,-905.25"/>
<text xml:space="preserve" text-anchor="middle" x="546.25" y="-882.23" font-family="SBL Hebrew,Helvetica" font-size="12.00">מ:מקף אפור</text>
</g>
<!-- E&#45;&gt;מ:מקף אפור -->
<g id="edge19" class="edge">
<title>E&#45;&gt;מ:מקף אפור</title>
<path fill="none" stroke="black" d="M54.26,-815.41C71.41,-824.01 94.57,-834.42 116.25,-840.25 252.52,-876.88 420.47,-885.05 499.74,-886.81"/>
<polygon fill="black" stroke="black" points="499.65,-890.31 509.71,-887.01 499.78,-883.31 499.65,-890.31"/>
<text xml:space="preserve" text-anchor="middle" x="310.88" y="-879.87" font-family="Helvetica,sans-Serif" font-size="9.00">114</text>
</g>
<!-- מ:פסק -->
<g id="node23" class="node">
<title>מ:פסק</title>
<polygon fill="none" stroke="black" points="417.5,-1105.25 363.5,-1105.25 363.5,-1069.25 417.5,-1069.25 417.5,-1105.25"/>
<text xml:space="preserve" text-anchor="middle" x="390.5" y="-1082.22" font-family="SBL Hebrew,Helvetica" font-size="12.00">מ:פסק</text>
</g>
<!-- E&#45;&gt;מ:פסק -->
<g id="edge20" class="edge">
<title>E&#45;&gt;מ:פסק</title>
<path fill="none" stroke="black" d="M28.49,-819.47C30.83,-864.04 43.92,-977.95 116.25,-1019.25 121.45,-1022.22 278.88,-1060.51 352.38,-1078.29"/>
<polygon fill="black" stroke="black" points="351.4,-1081.65 361.95,-1080.6 353.05,-1074.85 351.4,-1081.65"/>
<text xml:space="preserve" text-anchor="middle" x="187.25" y="-1056.65" font-family="Helvetica,sans-Serif" font-size="9.00">515</text>
</g>
<!-- מ:קמץ -->
<g id="node24" class="node">
<title>מ:קמץ</title>
<polygon fill="none" stroke="black" points="417.5,-850.25 363.5,-850.25 363.5,-814.25 417.5,-814.25 417.5,-850.25"/>
<text xml:space="preserve" text-anchor="middle" x="390.5" y="-827.23" font-family="SBL Hebrew,Helvetica" font-size="12.00">מ:קמץ</text>
</g>
<!-- E&#45;&gt;מ:קמץ -->
<g id="edge22" class="edge">
<title>E&#45;&gt;מ:קמץ</title>
<path fill="none" stroke="black" d="M54.31,-801.1C97.88,-801.6 187.27,-805.78 258.25,-829.75 267.02,-832.71 267.31,-837.83 276.25,-840.25 301.04,-846.95 329.93,-844.76 352.33,-840.99"/>
<polygon fill="black" stroke="black" points="352.72,-844.48 361.9,-839.19 351.43,-837.6 352.72,-844.48"/>
<text xml:space="preserve" text-anchor="middle" x="187.25" y="-831.7" font-family="Helvetica,sans-Serif" font-size="9.00">363</text>
</g>
<!-- פרשה&#45;מרכז -->
<g id="node25" class="node">
<title>פרשה&#45;מרכז</title>
<polygon fill="none" stroke="black" points="345.5,-501.25 276.25,-501.25 276.25,-465.25 345.5,-465.25 345.5,-501.25"/>
<text xml:space="preserve" text-anchor="middle" x="310.88" y="-478.23" font-family="SBL Hebrew,Helvetica" font-size="12.00">פרשה&#45;מרכז</text>
</g>
<!-- E&#45;&gt;פרשה&#45;מרכז -->
<g id="edge24" class="edge">
<title>E&#45;&gt;פרשה&#45;מרכז</title>
<path fill="none" stroke="black" d="M27.81,-783.09C27.62,-723.93 30.39,-538.32 72,-499.75 123.62,-451.9 211.6,-460.33 264.87,-471.39"/>
<polygon fill="black" stroke="black" points="264.01,-474.79 274.53,-473.52 265.52,-467.95 264.01,-474.79"/>
<text xml:space="preserve" text-anchor="middle" x="85.12" y="-501.7" font-family="Helvetica,sans-Serif" font-size="9.00">26</text>
</g>
<!-- קו&quot;כ -->
<g id="node26" class="node">
<title>קו&quot;כ</title>
<polygon fill="none" stroke="black" points="337.88,-366.25 283.88,-366.25 283.88,-330.25 337.88,-330.25 337.88,-366.25"/>
<text xml:space="preserve" text-anchor="middle" x="310.88" y="-343.23" font-family="SBL Hebrew,Helvetica" font-size="12.00">קו&quot;כ</text>
</g>
<!-- E&#45;&gt;קו&quot;כ -->
<g id="edge25" class="edge">
<title>E&#45;&gt;קו&quot;כ</title>
<path fill="none" stroke="black" d="M28.54,-782.89C31.01,-704.58 42.43,-401.21 72,-371.75 99.35,-344.5 212.64,-344.45 272.47,-346.45"/>
<polygon fill="black" stroke="black" points="272.04,-349.94 282.17,-346.82 272.31,-342.94 272.04,-349.94"/>
<text xml:space="preserve" text-anchor="middle" x="85.12" y="-373.7" font-family="Helvetica,sans-Serif" font-size="9.00">126</text>
</g>
<!-- קו&quot;כ&#45;אם -->
<g id="node27" class="node">
<title>קו&quot;כ&#45;אם</title>
<polygon fill="none" stroke="black" points="214.25,-779.25 160.25,-779.25 160.25,-743.25 214.25,-743.25 214.25,-779.25"/>
<text xml:space="preserve" text-anchor="middle" x="187.25" y="-756.23" font-family="SBL Hebrew,Helvetica" font-size="12.00">קו&quot;כ&#45;אם</text>
</g>
<!-- E&#45;&gt;קו&quot;כ&#45;אם -->
<g id="edge26" class="edge">
<title>E&#45;&gt;קו&quot;כ&#45;אם</title>
<path fill="none" stroke="black" d="M54.49,-794.55C80.35,-788.02 119.96,-778.01 148.99,-770.67"/>
<polygon fill="black" stroke="black" points="149.64,-774.12 158.47,-768.27 147.92,-767.33 149.64,-774.12"/>
<text xml:space="preserve" text-anchor="middle" x="85.12" y="-791.38" font-family="Helvetica,sans-Serif" font-size="9.00">138</text>
</g>
<!-- מ:כו&quot;ק כתיב מילה חדה וקרי תרתין מילין&#45;&gt;מ:לגרמיה&#45;2 -->
<g id="edge39" class="edge">
<title>מ:כו&quot;ק כתיב מילה חדה וקרי תרתין מילין&#45;&gt;מ:לגרמיה&#45;2</title>
<path fill="none" stroke="black" d="M228.72,-1147.25C269.36,-1147.25 333.77,-1147.25 389.5,-1147.25 389.5,-1147.25 389.5,-1147.25 656.25,-1147.25 725.7,-1147.25 750.05,-899.07 756.46,-812"/>
<polygon fill="black" stroke="black" points="759.95,-812.33 757.16,-802.11 752.96,-811.84 759.95,-812.33"/>
<text xml:space="preserve" text-anchor="middle" x="546.25" y="-1149.2" font-family="Helvetica,sans-Serif" font-size="9.00">1</text>
</g>
<!-- מ:כו&quot;ק כתיב מילה חדה וקרי תרתין מילין&#45;&gt;מ:פסק -->
<g id="edge40" class="edge">
<title>מ:כו&quot;ק כתיב מילה חדה וקרי תרתין מילין&#45;&gt;מ:פסק</title>
<path fill="none" stroke="black" d="M228.49,-1135.25C264.62,-1124.48 317.21,-1108.8 352.35,-1098.32"/>
<polygon fill="black" stroke="black" points="353.07,-1101.76 361.66,-1095.55 351.07,-1095.05 353.07,-1101.76"/>
<text xml:space="preserve" text-anchor="middle" x="310.88" y="-1122.79" font-family="Helvetica,sans-Serif" font-size="9.00">3</text>
</g>
<!-- מ:כו&quot;ק של שתי מילים בהערה אחת&#45;&gt;מ:פסק -->
<g id="edge41" class="edge">
<title>מ:כו&quot;ק של שתי מילים בהערה אחת&#45;&gt;מ:פסק</title>
<path fill="none" stroke="black" d="M235.73,-1090.49C248.85,-1089.82 263.1,-1089.17 276.25,-1088.75 301.57,-1087.94 330.09,-1087.56 352.18,-1087.39"/>
<polygon fill="black" stroke="black" points="351.91,-1090.89 361.89,-1087.33 351.87,-1083.89 351.91,-1090.89"/>
<text xml:space="preserve" text-anchor="middle" x="310.88" y="-1090.7" font-family="Helvetica,sans-Serif" font-size="9.00">2</text>
</g>
<!-- מ:כל קמץ קטן מרכא -->
<g id="node8" class="node">
<title>מ:כל קמץ קטן מרכא</title>
<g id="a_node8"><a xlink:title="מ:כל קמץ קטן מרכא">
<polygon fill="none" stroke="black" points="585,-851.25 507.5,-851.25 507.5,-815.25 585,-815.25 585,-851.25"/>
<text xml:space="preserve" text-anchor="middle" x="546.25" y="-828.23" font-family="SBL Hebrew,Helvetica" font-size="12.00">מ:כל … מרכא</text>
</a>
</g>
</g>
<!-- מ:טעם -->
<g id="node29" class="node">
<title>מ:טעם</title>
<polygon fill="none" stroke="black" points="417.5,-1010.25 363.5,-1010.25 363.5,-974.25 417.5,-974.25 417.5,-1010.25"/>
<text xml:space="preserve" text-anchor="middle" x="390.5" y="-987.23" font-family="SBL Hebrew,Helvetica" font-size="12.00">מ:טעם</text>
</g>
<!-- שני טעמים באות אחת קמץ&#45;תחתון&#45;פתח&#45;עליון&#45;&gt;מ:טעם -->
<g id="edge52" class="edge">
<title>שני טעמים באות אחת קמץ&#45;תחתון&#45;פתח&#45;עליון&#45;&gt;מ:טעם</title>
<path fill="none" stroke="black" d="M258.64,-992.25C289.99,-992.25 325.67,-992.25 351.84,-992.25"/>
<polygon fill="black" stroke="black" points="351.63,-995.75 361.63,-992.25 351.63,-988.75 351.63,-995.75"/>
<text xml:space="preserve" text-anchor="middle" x="310.88" y="-994.2" font-family="Helvetica,sans-Serif" font-size="9.00">4</text>
</g>
<!-- מ:הערה&#45;&gt;מ:אות&#45;ג -->
<g id="edge37" class="edge">
<title>מ:הערה&#45;&gt;מ:אות&#45;ג</title>
<path fill="none" stroke="black" d="M489.86,-389.11C516.06,-387.35 556.36,-388.44 585,-406.75 615.26,-426.1 634.42,-463.88 644.73,-490.3"/>
<polygon fill="black" stroke="black" points="641.35,-491.25 648.09,-499.42 647.91,-488.83 641.35,-491.25"/>
<text xml:space="preserve" text-anchor="middle" x="546.25" y="-408.7" font-family="Helvetica,sans-Serif" font-size="9.00">5</text>
</g>
<!-- מ:הערה&#45;&gt;מ:אות&#45;ק -->
<g id="edge38" class="edge">
<title>מ:הערה&#45;&gt;מ:אות&#45;ק</title>
<path fill="none" stroke="black" d="M477.84,-410.36C511.05,-452.32 593.4,-556.37 632.71,-606.03"/>
<polygon fill="black" stroke="black" points="629.86,-608.07 638.81,-613.74 635.35,-603.73 629.86,-608.07"/>
<text xml:space="preserve" text-anchor="middle" x="546.25" y="-545.38" font-family="Helvetica,sans-Serif" font-size="9.00">1</text>
</g>
<!-- מ:עלייה -->
<g id="node28" class="node">
<title>מ:עלייה</title>
<polygon fill="none" stroke="black" points="417.5,-62.25 363.5,-62.25 363.5,-26.25 417.5,-26.25 417.5,-62.25"/>
<text xml:space="preserve" text-anchor="middle" x="390.5" y="-39.23" font-family="SBL Hebrew,Helvetica" font-size="12.00">מ:עלייה</text>
</g>
<!-- מ:פסוק&#45;&gt;מ:עלייה -->
<g id="edge42" class="edge">
<title>מ:פסוק&#45;&gt;מ:עלייה</title>
<path fill="none" stroke="black" d="M214.56,-44.25C249.59,-44.25 311.76,-44.25 351.78,-44.25"/>
<polygon fill="black" stroke="black" points="351.67,-47.75 361.67,-44.25 351.67,-40.75 351.67,-47.75"/>
<text xml:space="preserve" text-anchor="middle" x="310.88" y="-46.2" font-family="Helvetica,sans-Serif" font-size="9.00">532</text>
</g>
<!-- מודגש&#45;&gt;קק -->
<g id="edge46" class="edge">
<title>מודגש&#45;&gt;קק</title>
<path fill="none" stroke="black" d="M214.56,-245.33C249.66,-240.1 312.03,-230.8 352.04,-224.83"/>
<polygon fill="black" stroke="black" points="352.31,-228.33 361.69,-223.4 351.28,-221.41 352.31,-228.33"/>
<text xml:space="preserve" text-anchor="middle" x="310.88" y="-238" font-family="Helvetica,sans-Serif" font-size="9.00">2</text>
</g>
<!-- כו&quot;ק&#45;&gt;גלגל&#45;2 -->
<g id="edge28" class="edge">
<title>כו&quot;ק&#45;&gt;גלגל&#45;2</title>
<path fill="none" stroke="black" d="M203.65,-667.04C219.95,-648.85 247.29,-621.27 276.25,-604.75 289.31,-597.3 324.45,-587.09 352.15,-579.72"/>
<polygon fill="black" stroke="black" points="352.85,-583.15 361.64,-577.23 351.08,-576.38 352.85,-583.15"/>
<text xml:space="preserve" text-anchor="middle" x="310.88" y="-606.7" font-family="Helvetica,sans-Serif" font-size="9.00">1</text>
</g>
<!-- כו&quot;ק&#45;&gt;מ:אות&#45;ק -->
<g id="edge29" class="edge">
<title>כו&quot;ק&#45;&gt;מ:אות&#45;ק</title>
<path fill="none" stroke="black" d="M214.43,-681.06C231.93,-678.27 255.47,-674.52 276.25,-671.25 379,-655.08 403.85,-643.98 507.5,-635.25 544.43,-632.14 586.77,-631.92 616.45,-632.31"/>
<polygon fill="black" stroke="black" points="616.38,-635.81 626.44,-632.47 616.5,-628.81 616.38,-635.81"/>
<text xml:space="preserve" text-anchor="middle" x="462.5" y="-645.06" font-family="Helvetica,sans-Serif" font-size="9.00">1</text>
</g>
<!-- כו&quot;ק&#45;&gt;מ:דחי -->
<g id="edge30" class="edge">
<title>כו&quot;ק&#45;&gt;מ:דחי</title>
<path fill="none" stroke="black" d="M214.5,-683.56C277.04,-679.53 435.01,-669.35 507.65,-664.67"/>
<polygon fill="black" stroke="black" points="507.7,-668.18 517.45,-664.04 507.25,-661.19 507.7,-668.18"/>
<text xml:space="preserve" text-anchor="middle" x="390.5" y="-675.7" font-family="Helvetica,sans-Serif" font-size="9.00">7</text>
</g>
<!-- כו&quot;ק&#45;&gt;מ:לגרמיה&#45;2 -->
<g id="edge31" class="edge">
<title>כו&quot;ק&#45;&gt;מ:לגרמיה&#45;2</title>
<path fill="none" stroke="black" d="M214.47,-692.42C248.57,-701.5 310.07,-717.07 363.5,-726.25 504.57,-750.5 544.46,-724.46 684.25,-755.25 694.26,-757.45 704.75,-760.68 714.59,-764.13"/>
<polygon fill="black" stroke="black" points="713.34,-767.41 723.93,-767.57 715.76,-760.84 713.34,-767.41"/>
<text xml:space="preserve" text-anchor="middle" x="546.25" y="-742.18" font-family="Helvetica,sans-Serif" font-size="9.00">9</text>
</g>
<!-- כו&quot;ק&#45;&gt;מ:קמץ -->
<g id="edge32" class="edge">
<title>כו&quot;ק&#45;&gt;מ:קמץ</title>
<path fill="none" stroke="black" d="M214.7,-702.7C228.03,-711.76 244.28,-723.21 258.25,-734.25 266.65,-740.89 267.69,-743.83 276.25,-750.25 305.32,-772.07 316.34,-772.05 345.5,-793.75 350.82,-797.71 356.29,-802.16 361.49,-806.58"/>
<polygon fill="black" stroke="black" points="358.93,-808.99 368.77,-812.93 363.53,-803.72 358.93,-808.99"/>
<text xml:space="preserve" text-anchor="middle" x="310.88" y="-795.7" font-family="Helvetica,sans-Serif" font-size="9.00">10</text>
</g>
<!-- מ:אות&#45;ג&#45;&gt;מ:לגרמיה&#45;2 -->
<g id="edge33" class="edge">
<title>מ:אות&#45;ג&#45;&gt;מ:לגרמיה&#45;2</title>
<path fill="none" stroke="black" d="M663.43,-537.74C680.94,-582.83 725.92,-698.67 747.07,-753.13"/>
<polygon fill="black" stroke="black" points="743.77,-754.31 750.65,-762.37 750.3,-751.78 743.77,-754.31"/>
<text xml:space="preserve" text-anchor="middle" x="704.88" y="-652.7" font-family="Helvetica,sans-Serif" font-size="9.00">1</text>
</g>
<!-- מ:דחי&#45;&gt;מ:אות&#45;ג -->
<g id="edge34" class="edge">
<title>מ:דחי&#45;&gt;מ:אות&#45;ג</title>
<path fill="none" stroke="black" d="M561.02,-643.85C579.48,-619.18 612.39,-575.19 633.77,-546.63"/>
<polygon fill="black" stroke="black" points="636.44,-548.9 639.63,-538.79 630.83,-544.7 636.44,-548.9"/>
<text xml:space="preserve" text-anchor="middle" x="605.62" y="-588.41" font-family="Helvetica,sans-Serif" font-size="9.00">4</text>
</g>
<!-- מ:דחי&#45;&gt;מ:אות&#45;ק -->
<g id="edge35" class="edge">
<title>מ:דחי&#45;&gt;מ:אות&#45;ק</title>
<path fill="none" stroke="black" d="M573.7,-655.08C586.79,-651.53 602.8,-647.19 617.1,-643.32"/>
<polygon fill="black" stroke="black" points="617.91,-646.73 626.64,-640.73 616.08,-639.97 617.91,-646.73"/>
<text xml:space="preserve" text-anchor="middle" x="605.62" y="-648.83" font-family="Helvetica,sans-Serif" font-size="9.00">2</text>
</g>
<!-- מ:דחי&#45;&gt;מ:ירושלם -->
<g id="edge36" class="edge">
<title>מ:דחי&#45;&gt;מ:ירושלם</title>
<path fill="none" stroke="black" d="M563.73,-680.74C581.54,-700.7 610.07,-732.7 630.33,-755.43"/>
<polygon fill="black" stroke="black" points="627.65,-757.67 636.92,-762.81 632.87,-753.02 627.65,-757.67"/>
<text xml:space="preserve" text-anchor="middle" x="605.62" y="-731.38" font-family="Helvetica,sans-Serif" font-size="9.00">2</text>
</g>
<!-- מ:קמץ&#45;&gt;מ:כל קמץ קטן מרכא -->
<g id="edge44" class="edge">
<title>מ:קמץ&#45;&gt;מ:כל קמץ קטן מרכא</title>
<path fill="none" stroke="black" d="M417.54,-829.83C423.44,-829.38 429.68,-828.98 435.5,-828.75 459.48,-827.8 465.52,-827.78 489.5,-828.75 491.56,-828.83 493.66,-828.93 495.78,-829.05"/>
<polygon fill="black" stroke="black" points="495.48,-832.53 505.68,-829.67 495.92,-825.55 495.48,-832.53"/>
<text xml:space="preserve" text-anchor="middle" x="462.5" y="-830.7" font-family="Helvetica,sans-Serif" font-size="9.00">2</text>
</g>
<!-- מ:קמץ&#45;&gt;מ:דחי -->
<g id="edge43" class="edge">
<title>מ:קמץ&#45;&gt;מ:דחי</title>
<path fill="none" stroke="black" d="M407.95,-814.06C435.16,-783.97 489.65,-723.72 521.19,-688.85"/>
<polygon fill="black" stroke="black" points="523.55,-691.46 527.67,-681.69 518.36,-686.76 523.55,-691.46"/>
<text xml:space="preserve" text-anchor="middle" x="462.5" y="-783.97" font-family="Helvetica,sans-Serif" font-size="9.00">14</text>
</g>
<!-- מ:קמץ&#45;&gt;מ:מקף אפור -->
<g id="edge45" class="edge">
<title>מ:קמץ&#45;&gt;מ:מקף אפור</title>
<path fill="none" stroke="black" d="M417.98,-839.61C437.85,-845.35 465.63,-853.82 489.5,-862.75 493.18,-864.12 496.96,-865.62 500.74,-867.16"/>
<polygon fill="black" stroke="black" points="499.33,-870.37 509.9,-871.02 502.04,-863.91 499.33,-870.37"/>
<text xml:space="preserve" text-anchor="middle" x="462.5" y="-864.7" font-family="Helvetica,sans-Serif" font-size="9.00">2</text>
</g>
<!-- פרשה&#45;מרכז&#45;&gt;מ:דחי -->
<g id="edge47" class="edge">
<title>פרשה&#45;מרכז&#45;&gt;מ:דחי</title>
<path fill="none" stroke="black" d="M345.68,-478.9C384.72,-475.82 448.8,-477 489.5,-510.25 526.49,-540.48 538.94,-597.57 543.13,-632.53"/>
<polygon fill="black" stroke="black" points="539.64,-632.79 544.14,-642.38 546.6,-632.08 539.64,-632.79"/>
<text xml:space="preserve" text-anchor="middle" x="390.5" y="-482.92" font-family="Helvetica,sans-Serif" font-size="9.00">10</text>
</g>
<!-- קו&quot;כ&#45;&gt;מ:לגרמיה&#45;2 -->
<g id="edge48" class="edge">
<title>קו&quot;כ&#45;&gt;מ:לגרמיה&#45;2</title>
<path fill="none" stroke="black" d="M338.36,-347.4C368.26,-346.51 418.37,-345.25 461.5,-345.25 461.5,-345.25 461.5,-345.25 656.25,-345.25 740.03,-345.25 755.12,-653.63 757.8,-752.29"/>
<polygon fill="black" stroke="black" points="754.3,-752.33 758.05,-762.24 761.3,-752.16 754.3,-752.33"/>
<text xml:space="preserve" text-anchor="middle" x="546.25" y="-347.2" font-family="Helvetica,sans-Serif" font-size="9.00">1</text>
</g>
<!-- קו&quot;כ&#45;אם&#45;&gt;מ:דחי -->
<g id="edge49" class="edge">
<title>קו&quot;כ&#45;אם&#45;&gt;מ:דחי</title>
<path fill="none" stroke="black" d="M214.5,-753.97C277.17,-736.59 435.67,-692.64 508.1,-672.55"/>
<polygon fill="black" stroke="black" points="508.8,-675.99 517.5,-669.94 506.93,-669.24 508.8,-675.99"/>
<text xml:space="preserve" text-anchor="middle" x="390.5" y="-713.7" font-family="Helvetica,sans-Serif" font-size="9.00">4</text>
</g>
<!-- קו&quot;כ&#45;אם&#45;&gt;מ:לגרמיה&#45;2 -->
<g id="edge50" class="edge">
<title>קו&quot;כ&#45;אם&#45;&gt;מ:לגרמיה&#45;2</title>
<path fill="none" stroke="black" d="M214.54,-761.46C278.58,-762.42 447.49,-767.66 585,-795.75 603.9,-799.61 607.2,-806.21 626.25,-809.25 651.71,-813.31 658.86,-813.73 684.25,-809.25 694.25,-807.49 704.67,-804.48 714.43,-801.1"/>
<polygon fill="black" stroke="black" points="715.51,-804.43 723.69,-797.69 713.1,-797.86 715.51,-804.43"/>
<text xml:space="preserve" text-anchor="middle" x="546.25" y="-797.7" font-family="Helvetica,sans-Serif" font-size="9.00">2</text>
</g>
<!-- קו&quot;כ&#45;אם&#45;&gt;מ:קמץ -->
<g id="edge51" class="edge">
<title>קו&quot;כ&#45;אם&#45;&gt;מ:קמץ</title>
<path fill="none" stroke="black" d="M214.46,-771.78C227.87,-777.52 244.28,-785.12 258.25,-793.25 266.78,-798.21 267.26,-802.18 276.25,-806.25 300.35,-817.17 329.47,-823.73 352.15,-827.52"/>
<polygon fill="black" stroke="black" points="351.45,-830.96 361.87,-829.03 352.53,-824.04 351.45,-830.96"/>
<text xml:space="preserve" text-anchor="middle" x="310.88" y="-828.22" font-family="Helvetica,sans-Serif" font-size="9.00">1</text>
</g>
</g>
</svg>
