<?xml version="1.0" encoding="UTF-8" standalone="no"?>
<!DOCTYPE svg PUBLIC "-//W3C//DTD SVG 1.1//EN"
 "http://www.w3.org/Graphics/SVG/1.1/DTD/svg11.dtd">
<!-- Generated by graphviz version 14.1.2 (20260124.0452)
 -->
<!-- Title: template_call_graph Pages: 1 -->
<svg width="873pt" height="926pt"
 viewBox="0.00 0.00 873.00 926.00" xmlns="http://www.w3.org/2000/svg" xmlns:xlink="http://www.w3.org/1999/xlink">
<g id="graph0" class="graph" transform="scale(1 1) rotate(0) translate(4 921.69)">
<title>template_call_graph</title>
<polygon fill="white" stroke="none" points="-4,4 -4,-921.69 868.5,-921.69 868.5,4 -4,4"/>
<text xml:space="preserve" text-anchor="middle" x="432.25" y="-5.75" font-family="Times New Roman,serif" font-size="10.00">מ:כפול, נוסח, ש have been discarded</text>
<!-- C -->
<g id="node1" class="node">
<title>C</title>
<polygon fill="none" stroke="black" stroke-width="2" points="54,-55.25 0,-55.25 0,-19.25 54,-19.25 54,-55.25"/>
<text xml:space="preserve" text-anchor="middle" x="27" y="-32.23" font-family="SBL Hebrew,Helvetica" font-size="12.00">C</text>
</g>
<!-- מ:פסוק -->
<g id="node10" class="node">
<title>מ:פסוק</title>
<polygon fill="none" stroke="black" points="189.12,-55.25 135.12,-55.25 135.12,-19.25 189.12,-19.25 189.12,-55.25"/>
<text xml:space="preserve" text-anchor="middle" x="162.12" y="-32.23" font-family="SBL Hebrew,Helvetica" font-size="12.00">מ:פסוק</text>
</g>
<!-- C&#45;&gt;מ:פסוק -->
<g id="edge1" class="edge">
<title>C&#45;&gt;מ:פסוק</title>
<path fill="none" stroke="black" d="M54.3,-37.25C74.08,-37.25 101.47,-37.25 123.56,-37.25"/>
<polygon fill="black" stroke="black" points="123.36,-40.75 133.36,-37.25 123.36,-33.75 123.36,-40.75"/>
<text xml:space="preserve" text-anchor="middle" x="82.5" y="-39.2" font-family="Helvetica,sans-Serif" font-size="9.00">895</text>
</g>
<!-- D -->
<g id="node2" class="node">
<title>D</title>
<polygon fill="none" stroke="black" stroke-width="2" points="54,-876.25 0,-876.25 0,-840.25 54,-840.25 54,-876.25"/>
<text xml:space="preserve" text-anchor="middle" x="27" y="-853.23" font-family="SBL Hebrew,Helvetica" font-size="12.00">D</text>
</g>
<!-- מ:אין פרשה בתחילת פרק -->
<g id="node6" class="node">
<title>מ:אין פרשה בתחילת פרק</title>
<g id="a_node6"><a xlink:title="מ:אין פרשה בתחילת פרק&#10;מ:אין פרשה בתחילת פרק בספרי אמ&quot;ת&#10;מ:אין רווח של פרשה בתחילת פרשת השבוע&#10;מ:ספר חדש&#10;מ:רווח בתרי עשר בפסוק הראשון&#10;מ:רווח לספר בתהלים בפסוק הראשון&#10;ר4">
<polygon fill="none" stroke="black" points="205.75,-888.25 118.5,-888.25 118.5,-852.25 205.75,-852.25 205.75,-888.25"/>
<text xml:space="preserve" text-anchor="middle" x="162.12" y="-865.23" font-family="SBL Hebrew,Helvetica" font-size="12.00">מ:אין … פרק, …</text>
</a>
</g>
</g>
<!-- D&#45;&gt;מ:אין פרשה בתחילת פרק -->
<g id="edge2" class="edge">
<title>D&#45;&gt;מ:אין פרשה בתחילת פרק</title>
<path fill="none" stroke="black" d="M54.3,-860.62C69.29,-861.97 88.64,-863.72 106.75,-865.35"/>
<polygon fill="black" stroke="black" points="106.33,-868.82 116.6,-866.24 106.96,-861.85 106.33,-868.82"/>
<text xml:space="preserve" text-anchor="middle" x="82.5" y="-865.84" font-family="Helvetica,sans-Serif" font-size="9.00">4483</text>
</g>
<!-- מ:קישור בהערה -->
<g id="node9" class="node">
<title>מ:קישור בהערה</title>
<g id="a_node9"><a xlink:title="מ:קישור בהערה&#10;מ:ששש&#10;סס&#10;ססס&#10;פפפ&#10;ר1">
<polygon fill="none" stroke="black" points="213.25,-829.25 111,-829.25 111,-793.25 213.25,-793.25 213.25,-829.25"/>
<text xml:space="preserve" text-anchor="middle" x="162.12" y="-806.23" font-family="SBL Hebrew,Helvetica" font-size="12.00">מ:קישור בהערה, …</text>
</a>
</g>
</g>
<!-- D&#45;&gt;מ:קישור בהערה -->
<g id="edge4" class="edge">
<title>D&#45;&gt;מ:קישור בהערה</title>
<path fill="none" stroke="black" d="M54.3,-848.96C67.48,-844.31 84.03,-838.47 100.14,-832.78"/>
<polygon fill="black" stroke="black" points="100.93,-836.21 109.2,-829.58 98.6,-829.61 100.93,-836.21"/>
<text xml:space="preserve" text-anchor="middle" x="82.5" y="-843.66" font-family="Helvetica,sans-Serif" font-size="9.00">1943</text>
</g>
<!-- מ:הערה&#45;2 -->
<g id="node11" class="node">
<title>מ:הערה&#45;2</title>
<polygon fill="none" stroke="black" points="192.62,-716.25 131.62,-716.25 131.62,-680.25 192.62,-680.25 192.62,-716.25"/>
<text xml:space="preserve" text-anchor="middle" x="162.12" y="-693.23" font-family="SBL Hebrew,Helvetica" font-size="12.00">מ:הערה&#45;2</text>
</g>
<!-- D&#45;&gt;מ:הערה&#45;2 -->
<g id="edge3" class="edge">
<title>D&#45;&gt;מ:הערה&#45;2</title>
<path fill="none" stroke="black" d="M36.11,-839.96C44.18,-822.55 57.43,-795.95 72,-774.75 86.9,-753.08 91.05,-747.39 111,-730.25 114.38,-727.34 118.05,-724.51 121.81,-721.8"/>
<polygon fill="black" stroke="black" points="123.71,-724.75 130,-716.22 119.76,-718.96 123.71,-724.75"/>
<text xml:space="preserve" text-anchor="middle" x="82.5" y="-776.7" font-family="Helvetica,sans-Serif" font-size="9.00">4</text>
</g>
<!-- פפ -->
<g id="node12" class="node">
<title>פפ</title>
<polygon fill="none" stroke="black" points="357.25,-770.25 303.25,-770.25 303.25,-734.25 357.25,-734.25 357.25,-770.25"/>
<text xml:space="preserve" text-anchor="middle" x="330.25" y="-747.23" font-family="SBL Hebrew,Helvetica" font-size="12.00">פפ</text>
</g>
<!-- D&#45;&gt;פפ -->
<g id="edge5" class="edge">
<title>D&#45;&gt;פפ</title>
<path fill="none" stroke="black" d="M54.43,-873.96C91.56,-893.84 160.52,-922.59 213.25,-897.25 263.41,-873.14 298.67,-815.61 316.32,-780.69"/>
<polygon fill="black" stroke="black" points="319.32,-782.53 320.56,-772 313.03,-779.45 319.32,-782.53"/>
<text xml:space="preserve" text-anchor="middle" x="162.12" y="-909.14" font-family="Helvetica,sans-Serif" font-size="9.00">1541</text>
</g>
<!-- E -->
<g id="node3" class="node">
<title>E</title>
<polygon fill="none" stroke="black" stroke-width="2" points="54,-443.25 0,-443.25 0,-407.25 54,-407.25 54,-443.25"/>
<text xml:space="preserve" text-anchor="middle" x="27" y="-420.23" font-family="SBL Hebrew,Helvetica" font-size="12.00">E</text>
</g>
<!-- כתיב ולא קרי -->
<g id="node4" class="node">
<title>כתיב ולא קרי</title>
<g id="a_node4"><a xlink:title="כתיב ולא קרי&#10;מ:כו&quot;ק בין שני מקפים&#10;מ:כו&quot;ק כתיב מילה חדה וקרי תרתין מילין בין שני מקפים&#10;מ:כו&quot;ק כתיב תרתין מילין וקרי מילה חדה&#10;מ:כו&quot;ק קרי שונה מהכתיב בשתי מילים&#10;מ:כו&quot;ק של שלוש מילים בהערה אחת&#10;מ:נו&quot;ן הפוכה&#10;מ:צינור&#10;מ:קו&quot;כ קרי שונה מהכתיב בשתי מילים&#10;מ:קישור פנימי בהערה&#10;מודגש&#10;קרי ולא כתיב&#10;ר0&#10;ר2&#10;ר3">
<polygon fill="none" stroke="black" points="203.5,-620.25 120.75,-620.25 120.75,-584.25 203.5,-584.25 203.5,-620.25"/>
<text xml:space="preserve" text-anchor="middle" x="162.12" y="-597.23" font-family="SBL Hebrew,Helvetica" font-size="12.00">כתיב … קרי, …</text>
</a>
</g>
</g>
<!-- E&#45;&gt;כתיב ולא קרי -->
<g id="edge7" class="edge">
<title>E&#45;&gt;כתיב ולא קרי</title>
<path fill="none" stroke="black" d="M31.65,-443.44C37.22,-467.91 49.63,-511.94 72,-543.25 81.99,-557.24 96.42,-568.82 110.77,-577.92"/>
<polygon fill="black" stroke="black" points="108.95,-580.91 119.33,-583.04 112.54,-574.91 108.95,-580.91"/>
<text xml:space="preserve" text-anchor="middle" x="82.5" y="-566.18" font-family="Helvetica,sans-Serif" font-size="9.00">1393</text>
</g>
<!-- מ:כו&quot;ק כתיב מילה חדה וקרי תרתין מילין -->
<g id="node7" class="node">
<title>מ:כו&quot;ק כתיב מילה חדה וקרי תרתין מילין</title>
<g id="a_node7"><a xlink:title="מ:כו&quot;ק כתיב מילה חדה וקרי תרתין מילין">
<polygon fill="none" stroke="black" points="203.12,-248.25 121.12,-248.25 121.12,-212.25 203.12,-212.25 203.12,-248.25"/>
<text xml:space="preserve" text-anchor="middle" x="162.12" y="-225.22" font-family="SBL Hebrew,Helvetica" font-size="12.00">מ:כו&quot;ק … מילין</text>
</a>
</g>
</g>
<!-- E&#45;&gt;מ:כו&quot;ק כתיב מילה חדה וקרי תרתין מילין -->
<g id="edge11" class="edge">
<title>E&#45;&gt;מ:כו&quot;ק כתיב מילה חדה וקרי תרתין מילין</title>
<path fill="none" stroke="black" d="M30.26,-406.81C35.55,-366.74 49.95,-273.54 72,-251.75 82.09,-241.77 95.97,-236.14 109.76,-233.03"/>
<polygon fill="black" stroke="black" points="110.03,-236.54 119.25,-231.31 108.79,-229.65 110.03,-236.54"/>
<text xml:space="preserve" text-anchor="middle" x="82.5" y="-253.7" font-family="Helvetica,sans-Serif" font-size="9.00">13</text>
</g>
<!-- מ:כו&quot;ק של שתי מילים בהערה אחת -->
<g id="node8" class="node">
<title>מ:כו&quot;ק של שתי מילים בהערה אחת</title>
<g id="a_node8"><a xlink:title="מ:כו&quot;ק של שתי מילים בהערה אחת&#10;מ:קו&quot;כ כתיב מילה חדה וקרי תרתין מילין">
<polygon fill="none" stroke="black" points="210.25,-194.25 114,-194.25 114,-158.25 210.25,-158.25 210.25,-194.25"/>
<text xml:space="preserve" text-anchor="middle" x="162.12" y="-171.22" font-family="SBL Hebrew,Helvetica" font-size="12.00">מ:כו&quot;ק … אחת, …</text>
</a>
</g>
</g>
<!-- E&#45;&gt;מ:כו&quot;ק של שתי מילים בהערה אחת -->
<g id="edge12" class="edge">
<title>E&#45;&gt;מ:כו&quot;ק של שתי מילים בהערה אחת</title>
<path fill="none" stroke="black" d="M27.15,-407.04C26.32,-369 29.42,-279.99 72,-223.75 80.19,-212.94 91.56,-204.32 103.45,-197.57"/>
<polygon fill="black" stroke="black" points="104.91,-200.75 112.16,-193.02 101.67,-194.54 104.91,-200.75"/>
<text xml:space="preserve" text-anchor="middle" x="82.5" y="-225.7" font-family="Helvetica,sans-Serif" font-size="9.00">9</text>
</g>
<!-- E&#45;&gt;מ:קישור בהערה -->
<g id="edge16" class="edge">
<title>E&#45;&gt;מ:קישור בהערה</title>
<path fill="none" stroke="black" d="M27.68,-443.69C26.9,-509.69 27.66,-733.07 72,-785.25 79.28,-793.82 89.21,-799.65 99.8,-803.59"/>
<polygon fill="black" stroke="black" points="98.51,-806.86 109.1,-806.49 100.6,-800.17 98.51,-806.86"/>
<text xml:space="preserve" text-anchor="middle" x="82.5" y="-801.98" font-family="Helvetica,sans-Serif" font-size="9.00">5047</text>
</g>
<!-- E&#45;&gt;מ:הערה&#45;2 -->
<g id="edge10" class="edge">
<title>E&#45;&gt;מ:הערה&#45;2</title>
<path fill="none" stroke="black" d="M29.02,-443.57C32.17,-493.84 43.32,-632.43 72,-666.25 84.04,-680.44 102.86,-688.34 120.11,-692.74"/>
<polygon fill="black" stroke="black" points="119.13,-696.11 129.65,-694.83 120.63,-689.27 119.13,-696.11"/>
<text xml:space="preserve" text-anchor="middle" x="82.5" y="-683.85" font-family="Helvetica,sans-Serif" font-size="9.00">27</text>
</g>
<!-- E&#45;&gt;פפ -->
<g id="edge18" class="edge">
<title>E&#45;&gt;פפ</title>
<path fill="none" stroke="black" d="M29.18,-443.44C32.93,-497.04 45.88,-653.28 72,-696.25 116.07,-768.75 231.48,-765.55 291.61,-758.32"/>
<polygon fill="black" stroke="black" points="291.9,-761.81 301.36,-757.04 290.99,-754.87 291.9,-761.81"/>
<text xml:space="preserve" text-anchor="middle" x="162.12" y="-763.22" font-family="Helvetica,sans-Serif" font-size="9.00">11</text>
</g>
<!-- כו&quot;ק -->
<g id="node13" class="node">
<title>כו&quot;ק</title>
<polygon fill="none" stroke="black" points="189.12,-566.25 135.12,-566.25 135.12,-530.25 189.12,-530.25 189.12,-566.25"/>
<text xml:space="preserve" text-anchor="middle" x="162.12" y="-543.23" font-family="SBL Hebrew,Helvetica" font-size="12.00">כו&quot;ק</text>
</g>
<!-- E&#45;&gt;כו&quot;ק -->
<g id="edge6" class="edge">
<title>E&#45;&gt;כו&quot;ק</title>
<path fill="none" stroke="black" d="M32.55,-443.62C38.44,-463.79 50.59,-495.88 72,-515.25 86.45,-528.32 106.54,-536.36 123.99,-541.22"/>
<polygon fill="black" stroke="black" points="122.97,-544.57 133.52,-543.61 124.68,-537.78 122.97,-544.57"/>
<text xml:space="preserve" text-anchor="middle" x="82.5" y="-530.31" font-family="Helvetica,sans-Serif" font-size="9.00">882</text>
</g>
<!-- מ:אות&#45;מיוחדת&#45;במילה -->
<g id="node14" class="node">
<title>מ:אות&#45;מיוחדת&#45;במילה</title>
<polygon fill="none" stroke="black" points="624,-545.25 514.25,-545.25 514.25,-509.25 624,-509.25 624,-545.25"/>
<text xml:space="preserve" text-anchor="middle" x="569.12" y="-522.23" font-family="SBL Hebrew,Helvetica" font-size="12.00">מ:אות&#45;מיוחדת&#45;במילה</text>
</g>
<!-- E&#45;&gt;מ:אות&#45;מיוחדת&#45;במילה -->
<g id="edge8" class="edge">
<title>E&#45;&gt;מ:אות&#45;מיוחדת&#45;במילה</title>
<path fill="none" stroke="black" d="M42.99,-407C58.16,-389.99 83.28,-365.61 111,-354.25 212.43,-312.69 250.43,-316.18 357.25,-340.75 424.18,-356.14 445.52,-361.95 496.25,-408.25 524.02,-433.59 544.6,-472.14 556.47,-498.45"/>
<polygon fill="black" stroke="black" points="553.21,-499.74 560.41,-507.52 559.63,-496.95 553.21,-499.74"/>
<text xml:space="preserve" text-anchor="middle" x="330.25" y="-342.7" font-family="Helvetica,sans-Serif" font-size="9.00">79</text>
</g>
<!-- מ:דחי -->
<g id="node15" class="node">
<title>מ:דחי</title>
<polygon fill="none" stroke="black" points="465.38,-545.25 411.38,-545.25 411.38,-509.25 465.38,-509.25 465.38,-545.25"/>
<text xml:space="preserve" text-anchor="middle" x="438.38" y="-522.23" font-family="SBL Hebrew,Helvetica" font-size="12.00">מ:דחי</text>
</g>
<!-- E&#45;&gt;מ:דחי -->
<g id="edge9" class="edge">
<title>E&#45;&gt;מ:דחי</title>
<path fill="none" stroke="black" d="M54.29,-411.46C117.77,-380.26 281.84,-312.46 385.75,-385.25 421.91,-410.58 432.84,-463.99 436.08,-497.61"/>
<polygon fill="black" stroke="black" points="432.59,-497.8 436.85,-507.5 439.57,-497.26 432.59,-497.8"/>
<text xml:space="preserve" text-anchor="middle" x="258.25" y="-357.06" font-family="Helvetica,sans-Serif" font-size="9.00">2287</text>
</g>
<!-- מ:לגרמיה&#45;2 -->
<g id="node16" class="node">
<title>מ:לגרמיה&#45;2</title>
<polygon fill="none" stroke="black" points="864.5,-448.25 796.75,-448.25 796.75,-412.25 864.5,-412.25 864.5,-448.25"/>
<text xml:space="preserve" text-anchor="middle" x="830.62" y="-425.23" font-family="SBL Hebrew,Helvetica" font-size="12.00">מ:לגרמיה&#45;2</text>
</g>
<!-- E&#45;&gt;מ:לגרמיה&#45;2 -->
<g id="edge13" class="edge">
<title>E&#45;&gt;מ:לגרמיה&#45;2</title>
<path fill="none" stroke="black" d="M28.25,-443.44C30,-486.74 41.41,-594.86 111,-629.25 146.42,-646.75 634.48,-688.31 755.5,-604.25 803.38,-570.99 820.5,-500.17 826.5,-459.88"/>
<polygon fill="black" stroke="black" points="829.94,-460.55 827.8,-450.18 823,-459.62 829.94,-460.55"/>
<text xml:space="preserve" text-anchor="middle" x="438.38" y="-657.03" font-family="Helvetica,sans-Serif" font-size="9.00">1811</text>
</g>
<!-- מ:מקף אפור -->
<g id="node17" class="node">
<title>מ:מקף אפור</title>
<polygon fill="none" stroke="black" points="473,-293.25 403.75,-293.25 403.75,-257.25 473,-257.25 473,-293.25"/>
<text xml:space="preserve" text-anchor="middle" x="438.38" y="-270.23" font-family="SBL Hebrew,Helvetica" font-size="12.00">מ:מקף אפור</text>
</g>
<!-- E&#45;&gt;מ:מקף אפור -->
<g id="edge14" class="edge">
<title>E&#45;&gt;מ:מקף אפור</title>
<path fill="none" stroke="black" d="M28.58,-406.93C30.54,-379.05 38.73,-326.56 72,-301.25 121.11,-263.88 305.76,-268.23 392.21,-272.52"/>
<polygon fill="black" stroke="black" points="391.8,-276 401.97,-273.03 392.17,-269.01 391.8,-276"/>
<text xml:space="preserve" text-anchor="middle" x="258.25" y="-272.61" font-family="Helvetica,sans-Serif" font-size="9.00">114</text>
</g>
<!-- מ:פסק -->
<g id="node18" class="node">
<title>מ:פסק</title>
<polygon fill="none" stroke="black" points="357.25,-187.25 303.25,-187.25 303.25,-151.25 357.25,-151.25 357.25,-187.25"/>
<text xml:space="preserve" text-anchor="middle" x="330.25" y="-164.22" font-family="SBL Hebrew,Helvetica" font-size="12.00">מ:פסק</text>
</g>
<!-- E&#45;&gt;מ:פסק -->
<g id="edge15" class="edge">
<title>E&#45;&gt;מ:פסק</title>
<path fill="none" stroke="black" d="M29.34,-406.91C32.68,-367.85 43.26,-274.06 72,-201.25 84.02,-170.79 82.37,-154.63 111,-138.75 168.46,-106.88 247.04,-131.49 292.55,-151.15"/>
<polygon fill="black" stroke="black" points="290.89,-154.24 301.45,-155.13 293.75,-147.85 290.89,-154.24"/>
<text xml:space="preserve" text-anchor="middle" x="162.12" y="-140.7" font-family="Helvetica,sans-Serif" font-size="9.00">514</text>
</g>
<!-- מ:קמץ -->
<g id="node19" class="node">
<title>מ:קמץ</title>
<polygon fill="none" stroke="black" points="357.25,-494.25 303.25,-494.25 303.25,-458.25 357.25,-458.25 357.25,-494.25"/>
<text xml:space="preserve" text-anchor="middle" x="330.25" y="-471.23" font-family="SBL Hebrew,Helvetica" font-size="12.00">מ:קמץ</text>
</g>
<!-- E&#45;&gt;מ:קמץ -->
<g id="edge17" class="edge">
<title>E&#45;&gt;מ:קמץ</title>
<path fill="none" stroke="black" d="M54.15,-435.35C70.3,-441.19 91.57,-448.17 111,-452.25 173.53,-465.4 247.75,-471.62 291.54,-474.34"/>
<polygon fill="black" stroke="black" points="291.08,-477.82 301.27,-474.92 291.5,-470.84 291.08,-477.82"/>
<text xml:space="preserve" text-anchor="middle" x="162.12" y="-469.34" font-family="Helvetica,sans-Serif" font-size="9.00">363</text>
</g>
<!-- קו&quot;כ -->
<g id="node20" class="node">
<title>קו&quot;כ</title>
<polygon fill="none" stroke="black" points="285.25,-107.25 231.25,-107.25 231.25,-71.25 285.25,-71.25 285.25,-107.25"/>
<text xml:space="preserve" text-anchor="middle" x="258.25" y="-84.22" font-family="SBL Hebrew,Helvetica" font-size="12.00">קו&quot;כ</text>
</g>
<!-- E&#45;&gt;קו&quot;כ -->
<g id="edge19" class="edge">
<title>E&#45;&gt;קו&quot;כ</title>
<path fill="none" stroke="black" d="M27.66,-406.85C26.93,-345.04 28.09,-146.39 72,-104.75 111.06,-67.7 177.88,-72.36 219.69,-80.09"/>
<polygon fill="black" stroke="black" points="218.8,-83.48 229.29,-82.03 220.18,-76.62 218.8,-83.48"/>
<text xml:space="preserve" text-anchor="middle" x="82.5" y="-106.7" font-family="Helvetica,sans-Serif" font-size="9.00">126</text>
</g>
<!-- קו&quot;כ&#45;אם -->
<g id="node21" class="node">
<title>קו&quot;כ&#45;אם</title>
<polygon fill="none" stroke="black" points="189.12,-443.25 135.12,-443.25 135.12,-407.25 189.12,-407.25 189.12,-443.25"/>
<text xml:space="preserve" text-anchor="middle" x="162.12" y="-420.23" font-family="SBL Hebrew,Helvetica" font-size="12.00">קו&quot;כ&#45;אם</text>
</g>
<!-- E&#45;&gt;קו&quot;כ&#45;אם -->
<g id="edge20" class="edge">
<title>E&#45;&gt;קו&quot;כ&#45;אם</title>
<path fill="none" stroke="black" d="M54.3,-425.25C74.08,-425.25 101.47,-425.25 123.56,-425.25"/>
<polygon fill="black" stroke="black" points="123.36,-428.75 133.36,-425.25 123.36,-421.75 123.36,-428.75"/>
<text xml:space="preserve" text-anchor="middle" x="82.5" y="-427.2" font-family="Helvetica,sans-Serif" font-size="9.00">138</text>
</g>
<!-- מ:אות תלויה -->
<g id="node5" class="node">
<title>מ:אות תלויה</title>
<g id="a_node5"><a xlink:title="מ:אות תלויה&#10;מ:אות&#45;ק">
<polygon fill="none" stroke="black" points="755.5,-541.25 670.5,-541.25 670.5,-505.25 755.5,-505.25 755.5,-541.25"/>
<text xml:space="preserve" text-anchor="middle" x="713" y="-518.23" font-family="SBL Hebrew,Helvetica" font-size="12.00">מ:אות תלויה, …</text>
</a>
</g>
</g>
<!-- מ:כו&quot;ק כתיב מילה חדה וקרי תרתין מילין&#45;&gt;מ:לגרמיה&#45;2 -->
<g id="edge32" class="edge">
<title>מ:כו&quot;ק כתיב מילה חדה וקרי תרתין מילין&#45;&gt;מ:לגרמיה&#45;2</title>
<path fill="none" stroke="black" d="M203.41,-229.87C237.05,-229.59 286.28,-229.25 329.25,-229.25 329.25,-229.25 329.25,-229.25 714,-229.25 792.2,-229.25 818.3,-344.97 826.34,-400.81"/>
<polygon fill="black" stroke="black" points="822.85,-401.1 827.63,-410.56 829.79,-400.18 822.85,-401.1"/>
<text xml:space="preserve" text-anchor="middle" x="493.62" y="-231.2" font-family="Helvetica,sans-Serif" font-size="9.00">1</text>
</g>
<!-- מ:כו&quot;ק כתיב מילה חדה וקרי תרתין מילין&#45;&gt;מ:פסק -->
<g id="edge33" class="edge">
<title>מ:כו&quot;ק כתיב מילה חדה וקרי תרתין מילין&#45;&gt;מ:פסק</title>
<path fill="none" stroke="black" d="M203.44,-215.08C212.58,-211.66 222.24,-208.07 231.25,-204.75 251.45,-197.31 274.05,-189.12 292.44,-182.48"/>
<polygon fill="black" stroke="black" points="293.37,-185.86 301.59,-179.18 291,-179.28 293.37,-185.86"/>
<text xml:space="preserve" text-anchor="middle" x="258.25" y="-206.7" font-family="Helvetica,sans-Serif" font-size="9.00">3</text>
</g>
<!-- מ:כו&quot;ק של שתי מילים בהערה אחת&#45;&gt;מ:פסק -->
<g id="edge34" class="edge">
<title>מ:כו&quot;ק של שתי מילים בהערה אחת&#45;&gt;מ:פסק</title>
<path fill="none" stroke="black" d="M210.74,-172.01C217.62,-171.51 224.61,-171.07 231.25,-170.75 251.19,-169.79 273.43,-169.4 291.68,-169.25"/>
<polygon fill="black" stroke="black" points="291.54,-172.75 301.52,-169.2 291.5,-165.75 291.54,-172.75"/>
<text xml:space="preserve" text-anchor="middle" x="258.25" y="-172.7" font-family="Helvetica,sans-Serif" font-size="9.00">2</text>
</g>
<!-- מ:עלייה -->
<g id="node23" class="node">
<title>מ:עלייה</title>
<polygon fill="none" stroke="black" points="357.25,-55.25 303.25,-55.25 303.25,-19.25 357.25,-19.25 357.25,-55.25"/>
<text xml:space="preserve" text-anchor="middle" x="330.25" y="-32.23" font-family="SBL Hebrew,Helvetica" font-size="12.00">מ:עלייה</text>
</g>
<!-- מ:פסוק&#45;&gt;מ:עלייה -->
<g id="edge35" class="edge">
<title>מ:פסוק&#45;&gt;מ:עלייה</title>
<path fill="none" stroke="black" d="M189.45,-37.25C216.95,-37.25 260.35,-37.25 291.5,-37.25"/>
<polygon fill="black" stroke="black" points="291.26,-40.75 301.26,-37.25 291.26,-33.75 291.26,-40.75"/>
<text xml:space="preserve" text-anchor="middle" x="258.25" y="-39.2" font-family="Helvetica,sans-Serif" font-size="9.00">532</text>
</g>
<!-- מ:הערה&#45;2&#45;&gt;פפ -->
<g id="edge31" class="edge">
<title>מ:הערה&#45;2&#45;&gt;פפ</title>
<path fill="none" stroke="black" d="M192.93,-703.11C218.09,-707.76 254.78,-715.84 285.25,-727.75 287.72,-728.72 290.23,-729.8 292.73,-730.96"/>
<polygon fill="black" stroke="black" points="290.96,-733.99 301.47,-735.35 294.1,-727.73 290.96,-733.99"/>
<text xml:space="preserve" text-anchor="middle" x="258.25" y="-729.7" font-family="Helvetica,sans-Serif" font-size="9.00">3</text>
</g>
<!-- מ:הערה&#45;2&#45;&gt;מ:אות&#45;מיוחדת&#45;במילה -->
<g id="edge30" class="edge">
<title>מ:הערה&#45;2&#45;&gt;מ:אות&#45;מיוחדת&#45;במילה</title>
<path fill="none" stroke="black" d="M192.92,-698.65C261.1,-699.07 426.22,-697.1 473,-669.25 516.3,-643.48 544.01,-589.42 557.76,-555.94"/>
<polygon fill="black" stroke="black" points="560.93,-557.44 561.34,-546.85 554.42,-554.88 560.93,-557.44"/>
<text xml:space="preserve" text-anchor="middle" x="380.5" y="-693.4" font-family="Helvetica,sans-Serif" font-size="9.00">9</text>
</g>
<!-- כו&quot;ק&#45;&gt;מ:אות&#45;מיוחדת&#45;במילה -->
<g id="edge21" class="edge">
<title>כו&quot;ק&#45;&gt;מ:אות&#45;מיוחדת&#45;במילה</title>
<path fill="none" stroke="black" d="M189.3,-557.35C201.83,-561.24 217.14,-565.32 231.25,-567.25 337.86,-581.84 367.42,-575.02 473,-554.25 482.73,-552.34 492.91,-549.91 502.85,-547.3"/>
<polygon fill="black" stroke="black" points="503.72,-550.69 512.46,-544.7 501.89,-543.94 503.72,-550.69"/>
<text xml:space="preserve" text-anchor="middle" x="380.5" y="-573.55" font-family="Helvetica,sans-Serif" font-size="9.00">1</text>
</g>
<!-- כו&quot;ק&#45;&gt;מ:דחי -->
<g id="edge22" class="edge">
<title>כו&quot;ק&#45;&gt;מ:דחי</title>
<path fill="none" stroke="black" d="M189.46,-550.57C231.41,-553.63 315.82,-557.26 385.75,-544.25 390.45,-543.38 395.3,-542.18 400.08,-540.83"/>
<polygon fill="black" stroke="black" points="400.98,-544.22 409.49,-537.91 398.9,-537.53 400.98,-544.22"/>
<text xml:space="preserve" text-anchor="middle" x="330.25" y="-554.69" font-family="Helvetica,sans-Serif" font-size="9.00">7</text>
</g>
<!-- כו&quot;ק&#45;&gt;מ:לגרמיה&#45;2 -->
<g id="edge23" class="edge">
<title>כו&quot;ק&#45;&gt;מ:לגרמיה&#45;2</title>
<path fill="none" stroke="black" d="M181.53,-529.81C216.71,-496.62 297.35,-430.25 379.5,-430.25 379.5,-430.25 379.5,-430.25 714,-430.25 737.46,-430.25 763.59,-430.25 785.07,-430.25"/>
<polygon fill="black" stroke="black" points="784.97,-433.75 794.97,-430.25 784.97,-426.75 784.97,-433.75"/>
<text xml:space="preserve" text-anchor="middle" x="493.62" y="-432.2" font-family="Helvetica,sans-Serif" font-size="9.00">9</text>
</g>
<!-- כו&quot;ק&#45;&gt;מ:קמץ -->
<g id="edge24" class="edge">
<title>כו&quot;ק&#45;&gt;מ:קמץ</title>
<path fill="none" stroke="black" d="M189.2,-544.77C214.85,-540.54 254.51,-531.83 285.25,-515.25 291.74,-511.75 298.06,-507.13 303.8,-502.29"/>
<polygon fill="black" stroke="black" points="306.08,-504.95 311.16,-495.65 301.39,-499.75 306.08,-504.95"/>
<text xml:space="preserve" text-anchor="middle" x="258.25" y="-537.02" font-family="Helvetica,sans-Serif" font-size="9.00">10</text>
</g>
<!-- מ:אות&#45;מיוחדת&#45;במילה&#45;&gt;מ:אות תלויה -->
<g id="edge26" class="edge">
<title>מ:אות&#45;מיוחדת&#45;במילה&#45;&gt;מ:אות תלויה</title>
<path fill="none" stroke="black" d="M624.17,-525.73C635.44,-525.41 647.32,-525.07 658.57,-524.76"/>
<polygon fill="black" stroke="black" points="658.61,-528.26 668.51,-524.48 658.41,-521.26 658.61,-528.26"/>
<text xml:space="preserve" text-anchor="middle" x="647.25" y="-527.08" font-family="Helvetica,sans-Serif" font-size="9.00">34</text>
</g>
<!-- מ:אות&#45;מיוחדת&#45;במילה&#45;&gt;מ:לגרמיה&#45;2 -->
<g id="edge28" class="edge">
<title>מ:אות&#45;מיוחדת&#45;במילה&#45;&gt;מ:לגרמיה&#45;2</title>
<path fill="none" stroke="black" d="M612.9,-508.94C630.63,-501.52 651.47,-493 670.5,-485.75 709.15,-471.04 753.62,-455.65 785.71,-444.82"/>
<polygon fill="black" stroke="black" points="786.72,-448.18 795.08,-441.67 784.49,-441.54 786.72,-448.18"/>
<text xml:space="preserve" text-anchor="middle" x="713" y="-487.7" font-family="Helvetica,sans-Serif" font-size="9.00">3</text>
</g>
<!-- מ:אות&#45;ג -->
<g id="node22" class="node">
<title>מ:אות&#45;ג</title>
<polygon fill="none" stroke="black" points="740,-595.25 686,-595.25 686,-559.25 740,-559.25 740,-595.25"/>
<text xml:space="preserve" text-anchor="middle" x="713" y="-572.23" font-family="SBL Hebrew,Helvetica" font-size="12.00">מ:אות&#45;ג</text>
</g>
<!-- מ:אות&#45;מיוחדת&#45;במילה&#45;&gt;מ:אות&#45;ג -->
<g id="edge27" class="edge">
<title>מ:אות&#45;מיוחדת&#45;במילה&#45;&gt;מ:אות&#45;ג</title>
<path fill="none" stroke="black" d="M622.55,-545.73C640,-551.87 659.05,-558.59 675.07,-564.23"/>
<polygon fill="black" stroke="black" points="673.59,-567.43 684.19,-567.45 675.92,-560.82 673.59,-567.43"/>
<text xml:space="preserve" text-anchor="middle" x="647.25" y="-557.19" font-family="Helvetica,sans-Serif" font-size="9.00">63</text>
</g>
<!-- מ:דחי&#45;&gt;מ:אות&#45;מיוחדת&#45;במילה -->
<g id="edge29" class="edge">
<title>מ:דחי&#45;&gt;מ:אות&#45;מיוחדת&#45;במילה</title>
<path fill="none" stroke="black" d="M465.74,-527.25C476.49,-527.25 489.45,-527.25 502.48,-527.25"/>
<polygon fill="black" stroke="black" points="502.38,-530.75 512.38,-527.25 502.38,-523.75 502.38,-530.75"/>
<text xml:space="preserve" text-anchor="middle" x="493.62" y="-529.2" font-family="Helvetica,sans-Serif" font-size="9.00">6</text>
</g>
<!-- מ:קמץ&#45;&gt;מ:דחי -->
<g id="edge36" class="edge">
<title>מ:קמץ&#45;&gt;מ:דחי</title>
<path fill="none" stroke="black" d="M357.48,-488.86C370.62,-495.17 386.74,-502.92 401.05,-509.79"/>
<polygon fill="black" stroke="black" points="399.18,-512.78 409.71,-513.96 402.21,-506.47 399.18,-512.78"/>
<text xml:space="preserve" text-anchor="middle" x="380.5" y="-503.7" font-family="Helvetica,sans-Serif" font-size="9.00">14</text>
</g>
<!-- מ:קמץ&#45;&gt;מ:מקף אפור -->
<g id="edge37" class="edge">
<title>מ:קמץ&#45;&gt;מ:מקף אפור</title>
<path fill="none" stroke="black" d="M340.86,-458.06C359.4,-422.94 400.23,-345.59 422.38,-303.64"/>
<polygon fill="black" stroke="black" points="425.43,-305.36 427.01,-294.88 419.24,-302.09 425.43,-305.36"/>
<text xml:space="preserve" text-anchor="middle" x="380.5" y="-389.73" font-family="Helvetica,sans-Serif" font-size="9.00">2</text>
</g>
<!-- קו&quot;כ&#45;&gt;מ:לגרמיה&#45;2 -->
<g id="edge38" class="edge">
<title>קו&quot;כ&#45;&gt;מ:לגרמיה&#45;2</title>
<path fill="none" stroke="black" d="M285.42,-94.07C309.71,-98.12 346.92,-103.25 379.5,-103.25 379.5,-103.25 379.5,-103.25 714,-103.25 776.86,-103.25 814.09,-320.75 825.69,-400.98"/>
<polygon fill="black" stroke="black" points="822.2,-401.29 827.06,-410.7 829.13,-400.31 822.2,-401.29"/>
<text xml:space="preserve" text-anchor="middle" x="493.62" y="-105.2" font-family="Helvetica,sans-Serif" font-size="9.00">1</text>
</g>
<!-- קו&quot;כ&#45;אם&#45;&gt;מ:דחי -->
<g id="edge39" class="edge">
<title>קו&quot;כ&#45;אם&#45;&gt;מ:דחי</title>
<path fill="none" stroke="black" d="M189.47,-435.96C197.32,-439.52 205.8,-443.73 213.25,-448.25 221.91,-453.51 222.82,-456.62 231.25,-462.25 261.86,-482.72 268.63,-490.69 303.25,-503.25 333.82,-514.34 343.24,-510.53 375.25,-516.25 383.24,-517.68 391.81,-519.2 399.95,-520.64"/>
<polygon fill="black" stroke="black" points="399.13,-524.05 409.58,-522.35 400.35,-517.16 399.13,-524.05"/>
<text xml:space="preserve" text-anchor="middle" x="330.25" y="-515.53" font-family="Helvetica,sans-Serif" font-size="9.00">4</text>
</g>
<!-- קו&quot;כ&#45;אם&#45;&gt;מ:לגרמיה&#45;2 -->
<g id="edge40" class="edge">
<title>קו&quot;כ&#45;אם&#45;&gt;מ:לגרמיה&#45;2</title>
<path fill="none" stroke="black" d="M189.36,-416.31C226.82,-403.42 297.71,-378.6 357.25,-355.25 393.26,-341.13 398.69,-321.25 437.38,-321.25 437.38,-321.25 437.38,-321.25 714,-321.25 761.05,-321.25 796.73,-369.62 815.3,-401.92"/>
<polygon fill="black" stroke="black" points="812.1,-403.37 819.99,-410.43 818.23,-399.99 812.1,-403.37"/>
<text xml:space="preserve" text-anchor="middle" x="493.62" y="-323.2" font-family="Helvetica,sans-Serif" font-size="9.00">2</text>
</g>
<!-- קו&quot;כ&#45;אם&#45;&gt;מ:קמץ -->
<g id="edge41" class="edge">
<title>קו&quot;כ&#45;אם&#45;&gt;מ:קמץ</title>
<path fill="none" stroke="black" d="M189.49,-428.68C214.67,-432.48 253.38,-439.72 285.25,-451.75 287.73,-452.69 290.25,-453.75 292.75,-454.89"/>
<polygon fill="black" stroke="black" points="290.99,-457.92 301.51,-459.24 294.11,-451.66 290.99,-457.92"/>
<text xml:space="preserve" text-anchor="middle" x="258.25" y="-453.7" font-family="Helvetica,sans-Serif" font-size="9.00">1</text>
</g>
<!-- מ:אות&#45;ג&#45;&gt;מ:לגרמיה&#45;2 -->
<g id="edge25" class="edge">
<title>מ:אות&#45;ג&#45;&gt;מ:לגרמיה&#45;2</title>
<path fill="none" stroke="black" d="M740.36,-562.61C745.71,-558.98 751.06,-554.8 755.5,-550.25 782,-523.12 803.57,-484.9 816.47,-458.93"/>
<polygon fill="black" stroke="black" points="819.59,-460.51 820.8,-449.98 813.29,-457.46 819.59,-460.51"/>
<text xml:space="preserve" text-anchor="middle" x="776.12" y="-528.78" font-family="Helvetica,sans-Serif" font-size="9.00">1</text>
</g>
</g>
</svg>
